<?xml version="1.0" encoding="UTF-8" standalone="no"?>
<!-- Created with Inkscape (http://www.inkscape.org/) -->

<svg
   xmlns:dc="http://purl.org/dc/elements/1.1/"
   xmlns:cc="http://creativecommons.org/ns#"
   xmlns:rdf="http://www.w3.org/1999/02/22-rdf-syntax-ns#"
   xmlns:svg="http://www.w3.org/2000/svg"
   xmlns="http://www.w3.org/2000/svg"
   xmlns:sodipodi="http://sodipodi.sourceforge.net/DTD/sodipodi-0.dtd"
   xmlns:inkscape="http://www.inkscape.org/namespaces/inkscape"
   id="svg6752"
   version="1.1"
   inkscape:version="0.48.2 r9819"
   width="400"
   height="400"
   sodipodi:docname="dumbells (icon).svg"
   inkscape:export-filename="/Volumes/walt/Dropbox/my website - current/acting/work images/dumbells (icon).png"
   inkscape:export-xdpi="3.5999999"
   inkscape:export-ydpi="3.5999999">
  <metadata
     id="metadata6758">
    <rdf:RDF>
      <cc:Work
         rdf:about="">
        <dc:format>image/svg+xml</dc:format>
        <dc:type
           rdf:resource="http://purl.org/dc/dcmitype/StillImage" />
        <dc:title></dc:title>
      </cc:Work>
    </rdf:RDF>
  </metadata>
  <defs
     id="defs6756" />
  <sodipodi:namedview
     pagecolor="#ffffff"
     bordercolor="#666666"
     borderopacity="1"
     objecttolerance="10"
     gridtolerance="10"
     guidetolerance="10"
     inkscape:pageopacity="0"
     inkscape:pageshadow="2"
     inkscape:window-width="1360"
     inkscape:window-height="888"
     id="namedview6754"
     showgrid="false"
     inkscape:zoom="1.6765604"
     inkscape:cx="202.38092"
     inkscape:cy="244.19189"
     inkscape:window-x="139"
     inkscape:window-y="19"
     inkscape:window-maximized="0"
     inkscape:current-layer="svg6752" />
  <path
     style="fill:#ffffff;stroke:#000000;stroke-width:8.63999938999999983;stroke-linecap:butt;stroke-linejoin:miter;stroke-miterlimit:4;stroke-opacity:1;stroke-dasharray:none;fill-opacity:1"
     d="M 15.18631,281.98026 C 5.6944397,265.33792 6.6472589,235.24209 11.906704,212.74407 17.662016,188.12491 27.001803,169.67688 42.8808,154.43991 c 14.19068,-13.61695 35.556852,-21.33435 53.202531,-25.50807 23.189859,0.23949 39.048529,20.5473 54.660139,35.71129 9.76479,9.48482 17.17002,19.40903 21.13527,32.43169 4.24634,13.94591 -0.68908,30.17332 1.45759,44.82133 -0.64586,17.07372 15.12232,17.21146 21.86407,30.60967 8.70921,10.353 4.66246,15.85371 0,21.13526 -5.18481,5.87326 -12.27209,6.55366 -23.32166,2.91522 -6.21204,7.87491 -13.36788,12.891 -21.86407,13.11843 -4.67124,0.12514 -7.72457,-6.28832 -12.38963,-6.55921 -5.72389,12.93884 -17.188,12.68741 -26.23687,10.20322 -13.765623,-0.78515 -4.52764,-20.15703 -13.11844,-19.67765 -4.185959,-3.14031 -11.175875,-2.15817 -16.398023,-1.82201 -9.752011,2.22607 -17.563536,15.90504 -29.51649,16.39804 -5.865783,0.24193 -12.761021,-2.41403 -16.033645,-7.28801 -3.523583,-5.24776 3.283735,-14.06481 -0.728802,-18.94885 -3.329027,-4.05209 -10.158245,-4.65117 -15.304852,-3.64401 -2.050894,0.40134 -3.22132,4.55601 -5.101608,3.64401 z"
     id="path6762"
     inkscape:connector-curvature="0"
     sodipodi:nodetypes="csscscccscsccccssssc" />
  <path
     style="fill:none;stroke:#000000;stroke-width:6.91200018;stroke-linecap:butt;stroke-linejoin:miter;stroke-miterlimit:4;stroke-opacity:1;stroke-dasharray:none"
     d="m 41.42318,223.3117 c 13.11844,8.38121 23.321656,30.97408 14.211643,47.00771"
     id="path7532"
     inkscape:connector-curvature="0"
     sodipodi:nodetypes="cc" />
  <path
     style="fill:#000000;fill-opacity:1;stroke:none"
     d="m 96.447735,234.97252 c 4.206855,-2.44297 10.309735,-2.64312 14.576035,-0.72879 6.40115,3.54224 8.42784,6.63218 6.55922,15.12264 -1.25754,4.7942 -4.5111,9.04734 -8.92784,11.75193 -3.85699,3.69836 -10.968307,3.58347 -15.031531,0.5466 -6.472092,-3.97406 -6.189684,-8.1645 -5.557104,-13.57393 1.573896,-7.54304 3.893892,-10.51261 8.38122,-13.11845 z"
     id="path7534"
     inkscape:connector-curvature="0"
     sodipodi:nodetypes="ccccccc" />
  <path
     style="fill:#000000;fill-opacity:1;stroke:none"
     d="m 148.55707,221.21638 c 1.16112,-4.95386 2.89584,-6.82623 6.0126,-8.56341 1.40214,-1.11701 3.67661,-2.11199 5.46604,-2.00421 2.89218,0.17418 5.4738,2.47806 7.28802,4.73722 1.29964,1.61838 2.8379,3.21083 2.733,5.2838 -0.18329,3.62138 -2.50416,8.86343 -5.37492,10.29434 -1.8526,1.67652 -4.51618,2.65672 -7.01471,2.6419 -4.13053,-0.0156 -5.77899,-0.8453 -7.47023,-2.9152 -2.02791,-2.48199 -2.44843,-6.37302 -1.6398,-9.47444 z"
     id="path7536"
     inkscape:connector-curvature="0"
     sodipodi:nodetypes="ccccccccc" />
  <path
     style="fill:#000000;fill-opacity:1;stroke:none"
     d="m 142.90885,255.74337 c 2.11343,1.11781 3.06256,4.50865 3.09742,6.92364 0.32154,1.36072 0.12254,2.71557 0.1822,4.19061 -3.85419,1.95135 -5.30456,4.66462 -8.38121,3.50736 0.13824,-6.11177 3.18487,-13.52276 5.10159,-14.62161 z"
     id="path7538"
     inkscape:connector-curvature="0"
     sodipodi:nodetypes="ccccc" />
  <path
     style="fill:#000000;fill-opacity:1;stroke:none"
     d="m 148.05603,256.51773 c 0.0552,3.55411 0.028,4.42092 0.6377,6.51367 0.6067,1.17024 1.3217,2.08389 1.73089,2.77857 1.72585,-0.0382 3.49989,-0.34099 5.83043,-0.27331 0.36684,-2.94466 -0.038,-2.90318 -0.91102,-3.3707 -2.52408,-2.28447 -4.03063,-5.20585 -7.288,-5.64823 z"
     id="path7540"
     inkscape:connector-curvature="0"
     sodipodi:nodetypes="cccccc" />
  <path
     sodipodi:nodetypes="csscscccscsccccssssc"
     inkscape:connector-curvature="0"
     id="path7542"
     d="m 224.32708,217.646 c -8.54269,-14.9781 -7.68515,-42.06435 -2.95165,-62.31258 5.17978,-22.15724 13.58559,-38.76046 27.87668,-52.47374 12.77161,-12.255247 32.00116,-19.200908 47.88228,-22.957259 20.87087,0.215552 35.14367,18.492563 49.19413,32.140169 8.78831,8.53634 15.45301,17.46811 19.02173,29.18851 3.82171,12.55132 -0.62015,27.15599 1.31184,40.3392 -0.58129,15.36635 13.61008,15.49031 19.67767,27.54871 7.83828,9.3177 4.1962,14.26834 0,19.02173 -4.66634,5.28594 -11.04488,5.8983 -20.98951,2.6237 -5.59082,7.08742 -12.03109,11.6019 -19.67765,11.80658 -4.20413,0.1126 -6.95212,-5.65948 -11.15068,-5.90329 -5.15149,11.64497 -15.4692,11.41867 -23.61318,9.1829 -12.38906,-0.70662 -4.07487,-18.14132 -11.80659,-17.70987 -3.76736,-2.82628 -10.05829,-1.94235 -14.75823,-1.63982 -8.7768,2.00347 -15.80717,14.31454 -26.56484,14.75824 -5.2792,0.21774 -11.48491,-2.17263 -14.43028,-6.55921 -3.17122,-4.72297 2.95537,-12.65832 -0.65592,-17.05397 -2.99612,-3.64688 -9.14241,-4.18605 -13.77436,-3.2796 -1.8458,0.36121 -2.89919,4.10041 -4.59144,3.2796 z"
     style="fill:#ffffff;stroke:#000000;stroke-width:7.77600001999999879;stroke-linecap:butt;stroke-linejoin:miter;stroke-miterlimit:4;stroke-opacity:1;stroke-dasharray:none;fill-opacity:1" />
  <path
     sodipodi:nodetypes="cc"
     inkscape:connector-curvature="0"
     id="path7544"
     d="m 247.94025,164.8443 c 11.8066,7.54309 20.98949,27.87667 12.79048,42.30695"
     style="fill:none;stroke:#000000;stroke-width:6.22079992;stroke-linecap:butt;stroke-linejoin:miter;stroke-miterlimit:4;stroke-opacity:1;stroke-dasharray:none" />
  <path
     sodipodi:nodetypes="ccccccc"
     inkscape:connector-curvature="0"
     id="path7546"
     d="m 297.46235,175.33903 c 3.78618,-2.19868 9.27877,-2.3788 13.11843,-0.65592 5.76104,3.18802 7.58507,5.96897 5.90329,13.61039 -1.13178,4.31478 -4.05998,8.14261 -8.03503,10.57674 -3.4713,3.32852 -9.87149,3.22513 -13.52839,0.49195 -5.82489,-3.57665 -5.57071,-7.34806 -5.0014,-12.21655 1.41651,-6.78874 3.50451,-9.46135 7.5431,-11.80661 z"
     style="fill:#000000;fill-opacity:1;stroke:none" />
  <path
     sodipodi:nodetypes="ccccccccc"
     inkscape:connector-curvature="0"
     id="path7548"
     d="m 344.36075,162.95851 c 1.04502,-4.45848 2.60626,-6.14362 5.41135,-7.70708 1.26192,-1.00529 3.30894,-1.90078 4.91943,-1.80378 2.60297,0.15676 4.92642,2.23025 6.55921,4.26349 1.16968,1.45655 2.55412,2.88975 2.4597,4.75543 -0.16494,3.25923 -2.25373,7.97708 -4.83741,9.2649 -1.66735,1.50887 -4.06457,2.39106 -6.31325,2.37771 -3.71747,-0.014 -5.2011,-0.76077 -6.7232,-2.62368 -1.82512,-2.23378 -2.2036,-5.73572 -1.47583,-8.52699 z"
     style="fill:#000000;fill-opacity:1;stroke:none" />
  <path
     sodipodi:nodetypes="ccccc"
     inkscape:connector-curvature="0"
     id="path7550"
     d="m 346.60901,190.51561 c 2.11343,1.11781 3.06254,4.50865 3.09739,6.92364 0.32155,1.3607 0.12255,2.71556 0.18221,4.19059 -3.85417,1.95137 -5.30454,4.66464 -8.38122,3.50737 0.13824,-6.11177 3.18488,-13.52275 5.10162,-14.6216 z"
     style="fill:#000000;fill-opacity:1;stroke:none" />
  <path
     sodipodi:nodetypes="cccccc"
     inkscape:connector-curvature="0"
     id="path7552"
     d="m 351.75616,191.28997 c 0.0552,3.55411 0.028,4.42092 0.6377,6.51367 0.60671,1.17024 1.32172,2.08387 1.73092,2.77856 1.72585,-0.0382 3.49988,-0.34099 5.83043,-0.27331 0.36682,-2.94465 -0.038,-2.90317 -0.91103,-3.37069 -2.52407,-2.28448 -4.03062,-5.20585 -7.28802,-5.64823 z"
     style="fill:#000000;fill-opacity:1;stroke:none" />
  <path
     style="fill:#ffffff;fill-opacity:1;stroke:#000000;stroke-width:6.04799986;stroke-linecap:butt;stroke-linejoin:miter;stroke-miterlimit:4;stroke-opacity:1;stroke-dasharray:none"
     d="m 174.97614,218.04891 99.11707,-32.2495 c 0,0 5.7058,-3.44831 4.0084,-12.02523 -0.27988,-2.7883 -1.77942,-5.86004 -4.19059,-7.28801 -2.56114,-1.51678 -8.92785,-0.1822 -8.92785,-0.1822 l -91.69642,27.28588 z"
     id="path7568"
     inkscape:connector-curvature="0"
     sodipodi:nodetypes="cccsccc" />
</svg>
