<?xml version="1.0" standalone="no"?>
<!DOCTYPE svg PUBLIC "-//W3C//DTD SVG 1.1//EN" "http://www.w3.org/Graphics/SVG/1.1/DTD/svg11.dtd" >
<svg xmlns="http://www.w3.org/2000/svg" xmlns:xlink="http://www.w3.org/1999/xlink" version="1.1">
<metadata>
Created by FontForge 20141024 at Mon Oct 12 16:21:11 2015
 By Jimmy Warting
</metadata>
<defs>
<font id="CgPhenixAmerican" horiz-adv-x="334" >
  <font-face 
    font-family="CgPhenixAmerican"
    font-weight="500"
    font-stretch="normal"
    units-per-em="1000"
    panose-1="2 0 6 6 3 0 0 2 0 4"
    ascent="800"
    descent="-200"
    x-height="531"
    cap-height="748"
    bbox="-101 -242 990 957"
    underline-thickness="50"
    underline-position="-75"
    unicode-range="U+0008-E00F"
  />
<missing-glyph horiz-adv-x="280" 
 />
    <glyph glyph-name=".notdef" horiz-adv-x="280" 
 />
    <glyph glyph-name="ring" horiz-adv-x="0" 
d="M117 733q-29 0 -50 -20t-21 -51q0 -29 21 -49.5t50 -20.5t49.5 20.5t20.5 49.5q0 31 -20.5 51t-49.5 20zM73 662q0 20 13.5 32t31.5 12q17 0 30.5 -12.5t13.5 -31.5q0 -17 -13 -31t-31 -14q-19 0 -32 13.5t-13 31.5z" />
    <glyph glyph-name="dotlessi" unicode="&#xd;" horiz-adv-x="160" 
d="M114 0v531h-66v-531h66z" />
    <glyph glyph-name="fraction" horiz-adv-x="130" 
d="M-4 -42l166 804h-37l-166 -804h37z" />
    <glyph glyph-name="fi" horiz-adv-x="356" 
d="M113 640q0 32 12 40t45 8l1 51q-11 4 -19.5 5.5t-21.5 1.5q-50 0 -66 -24t-16 -71v-125h-42v-54h42v-472h65v472h57v54h-57v114zM307 0v531h-64v-531h64zM243 674h64v68h-64v-68z" />
    <glyph glyph-name="fl" horiz-adv-x="356" 
d="M113 640q0 32 12 40t45 8l1 51q-11 4 -19.5 5.5t-21.5 1.5q-50 0 -66 -24t-16 -71v-125h-42v-54h42v-472h65v472h57v54h-57v114zM308 0v742h-65v-742h65z" />
    <glyph glyph-name="space" unicode=" " horiz-adv-x="185" 
 />
    <glyph glyph-name="exclam" unicode="!" horiz-adv-x="185" 
d="M70 201h44l14 547h-72zM56 0h72v89h-72v-89z" />
    <glyph glyph-name="quotedbl" unicode="&#x22;" horiz-adv-x="296" 
d="M246 739h-72v-221h29zM131 739h-71v-221h29z" />
    <glyph glyph-name="numbersign" unicode="#" horiz-adv-x="463" 
d="M131 328h-85l-8 -52h85l-40 -276h54l38 276h82l-36 -276h53l33 276h89l7 52h-88l15 129h88l8 52h-90l30 230h-54l-29 -230h-75l30 230h-52l-29 -230h-89l-8 -52h88zM279 457l-16 -129h-79l17 129h78z" />
    <glyph glyph-name="dollar" unicode="$" horiz-adv-x="315" 
d="M136 753q-42 -12 -68 -51.5t-26 -108.5q0 -30 4 -54.5t14.5 -49t28.5 -51.5t47 -62v-320q-9 6 -16 11.5t-11 14.5t-6 23.5t-2 37.5v67h-62v-69q0 -65 25 -97t72 -46v-63h43v63q46 18 73 56.5t27 114.5q0 82 -27.5 145.5t-72.5 112.5v266q8 -9 13 -17t7.5 -21.5t4 -37
t3.5 -63.5h58q0 40 -3.5 73.5t-13 59t-26.5 42.5t-43 24v30h-43v-30zM102 596q0 23 2 38t6 25.5t10.5 18t15.5 15.5v-212q-18 30 -26 55t-8 60zM179 59v250q20 -33 30 -64.5t10 -71.5q0 -48 -11.5 -75.5t-28.5 -38.5z" />
    <glyph glyph-name="percent" unicode="%" horiz-adv-x="500" 
d="M116 743q-37 0 -54.5 -24.5t-17.5 -67.5v-233q0 -62 15.5 -92.5t56.5 -30.5q42 0 57.5 31t15.5 92v233q0 44 -17.5 68t-55.5 24zM183 -11l176 754h-42l-177 -754h43zM383 445q-37 0 -55 -24t-18 -68v-232q0 -62 15.5 -92.5t57.5 -30.5t57.5 31t15.5 92v232
q0 45 -17.5 68.5t-55.5 23.5zM382 399q16 0 21.5 -11t5.5 -41v-247q0 -29 -4.5 -43.5t-19.5 -14.5q-17 0 -22.5 13.5t-5.5 44.5v247q0 29 5.5 40.5t19.5 11.5zM114 698q16 0 21 -11.5t5 -42.5v-247q0 -29 -4 -42.5t-18 -13.5q-18 0 -23 13t-5 43v247q0 29 5 41.5t19 12.5z
" />
    <glyph glyph-name="ampersand" unicode="&#x26;" horiz-adv-x="370" 
d="M290 624q0 58 -29 94t-77 36q-52 0 -81 -39t-29 -107q0 -30 4.5 -63t13.5 -64l23 -78q-25 -47 -41 -80t-25.5 -60t-13 -50.5t-3.5 -50.5q0 -80 37 -128.5t98 -48.5q35 0 59 14.5t44 39.5l18 -39h67l-50 96q6 18 10.5 34t7.5 34.5t4.5 41t1.5 52.5v84h-60l2 -72v-27
t-0.5 -21t-1.5 -21.5t-2 -27.5q-19 40 -31 67.5t-21 50.5t-17.5 46t-18.5 55q31 41 52.5 72.5t34.5 58t18.5 50.5t5.5 51zM182 698q23 0 35.5 -20.5t12.5 -49.5q0 -48 -21 -88t-53 -82q-7 30 -11.5 52.5t-7.5 40.5t-4 33t-1 30q0 33 12 58.5t38 25.5zM172 47q-20 0 -34 10
t-24 27t-14.5 39t-4.5 46t2 43t7.5 38t14 40t20.5 48q12 -36 21.5 -63.5t21 -54t26 -55.5t35.5 -68q-20 -26 -35.5 -38t-35.5 -12z" />
    <glyph glyph-name="quotesingle" unicode="'" horiz-adv-x="185" 
d="M130 739h-70v-221h28z" />
    <glyph glyph-name="parenleft" unicode="(" horiz-adv-x="185" 
d="M12 331q0 -51 7 -104.5t22 -106.5t37.5 -103.5t53.5 -95.5h40q-46 86 -70 188.5t-24 225.5q0 106 24 213.5t69 199.5h-41q-32 -54 -54.5 -104.5t-36.5 -100.5t-20.5 -102t-6.5 -110z" />
    <glyph glyph-name="parenright" unicode=")" horiz-adv-x="185" 
d="M14 748q45 -92 68.5 -199.5t23.5 -213.5q0 -123 -23.5 -225.5t-69.5 -188.5h39q31 45 54 95.5t38 103.5t22 106.5t7 104.5q0 58 -6.5 110t-21 102t-37 100.5t-54.5 104.5h-40z" />
    <glyph glyph-name="asterisk" unicode="*" horiz-adv-x="315" 
d="M119 628l-52 -68l43 -31l46 73l51 -73l42 31l-54 66l81 22l-15 50l-80 -29l2 85h-50l2 -85l-80 29l-16 -50z" />
    <glyph glyph-name="plus" unicode="+" horiz-adv-x="500" 
d="M277 0v177h179v58h-179v177h-59v-177h-174v-58h174v-177h59z" />
    <glyph glyph-name="comma" unicode="," horiz-adv-x="185" 
d="M56 0h29l-24 -134h24l43 144v79h-72v-89z" />
    <glyph glyph-name="hyphen" unicode="-" horiz-adv-x="222" 
d="M35 242h152v62h-152v-62z" />
    <glyph glyph-name="period" unicode="." horiz-adv-x="185" 
d="M56 0h72v89h-72v-89z" />
    <glyph glyph-name="slash" unicode="/" horiz-adv-x="241" 
d="M58 -14l178 762h-52l-179 -762h53z" />
    <glyph glyph-name="zero" unicode="0" horiz-adv-x="315" 
d="M273 590q0 70 -27.5 110.5t-88.5 40.5q-31 0 -52.5 -13.5t-35.5 -35t-20.5 -48.5t-6.5 -54v-440q0 -27 6.5 -54.5t20.5 -49.5t35.5 -35.5t52.5 -13.5q61 0 88.5 41.5t27.5 111.5v440zM210 151q0 -53 -10 -77.5t-43 -24.5q-29 0 -40.5 23.5t-11.5 76.5v442q0 53 11.5 76.5
t40.5 23.5q33 0 43 -24.5t10 -77.5v-438z" />
    <glyph glyph-name="one" unicode="1" horiz-adv-x="175" 
d="M0 647h70v-647h63v739h-37q-15 -10 -25.5 -16.5t-20.5 -12t-21.5 -11t-28.5 -12.5v-40z" />
    <glyph glyph-name="two" unicode="2" horiz-adv-x="304" 
d="M273 586q0 74 -34 115.5t-84 41.5q-59 0 -86 -40t-27 -104v-68h63v59q0 42 10.5 69.5t41.5 27.5t42 -29t11 -73q0 -21 -0.5 -36.5t-3.5 -30.5t-9.5 -32.5t-18 -42t-29 -60t-42.5 -86.5q-24 -49 -37.5 -81.5t-20.5 -62.5t-10.5 -65t-7.5 -88h231v57h-172q7 60 23.5 107
t37 87.5t42 77t39.5 75t29.5 82.5t11.5 100z" />
    <glyph glyph-name="three" unicode="3" horiz-adv-x="315" 
d="M263 556q0 102 -31.5 144.5t-86.5 42.5q-28 0 -48 -11.5t-33 -30t-19 -43t-6 -50.5v-48h63l-1 56q0 38 13.5 54.5t33.5 16.5q28 0 39.5 -32t11.5 -107q0 -32 -5 -54.5t-16 -37.5t-28.5 -23.5t-41.5 -14.5v-54q28 -4 47.5 -12t31.5 -25.5t17.5 -47t5.5 -76.5
q0 -78 -11.5 -111.5t-48.5 -33.5q-23 0 -37 18.5t-14 54.5v74h-64v-80q0 -27 9 -50.5t24.5 -40.5t37 -27t45.5 -10q69 0 95.5 57t26.5 162q0 38 -5.5 65.5t-15.5 47.5t-24 34.5t-30 26.5v3q35 28 50 68t15 95z" />
    <glyph glyph-name="four" unicode="4" horiz-adv-x="296" 
d="M19 229v-61h146v-168h63v168h49v60h-49v511h-69zM165 228h-87l87 325v-325z" />
    <glyph glyph-name="five" unicode="5" horiz-adv-x="305" 
d="M42 374h53q12 20 24 29.5t30 9.5q26 0 38.5 -19.5t12.5 -54.5v-203q0 -36 -13.5 -57.5t-44.5 -21.5q-26 0 -38 17t-12 46v80h-63v-79q0 -58 29.5 -91t80.5 -33q57 0 90.5 40t33.5 105v207q0 34 -7.5 57.5t-21 37.5t-31 20.5t-36.5 6.5q-23 0 -35 -5t-27 -19v240h148v52
h-211v-365z" />
    <glyph glyph-name="six" unicode="6" horiz-adv-x="315" 
d="M273 613q0 33 -9 57t-24 40.5t-35.5 24.5t-43.5 8q-63 0 -91 -41.5t-28 -115.5v-393q0 -46 5.5 -82t19 -61.5t36 -39t55.5 -13.5q36 0 59.5 14.5t36.5 44.5t18 76t5 108q0 57 -5 96.5t-16 64t-29 35.5t-44 11q-20 0 -37.5 -6.5t-40.5 -19.5v188q0 36 13 58.5t39 22.5
q53 0 53 -67v-70h63v60zM166 386q16 0 25 -9t14 -24t6.5 -36t1.5 -45v-107q0 -58 -11.5 -86.5t-43.5 -28.5q-29 0 -41 25.5t-12 70.5v214q23 14 36 20t25 6z" />
    <glyph glyph-name="seven" unicode="7" horiz-adv-x="278" 
d="M34 687h146l-122 -687h63l122 679v60h-209v-52z" />
    <glyph glyph-name="eight" unicode="8" horiz-adv-x="315" 
d="M38 223q0 -47 4.5 -88.5t18 -72t36.5 -48t61 -17.5q37 0 60 17t36.5 46.5t18.5 69.5t5 87q0 44 -2.5 75t-9 52t-17.5 35t-27 23q14 11 24 23t16.5 28t9.5 38t3 54q0 98 -28 148t-89 50q-62 0 -89 -51t-27 -150q0 -30 3 -51.5t9 -37.5t16 -28t24 -23q-19 -14 -30 -28.5
t-17 -34.5t-7.5 -48t-1.5 -68zM209 578q0 -69 -9 -107.5t-42 -38.5q-32 0 -41 35t-9 109q0 54 11 82.5t37 28.5q32 0 42.5 -30.5t10.5 -78.5zM211 231q0 -50 -1.5 -83.5t-7 -53.5t-15.5 -28.5t-28 -8.5q-19 0 -29.5 8.5t-16 30.5t-7 58.5t-1.5 92.5q0 54 10.5 82.5
t41.5 28.5q34 0 44 -32t10 -95z" />
    <glyph glyph-name="nine" unicode="9" horiz-adv-x="315" 
d="M42 133q0 -60 29 -98t84 -38q62 0 90 45t28 126v379q0 99 -26 147.5t-91 48.5q-36 0 -59 -13.5t-36 -41t-18 -68.5t-5 -95q0 -40 1 -69t3 -49.5t5 -34.5t7 -23q10 -23 34 -38t48 -15q18 0 34.5 6.5t39.5 19.5v-179q0 -45 -12.5 -64.5t-41.5 -19.5q-24 0 -37.5 16
t-13.5 50v62h-63v-54zM101 468v108q0 63 14 89t40 26q25 0 40 -24t15 -72v-211q-22 -14 -35.5 -21.5t-28.5 -7.5q-28 0 -36.5 28t-8.5 85z" />
    <glyph glyph-name="colon" unicode=":" horiz-adv-x="185" 
d="M56 266h72v89h-72v-89zM56 0h72v89h-72v-89z" />
    <glyph glyph-name="semicolon" unicode=";" horiz-adv-x="185" 
d="M56 266h72v89h-72v-89zM56 0h29l-24 -134h24l43 144v79h-72v-89z" />
    <glyph glyph-name="less" unicode="&#x3c;" horiz-adv-x="1000" 
d="M850 0v700l-700 -350z" />
    <glyph glyph-name="equal" unicode="=" horiz-adv-x="500" 
d="M45 233h412v59h-412v-59zM45 119h412v59h-412v-59z" />
    <glyph glyph-name="greater" unicode="&#x3e;" horiz-adv-x="1000" 
d="M850 350l-700 350v-700z" />
    <glyph glyph-name="question" unicode="?" horiz-adv-x="278" 
d="M179 406l50 140q5 14 8 32t3 44q0 132 -111 132q-33 0 -53 -10t-31.5 -31t-15.5 -52.5t-4 -73.5h56q0 28 1.5 49t6 35t13.5 21t25 7q25 0 38 -21.5t13 -69.5q0 -20 -2 -31.5t-5 -20.5l-52 -148q-8 -23 -13 -63t-5 -82v-22q0 -14 2 -40h50q0 45 1 73.5t3.5 50t7.5 39.5
t14 42zM88 0h71v89h-71v-89z" />
    <glyph glyph-name="at" unicode="@" horiz-adv-x="1000" 
d="M804 15q-5 -4 -26 -20.5t-57.5 -34.5t-89 -32.5t-120.5 -14.5q-80 0 -144.5 22t-109.5 60t-69.5 90.5t-24.5 114.5q0 74 32.5 144.5t86.5 126t123 89.5t142 34q62 0 118.5 -18.5t99 -53.5t68 -86t25.5 -115t-21 -113.5t-51.5 -84t-65.5 -52.5t-62 -18q-17 0 -23.5 7.5
t-6.5 19.5q0 7 6.5 27t15.5 44.5t19.5 51t19.5 47.5l83 207h-86l-22 -54q-4 7 -11 19.5t-20.5 24.5t-34 21t-51.5 9q-49 0 -95.5 -30.5t-82.5 -78.5t-58 -106t-22 -112q0 -35 10.5 -62t28.5 -45t42 -27t51 -9q28 0 50.5 8t38.5 19t26 21.5t15 16.5q0 -9 2.5 -21.5t10 -23.5
t22 -18.5t38.5 -7.5q52 0 102.5 24.5t90 68t64 101.5t24.5 126q0 72 -28 131.5t-77 102t-115 66.5t-142 24q-90 0 -171.5 -36.5t-143 -98t-97.5 -142t-36 -169.5q0 -73 31 -134t86 -104.5t130.5 -68t164.5 -24.5q64 0 118.5 15t97 35.5t70 41.5t37.5 32zM438 48
q-30 0 -50 15.5t-20 51.5q0 24 8 57t22.5 69t34 71t42 63t46.5 45.5t48 17.5q31 0 46.5 -20.5t15.5 -43.5q0 -11 -5 -37t-15.5 -59.5t-26.5 -72t-37 -72.5q-6 -10 -15 -24.5t-22 -28t-30.5 -23t-41.5 -9.5z" />
    <glyph glyph-name="A" unicode="A" 
d="M17 428v-65h31v-363l68 -1v364h102v-363h68v621q0 28 -8.5 52.5t-24.5 42.5t-37.5 28t-48.5 10q-56 0 -87.5 -36.5t-31.5 -96.5v-193h-31zM116 627q0 39 13 54.5t38 15.5q23 0 37 -16t14 -54v-199h-102v199z" />
    <glyph glyph-name="B" unicode="B" 
d="M153 0q68 0 100.5 39.5t32.5 110.5v95q0 56 -21 91.5t-57 57.5q18 12 30.5 22.5t21 23t12 27.5t3.5 35v107q0 72 -34.5 106t-87.5 34h-105v-749h105zM142 691q28 0 47 -21.5t19 -63.5v-95q0 -44 -19 -66.5t-48 -22.5h-25v269h26zM150 364q29 0 48.5 -30t19.5 -76v-99
q0 -53 -16 -76.5t-53 -23.5h-33v305h34z" />
    <glyph glyph-name="C" unicode="C" 
d="M281 500v87q0 82 -29.5 124.5t-87.5 42.5q-62 0 -89 -44t-27 -122v-424q0 -82 28 -125.5t90 -43.5q65 0 92.5 44.5t27.5 118.5v116h-68v-116q0 -48 -9.5 -77.5t-43.5 -29.5q-33 0 -41 32.5t-8 88.5v419q0 24 1.5 43.5t7 34t15 22t25.5 7.5q28 0 38 -25.5t10 -82.5v-90h68
z" />
    <glyph glyph-name="D" unicode="D" 
d="M140 -1q70 0 108 36t38 114v458q0 75 -29.5 108t-97.5 33h-111v-749h92zM218 601v-439q0 -57 -17 -80.5t-55 -23.5h-30v633h32q40 0 55 -19t15 -71z" />
    <glyph glyph-name="E" unicode="E" horiz-adv-x="268" 
d="M244 60q-15 -2 -27 -3t-20 -1q-27 0 -43.5 8t-24.5 21.5t-10.5 32t-2.5 38.5v199h108v57h-108v175q0 27 1 47t7.5 33t20.5 19.5t40 6.5q20 0 49 -3v56q-18 2 -33 2h-27q-66 0 -96 -36.5t-30 -125.5v-173h-31v-58h31v-198q0 -75 28 -116t103 -41q14 0 30.5 1t34.5 3v56z
" />
    <glyph glyph-name="F" unicode="F" horiz-adv-x="258" 
d="M116 355h108v57h-108v175q0 31 2.5 51.5t9.5 32.5t20 16.5t34 4.5q8 0 23 -0.5t29 -1.5v56q-18 2 -34 2h-27q-66 0 -95.5 -37.5t-29.5 -126.5v-172h-31v-58h31v-355l68 1v355z" />
    <glyph glyph-name="G" unicode="G" 
d="M281 519v69q0 77 -27.5 121.5t-87.5 44.5q-62 0 -90 -45t-28 -121v-428q0 -78 29 -121.5t89 -43.5q62 0 91 43t29 120v254h-137v-57h69v-198q0 -50 -9 -77.5t-43 -27.5q-32 0 -41 29.5t-9 76.5v432q0 48 9 78t41 30q29 0 38 -30t9 -78v-71h68z" />
    <glyph glyph-name="H" unicode="H" 
d="M218 0h68v748h-68v-320h-102v320h-68v-748h68v363h102v-363z" />
    <glyph glyph-name="I" unicode="I" horiz-adv-x="164" 
d="M116 0v748h-68v-748h68z" />
    <glyph glyph-name="J" unicode="J" 
d="M218 748v-588q0 -50 -10 -78.5t-43 -28.5q-16 0 -25.5 7.5t-15 22t-7 34.5t-1.5 45l-1 196h-67v-195q0 -76 26.5 -122t89.5 -46q62 0 92 40t30 127v586h-68z" />
    <glyph glyph-name="K" unicode="K" 
d="M116 415v333h-68v-333h-31v-60h31v-355l68 -1v356h37q34 0 49.5 -16t15.5 -57v-282l68 -1v286q0 54 -17.5 83.5t-56.5 40.5l94 339h-67l-91 -333h-32z" />
    <glyph glyph-name="L" unicode="L" horiz-adv-x="277" 
d="M253 0v64h-137v684h-68v-748h205z" />
    <glyph glyph-name="M" unicode="M" horiz-adv-x="469" 
d="M142 754q-42 0 -68 -27.5t-26 -72.5v-654h68v643q0 26 8 37.5t24 11.5q27 0 40 -24.5t13 -67.5v-600h68v600q0 44 13 68t42 24t29 -49v-643h68v654q0 45 -25.5 72.5t-67.5 27.5q-27 0 -48.5 -15.5t-40.5 -41.5q-2 -2 -1.5 0t-1.5 0q-20 27 -43 42t-51 15z" />
    <glyph glyph-name="N" unicode="N" 
d="M116 0v605q0 37 20 60t46 23q16 0 26 -12.5t10 -36.5v-640h68v640q0 58 -26.5 86.5t-64.5 28.5q-23 0 -40.5 -9.5t-43.5 -35.5v39h-63v-748h68z" />
    <glyph glyph-name="O" unicode="O" 
d="M167 754q-62 0 -90.5 -44t-28.5 -122v-428q0 -76 28 -120.5t91 -44.5q62 0 90.5 43t28.5 120v430q0 77 -28.5 121.5t-90.5 44.5zM167 698q17 0 27 -8.5t15.5 -23t7 -34.5t1.5 -44v-431q0 -48 -10 -77t-41 -29q-35 0 -43 28.5t-8 78.5v430q0 24 1.5 44t6.5 34.5t15.5 23
t27.5 8.5z" />
    <glyph glyph-name="P" unicode="P" horiz-adv-x="330" 
d="M150 336q35 0 61 11.5t42.5 30.5t24.5 44t8 53v134q0 39 -10.5 65.5t-28 43t-41 23.5t-49.5 7h-109v-749h68v336zM153 694q30 0 47.5 -19t17.5 -61v-130q0 -43 -19.5 -64t-54.5 -26l-28 -1v301h37z" />
    <glyph glyph-name="Q" unicode="Q" 
d="M166 754q-62 0 -90 -44t-28 -122v-428q0 -81 29.5 -121.5t96.5 -40.5q10 -20 19 -33.5t20.5 -23t27.5 -16.5t40 -14v59q-9 4 -15 8t-11 8.5t-10 11t-11 17.5q12 10 21.5 21.5t16.5 28t10.5 39t3.5 54.5v430q0 76 -28.5 121t-91.5 45zM166 698q34 0 43 -29.5t9 -78.5v-432
q0 -48 -9.5 -77.5t-40.5 -29.5q-17 0 -27.5 7.5t-16 21.5t-7 33.5t-1.5 44.5v432q0 48 10 78t40 30z" />
    <glyph glyph-name="R" unicode="R" 
d="M286 -1v257q0 65 -15 96t-53 42q18 12 31 22.5t21 23t12 27.5t4 35v107q0 39 -9.5 65.5t-26 43t-39 23.5t-48.5 7h-115v-327h-31v-61h31v-361l68 1v361h32q33 0 51.5 -26t18.5 -77v-258zM154 691q32 0 48 -21.5t16 -71.5v-91q0 -85 -69 -85h-33v269h38z" />
    <glyph glyph-name="S" unicode="S" horiz-adv-x="315" 
d="M161 754q-58 0 -86 -44.5t-28 -127.5q0 -45 13 -78.5t32.5 -63t42.5 -57.5t42.5 -60.5t32.5 -73t13 -94.5q0 -20 -3.5 -38.5t-10 -32.5t-17 -22.5t-24.5 -8.5q-31 0 -41.5 31t-10.5 83v53h-68v-37q0 -39 5 -73t18 -59.5t36 -40.5t59 -15q31 0 53.5 13.5t37.5 37t22 54
t7 65.5q0 56 -13 97.5t-32 74t-41.5 60.5t-41.5 58.5t-32 67t-13 85.5q0 43 12.5 65.5t34.5 22.5q26 0 37.5 -34t15.5 -111h58q0 108 -27.5 155.5t-82.5 47.5z" />
    <glyph glyph-name="T" unicode="T" horiz-adv-x="281" 
d="M175 0v688h82v60h-233v-60h83v-688h68z" />
    <glyph glyph-name="U" unicode="U" 
d="M218 748v-588q0 -50 -9.5 -79t-42.5 -29q-16 0 -25.5 8t-15 22.5t-7.5 34.5t-2 45v586h-68v-585q0 -76 28 -122t91 -46q62 0 90.5 44.5t28.5 122.5v586h-68z" />
    <glyph glyph-name="V" unicode="V" horiz-adv-x="298" 
d="M160 266h-3l-73 482h-68l116 -748h57l93 748h-68z" />
    <glyph glyph-name="W" unicode="W" horiz-adv-x="469" 
d="M328 -5q42 0 67.5 27t25.5 72v654h-68v-642q0 -50 -31 -50q-27 0 -40 24.5t-13 67.5v600h-68v-600q0 -44 -13 -68t-42 -24q-30 0 -30 50v642h-68v-654q0 -45 25.5 -72t67.5 -27q29 0 50.5 13.5t44.5 42.5q25 -31 44 -43.5t48 -12.5z" />
    <glyph glyph-name="X" unicode="X" horiz-adv-x="306" 
d="M116 386l-95 -386h68l64 264h2l67 -264h68l-103 391l87 357h-68l-55 -245h-2l-65 245h-68z" />
    <glyph glyph-name="Y" unicode="Y" 
d="M218 159q0 -26 -2 -46t-9.5 -33.5t-22.5 -20.5t-40 -7q-14 0 -34 4t-43 12l-15 -50q32 -12 51 -20t45 -8q74 0 106 43t32 129v586h-68v-361q0 -48 -9 -77t-43 -29q-32 0 -41 29.5t-9 77.5v360h-68v-362q0 -82 26 -121.5t92 -39.5q17 0 27.5 4.5t24.5 15.5v-86z" />
    <glyph glyph-name="Z" unicode="Z" horiz-adv-x="285" 
d="M256 0v58h-159l161 634v56h-212v-56h144l-161 -635v-57h227z" />
    <glyph glyph-name="bracketleft" unicode="[" horiz-adv-x="185" 
d="M49 -79h124v45h-57v737h57v45h-124v-827z" />
    <glyph glyph-name="backslash" unicode="\" horiz-adv-x="1000" 
d="M10 350q0 -68 37 -123.5t102.5 -94.5t155 -60.5t195.5 -21.5t195.5 21.5t155 60.5t102.5 94.5t37 123.5t-37 123.5t-102.5 94.5t-155 60.5t-195.5 21.5t-195.5 -21.5t-155 -60.5t-102.5 -94.5t-37 -123.5zM40 350q0 58 34 107.5t95 85.5t145.5 56.5t185.5 20.5
t185.5 -20.5t145.5 -56.5t95 -85.5t34 -107.5t-34 -107.5t-95 -85.5t-145.5 -56.5t-185.5 -20.5t-185.5 20.5t-145.5 56.5t-95 85.5t-34 107.5z" />
    <glyph glyph-name="bracketright" unicode="]" horiz-adv-x="185" 
d="M12 748v-45h56v-737h-56v-45h124v827h-124z" />
    <glyph glyph-name="asciicircum" unicode="^" horiz-adv-x="259" 
d="M59 529l70 167l70 -167h59l-99 219h-60l-99 -219h59z" />
    <glyph glyph-name="underscore" unicode="_" horiz-adv-x="574" 
d="M-2 -160h578v64h-578v-64z" />
    <glyph glyph-name="grave" unicode="`" horiz-adv-x="0" 
d="M36 701l117 -121l24 21l-105 133z" />
    <glyph glyph-name="a" unicode="a" horiz-adv-x="294" 
d="M197 0h64q-8 32 -11.5 53t-3.5 48v275q0 39 -4 69.5t-14.5 51.5t-28.5 32t-46 11q-52 0 -73 -35t-21 -97v-44h65v52q0 35 6.5 51t23.5 16q16 0 22 -16.5t6 -45.5v-74q-39 -20 -66 -40t-43.5 -44.5t-23.5 -56t-7 -74.5q0 -68 21.5 -102.5t60.5 -34.5q20 0 33 7.5t28 24.5z
M149 47q-20 0 -30 19.5t-10 54.5q0 34 2.5 57.5t10.5 41.5t22.5 33t37.5 31v-173q0 -26 -6.5 -45t-26.5 -19z" />
    <glyph glyph-name="b" unicode="b" horiz-adv-x="303" 
d="M113 35q24 -23 40.5 -32.5t33.5 -9.5q35 0 51.5 33t16.5 91v300q0 23 -4 44.5t-14 38t-25.5 26t-39.5 9.5q-18 0 -31 -7.5t-28 -22.5v237h-65v-742h65v35zM190 418v-311q0 -22 -6 -36t-23 -14q-12 0 -23 10t-25 30v333q24 43 47 43q12 0 21 -12.5t9 -42.5z" />
    <glyph glyph-name="c" unicode="c" horiz-adv-x="278" 
d="M181 184v-63q0 -38 -7.5 -56t-28.5 -18q-19 0 -26.5 17t-7.5 48v305q0 33 7.5 50t30.5 17q19 0 25.5 -16.5t6.5 -45.5v-62h65v57q0 57 -26.5 90t-73.5 33q-31 0 -50.5 -12t-30 -34t-14.5 -52.5t-4 -67.5v-219q0 -37 4 -67.5t14.5 -52t29.5 -33.5t50 -12q58 0 79 40.5
t21 110.5v43h-64z" />
    <glyph glyph-name="d" unicode="d" horiz-adv-x="301" 
d="M253 0v742h-63v-235q-16 17 -29 24t-32 7q-35 0 -58 -31t-23 -90v-307q0 -53 19 -85t53 -32q14 0 29.5 10t38.5 31v-34h65zM142 57q-17 0 -23 14t-6 36v315q0 23 8.5 38.5t20.5 15.5q23 0 48 -43v-336q-13 -19 -25 -29.5t-23 -10.5z" />
    <glyph glyph-name="e" unicode="e" horiz-adv-x="294" 
d="M246 249v154q0 61 -23 99t-76 38q-32 0 -51.5 -12t-30 -34t-14.5 -52.5t-4 -67.5v-219q0 -37 4 -67.5t14.5 -52t29.5 -33.5t50 -12q58 0 79.5 40.5t21.5 110.5v43h-65v-63q0 -38 -7.5 -56t-28.5 -18q-19 0 -25.5 17t-6.5 48v137h133zM113 417q0 32 6.5 49.5t25.5 17.5
q23 0 30 -17.5t7 -55.5v-101h-69v107z" />
    <glyph glyph-name="f" unicode="f" horiz-adv-x="195" 
d="M113 640q0 32 12 40t45 8l1 51q-11 4 -19.5 5.5t-21.5 1.5q-50 0 -66 -24t-16 -71v-125h-42v-54h42v-472h65v472h57v54h-57v114z" />
    <glyph glyph-name="g" unicode="g" horiz-adv-x="302" 
d="M191 -29q0 -43 -14.5 -63t-47.5 -20q-13 0 -32 3l-10 -47q15 -7 26 -9t28 -2q62 0 87.5 36t25.5 111v551h-63v-26q-16 16 -29 23t-32 7q-42 0 -62.5 -33.5t-20.5 -84.5v-313q0 -54 19 -84t56 -30q17 0 32.5 10t36.5 31v-60zM143 53q-20 0 -26 15t-6 39v312q0 29 8 42.5
t22 13.5q26 0 50 -45v-336q-11 -18 -22.5 -29.5t-25.5 -11.5z" />
    <glyph glyph-name="h" unicode="h" horiz-adv-x="294" 
d="M112 441q16 16 25.5 23.5t20.5 7.5q23 0 23 -50v-422h65v421q0 24 -2.5 45t-10 36.5t-20.5 24t-35 8.5t-36 -10t-30 -31v248h-65v-742h65v441z" />
    <glyph glyph-name="i" unicode="i" horiz-adv-x="160" 
d="M112 0v531h-64v-531h64zM48 674h64v68h-64v-68z" />
    <glyph glyph-name="j" unicode="j" horiz-adv-x="160" 
d="M48 -56q0 -16 -1 -26.5t-5.5 -16.5t-13 -8.5t-23.5 -2.5v-48q14 -5 25 -7t19 -2q21 0 33 8t19 22.5t9 35t2 45.5v587h-64v-587zM48 674h64v68h-64v-68z" />
    <glyph glyph-name="k" unicode="k" horiz-adv-x="294" 
d="M112 306v436h-64v-742h64v248h33q37 0 37 -54v-194h64v196q0 21 -2.5 36t-9 26.5t-17.5 20t-27 17.5l62 233h-65l-52 -223h-23z" />
    <glyph glyph-name="l" unicode="l" horiz-adv-x="161" 
d="M113 0v742h-65v-742h65z" />
    <glyph glyph-name="m" unicode="m" horiz-adv-x="438" 
d="M182 535q-21 0 -36 -9.5t-33 -31.5v37h-65v-531h65v433q17 20 28 29.5t22 9.5q23 0 23 -50v-422h65v432q12 19 24 29t26 10t19 -12t5 -38v-421h65v419q0 25 -2.5 46t-10 36t-21 23.5t-34.5 8.5q-23 0 -39.5 -10.5t-37.5 -38.5q-12 28 -25.5 39.5t-37.5 11.5z" />
    <glyph glyph-name="n" unicode="n" horiz-adv-x="294" 
d="M113 441q16 16 26 23.5t20 7.5q23 0 23 -50v-422h65v421q0 24 -2.5 45t-10 36.5t-20.5 24t-35 8.5t-36 -10t-30 -31v37h-65v-531h65v441z" />
    <glyph glyph-name="o" unicode="o" horiz-adv-x="294" 
d="M147 -9q31 0 50.5 11.5t30.5 32.5t15 51.5t4 68.5v219q0 38 -4 69t-15 52.5t-30 33.5t-50 12t-50.5 -12.5t-30.5 -34.5t-15 -52.5t-4 -67.5v-219q0 -37 4 -67t15 -51.5t30 -33.5t50 -12zM148 47q-35 0 -35 64v312q0 60 35 60q34 0 34 -61v-313q0 -62 -34 -62z" />
    <glyph glyph-name="p" unicode="p" horiz-adv-x="301" 
d="M48 531v-698h65v189q17 -16 29.5 -22.5t30.5 -6.5q22 0 38 9.5t25.5 26t14 38t4.5 45.5v306q0 57 -16.5 86t-54.5 29q-16 0 -32 -8.5t-39 -28.5v35h-65zM160 471q17 0 23 -14.5t6 -35.5v-311q1 -31 -7.5 -44t-21.5 -13q-14 0 -24 10.5t-23 33.5v336q30 38 47 38z" />
    <glyph glyph-name="q" unicode="q" horiz-adv-x="301" 
d="M191 493q-25 23 -41 32.5t-35 9.5q-35 0 -51 -31.5t-16 -86.5v-305q0 -59 23.5 -89t58.5 -30q19 0 32 6.5t29 22.5v-185h65v694h-65v-38zM113 108v313q0 21 6.5 35.5t22.5 14.5q22 0 49 -41v-333q-25 -42 -46 -42q-12 0 -22 13.5t-10 39.5z" />
    <glyph glyph-name="r" unicode="r" horiz-adv-x="222" 
d="M113 442q0 17 12.5 24t32.5 7q11 0 18.5 -1t20.5 -5v68q-17 -1 -28.5 -2.5t-20.5 -4.5t-17 -8t-18 -14v25h-65v-531h65v442z" />
    <glyph glyph-name="s" unicode="s" horiz-adv-x="278" 
d="M229 409q0 62 -25 95.5t-72 33.5q-43 0 -73 -32t-30 -84q0 -32 11.5 -64t33.5 -58l61 -75q18 -22 26.5 -49.5t8.5 -59.5q0 -67 -41 -67q-20 0 -27.5 16.5t-7.5 46.5v48h-65v-47q0 -55 27.5 -88.5t71.5 -33.5q49 0 77.5 36.5t28.5 105.5q0 39 -12 72t-36 62l-59 71
q-19 23 -27.5 42.5t-8.5 45.5q0 27 10.5 40t26.5 13q17 0 26.5 -15t9.5 -42v-45h65v32z" />
    <glyph glyph-name="t" unicode="t" horiz-adv-x="180" 
d="M58 476v-476h64v476h43v55h-43v168h-64v-168h-43v-55h43z" />
    <glyph glyph-name="u" unicode="u" horiz-adv-x="294" 
d="M182 531v-420q0 -28 -6.5 -46t-27.5 -18q-35 0 -35 64v420h-65v-373q0 -37 4 -67.5t15 -53t30.5 -35t50.5 -12.5t50.5 12t30.5 34t14.5 53t3.5 69v373h-65z" />
    <glyph glyph-name="v" unicode="v" horiz-adv-x="258" 
d="M234 531h-65l-37 -341h-2l-41 341h-65l79 -531h57z" />
    <glyph glyph-name="w" unicode="w" horiz-adv-x="435" 
d="M48 158q0 -44 2.5 -75.5t12.5 -52t28.5 -30.5t51.5 -10q26 0 43.5 11t34.5 32q14 -20 32.5 -31.5t44.5 -11.5q31 0 48.5 11.5t26.5 33.5t11.5 53t2.5 69v374h-65v-421q0 -29 -7.5 -47.5t-26.5 -18.5q-8 0 -15 6t-12 16t-8.5 22.5t-3.5 25.5v417h-65v-420q0 -12 -3 -23.5
t-8.5 -21t-13 -15.5t-15.5 -6q-18 0 -24.5 20t-6.5 51v415h-65v-373z" />
    <glyph glyph-name="x" unicode="x" horiz-adv-x="259" 
d="M96 280l-77 -280h65l44 184h3l42 -184h65l-79 280l66 251h-65l-30 -145h-4l-34 145h-65z" />
    <glyph glyph-name="y" unicode="y" horiz-adv-x="301" 
d="M48 531v-427q0 -54 19 -84t56 -30q17 0 30.5 10t34.5 31v-60q0 -42 -13 -62.5t-45 -20.5q-12 0 -31 3l-9 -48q17 -6 27 -8t24 -2q60 0 86 38t26 109v551h-65v-437q-11 -20 -23 -29.5t-27 -9.5q-19 0 -22 14t-3 38v424h-65z" />
    <glyph glyph-name="z" unicode="z" horiz-adv-x="241" 
d="M31 0h179v56h-114l115 419v56h-170v-56h105l-115 -419v-56z" />
    <glyph glyph-name="braceleft" unicode="{" horiz-adv-x="630" 
d="M481 -194q-28 6 -48 20t-33 33t-19.5 40.5t-6.5 42.5q0 20 2 40.5t5 44.5q2 18 4.5 41.5t2.5 37.5q0 40 -17 69t-41.5 49.5t-51 34t-45.5 21.5q19 8 45.5 20.5t51 32.5t41.5 49.5t17 71.5q0 14 -2.5 37.5t-4.5 41.5q-3 24 -5 44.5t-2 40.5q0 21 6.5 42.5t19.5 40.5t33 33
t48 20v25q-38 -2 -75.5 -15t-67.5 -35.5t-49 -53t-19 -66.5q0 -27 3.5 -50t8.5 -46q5 -26 10.5 -50t5.5 -44q0 -25 -9 -45.5t-24.5 -36.5t-35.5 -27t-41 -18v-24q21 -7 41 -19t35.5 -28t24.5 -36.5t9 -43.5q0 -20 -5.5 -44t-10.5 -50q-5 -23 -8.5 -46t-3.5 -50
q0 -36 19 -66.5t49 -53t67.5 -36t75.5 -14.5v25z" />
    <glyph glyph-name="bar" unicode="|" horiz-adv-x="1000" 
d="M10 350q0 -68 37 -123.5t102.5 -94.5t155 -60.5t195.5 -21.5t195.5 21.5t155 60.5t102.5 94.5t37 123.5t-37 123.5t-102.5 94.5t-155 60.5t-195.5 21.5t-195.5 -21.5t-155 -60.5t-102.5 -94.5t-37 -123.5z" />
    <glyph glyph-name="braceright" unicode="}" horiz-adv-x="630" 
d="M481 292q-21 7 -41 18t-35.5 27t-24.5 36.5t-9 45.5q0 20 5.5 44t10.5 50q5 23 8.5 46t3.5 50q0 36 -19 66.5t-49 53t-68 35.5t-75 15v-25q28 -6 48 -20t33 -33t19.5 -40.5t6.5 -42.5q0 -20 -2 -40.5t-5 -44.5q-2 -18 -4.5 -41.5t-2.5 -37.5q0 -42 17 -71.5t41.5 -49.5
t51 -32.5t45.5 -20.5q-19 -8 -45.5 -21.5t-51 -34t-41.5 -49.5t-17 -69q0 -14 2.5 -37.5t4.5 -41.5q3 -24 5 -44.5t2 -40.5q0 -21 -6.5 -42.5t-19.5 -40.5t-33 -33t-48 -20v-25q37 1 75 14.5t68 36t49 53t19 66.5q0 27 -3.5 50t-8.5 46q-5 26 -10.5 50t-5.5 44q0 23 9 43.5
t24.5 36.5t35.5 28t41 19v24z" />
    <glyph glyph-name="asciitilde" unicode="~" horiz-adv-x="444" 
d="M176 185q11 0 17 -16.5t6 -40.5v-189q0 -18 -4 -36.5t-9 -32.5q-5 -15 -9 -21.5t-9 -17.5l55 -73l54 74q-5 11 -9 17.5t-9 21.5q-5 14 -9 32.5t-4 36.5v189q0 24 6 40.5t17 16.5t14 -18t3 -39v-227l46 57v274q0 26 5.5 44.5t18.5 18.5q7 0 10.5 -7.5t5 -18t1 -23
t-0.5 -21.5v-206l46 71v378q0 26 -2 49t-8.5 40.5t-20 27.5t-36.5 10q-27 0 -39.5 -14t-17.5 -34q-2 -9 -2 -26t-1 -34t-4.5 -29.5t-12.5 -12.5q-6 0 -9 5.5t-4 14t-1 18.5v20v163q0 33 4 48q2 8 3 12.5t4 15.5l-12 -7t-19 -15q-8 -10 -11.5 -21.5t-3.5 -21.5v-75l-7.5 3.5
t-7.5 16.5q0 11 3.5 16l3.5 5v32q-7 -3 -12 -6.5t-9 -11.5q-6 -11 -7 -22t-1 -26v-106v-19t-1 -19t-4 -14.5t-9 -5.5q-10 0 -13.5 11.5t-4.5 27.5t-0.5 33.5t-1.5 29.5q-4 20 -15.5 34t-40.5 14q-23 0 -36.5 -10t-21.5 -27.5t-10.5 -40.5t-2.5 -49v-380l46 -69v207
q0 9 -0.5 21t1 22.5t5 18t11.5 7.5q10 0 16.5 -16.5t6.5 -42.5v-278l46 -60v230q0 9 0.5 18.5t2 18t5 14t9.5 5.5z" />
    <glyph glyph-name="quotesinglbase" unicode="&#x201a;" horiz-adv-x="185" 
d="M130 10v79h-76v-89h30l-24 -134h28z" />
    <glyph glyph-name="florin" unicode="&#x192;" horiz-adv-x="346" 
d="M-38 -116h-54l-9 -51q23 -2 37 -2h27q72 -1 113 44t53 128l58 400h113l9 53h-115l20 134q4 29 11 48t18 29.5t26.5 15t37.5 4.5q8 1 21.5 1.5t29.5 -1.5l8 53q-19 2 -35 2t-29 -1q-72 1 -109 -35.5t-49 -118.5l-21 -129h-49l-8 -57h48l-54 -397q-8 -62 -33.5 -90.5
t-64.5 -29.5z" />
    <glyph glyph-name="quotedblbase" unicode="&#x201e;" horiz-adv-x="296" 
d="M246 10v79h-76v-89h30l-26 -134h29zM127 10v79h-76v-89h30l-25 -134h29z" />
    <glyph glyph-name="ellipsis" unicode="&#x2026;" horiz-adv-x="500" 
d="M50 0h71v89h-71v-89zM215 0h72v89h-72v-89zM381 0h70v89h-70v-89z" />
    <glyph glyph-name="dagger" unicode="&#x2020;" horiz-adv-x="315" 
d="M128 593h-81v-57h81v-576h58v576h82v57h-82v155h-58v-155z" />
    <glyph glyph-name="daggerdbl" unicode="&#x2021;" horiz-adv-x="315" 
d="M128 131v-171h58v171h82v56h-82v349h82v57h-82v155h-58v-155h-81v-57h81v-349h-81v-56h81z" />
    <glyph glyph-name="circumflex" unicode="&#x2c6;" horiz-adv-x="0" 
d="M213 580l10 26l-102 66l-102 -66l10 -26l92 49z" />
    <glyph glyph-name="perthousand" unicode="&#x2030;" horiz-adv-x="667" 
d="M109 743q-37 0 -54.5 -24.5t-17.5 -67.5v-233q0 -62 15.5 -92.5t56.5 -30.5q42 0 57.5 31t15.5 92v233q0 44 -17.5 68t-55.5 24zM176 -11l176 754h-41l-178 -754h43zM376 445q-37 0 -55 -24t-18 -68v-232q0 -62 15.5 -92.5t57.5 -30.5t57.5 31t15.5 92v232
q0 45 -17.5 68.5t-55.5 23.5zM558 445q-38 0 -55.5 -24t-17.5 -68v-232q0 -62 15.5 -92.5t57.5 -30.5t57 31t15 92v232q0 45 -17 68.5t-55 23.5zM108 698q17 0 21.5 -11t4.5 -43v-247q0 -29 -4 -43t-20 -14q-17 0 -22 13.5t-5 43.5v247q0 29 5 41.5t20 12.5zM376 400
q16 0 20.5 -10.5t4.5 -42.5v-247q0 -29 -4 -43t-19 -14q-17 0 -22.5 13.5t-5.5 43.5v247q0 29 5 41t21 12zM558 400q16 0 20.5 -10.5t4.5 -42.5v-247q0 -29 -4 -43t-19 -14q-17 0 -22.5 13.5t-5.5 43.5v247q0 29 5 41t21 12z" />
    <glyph glyph-name="guilsinglleft" unicode="&#x2039;" horiz-adv-x="185" 
d="M124 62h35l-55 204l55 205h-35l-91 -205z" />
    <glyph glyph-name="OE" unicode="&#x152;" horiz-adv-x="437" 
d="M166 754q-62 0 -90 -46t-28 -120v-428q0 -81 28 -123t90 -42q35 0 52 11t34 26q19 -11 38.5 -19.5t59.5 -10.5q12 -1 29 0.5t34 3.5v56q-14 -2 -26 -3t-20 -1q-23 0 -38.5 6.5t-25 18t-13.5 26.5t-4 32v214h108v58h-108v184q0 25 1.5 43.5t8 30.5t20.5 18t39 6
q8 0 22 -0.5t28 -2.5v56q-19 2 -35 2h-27q-36 0 -55.5 -8.5t-37.5 -26.5q-14 19 -33 29t-51 10zM168 50q-35 0 -43.5 29.5t-8.5 78.5v432q0 55 11 81.5t39 26.5q32 0 42 -29t10 -78v-178h-32v-58h32v-204q0 -45 -11 -73t-39 -28z" />
    <glyph glyph-name="quoteleft" unicode="&#x2018;" horiz-adv-x="185" 
d="M130 526v87h-30l25 135h-29l-42 -143v-79h76z" />
    <glyph glyph-name="quoteright" unicode="&#x2019;" horiz-adv-x="185" 
d="M130 670v78h-76v-87h30l-24 -135h28z" />
    <glyph glyph-name="quotedblleft" unicode="&#x201c;" horiz-adv-x="296" 
d="M51 605v-79h76v87h-30l26 135h-29zM170 605v-79h76v87h-30l26 135h-29z" />
    <glyph glyph-name="quotedblright" unicode="&#x201d;" horiz-adv-x="296" 
d="M246 670v78h-76v-87h30l-26 -135h29zM127 670v78h-76v-87h30l-25 -135h29z" />
    <glyph glyph-name="bullet" unicode="&#x2022;" horiz-adv-x="500" 
d="M106 350q0 -30 11.5 -56t31 -45.5t45.5 -31t56 -11.5t56 11.5t45.5 31t31 45.5t11.5 56t-11.5 56t-31 45.5t-45.5 31t-56 11.5t-56 -11.5t-45.5 -31t-31 -45.5t-11.5 -56z" />
    <glyph glyph-name="endash" unicode="&#x2013;" horiz-adv-x="315" 
d="M42 248h231v49h-231v-49z" />
    <glyph glyph-name="emdash" unicode="&#x2014;" horiz-adv-x="500" 
d="M46 248h410v49h-410v-49z" />
    <glyph glyph-name="tilde" unicode="&#x2dc;" horiz-adv-x="0" 
d="M68 628q13 0 23.5 -6.5t21 -14.5t22.5 -14.5t29 -6.5q26 0 44 18t28 51l-21 13q-9 -16 -14.5 -25.5t-10.5 -14.5t-10.5 -6.5t-13.5 -1.5q-13 0 -23.5 6.5t-21 14t-22 14t-27.5 6.5q-29 0 -46.5 -18.5t-26.5 -50.5l22 -12q10 25 20.5 36.5t26.5 11.5z" />
    <glyph glyph-name="trademark" unicode="&#x2122;" horiz-adv-x="704" 
d="M209 706h74v42h-190v-42h73v-248h43v248zM595 748h-80l-59 -228h-2l-60 228h-78v-290h43v262h2l68 -262h53l68 262h2v-262h43v290z" />
    <glyph glyph-name="guilsinglright" unicode="&#x203a;" horiz-adv-x="185" 
d="M61 471h-37l57 -205l-57 -204h37l90 204z" />
    <glyph glyph-name="oe" unicode="&#x153;" horiz-adv-x="433" 
d="M284 -10q57 0 79 38t22 113v43h-62v-63q0 -41 -9 -57.5t-31 -16.5q-21 0 -28 17t-7 48v137h137v154q0 28 -5 53t-16.5 44t-29 29.5t-42.5 10.5q-26 0 -41 -10.5t-31 -30.5q-17 20 -34.5 30.5t-43.5 10.5q-30 0 -48.5 -11.5t-29 -33.5t-14 -52.5t-3.5 -68.5v-219
q0 -38 3.5 -68t14 -52t28 -33.5t46.5 -11.5q19 0 35 6.5t39 20.5q17 -14 33.5 -20.5t37.5 -6.5zM145 485q23 0 29.5 -17.5t6.5 -51.5v-295q0 -36 -6 -55t-26 -19q-24 0 -30 16.5t-6 48.5v305q0 32 5.5 50t26.5 18zM284 485q23 0 30.5 -18t7.5 -56v-101h-74v107q0 32 8.5 50
t27.5 18z" />
    <glyph glyph-name="Ydieresis" unicode="&#x178;" 
d="M218 159q0 -26 -2 -46t-9.5 -33.5t-22.5 -20.5t-40 -7q-14 0 -34 4t-43 12l-15 -50q32 -12 51 -20t45 -8q74 0 106 43t32 129v586h-68v-361q0 -48 -9 -77t-43 -29q-32 0 -41 29.5t-9 77.5v360h-68v-362q0 -82 26 -121.5t92 -39.5q17 0 27.5 4.5t24.5 15.5v-86zM89 844
v-61h62v61h-62zM188 844v-61h61v61h-61z" />
    <glyph glyph-name="exclamdown" unicode="&#xa1;" horiz-adv-x="185" 
d="M128 0l-15 548h-44l-13 -548h72zM128 660v88h-72v-88h72z" />
    <glyph glyph-name="cent" unicode="&#xa2;" horiz-adv-x="315" 
d="M135 49h46v48q21 10 35.5 21t23 27.5t12 40.5t3.5 60v43h-58v-63q0 -71 -42 -71q-18 0 -24.5 16.5t-6.5 45.5v305q0 37 10 51.5t28 14.5q19 0 25.5 -16t6.5 -46v-59h59v55q0 27 -4.5 46t-13.5 33t-22.5 23.5t-31.5 17.5v51h-46v-49q-24 -9 -38.5 -20t-22.5 -29.5t-11 -46
t-3 -69.5v-219q0 -38 2.5 -64.5t10.5 -45t23 -31t39 -23.5v-47z" />
    <glyph glyph-name="sterling" unicode="&#xa3;" horiz-adv-x="315" 
d="M48 412h-31v-56h31v-356h255v64h-187v291h108v57h-110l-0.5 17t-0.5 44v59q0 33 1 65q1 40 13 64t34 24q26 0 37.5 -34t15.5 -111h58q0 108 -27.5 155.5t-82.5 47.5t-84.5 -41.5t-29.5 -130.5v-159z" />
    <glyph glyph-name="currency" unicode="&#xa4;" horiz-adv-x="704" 
d="M192 452q54 0 81 25t27 67q0 25 -12 42t-32 25q-24 10 -47 15.5t-41 10.5t-29 13t-11 22q0 20 15.5 34.5t41.5 14.5q21 0 32.5 -6.5t18 -15.5t8.5 -19t4 -17h43q0 15 -5 32t-17.5 30.5t-32.5 22.5t-50 9q-48 0 -75 -24.5t-27 -61.5q0 -24 10.5 -39t26.5 -23
q24 -10 48 -15t43.5 -11t32 -15t12.5 -27q0 -22 -17.5 -36.5t-52.5 -14.5q-39 0 -54.5 22t-15.5 47h-42q0 -21 6.5 -40.5t20.5 -34t36 -23.5t54 -9zM622 748h-80l-59 -228h-2l-60 228h-78v-290h43v262h2l68 -262h53l68 262h2v-262h43v290z" />
    <glyph glyph-name="yen" unicode="&#xa5;" horiz-adv-x="1000" 
d="M150 0h700v700h-700v-700z" />
    <glyph glyph-name="section" unicode="&#xa7;" horiz-adv-x="1000" 
d="M150 0h700v700h-700v-700zM816 666v-632h-632v632h632zM476 350l-212 -212l24 -24l212 212l212 -212l24 24l-212 212l212 212l-24 24l-212 -212l-212 212l-24 -24z" />
    <glyph glyph-name="dieresis" unicode="&#xa8;" horiz-adv-x="0" 
d="M49 641v-61h62v61h-62zM148 641v-61h61v61h-61z" />
    <glyph glyph-name="copyright" unicode="&#xa9;" horiz-adv-x="556" 
d="M513 519q0 48 -18.5 91t-50.5 75t-75 50.5t-91 18.5q-49 0 -91.5 -18.5t-74.5 -50.5t-50.5 -75t-18.5 -91q0 -49 18.5 -91.5t50.5 -74.5t74.5 -50.5t91.5 -18.5q48 0 91 18.5t75 50.5t50.5 74.5t18.5 91.5zM278 319q-41 0 -77.5 16t-63.5 43t-43 63.5t-16 77.5t16 77.5
t43 63.5t63.5 43t77.5 16t77.5 -16t63.5 -43t43 -63.5t16 -77.5t-16 -77.5t-43 -63.5t-63.5 -43t-77.5 -16zM358 460q-9 -8 -24.5 -19t-47.5 -11q-15 0 -30.5 6t-29 17.5t-22 29t-8.5 40.5q0 22 8.5 39.5t22 29.5t30 18t32.5 6q26 0 43 -11.5t26 -19.5l26 33
q-4 4 -11.5 10.5t-19.5 13t-27.5 11t-36.5 4.5q-26 0 -50.5 -10t-43.5 -28t-30.5 -42.5t-11.5 -53.5t11.5 -53.5t30 -42.5t43 -28t51.5 -10q21 0 37 4.5t27.5 11t19 13t11.5 10.5z" />
    <glyph glyph-name="ordfeminine" unicode="&#xaa;" horiz-adv-x="1000" 
d="M850 0v700l-700 -350zM227 350l589 295v-590z" />
    <glyph glyph-name="guillemotleft" unicode="&#xab;" horiz-adv-x="296" 
d="M121 62h35l-55 204l55 205h-35l-91 -205zM240 62h35l-56 204l56 205h-35l-91 -205z" />
    <glyph glyph-name="logicalnot" unicode="&#xac;" horiz-adv-x="1000" 
d="M150 0h700l-350 700z" />
    <glyph glyph-name="registered" unicode="&#xae;" horiz-adv-x="556" 
d="M44 520q0 -48 18.5 -91t50 -74.5t74.5 -50t91 -18.5t91 18.5t74.5 50t50 74.5t18.5 91t-18.5 91t-50 74.5t-74.5 50t-91 18.5t-91 -18.5t-74.5 -50t-50 -74.5t-18.5 -91zM278 720q41 0 77.5 -16t63.5 -43t43 -63.5t16 -77.5t-16 -77.5t-43 -63.5t-63.5 -43t-77.5 -16
t-77.5 16t-63.5 43t-43 63.5t-16 77.5t16 77.5t43 63.5t63.5 43t77.5 16zM330 509q6 3 13.5 6.5t14 10.5t11 17t4.5 27q0 27 -9 43t-23.5 24t-32.5 10.5t-36 2.5h-83v-248h45v100h53l39 -100h50zM234 542v65h50q42 0 42 -33q0 -17 -11 -24.5t-27 -7.5h-54z" />
    <glyph glyph-name="degree" unicode="&#xb0;" horiz-adv-x="315" 
d="M51 637q0 -22 8.5 -41t23 -33.5t33.5 -23t41 -8.5q45 0 75.5 30.5t30.5 75.5q0 22 -8.5 41.5t-23 34t-33.5 22.5t-41 8q-21 0 -40.5 -8t-34 -22.5t-23 -34t-8.5 -41.5zM102 637q0 23 16 39t39 16t39.5 -16t16.5 -39t-16.5 -39.5t-39.5 -16.5t-39 16.5t-16 39.5z" />
    <glyph glyph-name="plusminus" unicode="&#xb1;" horiz-adv-x="500" 
d="M45 -89h412v59h-412v-59zM220 177v-159h59v159h180v58h-180v177h-59v-177h-174v-58h174z" />
    <glyph glyph-name="acute" unicode="&#xb4;" horiz-adv-x="0" 
d="M72 603l22 -23l117 121l-36 33z" />
    <glyph glyph-name="mu" unicode="&#xb5;" horiz-adv-x="1000" 
d="M150 0h700v700h-700v-700zM184 666h632v-632h-632v632z" />
    <glyph glyph-name="paragraph" unicode="&#xb6;" horiz-adv-x="630" 
d="M477 711h58v37h-115q-53 0 -106 -13t-96 -41.5t-70 -74.5t-27 -111q0 -61 22.5 -102.5t56.5 -68t72 -39.5t70 -17v-437h37v867h61v-867h37v867z" />
    <glyph glyph-name="periodcentered" unicode="&#xb7;" horiz-adv-x="315" 
d="M120 325h75v93h-75v-93z" />
    <glyph glyph-name="periodcentered" unicode="&#x2219;" horiz-adv-x="315" 
d="M120 325h75v93h-75v-93z" />
    <glyph glyph-name="cedilla" unicode="&#xb8;" horiz-adv-x="0" 
d="M27 -37l1 -22q22 3 33.5 4t17 2t6.5 1h2q27 0 43.5 -11t16.5 -34q0 -40 -37.5 -52.5t-106.5 -12.5l-3 -21q11 -3 19.5 -4t30.5 -1q59 0 94.5 21.5t35.5 64.5q0 29 -16 48.5t-44 24.5l33 40h-39l-32 -37z" />
    <glyph glyph-name="ordmasculine" unicode="&#xba;" horiz-adv-x="1000" 
d="M850 350l-700 350v-700zM184 55v590l589 -295z" />
    <glyph glyph-name="guillemotright" unicode="&#xbb;" horiz-adv-x="296" 
d="M177 471h-36l56 -205l-56 -204h36l89 204zM58 471h-37l57 -205l-57 -204h37l90 204z" />
    <glyph glyph-name="questiondown" unicode="&#xbf;" horiz-adv-x="278" 
d="M86 342l-51 -140q-5 -14 -7.5 -32.5t-2.5 -41.5q0 -63 27.5 -98.5t84.5 -35.5q33 0 53 10.5t31 31.5t15 52t4 72h-57q0 -28 -1.5 -48.5t-6 -34.5t-13.5 -21t-25 -7q-25 0 -37 21.5t-12 69.5q0 20 1.5 31.5t4.5 20.5l52 148q8 23 13.5 63t5.5 82q0 12 -3 63h-51
q0 -45 -1 -74t-3.5 -50t-7.5 -39.5t-13 -42.5zM177 748h-71v-88h71v88z" />
    <glyph glyph-name="Agrave" unicode="&#xc0;" 
d="M17 428v-65h31v-363l68 -1v364h102v-363h68v621q0 28 -8.5 52.5t-24.5 42.5t-37.5 28t-48.5 10q-56 0 -87.5 -36.5t-31.5 -96.5v-193h-31zM116 627q0 39 13 54.5t38 15.5q23 0 37 -16t14 -54v-199h-102v199zM85 904l117 -121l24 21l-105 133z" />
    <glyph glyph-name="Aacute" unicode="&#xc1;" 
d="M17 428v-65h31v-363l68 -1v364h102v-363h68v621q0 28 -8.5 52.5t-24.5 42.5t-37.5 28t-48.5 10q-56 0 -87.5 -36.5t-31.5 -96.5v-193h-31zM116 627q0 39 13 54.5t38 15.5q23 0 37 -16t14 -54v-199h-102v199zM112 806l22 -23l117 121l-36 33z" />
    <glyph glyph-name="Acircumflex" unicode="&#xc2;" 
d="M17 428v-65h31v-363l68 -1v364h102v-363h68v621q0 28 -8.5 52.5t-24.5 42.5t-37.5 28t-48.5 10q-56 0 -87.5 -36.5t-31.5 -96.5v-193h-31zM116 627q0 39 13 54.5t38 15.5q23 0 37 -16t14 -54v-199h-102v199zM259 783l10 26l-102 66l-102 -66l10 -26l92 49z" />
    <glyph glyph-name="Atilde" unicode="&#xc3;" 
d="M17 428v-65h31v-363l68 -1v364h102v-363h68v621q0 28 -8.5 52.5t-24.5 42.5t-37.5 28t-48.5 10q-56 0 -87.5 -36.5t-31.5 -96.5v-193h-31zM116 627q0 39 13 54.5t38 15.5q23 0 37 -16t14 -54v-199h-102v199zM120 831q13 0 23.5 -6.5t21 -14.5t22.5 -14.5t29 -6.5
q26 0 44 18t28 51l-21 13q-9 -16 -14.5 -25.5t-10.5 -14.5t-10.5 -6.5t-13.5 -1.5q-13 0 -23.5 6.5t-21 14t-22 14t-27.5 6.5q-29 0 -46.5 -18.5t-26.5 -50.5l22 -12q10 25 20.5 36.5t26.5 11.5z" />
    <glyph glyph-name="Adieresis" unicode="&#xc4;" 
d="M17 428v-65h31v-363l68 -1v364h102v-363h68v621q0 28 -8.5 52.5t-24.5 42.5t-37.5 28t-48.5 10q-56 0 -87.5 -36.5t-31.5 -96.5v-193h-31zM116 627q0 39 13 54.5t38 15.5q23 0 37 -16t14 -54v-199h-102v199zM86 844v-61h62v61h-62zM185 844v-61h61v61h-61z" />
    <glyph glyph-name="Aring" unicode="&#xc5;" 
d="M17 428v-65h31v-363l68 -1v364h102v-363h68v621q0 28 -8.5 52.5t-24.5 42.5t-37.5 28t-48.5 10q-56 0 -87.5 -36.5t-31.5 -96.5v-193h-31zM116 627q0 39 13 54.5t38 15.5q23 0 37 -16t14 -54v-199h-102v199zM170 936q-29 0 -50 -20t-21 -51q0 -29 21 -49.5t50 -20.5
t49.5 20.5t20.5 49.5q0 31 -20.5 51t-49.5 20zM126 865q0 20 13.5 32t31.5 12q17 0 30.5 -12.5t13.5 -31.5q0 -17 -13 -31t-31 -14q-19 0 -32 13.5t-13 31.5z" />
    <glyph glyph-name="AE" unicode="&#xc6;" horiz-adv-x="436" 
d="M412 60q-15 -2 -27 -3t-20 -1q-27 0 -43 8t-24 21.5t-10 32t-2 38.5v200h106v55h-106v205q0 23 2 37.5t8 22.5t17.5 11t31.5 3h57v56h-95q-19 0 -31.5 -4.5t-29.5 -13.5q-21 12 -36 19t-42 7q-53 0 -86.5 -35.5t-33.5 -100.5v-206h-31v-56h31v-356h68v356h102v-199
q0 -37 6 -66t21 -49.5t40 -31t63 -10.5q14 0 30 1t34 3v56zM166 696q24 0 38 -17t14 -53v-214h-102v213q0 32 11.5 51.5t38.5 19.5z" />
    <glyph glyph-name="Ccedilla" unicode="&#xc7;" 
d="M139 -26l-55 -11l1 -22q22 3 33.5 4t17 2t6.5 1h2q27 0 43.5 -11t16.5 -34q0 -40 -37.5 -52.5t-106.5 -12.5l-3 -21q11 -3 19.5 -4t30.5 -1q59 0 94.5 21.5t35.5 64.5q0 29 -16 48.5t-44 24.5q1 1 6 7t10.5 13.5l5.5 7.5q47 11 67 53.5t20 105.5v116h-68v-116
q0 -48 -9.5 -77.5t-43.5 -29.5q-33 0 -41 32.5t-8 88.5v419q0 48 9 77.5t41 29.5q28 0 36.5 -30t8.5 -77v-90h68v87q0 79 -27.5 122.5t-85.5 43.5q-62 0 -90 -44t-28 -122v-424q0 -79 26 -122.5t83 -46.5z" />
    <glyph glyph-name="Egrave" unicode="&#xc8;" horiz-adv-x="268" 
d="M244 60q-15 -2 -27 -3t-20 -1q-27 0 -43.5 8t-24.5 21.5t-10.5 32t-2.5 38.5v199h108v57h-108v175q0 27 1 47t7.5 33t20.5 19.5t40 6.5q20 0 49 -3v56q-18 2 -33 2h-27q-66 0 -96 -36.5t-30 -125.5v-173h-31v-58h31v-198q0 -75 28 -116t103 -41q14 0 30.5 1t34.5 3v56z
M60 904l117 -121l24 21l-105 133z" />
    <glyph glyph-name="Eacute" unicode="&#xc9;" horiz-adv-x="268" 
d="M244 60q-15 -2 -27 -3t-20 -1q-27 0 -43.5 8t-24.5 21.5t-10.5 32t-2.5 38.5v199h108v57h-108v175q0 27 1 47t7.5 33t20.5 19.5t40 6.5q20 0 49 -3v56q-18 2 -33 2h-27q-66 0 -96 -36.5t-30 -125.5v-173h-31v-58h31v-198q0 -75 28 -116t103 -41q14 0 30.5 1t34.5 3v56z
M96 823l23 -24l120 124l-37 34z" />
    <glyph glyph-name="Ecircumflex" unicode="&#xca;" horiz-adv-x="268" 
d="M244 60q-15 -2 -27 -3t-20 -1q-27 0 -43.5 8t-24.5 21.5t-10.5 32t-2.5 38.5v199h108v57h-108v175q0 27 1 47t7.5 33t20.5 19.5t40 6.5q20 0 49 -3v56q-18 2 -33 2h-27q-66 0 -96 -36.5t-30 -125.5v-173h-31v-58h31v-198q0 -75 28 -116t103 -41q14 0 30.5 1t34.5 3v56z
M244 783l10 26l-102 66l-102 -66l10 -26l92 49z" />
    <glyph glyph-name="Edieresis" unicode="&#xcb;" horiz-adv-x="268" 
d="M244 60q-15 -2 -27 -3t-20 -1q-27 0 -43.5 8t-24.5 21.5t-10.5 32t-2.5 38.5v199h108v57h-108v175q0 27 1 47t7.5 33t20.5 19.5t40 6.5q20 0 49 -3v56q-18 2 -33 2h-27q-66 0 -96 -36.5t-30 -125.5v-173h-31v-58h31v-198q0 -75 28 -116t103 -41q14 0 30.5 1t34.5 3v56z
M77 844v-61h62v61h-62zM176 844v-61h61v61h-61z" />
    <glyph glyph-name="Igrave" unicode="&#xcc;" horiz-adv-x="164" 
d="M116 0v748h-68v-748h68zM12 904l117 -121l24 21l-105 133z" />
    <glyph glyph-name="Iacute" unicode="&#xcd;" horiz-adv-x="164" 
d="M116 0v748h-68v-748h68zM12 806l22 -23l117 121l-36 33z" />
    <glyph glyph-name="Icircumflex" unicode="&#xce;" horiz-adv-x="164" 
d="M116 0v748h-68v-748h68zM173 783l10 26l-102 66l-102 -66l10 -26l92 49z" />
    <glyph glyph-name="Idieresis" unicode="&#xcf;" horiz-adv-x="164" 
d="M116 0v748h-68v-748h68zM3 844v-61h62v61h-62zM102 844v-61h61v61h-61z" />
    <glyph glyph-name="Ntilde" unicode="&#xd1;" 
d="M116 0v605q0 37 20 60t46 23q16 0 26 -12.5t10 -36.5v-640h68v640q0 58 -26.5 86.5t-64.5 28.5q-23 0 -40.5 -9.5t-43.5 -35.5v39h-63v-748h68zM117 831q13 0 23.5 -6.5t21 -14.5t22.5 -14.5t29 -6.5q26 0 44 18t28 51l-21 13q-9 -16 -14.5 -25.5t-10.5 -14.5t-10.5 -6.5
t-13.5 -1.5q-13 0 -23.5 6.5t-21 14t-22 14t-27.5 6.5q-29 0 -46.5 -18.5t-26.5 -50.5l22 -12q10 25 20.5 36.5t26.5 11.5z" />
    <glyph glyph-name="Ograve" unicode="&#xd2;" 
d="M167 754q-62 0 -90.5 -44t-28.5 -122v-428q0 -76 28 -120.5t91 -44.5q62 0 90.5 43t28.5 120v430q0 77 -28.5 121.5t-90.5 44.5zM167 698q17 0 27 -8.5t15.5 -23t7 -34.5t1.5 -44v-431q0 -48 -10 -77t-41 -29q-35 0 -43 28.5t-8 78.5v430q0 24 1.5 44t6.5 34.5t15.5 23
t27.5 8.5zM90 904l117 -121l24 21l-105 133z" />
    <glyph glyph-name="Oacute" unicode="&#xd3;" 
d="M167 754q-62 0 -90.5 -44t-28.5 -122v-428q0 -76 28 -120.5t91 -44.5q62 0 90.5 43t28.5 120v430q0 77 -28.5 121.5t-90.5 44.5zM167 698q17 0 27 -8.5t15.5 -23t7 -34.5t1.5 -44v-431q0 -48 -10 -77t-41 -29q-35 0 -43 28.5t-8 78.5v430q0 24 1.5 44t6.5 34.5t15.5 23
t27.5 8.5zM100 806l22 -23l117 121l-36 33z" />
    <glyph glyph-name="Ocircumflex" unicode="&#xd4;" 
d="M167 754q-62 0 -90.5 -44t-28.5 -122v-428q0 -76 28 -120.5t91 -44.5q62 0 90.5 43t28.5 120v430q0 77 -28.5 121.5t-90.5 44.5zM167 698q17 0 27 -8.5t15.5 -23t7 -34.5t1.5 -44v-431q0 -48 -10 -77t-41 -29q-35 0 -43 28.5t-8 78.5v430q0 24 1.5 44t6.5 34.5t15.5 23
t27.5 8.5zM261 783l10 26l-102 66l-102 -66l10 -26l92 49z" />
    <glyph glyph-name="Otilde" unicode="&#xd5;" 
d="M167 754q-62 0 -90.5 -44t-28.5 -122v-428q0 -76 28 -120.5t91 -44.5q62 0 90.5 43t28.5 120v430q0 77 -28.5 121.5t-90.5 44.5zM167 698q17 0 27 -8.5t15.5 -23t7 -34.5t1.5 -44v-431q0 -48 -10 -77t-41 -29q-35 0 -43 28.5t-8 78.5v430q0 24 1.5 44t6.5 34.5t15.5 23
t27.5 8.5zM118 831q13 0 23.5 -6.5t21 -14.5t22.5 -14.5t29 -6.5q26 0 44 18t28 51l-21 13q-9 -16 -14.5 -25.5t-10.5 -14.5t-10.5 -6.5t-13.5 -1.5q-13 0 -23.5 6.5t-21 14t-22 14t-27.5 6.5q-29 0 -46.5 -18.5t-26.5 -50.5l22 -12q10 25 20.5 36.5t26.5 11.5z" />
    <glyph glyph-name="Odieresis" unicode="&#xd6;" 
d="M167 754q-62 0 -90.5 -44t-28.5 -122v-428q0 -76 28 -120.5t91 -44.5q62 0 90.5 43t28.5 120v430q0 77 -28.5 121.5t-90.5 44.5zM167 698q17 0 27 -8.5t15.5 -23t7 -34.5t1.5 -44v-431q0 -48 -10 -77t-41 -29q-35 0 -43 28.5t-8 78.5v430q0 24 1.5 44t6.5 34.5t15.5 23
t27.5 8.5zM85 844v-61h62v61h-62zM184 844v-61h61v61h-61z" />
    <glyph glyph-name="Oslash" unicode="&#xd8;" horiz-adv-x="315" 
d="M67 -32l14 54q16 -14 33 -20.5t42 -6.5q62 0 90 43.5t28 120.5v429q0 29 -2 46.5t-7 37.5l25 86l-49 12l-13 -39q-28 23 -70 23q-63 0 -90 -44t-27 -122v-429q0 -23 1.5 -40t4.5 -33l-29 -102zM157 51q-24 0 -36.5 19.5t-13.5 47.5l101 350v-309q0 -48 -9.5 -78
t-41.5 -30zM158 697q20 0 33.5 -14t16.5 -37l-101 -344v286q0 49 8.5 79t42.5 30z" />
    <glyph glyph-name="Ugrave" unicode="&#xd9;" 
d="M218 748v-588q0 -50 -9.5 -79t-42.5 -29q-16 0 -25.5 8t-15 22.5t-7.5 34.5t-2 45v586h-68v-585q0 -76 28 -122t91 -46q62 0 90.5 44.5t28.5 122.5v586h-68zM84 904l117 -121l24 21l-105 133z" />
    <glyph glyph-name="Uacute" unicode="&#xda;" 
d="M218 748v-588q0 -50 -9.5 -79t-42.5 -29q-16 0 -25.5 8t-15 22.5t-7.5 34.5t-2 45v586h-68v-585q0 -76 28 -122t91 -46q62 0 90.5 44.5t28.5 122.5v586h-68zM100 806l22 -23l117 121l-36 33z" />
    <glyph glyph-name="Ucircumflex" unicode="&#xdb;" 
d="M218 748v-588q0 -50 -9.5 -79t-42.5 -29q-16 0 -25.5 8t-15 22.5t-7.5 34.5t-2 45v586h-68v-585q0 -76 28 -122t91 -46q62 0 90.5 44.5t28.5 122.5v586h-68zM259 783l10 26l-102 66l-102 -66l10 -26l92 49z" />
    <glyph glyph-name="Udieresis" unicode="&#xdc;" 
d="M89 844v-61h62v61h-62zM188 844v-61h61v61h-61zM218 748v-588q0 -50 -9.5 -79t-42.5 -29q-16 0 -25.5 8t-15 22.5t-7.5 34.5t-2 45v586h-68v-585q0 -76 28 -122t91 -46q62 0 90.5 44.5t28.5 122.5v586h-68z" />
    <glyph glyph-name="germandbls" unicode="&#xdf;" horiz-adv-x="352" 
d="M273 631q0 51 -33 82.5t-82 30.5q-22 0 -42 -8.5t-35 -26.5t-24 -47t-9 -71v-627h65v634q0 37 11.5 63t37.5 27q16 0 26.5 -6t15.5 -15t6.5 -19.5t1.5 -18.5q0 -12 -11.5 -37t-24.5 -55t-24 -61t-11 -54q0 -43 12.5 -70t32.5 -52l61 -75q18 -22 26.5 -49.5t8.5 -59.5
q0 -67 -41 -67q-20 0 -27.5 16.5t-7.5 46.5v48h-65v-47q0 -55 27.5 -88.5t71.5 -33.5q49 0 77.5 36.5t28.5 105.5q0 39 -12 72t-36 62l-59 71q-19 23 -29.5 41t-10.5 45q0 23 11.5 47.5t25.5 50t25.5 53t11.5 56.5z" />
    <glyph glyph-name="agrave" unicode="&#xe0;" horiz-adv-x="294" 
d="M197 0h64q-8 32 -11.5 53t-3.5 48v275q0 39 -4 69.5t-14.5 51.5t-28.5 32t-46 11q-52 0 -73 -35t-21 -97v-44h65v52q0 35 6.5 51t23.5 16q16 0 22 -16.5t6 -45.5v-74q-39 -20 -66 -40t-43.5 -44.5t-23.5 -56t-7 -74.5q0 -68 21.5 -102.5t60.5 -34.5q20 0 33 7.5t28 24.5z
M149 47q-20 0 -30 19.5t-10 54.5q0 34 2.5 57.5t10.5 41.5t22.5 33t37.5 31v-173q0 -26 -6.5 -45t-26.5 -19zM60 697l117 -121l24 21l-105 133z" />
    <glyph glyph-name="aacute" unicode="&#xe1;" horiz-adv-x="294" 
d="M197 0h64q-8 32 -11.5 53t-3.5 48v275q0 39 -4 69.5t-14.5 51.5t-28.5 32t-46 11q-52 0 -73 -35t-21 -97v-44h65v52q0 35 6.5 51t23.5 16q16 0 22 -16.5t6 -45.5v-74q-39 -20 -66 -40t-43.5 -44.5t-23.5 -56t-7 -74.5q0 -68 21.5 -102.5t60.5 -34.5q20 0 33 7.5t28 24.5z
M149 47q-20 0 -30 19.5t-10 54.5q0 34 2.5 57.5t10.5 41.5t22.5 33t37.5 31v-173q0 -26 -6.5 -45t-26.5 -19zM76 603l22 -23l117 121l-36 33z" />
    <glyph glyph-name="acircumflex" unicode="&#xe2;" horiz-adv-x="294" 
d="M197 0h64q-8 32 -11.5 53t-3.5 48v275q0 39 -4 69.5t-14.5 51.5t-28.5 32t-46 11q-52 0 -73 -35t-21 -97v-44h65v52q0 35 6.5 51t23.5 16q16 0 22 -16.5t6 -45.5v-74q-39 -20 -66 -40t-43.5 -44.5t-23.5 -56t-7 -74.5q0 -68 21.5 -102.5t60.5 -34.5q20 0 33 7.5t28 24.5z
M149 47q-20 0 -30 19.5t-10 54.5q0 34 2.5 57.5t10.5 41.5t22.5 33t37.5 31v-173q0 -26 -6.5 -45t-26.5 -19zM235 580l10 26l-102 66l-102 -66l10 -26l92 49z" />
    <glyph glyph-name="atilde" unicode="&#xe3;" horiz-adv-x="294" 
d="M197 0h64q-8 32 -11.5 53t-3.5 48v275q0 39 -4 69.5t-14.5 51.5t-28.5 32t-46 11q-52 0 -73 -35t-21 -97v-44h65v52q0 35 6.5 51t23.5 16q16 0 22 -16.5t6 -45.5v-74q-39 -20 -66 -40t-43.5 -44.5t-23.5 -56t-7 -74.5q0 -68 21.5 -102.5t60.5 -34.5q20 0 33 7.5t28 24.5z
M149 47q-20 0 -30 19.5t-10 54.5q0 34 2.5 57.5t10.5 41.5t22.5 33t37.5 31v-173q0 -26 -6.5 -45t-26.5 -19zM98 628q13 0 23.5 -6.5t21 -14.5t22.5 -14.5t29 -6.5q26 0 44 18t28 51l-21 13q-9 -16 -14.5 -25.5t-10.5 -14.5t-10.5 -6.5t-13.5 -1.5q-13 0 -23.5 6.5t-21 14
t-22 14t-27.5 6.5q-29 0 -46.5 -18.5t-26.5 -50.5l22 -12q10 25 20.5 36.5t26.5 11.5z" />
    <glyph glyph-name="adieresis" unicode="&#xe4;" horiz-adv-x="294" 
d="M197 0h64q-8 32 -11.5 53t-3.5 48v275q0 39 -4 69.5t-14.5 51.5t-28.5 32t-46 11q-52 0 -73 -35t-21 -97v-44h65v52q0 35 6.5 51t23.5 16q16 0 22 -16.5t6 -45.5v-74q-39 -20 -66 -40t-43.5 -44.5t-23.5 -56t-7 -74.5q0 -68 21.5 -102.5t60.5 -34.5q20 0 33 7.5t28 24.5z
M149 47q-20 0 -30 19.5t-10 54.5q0 34 2.5 57.5t10.5 41.5t22.5 33t37.5 31v-173q0 -26 -6.5 -45t-26.5 -19zM67 641v-61h62v61h-62zM166 641v-61h61v61h-61z" />
    <glyph glyph-name="aring" unicode="&#xe5;" horiz-adv-x="294" 
d="M197 0h64q-8 32 -11.5 53t-3.5 48v275q0 39 -4 69.5t-14.5 51.5t-28.5 32t-46 11q-52 0 -73 -35t-21 -97v-44h65v52q0 35 6.5 51t23.5 16q16 0 22 -16.5t6 -45.5v-74q-39 -20 -66 -40t-43.5 -44.5t-23.5 -56t-7 -74.5q0 -68 21.5 -102.5t60.5 -34.5q20 0 33 7.5t28 24.5z
M149 47q-20 0 -30 19.5t-10 54.5q0 34 2.5 57.5t10.5 41.5t22.5 33t37.5 31v-173q0 -26 -6.5 -45t-26.5 -19zM147 735q-29 0 -50 -20t-21 -51q0 -29 21 -49.5t50 -20.5t49.5 20.5t20.5 49.5q0 31 -20.5 51t-49.5 20zM103 664q0 20 13.5 32t31.5 12q17 0 30.5 -12.5
t13.5 -31.5q0 -17 -13 -31t-31 -14q-19 0 -32 13.5t-13 31.5z" />
    <glyph glyph-name="ae" unicode="&#xe6;" horiz-adv-x="429" 
d="M279 -10q58 0 80 40.5t22 110.5v43h-62v-63q0 -38 -9 -56t-31 -18q-20 0 -25.5 17t-5.5 48v137h133v154q0 63 -22.5 100.5t-74.5 37.5q-20 0 -36 -6t-36 -20q-19 14 -34.5 20t-38.5 6q-55 0 -73.5 -34.5t-18.5 -97.5v-44h62v52q0 35 7.5 50.5t29.5 15.5q20 0 28 -14.5
t8 -46.5v-74q-43 -16 -72 -34.5t-47 -44t-25.5 -60.5t-7.5 -84q0 -66 20 -100.5t64 -34.5q26 0 43 11.5t37 37.5q18 -26 36 -37.5t49 -11.5zM140 47q-41 0 -41 74q0 40 4 67.5t14 45.5t26 29.5t39 21.5v-174q0 -26 -10 -45t-32 -19zM281 483q21 0 29 -17.5t8 -54.5v-101h-70
v101q0 34 6.5 53t26.5 19z" />
    <glyph glyph-name="ccedilla" unicode="&#xe7;" horiz-adv-x="294" 
d="M122 -26l-55 -11l1 -22q22 3 33.5 4t17 2t6.5 1h2q27 0 43.5 -11t16.5 -34q0 -40 -37.5 -52.5t-106.5 -12.5l-3 -21q11 -3 19.5 -4t30.5 -1q59 0 94.5 21.5t35.5 64.5q0 29 -16 48.5t-44 24.5q1 1 5.5 6.5t9 11.5l4.5 6q38 12 53 50t15 96v43h-66v-63q0 -38 -7.5 -56
t-28.5 -18q-19 0 -25.5 17t-6.5 48v305q0 33 6.5 50t29.5 17q19 0 25.5 -16.5t6.5 -45.5v-62h65v57q0 57 -25 90t-75 33q-31 0 -50.5 -12t-30 -34t-14.5 -52.5t-4 -67.5v-219q0 -35 3.5 -64.5t13 -51t27 -34.5t45.5 -15z" />
    <glyph glyph-name="egrave" unicode="&#xe8;" horiz-adv-x="294" 
d="M246 249v154q0 61 -23 99t-76 38q-32 0 -51.5 -12t-30 -34t-14.5 -52.5t-4 -67.5v-219q0 -37 4 -67.5t14.5 -52t29.5 -33.5t50 -12q58 0 79.5 40.5t21.5 110.5v43h-65v-63q0 -38 -7.5 -56t-28.5 -18q-19 0 -25.5 17t-6.5 48v137h133zM113 417q0 32 6.5 49.5t25.5 17.5
q23 0 30 -17.5t7 -55.5v-101h-69v107zM66 701l117 -121l24 21l-105 133z" />
    <glyph glyph-name="eacute" unicode="&#xe9;" horiz-adv-x="294" 
d="M246 249v154q0 61 -23 99t-76 38q-32 0 -51.5 -12t-30 -34t-14.5 -52.5t-4 -67.5v-219q0 -37 4 -67.5t14.5 -52t29.5 -33.5t50 -12q58 0 79.5 40.5t21.5 110.5v43h-65v-63q0 -38 -7.5 -56t-28.5 -18q-19 0 -25.5 17t-6.5 48v137h133zM113 417q0 32 6.5 49.5t25.5 17.5
q23 0 30 -17.5t7 -55.5v-101h-69v107zM86 603l22 -23l117 121l-36 33z" />
    <glyph glyph-name="ecircumflex" unicode="&#xea;" horiz-adv-x="294" 
d="M246 249v154q0 61 -23 99t-76 38q-32 0 -51.5 -12t-30 -34t-14.5 -52.5t-4 -67.5v-219q0 -37 4 -67.5t14.5 -52t29.5 -33.5t50 -12q58 0 79.5 40.5t21.5 110.5v43h-65v-63q0 -38 -7.5 -56t-28.5 -18q-19 0 -25.5 17t-6.5 48v137h133zM113 417q0 32 6.5 49.5t25.5 17.5
q23 0 30 -17.5t7 -55.5v-101h-69v107zM239 580l10 26l-102 66l-102 -66l10 -26l92 49z" />
    <glyph glyph-name="edieresis" unicode="&#xeb;" horiz-adv-x="294" 
d="M246 249v154q0 61 -23 99t-76 38q-32 0 -51.5 -12t-30 -34t-14.5 -52.5t-4 -67.5v-219q0 -37 4 -67.5t14.5 -52t29.5 -33.5t50 -12q58 0 79.5 40.5t21.5 110.5v43h-65v-63q0 -38 -7.5 -56t-28.5 -18q-19 0 -25.5 17t-6.5 48v137h133zM113 417q0 32 6.5 49.5t25.5 17.5
q23 0 30 -17.5t7 -55.5v-101h-69v107zM67 643v-61h62v61h-62zM166 643v-61h61v61h-61z" />
    <glyph glyph-name="igrave" unicode="&#xec;" horiz-adv-x="160" 
d="M114 0v531h-66v-531h66zM6 699l117 -121l24 21l-105 133z" />
    <glyph glyph-name="iacute" unicode="&#xed;" horiz-adv-x="160" 
d="M114 0v531h-66v-531h66zM4 603l22 -23l117 121l-36 33z" />
    <glyph glyph-name="icircumflex" unicode="&#xee;" horiz-adv-x="160" 
d="M114 0v531h-66v-531h66zM167 580l10 26l-102 66l-102 -66l10 -26l92 49z" />
    <glyph glyph-name="idieresis" unicode="&#xef;" horiz-adv-x="160" 
d="M114 0v531h-66v-531h66zM1 641v-61h62v61h-62zM100 641v-61h61v61h-61z" />
    <glyph glyph-name="ntilde" unicode="&#xf1;" horiz-adv-x="294" 
d="M113 441q16 16 26 23.5t20 7.5q23 0 23 -50v-422h65v421q0 24 -2.5 45t-10 36.5t-20.5 24t-35 8.5t-36 -10t-30 -31v37h-65v-531h65v441zM96 628q13 0 23.5 -6.5t21 -14.5t22.5 -14.5t29 -6.5q26 0 44 18t28 51l-21 13q-9 -16 -14.5 -25.5t-10.5 -14.5t-10.5 -6.5
t-13.5 -1.5q-13 0 -23.5 6.5t-21 14t-22 14t-27.5 6.5q-29 0 -46.5 -18.5t-26.5 -50.5l22 -12q10 25 20.5 36.5t26.5 11.5z" />
    <glyph glyph-name="ograve" unicode="&#xf2;" horiz-adv-x="294" 
d="M147 -9q31 0 50.5 11.5t30.5 32.5t15 51.5t4 68.5v219q0 38 -4 69t-15 52.5t-30 33.5t-50 12t-50.5 -12.5t-30.5 -34.5t-15 -52.5t-4 -67.5v-219q0 -37 4 -67t15 -51.5t30 -33.5t50 -12zM148 47q-35 0 -35 64v312q0 60 35 60q34 0 34 -61v-313q0 -62 -34 -62zM72 701
l117 -121l24 21l-105 133z" />
    <glyph glyph-name="oacute" unicode="&#xf3;" horiz-adv-x="294" 
d="M147 -9q31 0 50.5 11.5t30.5 32.5t15 51.5t4 68.5v219q0 38 -4 69t-15 52.5t-30 33.5t-50 12t-50.5 -12.5t-30.5 -34.5t-15 -52.5t-4 -67.5v-219q0 -37 4 -67t15 -51.5t30 -33.5t50 -12zM148 47q-35 0 -35 64v312q0 60 35 60q34 0 34 -61v-313q0 -62 -34 -62zM84 603
l22 -23l117 121l-36 33z" />
    <glyph glyph-name="ocircumflex" unicode="&#xf4;" horiz-adv-x="298" 
d="M147 -9q31 0 50.5 11.5t30.5 32.5t15 51.5t4 68.5v219q0 38 -4 69t-15 52.5t-30 33.5t-50 12t-50.5 -12.5t-30.5 -34.5t-15 -52.5t-4 -67.5v-219q0 -37 4 -67t15 -51.5t30 -33.5t50 -12zM148 47q-35 0 -35 64v312q0 60 35 60q34 0 34 -61v-313q0 -62 -34 -62zM239 580
l10 26l-102 66l-102 -66l10 -26l92 49z" />
    <glyph glyph-name="otilde" unicode="&#xf5;" horiz-adv-x="294" 
d="M147 -9q31 0 50.5 11.5t30.5 32.5t15 51.5t4 68.5v219q0 38 -4 69t-15 52.5t-30 33.5t-50 12t-50.5 -12.5t-30.5 -34.5t-15 -52.5t-4 -67.5v-219q0 -37 4 -67t15 -51.5t30 -33.5t50 -12zM148 47q-35 0 -35 64v312q0 60 35 60q34 0 34 -61v-313q0 -62 -34 -62zM98 628
q13 0 23.5 -6.5t21 -14.5t22.5 -14.5t29 -6.5q26 0 44 18t28 51l-21 13q-9 -16 -14.5 -25.5t-10.5 -14.5t-10.5 -6.5t-13.5 -1.5q-13 0 -23.5 6.5t-21 14t-22 14t-27.5 6.5q-29 0 -46.5 -18.5t-26.5 -50.5l22 -12q10 25 20.5 36.5t26.5 11.5z" />
    <glyph glyph-name="odieresis" unicode="&#xf6;" horiz-adv-x="294" 
d="M147 -9q31 0 50.5 11.5t30.5 32.5t15 51.5t4 68.5v219q0 38 -4 69t-15 52.5t-30 33.5t-50 12t-50.5 -12.5t-30.5 -34.5t-15 -52.5t-4 -67.5v-219q0 -37 4 -67t15 -51.5t30 -33.5t50 -12zM148 47q-35 0 -35 64v312q0 60 35 60q34 0 34 -61v-313q0 -62 -34 -62zM67 641v-61
h62v61h-62zM166 641v-61h61v61h-61z" />
    <glyph glyph-name="divide" unicode="&#xf7;" horiz-adv-x="500" 
d="M219 336h58v75h-58v-75zM219 0h58v75h-58v-75zM457 177v58h-412v-58h412z" />
    <glyph glyph-name="oslash" unicode="&#xf8;" horiz-adv-x="294" 
d="M146 540q-51 0 -75 -34.5t-24 -97.5v-270q0 -22 0.5 -35.5t2 -23.5t5.5 -17.5t10 -17.5l-22 -73l36 -14l16 48q11 -8 21.5 -11.5t27.5 -3.5q58 0 80.5 38.5t22.5 112.5v253q0 22 -0.5 36t-2 23.5t-3.5 17t-5 15.5l17 59l-37 9l-10 -31q-15 8 -29 12.5t-31 4.5zM147 47
q-21 0 -34 19l69 237v-195q0 -29 -7.5 -45t-27.5 -16zM147 484q24 0 36 -35l-70 -246v214q0 32 9 49.5t25 17.5z" />
    <glyph glyph-name="ugrave" unicode="&#xf9;" horiz-adv-x="294" 
d="M182 531v-420q0 -28 -6.5 -46t-27.5 -18q-35 0 -35 64v420h-65v-373q0 -37 4 -67.5t15 -53t30.5 -35t50.5 -12.5t50.5 12t30.5 34t14.5 53t3.5 69v373h-65zM70 701l117 -121l24 21l-105 133z" />
    <glyph glyph-name="uacute" unicode="&#xfa;" horiz-adv-x="294" 
d="M182 531v-420q0 -28 -6.5 -46t-27.5 -18q-35 0 -35 64v420h-65v-373q0 -37 4 -67.5t15 -53t30.5 -35t50.5 -12.5t50.5 12t30.5 34t14.5 53t3.5 69v373h-65zM80 603l22 -23l117 121l-36 33z" />
    <glyph glyph-name="ucircumflex" unicode="&#xfb;" horiz-adv-x="294" 
d="M182 531v-420q0 -28 -6.5 -46t-27.5 -18q-35 0 -35 64v420h-65v-373q0 -37 4 -67.5t15 -53t30.5 -35t50.5 -12.5t50.5 12t30.5 34t14.5 53t3.5 69v373h-65zM239 580l10 26l-102 66l-102 -66l10 -26l92 49z" />
    <glyph glyph-name="udieresis" unicode="&#xfc;" horiz-adv-x="294" 
d="M182 531v-420q0 -28 -6.5 -46t-27.5 -18q-35 0 -35 64v420h-65v-373q0 -37 4 -67.5t15 -53t30.5 -35t50.5 -12.5t50.5 12t30.5 34t14.5 53t3.5 69v373h-65zM67 641v-61h62v61h-62zM166 641v-61h61v61h-61z" />
    <glyph glyph-name="ydieresis" unicode="&#xff;" horiz-adv-x="301" 
d="M48 531v-427q0 -54 19 -84t56 -30q17 0 30.5 10t34.5 31v-60q0 -42 -13 -62.5t-45 -20.5q-12 0 -31 3l-9 -48q17 -6 27 -8t24 -2q60 0 86 38t26 109v551h-65v-437q-11 -20 -23 -29.5t-27 -9.5q-19 0 -22 14t-3 38v424h-65zM65 641v-61h62v61h-62zM164 641v-61h61v61h-61z
" />
    <glyph glyph-name="notequal" unicode="&#xe000;" horiz-adv-x="796" 
d="M76 196q-3 -26 -7 -47t-9 -41t-11.5 -41t-14.5 -45l20 -16q53 41 98.5 72t91 58t94.5 52.5t108 55.5q36 18 67 31.5t61.5 24.5t62.5 21t71 21q2 25 8.5 52.5t16.5 54.5t22.5 51t26.5 42q-50 -19 -99.5 -41.5t-95 -46t-83.5 -46t-65 -40.5q-41 -27 -81 -57t-80.5 -64
t-82 -73.5t-85.5 -87.5q9 22 16.5 41t14.5 37t13.5 37t13.5 42q6 19 10 35.5t8 32.5t7 32.5t7 36.5l-116 -38v-39t-1 -34.5t-2.5 -34t-4.5 -38.5z" />
    <glyph glyph-name="infinity" unicode="&#xe001;" horiz-adv-x="500" 
d="M75 175h350v350h-350v-350z" />
    <glyph glyph-name="lessequal" unicode="&#xe002;" horiz-adv-x="1000" 
d="M500 0l350 700h-700z" />
    <glyph glyph-name="greaterequal" unicode="&#xe003;" horiz-adv-x="1000" 
d="M500 0l350 700h-700zM500 77l-295 589h590z" />
    <glyph glyph-name="partialdiff" unicode="&#xe004;" horiz-adv-x="796" 
d="M98 350q0 -62 23.5 -116.5t64.5 -95.5t95.5 -64.5t116.5 -23.5t116.5 23.5t95.5 64.5t64.5 95.5t23.5 116.5t-23.5 116.5t-64.5 95.5t-95.5 64.5t-116.5 23.5t-116.5 -23.5t-95.5 -64.5t-64.5 -95.5t-23.5 -116.5z" />
    <glyph glyph-name="summation" unicode="&#xe005;" horiz-adv-x="796" 
d="M98 350q0 -62 23.5 -116.5t64.5 -95.5t95.5 -64.5t116.5 -23.5t116.5 23.5t95.5 64.5t64.5 95.5t23.5 116.5t-23.5 116.5t-64.5 95.5t-95.5 64.5t-116.5 23.5t-116.5 -23.5t-95.5 -64.5t-64.5 -95.5t-23.5 -116.5zM398 616q55 0 103.5 -21t84.5 -57t57 -84.5t21 -103.5
t-21 -103.5t-57 -84.5t-84.5 -57t-103.5 -21t-103.5 21t-84.5 57t-57 84.5t-21 103.5t21 103.5t57 84.5t84.5 57t103.5 21z" />
    <glyph glyph-name="product" unicode="&#xe006;" horiz-adv-x="796" 
d="M76 196q-3 -26 -7 -47t-9 -41t-11.5 -41t-14.5 -45l20 -16q53 41 98.5 72t91 58t94.5 52.5t108 55.5q36 18 67 31.5t61.5 24.5t62.5 21t71 21q2 25 8.5 52.5t16.5 54.5t22.5 51t26.5 42q-50 -19 -99.5 -41.5t-95 -46t-83.5 -46t-65 -40.5q-41 -27 -81 -57t-80.5 -64
t-82 -73.5t-85.5 -87.5q9 22 16.5 41t14.5 37t13.5 37t13.5 42q6 19 10 35.5t8 32.5t7 32.5t7 36.5l-116 -38v-39t-1 -34.5t-2.5 -34t-4.5 -38.5zM222 159q60 57 117.5 100.5t116.5 83.5q20 14 48.5 31t62 35t71 36.5t76.5 35.5q-12 -28 -20.5 -57.5t-12.5 -58.5
q-35 -10 -65 -19.5t-59.5 -20t-59.5 -24t-64 -30.5q-33 -17 -59 -29.5t-50 -25t-48 -26t-54 -31.5zM93 124q5 20 8 37.5t5 30.5q5 37 7 65.5t1 62.5l47 15q-5 -20 -9.5 -39.5t-12.5 -44.5q-6 -23 -11.5 -38.5t-10.5 -29.5t-11 -27.5t-13 -31.5z" />
    <glyph glyph-name="pi" unicode="&#xe007;" horiz-adv-x="759" 
d="M516 246l221 161h-273l-84 259l-84 -259h-273l221 -161l-84 -258l220 160l220 -160z" />
    <glyph glyph-name="integral" unicode="&#xe008;" horiz-adv-x="759" 
d="M516 246l221 161h-273l-84 259l-84 -259h-273l221 -161l-84 -258l220 160l220 -160zM536 76l-156 114l-156 -114l60 183l-157 114h193l60 184l60 -184h194l-158 -114z" />
    <glyph glyph-name="Omega" unicode="&#xe009;" horiz-adv-x="556" 
d="M44 520q0 -48 18.5 -91t50 -74.5t74.5 -50t91 -18.5t91 18.5t74.5 50t50 74.5t18.5 91t-18.5 91t-50 74.5t-74.5 50t-91 18.5t-91 -18.5t-74.5 -50t-50 -74.5t-18.5 -91zM278 720q41 0 77.5 -16t63.5 -43t43 -63.5t16 -77.5t-16 -77.5t-43 -63.5t-63.5 -43t-77.5 -16
t-77.5 16t-63.5 43t-43 63.5t-16 77.5t16 77.5t43 63.5t63.5 43t77.5 16zM201 404h44v97h43q17 0 33.5 2.5t29 10.5t20.5 22.5t8 37.5q0 25 -8.5 40.5t-22.5 23.5t-32 10.5t-36 2.5h-79v-247zM334 572q0 -20 -16.5 -26t-33.5 -6h-39v69h43q17 0 31.5 -6t14.5 -31z" />
    <glyph glyph-name="radical" unicode="&#xe00a;" horiz-adv-x="1000" 
d="M150 0h700l-350 700zM795 34h-590l295 589z" />
    <glyph glyph-name="approxequal" unicode="&#xe00b;" horiz-adv-x="796" 
d="M624 375h-597v-50h597q-19 -20 -34.5 -44t-26.5 -45t-17 -35.5l-6 -14.5h39l14.5 17t39.5 41t59.5 50t73.5 44v24q-39 18 -73.5 44t-59.5 50t-39.5 41l-14.5 17h-39l6 -14.5t17 -35.5t26.5 -45t34.5 -44z" />
    <glyph glyph-name="Delta" unicode="&#xe00c;" horiz-adv-x="796" 
d="M256 514h-39l-14.5 -17t-39.5 -41t-59.5 -50t-73.5 -44v-24q39 -18 73.5 -44t59.5 -50t39.5 -41l14.5 -17h39l-6 14.5t-17 35.5t-26.5 45t-34.5 44h597v50h-597q19 20 34.5 44t26.5 45t17 35.5z" />
    <glyph glyph-name="nonbreakingspace" unicode="&#xe00d;" horiz-adv-x="296" 
 />
    <glyph glyph-name="lozenge" unicode="&#xe00e;" horiz-adv-x="500" 
d="M25 350l225 -350l225 350l-225 350zM434 350l-184 -287l-184 287l184 287z" />
    <glyph glyph-name="apple" unicode="&#xe00f;" horiz-adv-x="500" 
d="M75 175h350v350h-350v-350zM109 491h282v-282h-282v282z" />
  </font>
</defs>
</svg>
