<?xml version="1.0" standalone="no"?>
<!DOCTYPE svg PUBLIC "-//W3C//DTD SVG 1.1//EN" "http://www.w3.org/Graphics/SVG/1.1/DTD/svg11.dtd" >
<svg>
<metadata>
Created by FontForge 20120731 at Mon Oct 12 23:23:21 2015
 By root
Copyright 1991, Atech Software, Carlsbad CA 
</metadata>
<defs>
<font id="Bockloo" horiz-adv-x="333" >
  <font-face 
    font-family="Bockloo"
    font-weight="400"
    font-style="italic"
    font-stretch="normal"
    units-per-em="1000"
    panose-1="2 0 6 0 0 0 0 2 0 0"
    ascent="800"
    descent="-200"
    x-height="418"
    cap-height="576"
    bbox="-94 -320 773 772"
    underline-thickness="50"
    underline-position="-55"
    slope="17560"
    unicode-range="U+0020-F002"
  />
<missing-glyph 
 />
    <glyph glyph-name=".notdef" 
 />
    <glyph glyph-name="glyph1" horiz-adv-x="0" 
 />
    <glyph glyph-name="glyph2" 
 />
    <glyph glyph-name="space" unicode=" " 
 />
    <glyph glyph-name="space" unicode="&#xa0;" 
 />
    <glyph glyph-name="exclam" unicode="!" horiz-adv-x="295" 
d="M154 -2q-15 2 -27.5 17t-12.5 45q0 22 12 35.5t27 15.5h2.5h2.5q14 0 25 -12.5t11 -38.5q0 -31 -12.5 -46t-27.5 -15v-1zM157 567q12 0 22 1.5t19 3.5h0.5h0.5q9 1 18.5 2.5t20.5 1.5q2 0 4.5 -0.5t4.5 -0.5l6 -2t5 -2q5 -2 8 -3.5l3 -1.5q-4 -1 -6 -4.5t-3 -8.5
q-1 -1 -1.5 -2t-0.5 -2q-1 -2 -2 -4.5t-3 -4.5q-2 -3 -5 -6t-5 -6q-5 -4 -9 -9t-8 -9q-2 -4 -4.5 -7.5t-3.5 -7.5q-2 -7 -8 -34.5t-12 -65.5q-3 -21 -6.5 -44t-6.5 -47q-3 -30 -5.5 -59t-2.5 -54q0 -18 -7.5 -27t-17.5 -9h-0.5h-0.5h-0.5h-0.5h-1.5h-1.5q-7 1 -13.5 10
t-6.5 26q0 25 -2.5 55t-7.5 61q-3 24 -7 47.5t-8 45.5q-7 36 -13.5 62t-9.5 34q-2 8 -4.5 13t-4.5 8q-2 4 -4.5 6.5l-4.5 4.5q-3 3 -6 5.5t-6 5.5q-2 2 -3.5 4.5t-3.5 4.5q-1 3 -3.5 5.5t-7.5 5.5l2.5 2.5t8.5 6.5q6 3 15 5.5t22 2.5q11 0 20.5 -1.5t18.5 -2.5
q9 -2 18.5 -3.5t20.5 -1.5v0z" />
    <glyph glyph-name="quotedbl" unicode="&#x22;" horiz-adv-x="346" 
d="M96 630q0 14 6 22.5t22 8.5q15 0 21 -8.5t6 -21.5q0 -7 -1 -14t-3 -14q-2 -8 -4.5 -15t-4.5 -14q-6 -13 -10 -22l-4 -9l-4.5 9t-9.5 22q-3 7 -5 14l-4 14t-3.5 14.5t-1.5 13.5v0zM213 630q0 14 6 22.5t22 8.5q15 0 21 -8.5t6 -21.5q0 -7 -1 -14t-3 -14q-2 -8 -4.5 -15
t-4.5 -14q-6 -13 -10 -22l-4 -9l-4.5 9t-9.5 22q-3 7 -5 14l-4 14t-3.5 14.5t-1.5 13.5v0z" />
    <glyph glyph-name="numbersign" unicode="#" horiz-adv-x="516" 
d="M210 455h40l-23 -88h117l23 88h40l-23 -88h102l-11 -40h-102l-33 -125h102l-11 -40h-102l-31 -114h-40l30 114h-117l-30 -114h-40l30 114h-108l11 40h108l34 125h-109l10 40h110l23 88v0zM182 202h117l34 125h-117l-34 -125v0z" />
    <glyph glyph-name="dollar" unicode="$" horiz-adv-x="487" 
d="M232 491h36v-7.5v-16.5v-5.5v-5.5v-7v-3h4h5h8.5h9.5q10 0 23.5 -0.5t28.5 -2.5q26 -2 48.5 -8.5t22.5 -19.5q0 -4 -0.5 -7.5t-1.5 -5.5q0 -2 -0.5 -4t-1.5 -4v-1v-2q0 -3 1 -6t3 -7l-4.5 -2t-12.5 -5q-4 -1 -8.5 -2t-8.5 -2q-3 -1 -6 -1.5t-6 -0.5q-10 0 -17.5 5
t-7.5 18q0 9 -13 13t-28 5q-9 1 -17.5 1h-14.5h-3.5h-2.5v-12.5v-27.5v-10v-9v-15v-6q72 -22 123 -60.5t51 -109.5q0 -63 -37 -95t-87 -32q-7 0 -14 0.5t-13 1.5t-11.5 1.5t-11.5 0.5v-11.5v-24.5v-9.5v-8.5v-13.5v-5.5l-36 -1v6.5v14.5v9v9v26v12q-12 0 -21 -1.5t-17 -2.5
q-2 0 -3.5 -0.5t-2.5 -0.5q-8 -1 -16.5 -2t-18.5 -1q-50 0 -78 25t-28 65q0 16 6.5 28t14.5 21q1 3 3 5.5t4 4.5q5 7 9 14.5t4 15.5q0 4 -1 8.5t-3 9.5h1t3 1h3.5h5.5q5 0 12 -0.5t13 -2.5q15 -4 27 -15t12 -34q0 -20 17.5 -32t38.5 -14q3 -1 5.5 -1h4.5h1.5h1.5h0.5h1.5
v21.5v48.5v16.5v16.5v25.5v10.5q-11 7 -23.5 14t-25.5 13q-5 2 -10 4.5t-10 4.5q-36 17 -63 37t-27 54q0 21 27 32t59 15q22 3 41.5 4t31.5 1v4v9v4v4v16.5v7.5v0zM323 182q0 20 -16.5 36t-38.5 29v-8.5v-21.5v-14v-14v-40v-18q21 5 38 17t17 34v0zM232 408h-10h-10
q-15 -1 -27 -5t-12 -14q0 -16 13.5 -25.5t29.5 -15.5q4 -2 8 -3.5t8 -3.5v5v12v8v9v22.5v10.5v0z" />
    <glyph glyph-name="percent" unicode="%" horiz-adv-x="515" 
d="M381 563h3.5t2.5 -1q7 -1 13 -5.5t7 -9.5v-1.5t-1 -1.5q-19 -35 -37.5 -68t-37.5 -66q-5 -8 -9.5 -16.5t-9.5 -17.5q-47 -82 -97 -168t-111 -195q-2 -4 -7.5 -6.5t-11.5 -3.5h-3.5h-2.5q-8 0 -14 2.5t-7 6.5q-1 1 -0.5 2t1.5 2q26 42 51.5 85t51.5 88q51 88 103 180
t106 189q2 2 4 3.5t6 1.5v0zM431 263q0 -4 -1.5 -7t-3.5 -5q-1 -1 -1 -1.5t1 -0.5h1t2 1q1 0 2 0.5l1 0.5q1 0 2 0.5t2 0.5q1 1 2 1h2q15 0 26.5 -27t13.5 -59v-4.5v-5.5q0 -8 -0.5 -16t-1.5 -16q-5 -40 -23.5 -73t-50.5 -33q-4 0 -8 1t-7 2q-3 0 -6.5 1t-8.5 1
q-6 0 -10.5 -0.5t-8.5 -1.5h-1h-1q-4 -1 -9.5 -2t-11.5 -1q-35 0 -53 44t-18 96v1.5v1.5q1 54 20.5 99t58.5 45h29h22q2 0 3.5 -0.5t3.5 -0.5q9 -3 17 -11.5t13 -18.5l2 -6t1 -6v0zM353 267q-27 0 -40 -25t-13 -57v-2.5v-3.5q1 -32 15.5 -59t41.5 -27h9.5h6.5h4.5h5.5
q25 0 42 20.5t17 67.5q0 17 -5 26.5t-13 10.5h-0.5h-1.5q-1 -1 -1.5 -1h-0.5q-4 -2 -8 -3t-8 -1q-7 0 -11 4t-4 10v0.5v0.5v0.5v0.5q0 1 0.5 2.5t0.5 2.5q1 3 3.5 5.5l4.5 4.5l1.5 1.5t0.5 1.5q0 2 -1 4t-3 4q-2 3 -6.5 6t-8.5 5q-2 0 -3.5 0.5t-2.5 0.5h-6.5h-4.5h-4.5
h-6.5v0zM168 517q0 -4 -1.5 -7.5t-3.5 -5.5l-1 -1v0h1h3v0v0q1 1 2 1h1q1 0 2 0.5t2 0.5q1 1 2 1h2q15 1 26.5 -26t13.5 -59v-4.5v-5.5q0 -8 -0.5 -16.5t-1.5 -17.5q-6 -39 -24 -72t-50 -33q-4 0 -8 1t-7 2q-3 0 -6.5 1t-8.5 1q-6 0 -10.5 -0.5t-8.5 -1.5h-1h-1
q-4 -1 -9.5 -2t-11.5 -1q-35 0 -52.5 44t-17.5 97v1.5v1.5q1 54 20 99t58 45h29h22q2 0 3.5 -0.5t3.5 -0.5q9 -3 17 -11.5t13 -18.5l2 -6t1 -6v0zM90 520q-27 0 -40 -25t-13 -56v-1.5v-1.5q1 -34 15.5 -62t41.5 -28h9.5h6.5h4.5h5.5q25 0 42 21t17 68q0 17 -5 26.5t-12 9.5
h-1.5h-0.5q-1 0 -1.5 -0.5t-1.5 -0.5q-4 -2 -8 -3t-7 -1q-7 0 -11.5 4.5t-4.5 10.5v0.5v0.5v0.5v0.5q0 1 0.5 2.5t0.5 2.5q1 3 3.5 5.5l4.5 4.5l1.5 1.5t0.5 1.5q0 2 -1 3.5t-2 3.5q-3 3 -7 6.5t-9 4.5q-2 0 -3.5 0.5t-2.5 0.5h-6.5h-4.5h-4.5h-6.5v0z" />
    <glyph glyph-name="ampersand" unicode="&#x26;" horiz-adv-x="559" 
d="M527 331v-6v-6q-2 -23 -12.5 -43t-35.5 -20q-4 0 -8 1t-9 2q-1 0 -1.5 0.5t-1.5 0.5q-5 2 -10 3t-9 1h-1.5h-1.5q-3 0 -4.5 -1.5t-1.5 -6.5q0 -14 10 -28.5t22 -32.5q12 -17 22 -38.5t10 -49.5q0 -67 -28.5 -88t-70.5 -21q-19 0 -34.5 1.5t-30.5 4.5t-31 5t-35 2
q-16 0 -30 -2t-27 -5t-26.5 -4.5t-30.5 -1.5q-48 0 -83 24.5t-35 92.5q0 43 24.5 84.5t54.5 74.5q23 27 43.5 47t29.5 31v1v1.5v1.5v0v0v1.5v0.5q-4 11 -13.5 26.5t-20.5 32.5q-7 12 -14 24.5t-12 25.5q-4 10 -6.5 20t-2.5 20v1.5v1.5q1 21 18.5 38.5t40.5 17.5h62.5h63.5
h31.5h31.5h3.5h3.5q17 -2 30.5 -10.5t13.5 -24.5q0 -8 -1 -15.5t-4 -14.5q-8 -23 -38 -50.5t-99 -76.5q-2 -1 -3.5 -4t-1.5 -7q0 -3 1 -6t2 -5q4 -6 8.5 -12t8.5 -13q1 0 1 -0.5t1 -1.5q14 -18 25.5 -38t11.5 -47q0 -23 -6 -31.5t-14 -11.5q-1 -1 -2 -1.5t-2 -0.5
q-6 -3 -10.5 -6.5t-4.5 -14.5v-5t1 -6v0h-1q0 -1 -0.5 -1h-0.5q-3 0 -12 2.5t-18 8.5q-12 7 -22 18.5t-10 27.5q0 12 5.5 17.5t12.5 9.5q1 0 2 0.5t2 1.5q5 3 9 6t4 10q0 3 -2.5 12t-8.5 20q-2 5 -5.5 10t-7.5 9q-1 1 -2 1h-3h-1h-1h-2t-2 -1q-10 -14 -19 -27t-16 -26
q-10 -16 -15.5 -32.5t-5.5 -34.5q0 -25 19 -44.5t43 -19.5q8 0 15 1l14 2q7 0 14 1t15 1q9 0 17 -1t16 -1q7 -1 15 -2t17 -1q19 0 29.5 15.5t10.5 45.5q0 18 -6 32t-14 28q0 1 -0.5 1.5l-1.5 1.5q-7 12 -12.5 25t-5.5 29q0 29 20 51t49 22q12 0 21 -4.5t15 -10.5
q6 -5 10.5 -9t9.5 -5q1 -1 2 -1h2q5 0 10.5 5.5t12.5 18.5q1 2 4 -1.5t6 -10.5q3 -4 4.5 -8.5t3.5 -8.5l2 -8t1 -8v0zM188 472q0 -15 6 -25t16 -20q3 -3 6 -6.5t7 -6.5q3 -3 6 -4t6 -1q4 0 8.5 1.5t8.5 3.5q1 1 2.5 1.5t2.5 1.5q17 9 32.5 22.5t24.5 28.5q5 7 7.5 14t2.5 14
q0 14 -15 23t-33 11q-3 1 -5.5 1h-5.5h-6t-6 -1q-24 -3 -44.5 -18t-20.5 -40v0z" />
    <glyph glyph-name="quotesingle" unicode="'" horiz-adv-x="255" 
d="M96 630q0 14 6 22.5t22 8.5q15 0 21 -8.5t6 -21.5q0 -7 -1 -14t-3 -14q-2 -8 -4.5 -15t-4.5 -14q-6 -13 -10 -22l-4 -9l-4.5 9t-9.5 22q-3 7 -5 14l-4 14t-3.5 14.5t-1.5 13.5v0z" />
    <glyph glyph-name="parenleft" unicode="(" horiz-adv-x="212" 
d="M152 618v0h1v0v0q8 0 13 -8t7 -17q0 -3 0.5 -5.5t0.5 -5.5v-4t-1 -4q-34 -85 -51.5 -190t-18.5 -216q0 -15 0.5 -30t0.5 -30q4 -97 21 -191t48 -177v-0.5t1 -1.5v-0.5v-0.5v-2.5t-1 -2.5q-2 -6 -7.5 -12t-12.5 -8q-1 -1 -2.5 -1.5t-3.5 -0.5q-4 0 -7 1.5t-5 4.5
q-57 82 -87 193t-33 229q-1 8 -1 16.5v17.5q0 128 30 244t91 191q5 6 9 8.5t8 2.5v0z" />
    <glyph glyph-name="parenright" unicode=")" horiz-adv-x="212" 
d="M150 172v-17.5t-1 -16.5q-3 -118 -33 -229t-87 -193q-2 -3 -5 -4.5t-7 -1.5q-1 0 -3 0.5t-3 1.5q-7 2 -12 8t-7 12q-1 1 -1 2.5v2.5v0.5v0.5q1 1 1 1.5v0.5q30 83 47 177t21 191q0 15 0.5 30t0.5 30q-1 111 -18 216t-51 190q-1 2 -1 4v4q0 3 0.5 5.5t0.5 5.5q2 9 7 17
t12 8h1v0q4 0 8.5 -2.5t8.5 -8.5q61 -75 91 -191t30 -244v0z" />
    <glyph glyph-name="asterisk" unicode="*" horiz-adv-x="255" 
d="M43 467q-6 0 -11 3.5t-10 10.5q-2 5 -3.5 8.5t-1.5 7.5q0 15 17 23.5t36 12.5q21 5 37.5 6l16.5 1l8 11.5t20 25.5q7 8 14.5 15t15.5 13q6 4 11.5 6.5t11.5 2.5t12 -3.5t10 -11.5q2 -4 3 -7.5t1 -6.5q0 -15 -16.5 -24t-36.5 -14q-21 -4 -37.5 -5.5l-16.5 -1.5l16.5 -1.5
t37.5 -5.5q20 -5 36.5 -14t16.5 -24v0v0q0 -3 -1 -6.5t-3 -7.5q-4 -8 -10 -11.5t-12 -3.5t-11.5 2.5t-11.5 6.5q-8 6 -15.5 13t-14.5 15q-12 14 -20 25.5l-8 11.5l-16.5 1t-37.5 6q-19 4 -36 12.5t-17 23.5q0 4 1.5 8t3.5 8q5 8 10 11t11 3t12.5 -2.5t12.5 -7.5q8 -5 15 -12
t13 -14q12 -14 20 -25.5l8 -11.5l4 -9t10 -22q2 -7 4.5 -14t4.5 -15q2 -7 3 -14t1 -14q0 -13 -6 -21.5t-21 -8.5q-16 0 -22 9t-6 22q0 6 1.5 13.5t3.5 14.5l4 14t5 14q5 13 9.5 22l4.5 9l-4.5 9t-9.5 22q-3 7 -5 14l-4 14t-3.5 14.5t-1.5 13.5q0 14 6 22.5t22 8.5
q15 0 21 -8.5t6 -21.5q0 -7 -1 -14t-3 -14q-2 -8 -4.5 -15t-4.5 -14q-6 -13 -10 -22l-4 -9l-8 -11.5t-20 -25.5q-6 -7 -13 -14t-15 -12q-6 -5 -12.5 -7.5t-12.5 -2.5v0v0v0z" />
    <glyph glyph-name="plus" unicode="+" horiz-adv-x="277" 
d="M120 395h44v-76h76v-44h-76v-76h-44v76h-76v44h76v76v0z" />
    <glyph glyph-name="comma" unicode="," horiz-adv-x="165" 
d="M46 86q14 0 26 -11t12 -34q0 -8 -2.5 -16.5t-7.5 -17.5q-5 -10 -12.5 -20.5t-14.5 -19.5q-6 -7 -11.5 -12.5l-10.5 -10.5q-1 -1 -2 -1t-2 1q-2 1 -3 3t-2 3q0 2 -0.5 3t-0.5 2v0.5t1 0.5v0.5v0.5q3 4 6 8.5t5 9.5q3 7 4.5 13t1.5 10v0.5v0.5v0.5v0.5v0v0q-1 2 -4.5 4.5
t-8.5 6.5t-9 11t-4 19q0 23 12 34t27 11v0z" />
    <glyph glyph-name="hyphen" unicode="-" horiz-adv-x="376" 
d="M292 352q7 0 10.5 -7t4.5 -15v-1.5v-1.5q0 -10 -3.5 -18.5t-11.5 -8.5h-42h-47h-66h-53q-7 0 -10.5 7t-4.5 15v1.5v1.5q0 11 4 19t11 8h38.5h42.5h73h54v0z" />
    <glyph glyph-name="period" unicode="." horiz-adv-x="165" 
d="M46 86q14 0 26 -11t12 -34q0 -22 -12 -32.5t-26 -9.5v0v0h-1v0q-14 0 -26 10t-12 32q0 21 11.5 32.5t24.5 12.5h1.5h1.5v0z" />
    <glyph glyph-name="slash" unicode="/" horiz-adv-x="356" 
d="M309 608h0.5h0.5h0.5h0.5q2 0 4 -0.5t4 -1.5q6 -2 11 -6.5t7 -9.5q1 -1 1 -2v-2v-1.5v-1.5q-19 -55 -37.5 -107t-37.5 -103q-5 -14 -10 -27.5t-10 -27.5q-47 -127 -96.5 -260.5t-110.5 -302.5q-2 -5 -8.5 -8t-14.5 -3q-9 0 -15.5 3.5t-6.5 8.5v0.5v0.5q1 1 1 1.5v0.5
q25 66 50.5 133t51.5 135q51 138 103 282t106 295q1 2 2.5 3t3.5 1v0z" />
    <glyph glyph-name="zero" unicode="0" horiz-adv-x="480" 
d="M351 462v-2v-2q-1 -2 -1 -3v-2v-1q0 -5 4 -7.5t9 -2.5h0.5h1.5h1q5 0 11.5 -5t12.5 -14q14 -21 27 -60t18 -82q1 -9 1.5 -18.5t0.5 -18.5q0 -14 -1 -28t-3 -28q-9 -72 -42.5 -132t-92.5 -60q-8 0 -14.5 1.5t-12.5 2.5q-6 2 -12.5 3.5t-14.5 1.5h-3h-4q-9 0 -16 -1.5
t-14 -2.5q-1 0 -1.5 -0.5t-1.5 -0.5q-7 -1 -15.5 -2.5t-18.5 -1.5q-73 0 -107.5 75t-35.5 169v10.5v11.5q4 99 44 181.5t113 82.5h51h39q29 0 52.5 -18.5t24.5 -45.5v0zM199 488q-49 0 -72 -56.5t-23 -125.5v-4v-4q1 -70 24 -128.5t64 -58.5h15h14h18.5h20.5q44 0 74.5 45.5
t30.5 131.5q0 9 -1 19t-3 20q-4 27 -13.5 49.5t-22.5 23.5h-1.5h-0.5q-1 0 -1.5 -0.5t-1.5 -0.5q-9 -4 -17 -6t-14 -2q-13 0 -19.5 6.5t-7.5 16.5q0 3 0.5 6.5t2.5 6.5q2 6 6.5 11.5t10.5 9.5q3 2 4.5 5t1.5 6v0v1v0v0v2t-1 3q-1 6 -6.5 11.5t-11.5 8.5q-2 2 -4.5 2.5
t-4.5 0.5h-30h-31v0z" />
    <glyph glyph-name="one" unicode="1" horiz-adv-x="305" 
d="M-30 413q1 9 8.5 16t19.5 7q5 0 54.5 19.5t107.5 70.5q2 3 4.5 5t4.5 4l2 2t3 2q3 2 7 4t8 3q1 1 2.5 1h2.5q7 0 12 -5.5t5 -21.5v-180.5v-236.5v-8.5v-9.5q0 -10 3 -13.5t8 -6.5q1 -1 3 -2.5t4 -2.5l6.5 -6.5t6.5 -7.5q5 -7 9 -12.5t6 -6.5h0.5t0.5 -1l0.5 -0.5
l0.5 -0.5q0 -2 -3 -5.5t-9 -7.5q-5 -4 -11 -7.5t-12 -4.5l-8 -2t-8 -1q-7 0 -13 1.5t-12 1.5h-0.5h-0.5q-6 2 -12.5 3.5t-14.5 1.5q-7 0 -13.5 -1t-12.5 -3h-0.5h-0.5q-6 -1 -11.5 -2t-12.5 -1q-3 0 -5.5 0.5t-5.5 1.5q-6 1 -12 4t-11 7q-8 5 -12.5 9.5l-4.5 4.5q5 2 7.5 6
t4.5 9v1.5t1 1.5q1 3 3.5 6.5t5.5 6.5q2 2 4.5 3.5t4.5 2.5q1 1 1.5 1h0.5q6 4 10.5 8t4.5 12v177v154v3.5v3.5q-1 4 -2 7.5t-4 4.5h-1.5t-1.5 -1q-4 -3 -10 -8.5t-14 -12.5q-11 -8 -25 -15.5t-32 -7.5q-19 0 -29 7t-11 15v1.5v1.5h-1z" />
    <glyph glyph-name="two" unicode="2" horiz-adv-x="445" 
d="M225 411q0 -5 1 -10l2 -10l2 -12t1 -12q0 -33 -28 -52t-62 -22h-4.5h-5.5q-49 0 -83 33t-34 85q0 68 45.5 102.5t104.5 34.5h61h47h2.5h3.5q45 -3 82.5 -43.5t37.5 -92.5q0 -61 -41.5 -104t-91.5 -74q-49 -31 -89.5 -53.5t-44.5 -44.5v-1.5v-1.5q0 -9 7.5 -13t15.5 -5h3
h2q9 0 17 0.5t16 1.5h2t2 1q9 0 18.5 1t20.5 1q9 0 17.5 -0.5t16.5 -1.5q2 0 4 -0.5t4 -0.5q6 0 11.5 -0.5t11.5 -0.5q14 0 20 12t6 27q0 20 9.5 28.5t21.5 9.5h2.5h2.5h1.5h1.5q9 0 16 -3t10 -6l0.5 -0.5t0.5 -1.5v-0.5t-1 -1.5q-6 -8 -8.5 -15.5t-2.5 -13.5v0v0v-1v0
q0 -5 1.5 -9.5t4.5 -8.5q3 -6 7.5 -12t10.5 -13q8 -12 15.5 -28.5t7.5 -41.5q0 -15 -21 -24t-47 -13l-14 -2t-13 -2q-6 -2 -11.5 -2h-10.5q-8 0 -16 1t-15 2q-3 1 -5.5 1.5t-5.5 1.5q-11 1 -22 2.5t-24 1.5h-1.5h-0.5h-1.5h-1.5q-14 0 -26 -2l-24 -4q-5 -1 -9.5 -2t-9.5 -1
q-6 -2 -12.5 -2.5t-13.5 -0.5t-15.5 1t-16.5 3q-5 1 -10 2.5t-10 1.5h-1.5t-0.5 1q-22 5 -40 13t-18 29q0 35 42 77.5t92 87.5q2 1 4 3l4 4q48 42 87 83.5t39 76.5q0 50 -14 91.5t-82 41.5q-34 0 -62.5 -17.5t-28.5 -59.5q0 -17 13.5 -29t30.5 -14h0.5h1.5h1.5h0.5h5.5
t4.5 1q11 2 20.5 6.5t13.5 9.5q2 2 2.5 3.5t0.5 2.5q0 8 7 12t15 6q8 1 14.5 1.5t7.5 0.5h1v0q-1 -3 -2.5 -5.5t-1.5 -4.5q-1 -2 -1.5 -4.5t-0.5 -5.5v0z" />
    <glyph glyph-name="three" unicode="3" horiz-adv-x="480" 
d="M164 435q-6 0 -11.5 -1.5t-10.5 -2.5q-1 -1 -2.5 -1.5t-2.5 -0.5q-3 -1 -6.5 -2t-7.5 -1q-5 0 -10.5 1t-11.5 3q-18 6 -33.5 20.5t-15.5 35.5q0 22 24.5 36t53.5 19l16 2t16 1h31h27h29h33q7 0 14 -0.5t14 -1.5q43 -6 79 -29t36 -57q0 -35 -32 -55.5t-70 -31.5
q-33 -8 -61.5 -11t-37.5 -3q-1 0 -3 -0.5t-4 -1.5q-4 -2 -7.5 -5t-3.5 -7t6.5 -7.5t23.5 -4.5q6 0 11.5 -0.5t11.5 -1.5q74 -9 135 -49t61 -114q0 -66 -40 -116.5t-93 -50.5q-13 0 -24 0.5t-22 1.5q-10 1 -21 1h-25q-13 0 -24 -0.5t-22 -2.5q-10 -1 -21 -2t-25 -1h-2.5h-3.5
q-46 2 -84 30t-38 76q0 32 24.5 54.5t55.5 22.5h6t7 -1q8 -1 15 -4t7 -8v-1.5t-1 -2.5q-3 -5 -5 -11t-2 -12v-1.5v-0.5q0 -9 8 -15.5t26 -6.5q9 0 15.5 1t12.5 2h2h1q5 1 10 1.5t11 0.5q8 0 14 -1t12 -1q6 -1 12.5 -2t13.5 -1q5 0 11.5 1.5t12.5 4.5q16 8 29.5 28t13.5 56
q0 41 -34.5 66t-75.5 34q-13 3 -25.5 4.5t-23.5 1.5q-28 0 -38 7t-11 16q0 8 6.5 14t13.5 6q6 0 15.5 5.5t21.5 11.5t25.5 11.5t27.5 5.5q6 0 17.5 4.5t23.5 12.5q17 11 31.5 26.5t14.5 34.5q0 25 -22 34.5t-48 11.5q-7 1 -13.5 1h-12.5h-8t-8 -1q-16 -1 -28.5 -5.5
t-12.5 -16.5q0 -6 5.5 -10.5t12.5 -5.5h2h2q14 0 19.5 -7t6.5 -15v-1.5v-1.5q0 -5 -1 -10t-2 -8t-2 -4.5l-1 -1.5q-11 7 -19.5 9t-16.5 3v0z" />
    <glyph glyph-name="four" unicode="4" horiz-adv-x="480" 
d="M348 84q0 -9 4 -12.5t10 -6.5q1 0 1.5 -0.5t1.5 -0.5q3 -1 5.5 -3t4.5 -4q7 -6 10.5 -11.5t6.5 -10.5q2 -2 3.5 -4t3.5 -3v0l1 -1q0 -2 -4 -6.5t-9 -9.5q-4 -3 -8 -5.5t-8 -5.5q-4 -1 -8 -2.5t-8 -1.5q-9 0 -17 1t-15 3q-7 1 -15 2t-17 1q-7 0 -14 -1t-13 -2
q-1 0 -2 -0.5t-3 -0.5l-10 -2t-10 -1q-4 0 -8 1t-7 2q-7 2 -13.5 6t-12.5 8q-9 7 -14 12.5t-4 5.5q4 0 7.5 3t6.5 7q1 2 2.5 3.5t2.5 3.5l4 6t5 5t6.5 3.5t7.5 2.5q1 1 2 1t2 1q7 2 12.5 5t5.5 11v6v6v10v12q0 5 -4 8t-9 3q-9 0 -21 -1.5t-27 -3.5q-10 -2 -20.5 -3.5
t-21.5 -1.5q-5 -1 -9.5 -1h-9.5q-7 0 -14.5 0.5t-15.5 1.5q-31 4 -56.5 16t-25.5 33q0 18 24 55.5t52 79.5q2 4 4.5 7.5t5.5 7.5q26 38 46 74.5t20 59.5q0 16 -3.5 24t-7.5 13q-1 1 -2 2.5t-2 2.5q-3 4 -5 8t-2 10q0 14 11 21.5t24 8.5h2.5h2.5h73h77h8.5t9.5 -1
q13 -1 23.5 -3.5t10.5 -9.5t-4.5 -11.5t-10.5 -7.5q0 -1 -0.5 -1h-1.5q-6 -4 -11.5 -9.5t-5.5 -14.5v-49v-53v-96v-71q0 -2 1.5 -3t3.5 -1h1.5h0.5q19 0 27 7.5t10 16.5q1 3 1 5.5v5.5v7v4v1.5v0.5q5 2 9.5 2.5t8.5 0.5h0.5h0.5h0.5h0.5q23 0 39.5 -21t16.5 -56v-4v-4
q-3 -21 -17 -39t-31 -18h-12.5h-12.5h-16h-17h-1.5h-0.5q-5 -1 -9 -3t-4 -6v-8.5v-9.5v-4.5v-4.5v0zM239 476q0 13 -2.5 18.5t-6.5 5.5q-2 0 -4.5 -1t-4.5 -4q-5 -5 -10 -15t-6 -20q-1 -2 -1 -4.5v-4.5q0 -17 -9.5 -45.5t-22.5 -59.5q-1 -4 -3 -8t-3 -8q-15 -34 -27 -63
t-12 -39q0 -7 6.5 -12t13.5 -5h15.5h15.5h22.5h22.5q8 0 12 6.5t4 13.5v52v60v74v59v0z" />
    <glyph glyph-name="five" unicode="5" horiz-adv-x="445" 
d="M200 538q15 0 27 1.5t24 3.5h1.5h1.5q11 2 22 3t24 1q4 0 8 -0.5t9 -0.5q14 -2 25.5 -6t11.5 -9q0 -37 -24.5 -64t-60.5 -27q-17 0 -32.5 4t-29.5 8q-14 5 -27.5 8.5t-26.5 3.5q-12 0 -16.5 -12t-4.5 -27v-1.5v-1.5q0 -9 1 -18t3 -14q0 -4 1 -5.5t1 -2.5t2 -1h4
q6 0 17.5 1t24.5 2h3.5t2.5 1q12 1 22.5 1.5t18.5 0.5q76 0 127 -56t51 -132q0 -10 -0.5 -20t-1.5 -20q-6 -60 -33 -110.5t-86 -50.5q-10 0 -18 1t-15 3h-1h-1q-7 2 -14.5 3.5t-16.5 1.5q-13 0 -23.5 -1t-20.5 -2q-10 -2 -20.5 -3t-23.5 -1q-49 0 -87.5 32t-38.5 81
q0 37 26.5 57.5t57.5 22.5h3.5h2.5q15 0 24.5 -4.5t13.5 -9.5q3 -3 4.5 -6.5t1.5 -5.5v-1.5v-0.5q-7 0 -13 -7t-6 -15q0 -7 6 -13.5t21 -6.5q7 0 12.5 1t10.5 2q5 0 10.5 1t12.5 1q9 0 17 -1t15 -1q1 -1 1.5 -1h0.5q7 -1 14 -1.5t16 -0.5q20 0 32 28t12 65v0.5v1.5v1.5v0.5
q-1 50 -33 84.5t-92 34.5h-11t-12 -1h-2.5t-2.5 -1q-3 0 -5.5 -1.5t-2.5 -3.5q-9 -30 -27.5 -48.5t-45.5 -18.5q-15 0 -24.5 8.5t-9.5 24.5q0 13 7.5 30t24.5 38q0 1 0.5 1t0.5 1q1 0 1.5 1t0.5 3v12v12v15v17q0 8 -4 15t-9 14q-2 2 -3.5 4t-3.5 3q-7 9 -13 19t-6 23
q0 17 12 29.5t28 12.5q12 0 26.5 -1.5t30.5 -3.5t33.5 -3.5t35.5 -1.5v0zM78 308q0 -3 1.5 -5t2.5 -2t3 1t3 2q3 3 6 9t4 15q0 2 -1 3t-3 0q-8 -7 -11.5 -13t-4.5 -10v0z" />
    <glyph glyph-name="six" unicode="6" horiz-adv-x="460" 
d="M348 512h5t5 -1q12 -2 22.5 -9t10.5 -16q0 -28 -24.5 -49.5t-53.5 -22.5h-1.5h-1.5q-18 0 -32.5 9.5t-27.5 20.5q-3 3 -6 5.5t-6 5.5q-10 8 -19.5 13.5t-20.5 5.5q-37 0 -57.5 -31t-27.5 -69q-3 -12 -4 -25t-1 -24v-2.5t1 -3.5q1 -3 2.5 -6t3.5 -3q1 -1 1.5 -0.5l1.5 1.5
q21 26 49.5 36.5t64.5 10.5h25h19h12h14q11 0 25 -6.5t28 -17.5q25 -19 46.5 -47.5t27.5 -58.5q1 -5 1.5 -10t0.5 -10q0 -90 -40.5 -150t-117.5 -60q-7 0 -13 1t-11 2q-5 2 -11 3t-13 1t-12.5 -1t-10.5 -3q-6 -1 -11.5 -2t-12.5 -1q-67 0 -107 58t-45 128q-1 5 -1 10.5v10.5
q0 18 1 37.5t3 39.5q11 86 50 158t121 72h72.5h75.5v0zM233 317q-32 0 -59 -20.5t-40 -45.5q-4 -8 -6.5 -15.5t-3.5 -14.5q0 -2 -0.5 -3.5t-0.5 -3.5v-3.5v-3.5q0 -50 34 -75.5t74 -25.5h2.5h3.5q38 2 70 27t32 73v7.5t-1 7.5q-4 41 -29 68.5t-76 27.5v0z" />
    <glyph glyph-name="seven" unicode="7" horiz-adv-x="415" 
d="M77 359q0 12 -9.5 23t-22.5 22q-3 3 -6.5 6t-7.5 6q-17 13 -31 28t-14 34q0 17 14.5 24t32.5 8q4 1 8 1h8h69.5h63.5h66.5h72.5q5 0 12 -2t14 -5q7 -2 13 -5t11 -7q6 -4 10 -7.5t4 -6.5q0 -7 -2.5 -12t-6.5 -9q-1 -2 -3 -4t-4 -5q-3 -3 -7.5 -6t-9.5 -6l-0.5 -0.5
l-0.5 -0.5l-10 -6t-7 -7q-18 -35 -33 -75.5t-24 -81.5q-9 -34 -13 -68.5t-4 -65.5q0 -18 1.5 -34.5t4.5 -31.5q0 -4 3.5 -6t7.5 -3l0.5 -0.5t1.5 -0.5q2 -1 4 -1.5t4 -2.5q3 -2 5 -5l4 -6q2 -1 3 -2.5t2 -3.5q2 -3 4 -5l4 -4l-5 -4.5t-13 -9.5q-4 -3 -8.5 -6t-8.5 -5
q-5 -1 -9 -2t-8 -1q-7 0 -13.5 1t-12.5 2l-12 2t-14 1q-7 0 -13 -1l-12 -2t-11.5 -2t-13.5 -1q-4 0 -8.5 1t-9.5 2q-7 2 -13.5 6t-11.5 8q-9 6 -14.5 11t-4.5 6q3 2 5 4.5t4 4.5q1 1 1.5 2t1.5 2q2 2 4 4.5t5 4.5q2 2 5 3l6 2q1 1 1.5 1h1.5q6 2 10 4.5t4 8.5q0 21 3.5 42.5
t10.5 43.5q10 34 25 68t31 64q26 50 47.5 87.5t21.5 50.5q0 4 -2 5t-5 1q-4 0 -11 -2.5t-15 -4.5q-9 -3 -19.5 -5t-21.5 -2q-27 0 -42.5 4t-24.5 10q-5 2 -9 5t-7 5l-6 2t-7 1q-7 0 -9.5 -1.5t-1.5 -5.5q0 -4 4.5 -11.5t8.5 -16.5q6 -10 10 -22.5t4 -26.5v-2.5v-2.5
q-1 -19 -10.5 -35t-27.5 -16h-2t-3 1q-3 1 -7 3t-7 5q-4 3 -6.5 5.5l-2.5 2.5q11 6 13.5 15t2.5 20v0z" />
    <glyph glyph-name="eight" unicode="8" horiz-adv-x="460" 
d="M404 424q0 -26 -16.5 -46t-36.5 -34q-8 -6 -15.5 -10.5t-14.5 -8.5q-2 -1 -3.5 -3.5t-1.5 -6.5t1 -7t4 -5q44 -25 77 -64.5t33 -95.5v-8t-1 -7q-4 -49 -34.5 -89.5t-70.5 -40.5q-13 0 -24 1t-21 4h-0.5h-0.5q-10 2 -20.5 3.5t-22.5 1.5q-11 0 -20 -1.5t-18 -3.5
q0 -1 -0.5 -1h-0.5q-8 -2 -17 -3t-19 -1q-55 0 -95.5 36.5t-40.5 90.5q0 48 19 82t42 56q14 14 27.5 23.5t22.5 14.5q2 2 3.5 5t1.5 7v1.5v0.5q0 3 -1.5 5t-3.5 3q-7 2 -15.5 6t-16.5 10q-21 14 -38 36t-17 49q0 45 43.5 65t96.5 25q13 1 26.5 1.5t25.5 0.5q9 0 18 -0.5
t18 -1.5q47 -4 87 -24t40 -66v0zM108 199v-2v-1v-2v-2v-4t1 -4q2 -24 15 -44.5t37 -20.5q8 0 14.5 1t13.5 3h1t2 1q8 1 16 2.5t17 1.5t17 -1.5t15 -2.5q7 -2 15 -3.5t17 -1.5q24 0 41.5 17t17.5 48q0 41 -25 68.5t-66 36.5q-4 1 -12 1.5t-17 0.5q-8 0 -15.5 -0.5t-12.5 -1.5
q-4 -1 -8.5 -2.5t-9.5 -2.5q-28 -11 -51 -32.5t-23 -52.5v0zM137 419q0 -46 26 -68t63 -22q39 0 68 21t33 46q1 2 1 4v4q0 37 -29 56t-71 19h-6h-6q-30 -2 -54.5 -13.5t-24.5 -46.5v0z" />
    <glyph glyph-name="nine" unicode="9" horiz-adv-x="450" 
d="M268 519q81 0 117 -69t44 -152q2 -15 2.5 -29.5t0.5 -29.5q0 -7 -0.5 -14t-0.5 -14q-8 -81 -54 -147.5t-117 -66.5q-10 0 -17.5 1.5t-15.5 3.5q-7 2 -15 3.5t-18 1.5q-9 0 -17 -1.5t-15 -3.5q-1 -1 -1.5 -1h-0.5q-7 -1 -14 -2.5t-16 -1.5q-43 0 -72.5 31.5t-29.5 74.5
q0 4 0.5 9t2.5 9q5 18 18.5 33t32.5 15q11 0 18 -3.5t10 -7.5q4 -4 5 -7.5l1 -3.5q-6 -3 -8.5 -7t-2.5 -9v0v0v-1v0q0 -10 10.5 -18.5t25.5 -8.5q7 0 13.5 0.5t12.5 1.5h0.5h0.5q6 1 13 1.5t15 0.5t14.5 -0.5t12.5 -1.5t12.5 -1.5t14.5 -0.5t22 6t30 18q22 17 40.5 46
t18.5 71q0 10 -1.5 20t-3.5 21q-1 2 -3 3.5t-4 1.5h-1.5t-1.5 -1q-4 -4 -10 -9t-14 -10q-15 -10 -36 -19t-44 -11q-3 -1 -6.5 -1h-7.5q-100 0 -151.5 34t-51.5 106q0 60 45.5 100t105.5 40h25.5h23.5h20.5h22.5v0zM125 379q0 -43 33 -73t76 -30q45 0 77.5 28.5t32.5 81.5
q0 55 -33 71t-73 18q-10 1 -19 1h-18q-35 0 -55 -29.5t-21 -64.5v-1.5v-1.5v0z" />
    <glyph glyph-name="colon" unicode=":" horiz-adv-x="110" 
d="M46 86q14 0 26 -11t12 -34q0 -22 -12 -32.5t-26 -9.5v0v0h-1v0q-14 0 -26 10t-12 32q0 21 11.5 32.5t24.5 12.5h1.5h1.5v0zM46 426q14 0 26 -11t12 -33t-12 -33.5t-26 -10.5v0v0h-1v0q-14 0 -26 11t-12 33q0 23 12 34t26 10v0h1v0v0v0z" />
    <glyph glyph-name="semicolon" unicode=";" horiz-adv-x="105" 
d="M46 86q14 0 26 -11t12 -34q0 -8 -2.5 -16.5t-7.5 -17.5q-5 -10 -12.5 -20.5t-14.5 -19.5q-6 -7 -11.5 -12.5l-10.5 -10.5q-1 -1 -2 -1t-2 1q-2 1 -3 3t-2 3q0 2 -0.5 3t-0.5 2v0.5t1 0.5v0.5v0.5q3 4 6 8.5t5 9.5q3 7 4.5 13t1.5 10v0.5v0.5v0.5v0.5v0v0q-1 2 -4.5 4.5
t-8.5 6.5t-9 11t-4 19q0 23 12 34t27 11v0zM46 426q14 0 26 -11t12 -33t-12 -33.5t-26 -10.5v0v0h-1v0q-14 0 -26 11t-12 33q0 23 12 34t26 10v0h1v0v0v0z" />
    <glyph glyph-name="less" unicode="&#x3c;" horiz-adv-x="280" 
d="M258 444v-34l-183 -110l183 -112v-32l-236 144l236 144v0z" />
    <glyph glyph-name="equal" unicode="=" horiz-adv-x="300" 
d="M44 268h196v-44h-196v44v0zM44 368h196v-44h-196v44v0z" />
    <glyph glyph-name="greater" unicode="&#x3e;" horiz-adv-x="280" 
d="M30 156v32l183 112l-183 110v34l236 -144l-236 -144v0z" />
    <glyph glyph-name="question" unicode="?" horiz-adv-x="422" 
d="M233 -2q-15 2 -27.5 17t-12.5 45q0 22 12 35.5t27 15.5h2.5h2.5q14 0 25 -12.5t11 -38.5q0 -31 -12.5 -46t-27.5 -15v-1zM242 144q-27 0 -47.5 18t-20.5 45q0 13 5 24t13 22t18.5 22t21.5 24q21 25 39 60.5t18 90.5q0 39 -31.5 65.5t-71.5 26.5q-34 0 -63 -20.5
t-29 -53.5q0 -21 17.5 -34t39.5 -15h2.5h2.5h5.5t5.5 1q12 2 21.5 7t9.5 15q0 8 6 11t14 4h2h2q3 0 6 -0.5t5 -0.5t3.5 -0.5l1.5 -0.5q-4 -5 -6 -10.5t-2 -12.5q0 -4 0.5 -8t1.5 -8q0 -4 0.5 -8t0.5 -9q0 -28 -22.5 -47.5t-48.5 -25.5q-6 -1 -11 -1.5t-10 -0.5
q-45 0 -78 31.5t-33 76.5q0 59 42.5 101.5t101.5 42.5h19h18h22.5h24.5q61 0 107 -39.5t46 -100.5q0 -43 -27.5 -75t-59.5 -57q-33 -25 -60.5 -45t-27.5 -39q0 -8 2 -10.5t4 -2.5t4 0.5t4 1.5q1 1 3 1.5t4 0.5q12 0 19 -5t11 -11q3 -5 4.5 -10t1.5 -6h-0.5h-0.5h-0.5h-0.5
q-5 0 -7.5 -3t-4.5 -7l-2 -4t-2 -3q-4 -7 -11 -12.5t-22 -5.5v0z" />
    <glyph glyph-name="at" unicode="@" horiz-adv-x="476" 
d="M334 327h2.5t3.5 -1q6 -1 11.5 -4.5t5.5 -8.5v-1.5v-1.5l-48 -156q-1 -4 -2 -8.5t-1 -8.5q0 -18 10.5 -28t25.5 -10q4 0 7.5 0.5t6.5 1.5q20 7 36.5 33t15.5 76q-1 86 -55 131t-119 46h-1.5h-1.5q-61 0 -112 -40t-58 -123v-4v-4q-1 -2 -1 -4v-4q1 -69 48.5 -120
t123.5 -51q8 0 17 1l18 2q17 2 29 3.5t20 1.5q14 0 19.5 -2.5t5.5 -6.5q0 -1 -0.5 -2t-0.5 -2q-1 -2 -3 -4.5t-4 -3.5q-2 -3 -4.5 -4.5l-2.5 -1.5q-21 -9 -44 -13.5t-46 -4.5h-4h-5q-75 3 -138.5 54.5t-63.5 158.5v5v6q4 100 67 149.5t139 49.5h1.5h1.5q79 -1 145 -54.5
t67 -158.5q1 -62 -27.5 -98t-63.5 -43q-3 0 -6.5 -0.5t-7.5 -0.5h-1.5h-1.5q-22 0 -40.5 15t-26.5 46l-4.5 -5.5t-13.5 -11.5q-9 -7 -22 -12.5t-30 -5.5h-3h-3q-2 0 -3.5 0.5t-3.5 0.5q-37 5 -58 30.5t-21 59.5q0 7 0.5 14t2.5 14q1 3 2.5 7t2.5 7q15 37 40.5 61.5
t52.5 36.5q12 5 23.5 7.5t22.5 2.5q22 0 38 -9.5t20 -29.5l1.5 4t2.5 9l2 6t2 5q1 4 4.5 5.5t7.5 1.5v0zM140 191q0 -31 22 -51t48 -20h2.5h2.5q19 2 36.5 15.5t26.5 42.5l28 93q0 1 0.5 2t0.5 2v2v2q0 14 -14 22.5t-34 8.5q-10 0 -20 -2t-21 -7q-20 -9 -39 -27.5t-32 -49.5
q-4 -9 -5.5 -17t-1.5 -16v0z" />
    <glyph glyph-name="A" unicode="A" horiz-adv-x="552" 
d="M470 92q2 -11 10 -18t18 -13l2 -2t3 -1q9 -6 16 -13t7 -17q0 -9 -12.5 -15t-27.5 -9q-6 -1 -12.5 -1.5t-11.5 -0.5q-7 0 -12.5 0.5t-10.5 1.5t-10.5 1.5t-12.5 0.5q-6 0 -11.5 -0.5t-9.5 -1.5h-1h-1q-4 -1 -8.5 -1.5t-10.5 -0.5q-4 0 -8.5 0.5t-9.5 1.5q-13 2 -24 8.5
t-11 15.5q0 7 5.5 12.5t13.5 10.5q1 1 2.5 2t2.5 2q10 6 17.5 13t7.5 18t-11.5 70t-25.5 128q-2 9 -4.5 18.5t-4.5 19.5q-2 8 -3.5 16t-3.5 16q-1 3 7.5 9.5t19.5 13.5q4 2 7.5 4t6.5 3q12 7 23 12t16 5h2.5t0.5 -1q4 -20 8 -40.5t9 -41.5q4 -21 8.5 -41.5t9.5 -40.5
q9 -40 18.5 -77t16.5 -67v0zM444 584q38 0 48.5 -15t10.5 -38q0 -37 -61.5 -76t-135.5 -81q-75 -43 -136.5 -90.5t-61.5 -102.5q0 -24 7.5 -34.5t16.5 -13.5q3 -1 6 -1.5t6 -0.5h7h4h1v0v-27v-29q0 -25 -13 -42t-29 -25q-6 -2 -11.5 -3.5t-10.5 -1.5q-2 0 -4 0.5t-3 0.5
q-14 4 -26 19.5t-19 33.5q-3 8 -5 16t-2 15q0 41 14 90.5t34 100.5q10 25 21.5 50t22.5 49q21 44 41 84t33 69q1 2 1 3.5v2.5q0 9 -10 14t-23 5q-12 0 -22 -4.5t-10 -15.5q0 -7 4 -13t8 -11q5 -6 8.5 -10t3.5 -6t-1 -6t-3 -9q-2 -3 -4 -6.5t-4 -6.5q-1 -2 -3 -3t-3 -1h-1
q-18 9 -31 19.5t-23 20.5q-10 12 -15.5 23.5t-5.5 21.5q0 15 12 25t36 10h119.5h107.5h51h53v0zM430 523q0 11 -7.5 19t-18.5 8h-2h-2q-9 -1 -14.5 -8t-5.5 -16v-6t1 -6v-2v-2q0 -6 0.5 -12t2.5 -16q1 -3 -8 -11t-21 -17q-2 -2 -4 -3.5t-5 -3.5q-12 -9 -22.5 -15.5
t-13.5 -7.5h-1q-2 7 -3.5 14t-2.5 14q-1 1 -1 1.5v0.5q-6 29 -14.5 53t-28.5 24q-6 0 -10.5 -2.5t-9.5 -7.5q-15 -17 -33 -63t-54 -133q-1 -4 -2 -6t-1 -4t0.5 -3t1.5 -1h1.5h1.5q1 1 2.5 1.5t2.5 1.5l0.5 0.5l0.5 0.5q83 57 155 96.5t100 75.5q7 9 11 18t4 18v0z" />
    <glyph glyph-name="B" unicode="B" horiz-adv-x="550" 
d="M137 419q6 0 17.5 -4.5t24.5 -10.5q3 -1 6 -2.5t6 -3.5q14 -7 24.5 -13t10.5 -7q2 -20 3 -42t1 -44q2 -40 2 -78.5v-69.5q0 -18 16.5 -23t35.5 -5h8h8h4h4q42 0 72 23t30 79q0 63 -34.5 99t-76.5 57q-24 12 -46.5 20.5t-38.5 15.5q-12 5 -24.5 11t-25.5 11
q-32 15 -62.5 31.5t-51.5 32.5q-15 12 -23.5 23.5t-8.5 22.5q0 20 18 29.5t39 11.5q5 1 9 1h8h78h77h77h78q31 0 56.5 -16.5t25.5 -47.5q0 -27 -17 -53t-38 -47q-9 -8 -17.5 -15.5t-15.5 -12.5l-0.5 -1.5t-1.5 -2.5v-0.5v-1.5t0.5 -2.5t1.5 -1.5q6 -2 12.5 -5t13.5 -7
q38 -23 70 -76.5t32 -113.5q0 -70 -48.5 -125t-111.5 -55q-22 0 -40.5 2.5t-36.5 5.5h-1.5t-1.5 1q-17 2 -34.5 4.5t-37.5 2.5q-14 0 -25.5 -2t-22.5 -4h-1h-1q-10 -2 -21.5 -4t-24.5 -2q-5 0 -10.5 0.5t-11.5 1.5q-17 3 -32.5 10t-20.5 15q0 1 -0.5 2.5t-0.5 2.5
q0 7 8.5 14t19.5 13q4 3 8.5 5t8.5 4q17 9 31 18.5t14 19.5v34t1 34q0 64 0.5 125.5t0.5 112.5q0 2 1.5 2.5t3.5 0.5v0zM228 458q-6 0 -19 4t-27 10q-4 2 -8 3.5t-8 3.5q-14 6 -24 11.5t-10 7.5q0 22 -6 30t-14 8q-6 -1 -11 -5.5t-5 -10.5q0 -19 46 -44.5t198 -79.5
q2 -1 4 -1h4q5 0 9.5 1.5t10.5 4.5q15 10 27.5 32.5t12.5 56.5t-25.5 47t-56.5 15h-6.5h-7.5h-12.5t-13.5 -1q-20 -1 -37 -6t-17 -19v-14v-11v-18v-23q0 -1 -1 -1.5t-3 -0.5v0z" />
    <glyph glyph-name="C" unicode="C" horiz-adv-x="499" 
d="M184 476v2.5v2.5q2 12 11.5 22.5t29.5 10.5q21 0 32 -9.5t19 -21.5l1.5 -1.5t0.5 -1.5q8 -11 17 -19.5t26 -8.5q16 0 27 14.5t11 32.5v1.5v1.5q-1 19 -19 35.5t-59 16.5q-15 0 -36 -4t-43 -16q-39 -19 -71 -65.5t-32 -134.5q0 -68 32 -113.5t71 -68.5q20 -12 39 -18
t34 -6h19h17h16.5h18.5q22 0 37.5 9.5t26.5 21.5q12 12 20.5 21.5t15.5 9.5q13 0 19.5 -11.5t7.5 -24.5q1 -3 1 -6v-6q0 -64 -48.5 -103t-116.5 -39q-146 0 -211 81.5t-65 196.5q0 139 54.5 206t119.5 89q24 8 47.5 11.5t44.5 3.5q61 0 109 -37t48 -97q0 -30 -21 -52
t-47 -33q-10 -4 -20 -6.5t-18 -2.5q-44 0 -69 24t-28 53v2.5v2.5v2v3q0 13 -2.5 22t-17.5 9q-6 0 -7.5 -3.5t-2.5 -7.5v-1.5v-1.5q-1 -5 -4 -9.5t-14 -4.5q-10 0 -15.5 8t-5.5 18v0z" />
    <glyph glyph-name="D" unicode="D" horiz-adv-x="552" 
d="M232 374v-7v-6v-6.5v-8.5q0 -12 4 -18.5t9 -6.5h1.5h0.5q3 2 6 8t3 17v3.5v2.5q-1 17 -11.5 27.5t-24.5 18.5q-16 9 -33 18t-35 19q-18 9 -35.5 18.5t-32.5 19.5q-28 17 -46 34t-18 33t18 24t40 11q6 0 11.5 0.5t10.5 0.5h50.5h47.5h44h47q112 0 174 -93t65 -205v-5v-4
q0 -16 -2 -32.5t-5 -32.5q-16 -75 -70.5 -137.5t-149.5 -62.5q-14 0 -25.5 1.5t-22.5 4.5h-0.5h-1.5q-11 2 -23 4t-28 2q-14 0 -25.5 -2t-22.5 -4h-0.5h-0.5l-22 -4t-24 -2q-5 0 -11 1t-12 4q-9 3 -17.5 7.5t-15.5 9.5q-12 8 -19.5 15t-5.5 7q15 4 24 12t17 18q3 4 7 8.5
t8 8.5q1 2 2 3l2 2q4 4 8 7t9 5q2 1 4 2.5t4 2.5q11 6 19 14t8 26v41v38v80v106q0 2 15 -5.5l33 -16.5l1.5 -1.5t1.5 -0.5q17 -9 31 -16.5l14 -7.5v0zM257 294q-4 0 -7 0.5t-5 1.5h-0.5h-0.5h-0.5h-0.5q-4 0 -6.5 -4t-3.5 -10q-1 -2 -1 -3.5v-3.5v-16.5v-14.5v-10v-10
q0 -6 3.5 -11t7.5 -9q1 -2 2.5 -3.5t2.5 -3.5q2 -2 3.5 -4.5t1.5 -5.5v-0.5v-0.5v-2v-2q-1 -4 -9.5 -11t-38.5 -24q-6 -4 -8 -6.5t-2 -4.5t2.5 -3t5.5 -2h2.5h2.5h22.5h21.5h31.5h36.5q50 0 89.5 53.5t38.5 146.5q0 102 -53.5 158.5t-139.5 56.5h-1.5h-1.5q-7 -1 -13.5 -7.5
t-6.5 -14.5v-18v-16v-2.5v-3.5q-1 -9 -1 -19.5v-24.5q0 -1 -17 9t-38 22q-2 1 -4.5 2.5t-4.5 2.5q-5 3 -9.5 5.5t-9.5 4.5q-4 1 -5.5 5t-1.5 9v1.5v1.5q0 19 -6 27t-12 9h-1.5h-1.5q-7 -1 -13 -6t-6 -11q0 -16 14 -29.5t32 -24.5q13 -7 27.5 -14.5t29.5 -14.5q2 -1 3.5 -1.5
t2.5 -1.5q44 -21 80.5 -43.5t36.5 -50.5q0 -17 -14 -28t-30 -16q-7 -2 -13.5 -3t-12.5 -1v0z" />
    <glyph glyph-name="E" unicode="E" horiz-adv-x="510" 
d="M108 472q0 15 -11.5 22t-25.5 13q-1 0 -1.5 0.5t-1.5 0.5q-13 5 -23.5 11.5t-10.5 18.5q0 20 47.5 27t104.5 8q20 1 39.5 1h36.5h31.5t33.5 -1q51 -1 93 -8.5t42 -30.5q0 -14 -18 -29.5t-44 -31.5q-10 -6 -21 -12.5t-22 -12.5q-39 -22 -72 -41t-33 -31q0 -7 2 -9.5
t5 -2.5q5 0 11.5 3.5t15.5 7.5q8 4 18 7.5t20 3.5h4.5h5.5q25 -3 45.5 -16t20.5 -37v-1.5v-1.5q0 -2 -0.5 -4.5t-0.5 -4.5q-2 -4 -3.5 -8t-3.5 -8q-3 -4 -5 -6.5t-3 -2.5q-9 8 -16.5 11t-15.5 3q-9 0 -17.5 -3t-18.5 -6t-22 -6t-26 -3h-8.5t-8.5 1q-24 2 -44.5 11.5
t-20.5 33.5q0 14 16.5 32.5t39.5 37.5q6 5 13 10t13 11q23 17 43 32.5t31 26.5q5 5 6.5 10.5t1.5 9.5q0 11 -7 18.5t-17 7.5h-7.5h-7.5h-23.5h-29.5q-20 0 -36 -16.5t-16 -39.5q0 -7 0.5 -13.5t1.5 -12.5q0 -6 0.5 -11.5t0.5 -11.5t-0.5 -12t-2.5 -13q0 -1 -5.5 -7
t-11.5 -15q-3 -4 -6 -8.5t-5 -8.5q-3 -5 -4.5 -10t-1.5 -9q0 -21 5 -31.5t11 -15.5q6 -4 10.5 -5t5.5 -2h1v0q0 -8 0.5 -17.5t0.5 -18.5v-1.5v-1.5q1 -19 1.5 -36t0.5 -27q0 -34 26 -56t60 -22h21h20h32h35q10 0 16.5 4.5t12.5 10.5h1v1q6 5 12.5 9.5t15.5 4.5
q16 0 22 -13.5t7 -29.5q1 -4 1 -7.5v-7.5q0 -37 -24 -58.5t-78 -21.5q-19 0 -36 2t-32 4q-8 1 -15 2t-15 2t-16 1.5t-16 0.5q-18 0 -34 -2t-31 -4t-28.5 -4t-27.5 -2q-8 0 -17.5 1.5t-19.5 4.5t-20.5 7.5t-19.5 8.5q-17 8 -27.5 15t-8.5 7q15 4 23 10t15 13q3 4 7 8l9 9
q2 2 4.5 3.5t5.5 2.5q1 0 2 0.5t2 0.5q7 2 12.5 6.5t5.5 23.5q0 33 -0.5 73t-0.5 85q0 43 -0.5 88.5t-0.5 91.5v4.5v4.5v0z" />
    <glyph glyph-name="F" unicode="F" horiz-adv-x="456" 
d="M90 472q0 20 -10.5 30t-22.5 15q-4 2 -7.5 3.5t-7.5 3.5q-8 3 -13 7t-5 10q0 20 46 26t101 7h30h29h7.5h6.5h32t35 -1q50 -1 91.5 -9t41.5 -30q0 -14 -18 -29.5t-44 -31.5q-10 -6 -21 -12.5t-22 -12.5q-39 -22 -72 -41t-33 -31q0 -5 2.5 -7.5t6.5 -1.5q5 0 13 3t17 7
q8 3 17.5 5.5t18.5 3.5h2.5h2.5q26 0 46.5 -15t21.5 -41v-1.5v-1.5v-4.5t-1 -5.5q0 -4 -1 -7.5t-2 -6.5q-1 -4 -2 -5.5t-2 -1.5q-7 7 -15.5 9.5t-17.5 2.5q-12 0 -25 -4t-27 -8q-14 -5 -28.5 -9t-29.5 -4q-27 0 -47.5 15t-20.5 40q0 8 3 16t9 17q12 17 32 33.5t42 31.5
q22 16 43 29.5t32 22.5l4 4l4 4q3 4 4.5 8.5t1.5 7.5v0.5v0.5v0.5v0.5q0 10 -8 16.5t-22 6.5h-34.5h-41.5h-4h-4q-20 0 -28 -5.5t-8 -18.5v-14.5v-15.5q0 -16 0.5 -33.5t-0.5 -37.5q0 -1 -6.5 -8.5t-13.5 -17.5q-3 -4 -5.5 -7.5t-4.5 -6.5q-5 -7 -8 -13.5t-3 -12.5
q0 -21 6.5 -34t13.5 -20q8 -8 14 -10.5t6 -3.5q0 -8 0.5 -23.5t0.5 -33.5q0 -8 0.5 -16t0.5 -16q0 -31 0.5 -58t0.5 -36q0 -12 8.5 -20t18.5 -13q3 -1 5.5 -2.5t4.5 -2.5q1 -1 2.5 -1.5t2.5 -1.5q11 -6 16.5 -12.5t9.5 -9.5q2 -2 4 -3t5 -1l-1.5 -3.5t-7.5 -8.5
q-5 -4 -15 -8t-27 -4q-9 0 -16 1l-14 2q-2 0 -3.5 0.5t-2.5 0.5q-9 2 -19 3t-26 1q-8 0 -15 -1t-14 -3q-1 0 -2 -0.5l-1 -0.5l-12 -2t-12 -1q-5 0 -10.5 1t-10.5 3q-6 1 -11 3.5t-10 4.5q-9 4 -14 7.5t-3 4.5q4 2 7 4.5t6 6.5q1 1 2.5 2t2.5 3l6.5 6.5t7.5 5.5l4 2l4 2
t3.5 2t3.5 1q10 5 17.5 11.5t7.5 22.5q0 33 -0.5 77.5t-0.5 94.5v42t-1 43v60v58v0z" />
    <glyph glyph-name="G" unicode="G" horiz-adv-x="546" 
d="M414 340q11 0 20 2t17 5q5 2 10 3.5t10 2.5q3 0 6.5 0.5t6.5 0.5h4h4q8 -1 15 -4t7 -12q0 -8 -7 -15.5t-15 -14.5t-15 -14.5t-7 -15.5v-59v-56v-35v-36q0 -10 2.5 -15t6.5 -9l2.5 -2.5l2.5 -2.5q1 -2 2 -3t2 -3q2 -2 3.5 -4.5t3.5 -5.5q4 -5 7.5 -8.5t3.5 -6.5
q0 -12 -18.5 -20t-40.5 -11q-9 -1 -17.5 -1.5t-15.5 -0.5q-9 0 -17 0.5t-15 1.5h-1.5h-0.5l-14 2t-16 1q-13 0 -23.5 -1t-19.5 -3q-10 -1 -20.5 -2t-23.5 -1q-103 0 -165.5 85.5t-62.5 189.5q0 11 0.5 22t1.5 22q10 98 63.5 180t152.5 82h12.5h12.5h26.5h27.5
q51 -1 93.5 -8.5t42.5 -33.5q0 -27 -35 -49.5t-77 -43.5q-10 -4 -19 -8.5t-18 -9.5q-31 -16 -53.5 -32.5t-22.5 -34.5q0 -4 1.5 -6.5t3.5 -5.5t3.5 -5.5t1.5 -6.5q0 -16 -6.5 -25.5t-14.5 -14.5t-14.5 -6.5l-6.5 -1.5v1.5t1 1.5v1.5v1.5q0 8 -4.5 12t-11.5 8q-1 0 -2 0.5
t-1 1.5q-8 3 -14 9.5t-6 20.5q0 10 8 20.5t21 20.5t30 20t35 21q35 20 64 39.5t29 38.5q0 16 -14.5 21.5t-31.5 6.5h-8.5h-8.5q-114 0 -144.5 -65.5t-31.5 -143.5v-5.5v-5.5v-5.5v-5.5q3 -69 41.5 -126t106.5 -57h0.5h1.5h1.5h0.5h4h4h4h4h6h6q24 1 44.5 7t20.5 29v12v12v48
v50q0 10 -6.5 18t-13.5 15q-8 7 -14.5 12.5t-6.5 10.5q0 8 7.5 12t16.5 5q2 1 4.5 1h4.5q6 0 12 -1t12 -3l1 -0.5t2 -0.5q7 -2 14 -3.5t15 -1.5v0z" />
    <glyph glyph-name="H" unicode="H" horiz-adv-x="528" 
d="M432 469h-6t-5 1q-13 1 -23 7t-10 21q0 13 -23.5 20.5t-116.5 7.5h-1.5h-1.5q-7 -1 -13.5 -4.5t-7.5 -11.5q0 -7 -0.5 -12.5t-0.5 -11.5q-1 -6 -1 -13v-15q0 -1 -0.5 -1h-2.5q-5 0 -17 2.5t-26 6.5q-5 1 -9.5 2.5t-8.5 2.5q-12 4 -20 7.5t-8 5.5v1.5v1.5q0 3 -1 5.5
t-2 5.5q-1 2 -2 4.5t-1 5.5q0 7 -4.5 10.5t-10.5 4.5h-0.5h-1.5h-1.5h-0.5q-5 -1 -9 -4.5t-4 -10.5q0 -23 32.5 -38.5t72.5 -24.5q33 -8 62.5 -11.5t38.5 -3.5q11 0 22.5 -1t23.5 -4q60 -11 110 -53.5t50 -115.5q0 -50 -15.5 -92t-34.5 -79q-19 -36 -34.5 -67t-15.5 -61
q0 -18 4.5 -23.5t11.5 -5.5q3 0 5.5 0.5t5.5 0.5q3 1 5.5 1.5t5.5 0.5q21 0 28.5 -9.5t7.5 -20.5v-1.5v-1.5q0 -5 -1.5 -10.5t-3.5 -9.5q-2 -5 -3.5 -7l-1.5 -2q-7 6 -13 8t-12 2h-3.5t-3.5 -1q-3 0 -6.5 -1t-7.5 -2q-5 -2 -11 -3t-13 -1h-2.5t-2.5 1q-14 2 -26.5 18.5
t-14.5 35.5v2.5v2.5q0 12 1 24.5t3 24.5q3 19 7 38t9 39q8 32 14 67.5t6 75.5q0 77 -30 125.5t-152 84.5q-12 4 -24.5 8t-25.5 8q-53 19 -97.5 45.5t-44.5 64.5q0 15 17.5 22t38.5 9q6 1 11.5 1h10.5h111.5h106.5h41h41h7.5t7.5 -1q15 -1 28 -7.5t13 -19.5q0 -6 -1.5 -11.5
t-2.5 -10.5q-1 -2 -1.5 -3.5t-1.5 -3.5q-1 -3 -1.5 -6t-0.5 -7q1 -6 3.5 -12t9.5 -14l-0.5 -0.5t-2.5 -0.5q-3 -1 -8.5 -1.5t-12.5 -0.5v0zM116 408q0 5 3.5 7t8.5 2q7 0 16.5 -3t19.5 -7q5 -2 9 -4l8 -4q13 -6 22.5 -11t9.5 -6q0 -8 0.5 -31t0.5 -53q0 -14 0.5 -28.5
t0.5 -30.5q0 -49 0.5 -92.5t0.5 -51.5q0 -12 8.5 -20t18.5 -13q3 -1 5.5 -2.5t4.5 -2.5q1 -1 2.5 -1.5t2.5 -1.5q11 -6 16.5 -12.5t9.5 -9.5q2 -2 4 -3t5 -1l-1.5 -3.5t-7.5 -8.5q-5 -4 -15 -8t-27 -4q-9 0 -16 1l-14 2q-2 0 -3.5 0.5t-2.5 0.5q-9 2 -19 3t-26 1
q-8 0 -15 -1t-14 -3q-1 0 -2 -0.5l-1 -0.5l-12 -2t-12 -1q-5 0 -10.5 1t-10.5 3q-6 1 -11 3.5t-10 4.5q-9 4 -14 7.5t-3 4.5q4 2 7 4.5t6 6.5q1 1 2.5 2t2.5 3l6.5 6.5t7.5 5.5l4 2l4 2t3.5 2t3.5 1q10 5 17.5 11.5t7.5 22.5q0 33 -0.5 67.5t-0.5 72.5t-0.5 80.5t-0.5 90.5
v0z" />
    <glyph glyph-name="I" unicode="I" horiz-adv-x="317" 
d="M118 390q0 1 0.5 1h1.5q5 0 18 -6t28 -14q2 -1 4.5 -2t4.5 -3q16 -8 28 -15.5t12 -8.5q0 -8 0.5 -28t0.5 -46q0 -11 0.5 -23.5t0.5 -24.5q0 -43 0.5 -79.5t0.5 -45.5q0 -12 8.5 -20t18.5 -13q3 -1 5.5 -2.5t4.5 -2.5q1 -1 2.5 -1.5t2.5 -1.5q11 -6 16.5 -12.5t9.5 -9.5
q2 -2 4 -3t5 -1l-1.5 -3.5t-7.5 -8.5q-5 -4 -15 -8t-27 -4q-9 0 -16 1l-14 2q-2 0 -3.5 0.5t-2.5 0.5q-9 2 -19 3t-26 1q-8 0 -15 -1t-14 -3q-1 0 -2 -0.5l-1 -0.5l-12 -2t-12 -1q-5 0 -10.5 1t-10.5 3q-6 1 -11 3.5t-10 4.5q-9 4 -14 7.5t-3 4.5q4 2 7 4.5t6 6.5q1 1 2.5 2
t2.5 3l6.5 6.5t7.5 5.5l4 2l4 2t3.5 2t3.5 1q10 5 17.5 11.5t7.5 22.5v24v24q0 20 -0.5 40.5t-0.5 42.5q0 35 -0.5 74.5t-0.5 87.5v0zM245 347q0 4 -4.5 8t-10.5 8t-14 7.5t-15 7.5q-10 4 -19.5 7.5t-15.5 6.5q-1 1 -2.5 1.5t-3.5 1.5q-31 14 -60.5 35t-50.5 43
q-14 16 -22.5 31t-8.5 28q0 20 16.5 30.5t36.5 13.5h4.5h4.5h4h5q5 -1 10.5 -1.5t10.5 -1.5q8 -1 16.5 -2t17.5 -1q10 0 18 1l16 2q7 1 15 2t18 1q16 0 30.5 -6t25.5 -13q9 -7 14.5 -12.5t4.5 -6.5q-5 -9 -11 -14t-13 -8q-3 -2 -7 -3.5t-7 -2.5q-9 -3 -16 -8t-10 -18l-2 -12
t-2 -13q0 -9 -1 -18t-1 -19q0 -1 -0.5 -1h-1.5q-4 0 -18.5 7t-31.5 17l-10 6l-10 6q-6 4 -11 8t-9 7q-1 1 -2 3l-3 6l-2 6t-2 7q0 2 -0.5 4t-0.5 4q0 7 -5 10.5t-11 3.5q-5 0 -9.5 -3t-4.5 -11v-4t1 -4q4 -20 28 -39.5t52 -33.5q1 -1 2.5 -1.5t2.5 -1.5q7 -3 14 -6.5
t14 -6.5q2 -1 4.5 -2t5.5 -2q30 -13 54 -28t24 -41q0 -22 -7 -32.5t-16 -14.5q-3 -2 -7 -2.5t-7 -0.5h-0.5h-1.5h-3.5h-1.5q3 5 4 8.5t1 5.5v1.5v1.5q-1 2 -1.5 3.5t-0.5 4.5q-1 3 -2 7t-1 10q0 3 0.5 5.5t1.5 5.5q0 3 0.5 6t0.5 6v0z" />
    <glyph glyph-name="J" unicode="J" horiz-adv-x="396" 
d="M81 464q0 13 -9 21.5t-20 15.5l-1.5 1.5l-1.5 1.5q-12 8 -22 17.5t-10 24.5q0 21 39 28.5t86 8.5q16 1 31.5 1h29.5t29.5 -0.5t31.5 -1.5q46 -2 84 -10t38 -26q0 -15 -9.5 -23.5t-22.5 -16.5q-1 0 -2 -1t-2 -1q-14 -8 -25.5 -18.5t-11.5 -31.5v-202v-200q0 -10 5 -18
t11 -15v-1v0q6 -7 10.5 -14t4.5 -17q0 -36 -30.5 -53.5t-67.5 -23.5q-18 -3 -34.5 -4t-30.5 -1q-9 0 -18.5 0.5t-18.5 0.5q-46 4 -84.5 22.5t-38.5 66.5q0 19 8.5 33t18.5 24l11.5 11.5t9.5 10.5q2 3 3.5 6.5t1.5 6.5t-1 6t-4 7h0.5t0.5 1h2h2q3 0 6 -0.5t7 -1.5
q7 -2 12.5 -8.5t5.5 -18.5q0 -5 -1 -9.5t-3 -8.5q-1 -4 -2.5 -8.5t-1.5 -9.5q0 -14 12 -20t27 -7q4 -1 7.5 -1h7.5q30 0 45 14.5t15 69.5v42v41v114v127q0 14 -5 21.5t-11 12.5l-1.5 1.5l-1.5 1.5q-5 5 -9 10.5t-4 14.5q0 12 10 15t22 3h4.5h4.5h2.5h2.5q6 0 14.5 1.5
t17.5 4.5q15 4 27.5 11.5t12.5 16.5q0 5 -30.5 9t-66.5 4h-4h-4q-33 0 -59 -3.5t-26 -11.5q0 -6 3 -11t8 -10q2 -1 4 -3l4 -4q7 -7 13 -16t6 -24q0 -23 -15 -34.5t-33 -11.5q-9 0 -17 6t-13 13q-2 4 -4 7t-2 6v0l1 1q1 0 3.5 0.5t5.5 2.5q4 1 7 4.5t3 9.5v0z" />
    <glyph glyph-name="K" unicode="K" horiz-adv-x="570" 
d="M159 402q-32 14 -62 36t-50 45q-14 16 -22 31t-8 28q0 20 16 31t35 13h2.5h2.5q8 0 15.5 -0.5t15.5 -0.5q7 0 15.5 -0.5t17.5 -0.5q11 0 20 0.5t17 1.5h1h1q8 1 16.5 1.5t18.5 0.5q6 0 13.5 -3t15.5 -7q4 -2 8.5 -5t8.5 -5q9 -7 16 -13t6 -7q-5 -9 -11 -14t-13 -8
q-3 -2 -7 -3.5t-7 -2.5q-9 -3 -16 -8t-10 -18l-2 -12t-2 -13q0 -9 -1 -18t-1 -19q0 -1 -0.5 -1h-1.5q-4 0 -18.5 7t-31.5 17l-10 6l-10 6q-6 4 -11 8t-9 7q-1 1 -2 3l-3 6l-2 6t-2 7q0 2 -0.5 4t-0.5 4q0 7 -5 10.5t-11 3.5q-5 0 -9.5 -3t-4.5 -11q0 -21 25 -42t55 -37
q2 -1 4.5 -2.5t5.5 -2.5q29 -14 51.5 -20t35.5 -6q5 0 8 0.5t5 1.5q21 11 41 26.5t35 31.5q13 15 21 29t8 25q0 8 -2 14t-5 12v1l-1 1q-2 5 -4 11t-2 13t16 10.5t35 4.5q6 1 12.5 1h12.5q32 0 48 -3.5t23 -7.5q3 -2 4 -4t1 -4l-0.5 -0.5l-0.5 -0.5q0 -1 -0.5 -1.5l-0.5 -0.5
q-18 -13 -32.5 -26.5t-27.5 -27.5q-7 -8 -14 -15.5t-14 -15.5q-20 -22 -42 -42t-53 -35q-1 0 -1.5 -1t0.5 -3v-2.5t1 -1.5q47 -18 77.5 -61.5t45.5 -118.5q5 -27 10 -46.5t10 -33.5q10 -28 20.5 -38.5t23.5 -17.5q3 -2 6.5 -4t7.5 -4q13 -8 18 -13.5t8 -9.5q3 -3 5.5 -5
t8.5 -4l-5.5 -5t-12.5 -11q-4 -3 -8 -5.5t-8 -4.5q-5 -3 -9.5 -4.5t-8.5 -1.5q-7 0 -13.5 2t-11.5 4h-1l-1 1q-5 2 -10.5 3.5t-12.5 1.5q-5 0 -9 -1.5t-7 -3.5h-1v0q-3 -2 -6.5 -3.5t-8.5 -1.5t-13 1.5t-16 5.5q-13 5 -23.5 13.5t-11.5 21.5q-20 181 -52.5 239t-102.5 91
q-12 6 -25.5 12t-28.5 12v0zM111 404q0 1 0.5 1h1.5q5 0 18.5 -6t28.5 -14l4 -2t4 -3q17 -8 29 -15.5t12 -8.5q0 -12 0.5 -49.5t0.5 -79.5v-3v-3q0 -43 0.5 -80.5t0.5 -45.5q0 -11 8.5 -17.5t18.5 -11.5q1 0 2.5 -0.5t3.5 -1.5q1 -1 3 -1.5t3 -1.5q4 -2 7 -4.5t5 -4.5
q4 -5 5.5 -9.5l2.5 -7.5q0 -3 1.5 -5t4.5 -2l-5 -3.5t-15 -8.5q-9 -4 -22.5 -8t-30.5 -4q-5 0 -7 0.5t-4 1.5l-1.5 1.5t-1.5 0.5q-3 2 -9.5 3t-22.5 1q-8 0 -15 -1t-14 -3q-1 0 -2 -0.5l-1 -0.5l-12 -2t-12 -1q-4 0 -9 1t-10 3q-6 2 -12 5.5t-12 6.5q-8 6 -13 10.5t-4 5.5
q4 2 7.5 5t6.5 6q1 1 2 1.5t1 1.5q4 3 7.5 6.5t7.5 5.5l4 2l4 2q3 1 5 1.5t5 1.5q9 3 15.5 8t6.5 20q0 33 -0.5 67t-0.5 71t-0.5 79t-0.5 90v0z" />
    <glyph glyph-name="L" unicode="L" horiz-adv-x="516" 
d="M276 570q0 -10 -7 -16t-15 -12q-8 -5 -15 -11t-7 -17v-87v-76v-52.5v-56.5q0 -25 5 -35t11 -14q2 -1 3.5 -2t2.5 -2q4 -2 7 -5.5t3 -11.5q0 -12 -15 -19.5t-35 -14.5q-5 -1 -9.5 -2.5t-9.5 -3.5q-9 -2 -17 -5t-16 -7q-7 -3 -15.5 -7.5t-17.5 -9.5q-5 -3 -11 -6.5
t-11 -6.5q-12 -8 -21 -16t-9 -13q0 -4 6 -6.5t19 -2.5q44 0 81 13t71 29q10 5 20 9.5t20 9.5q23 9 47 16t49 7h4t4 -1h2h2q3 -1 6 -1.5t6 -0.5q4 0 6 1.5t2 5.5q0 6 -1.5 11.5t-4.5 10.5q-5 9 -12 18t-15 18q-12 15 -22.5 32t-10.5 38q0 7 2.5 11.5t5.5 7.5l1 1l1 1
q3 3 6 8.5t3 14.5q0 4 -0.5 9t-2.5 11l8.5 -2.5t18.5 -9.5q10 -6 18.5 -16t8.5 -24q0 -3 -1 -6l-2 -6l-2 -6t-1 -6q0 -33 13.5 -61t29.5 -52q16 -25 29.5 -45.5t13.5 -37.5q0 -18 -28 -33t-61 -20q-8 -2 -16 -2.5t-15 -0.5q-21 0 -37.5 4t-31.5 9q-1 0 -1.5 0.5t-1.5 0.5
q-14 5 -29.5 8.5t-34.5 3.5q-20 0 -37 -4t-33 -9q-3 -1 -7 -2.5t-8 -2.5q-12 -3 -24 -5.5t-25 -2.5q-6 0 -13 0.5t-13 2.5q-27 5 -49.5 17t-22.5 26q0 7 7 17.5t18 22.5q6 6 12.5 12t13.5 12q1 1 2.5 2t2.5 2q4 3 7.5 5.5t7.5 4.5q2 0 3 1t2 1q15 8 26.5 20.5t11.5 47.5v38
v38v104v116q0 20 -10 31t-22 18q-4 2 -8.5 4.5t-8.5 4.5q-6 4 -10.5 8t-4.5 10q0 9 21.5 12t47.5 4h18h17h17h18q26 -1 47.5 -4t21.5 -12v0z" />
    <glyph glyph-name="M" unicode="M" horiz-adv-x="786" 
d="M365 445q-17 0 -30.5 2t-13.5 7v6t-1 6v0.5v1.5q0 3 -0.5 6.5t-0.5 7.5v4.5t-1 4.5q-3 18 -15.5 32.5t-33.5 14.5q-11 0 -23.5 -8.5t-25.5 -24.5q-27 -32 -51.5 -87t-36.5 -114q-5 -22 -7.5 -43.5t-2.5 -41.5q0 -61 15.5 -90.5t34.5 -44.5q7 -6 14 -10.5t13 -8.5
q9 -7 15.5 -15t6.5 -21q0 -10 -8.5 -14.5t-19.5 -6.5q-2 0 -4 -0.5t-4 -0.5h-1.5h-0.5h-1.5h-1.5q-4 0 -7.5 1t-7.5 2t-7.5 2t-7.5 1t-8 -1t-7 -2q-4 -1 -7.5 -2t-8.5 -1h-1.5h-1.5q-34 1 -46.5 33t-15.5 70q-1 10 -1 20v19q0 29 6 61t15 65q7 26 16 51.5t18 48.5
q20 54 37 93.5t17 47.5q0 2 -0.5 3.5t-1.5 3.5q-3 4 -7.5 7.5t-10.5 4.5q-1 1 -2 1h-2h-4.5h-4.5q-8 -1 -15 -4t-7 -10q0 -2 0.5 -3.5t0.5 -3.5q1 -5 4 -10t7 -9q4 -6 7.5 -9.5l3.5 -3.5q-12 -15 -14 -23.5l-2 -8.5q-7 3 -14.5 7t-15.5 8q-25 14 -45.5 34.5t-20.5 45.5
q0 15 14 23.5t30 11.5q7 2 13 2.5t12 0.5h191.5h170.5h114.5h120.5h9.5t9.5 -1q26 -2 48 -12.5t22 -35.5v-1.5v-1.5q-1 -18 -15.5 -35.5t-31.5 -31.5q-16 -13 -30 -20.5t-16 -6.5q-1 5 -2 11l-2 12q-2 5 -4 11t-4 11l5.5 2.5t11.5 6.5q7 4 12 9.5t5 11.5v0v1q-1 11 -10 15.5
t-20 5.5h-1.5h-1.5h-2.5h-2.5q-10 -1 -18.5 -6.5t-8.5 -16.5q0 -10 9.5 -47t21.5 -90q8 -38 15 -80.5t11 -86.5q2 -18 3 -36t1 -36v-9.5v-9.5v-12v-12q0 -33 -5.5 -61t-28.5 -28q-8 0 -15 1t-13 3h-0.5h-0.5q-6 1 -12.5 2t-13.5 1q-6 0 -11.5 -1t-10.5 -2q-1 -1 -1.5 -1
h-0.5l-10 -2t-10 -1h-1.5h-0.5h-1.5h-1.5q-3 0 -5.5 0.5t-5.5 0.5h-1h-2q-15 2 -28 6t-13 18q0 11 10 20t23 17q3 2 6 3.5t6 3.5q16 10 30 22t14 30v14v12v14.5v18.5q0 18 -0.5 36t-2.5 37q-8 104 -39.5 190.5t-87.5 86.5q-16 0 -28 -12t-12 -28v-10.5v-9.5v-9v-11
q0 -4 -16 -6.5t-36 -2.5h-3h-4v0zM321 369q0 4 13 5t29 1h4h3q12 0 22.5 -0.5t17.5 -1.5q3 0 5.5 -0.5l2.5 -0.5q0 -8 0.5 -28.5t0.5 -46.5q0 -12 0.5 -24.5t0.5 -25.5q0 -44 0.5 -81.5t0.5 -46.5q0 -15 6.5 -28t14.5 -23q1 -2 3 -3.5t3 -3.5q2 -2 3 -3.5t3 -3.5
q3 -4 5.5 -8.5t4.5 -7.5q1 -4 3 -6.5t5 -3.5v0v-1q0 -2 -1 -5t-4 -6q-4 -4 -13 -8t-26 -4q-7 0 -11 1l-8 2q-1 0 -2.5 0.5t-2.5 0.5q-6 1 -14 2.5t-24 1.5q-9 0 -16.5 -1t-14.5 -3q-3 0 -5 -0.5t-5 -1.5q-4 -1 -9 -1.5t-10 -0.5q-3 0 -7 1l-8 2l-10 4t-9 5q-6 3 -9.5 6.5
t-3.5 4.5l1 1v0q5 2 7 5.5t5 7.5v1v1q2 4 4.5 7.5t6.5 5.5q2 1 4 2.5t4 3.5q12 9 22 24t10 34v43.5t-1 37.5v14v14q0 26 -0.5 58.5t-0.5 81.5v0zM385 426q31 0 65 2.5t75 6.5q5 1 9 -4.5t6 -11.5q0 -2 0.5 -4t0.5 -4q1 -4 -0.5 -6.5t-4.5 -2.5q-32 -4 -66 -6.5t-69 -2.5
q-55 0 -107.5 6.5t-95.5 22.5q-2 1 -3 3t-1 4v0.5v0.5v0.5v0.5q0 1 0.5 2.5t0.5 3.5q2 5 7 10t10 5h0.5h1.5q21 -6 41 -11t40 -8q22 -4 44 -5.5t46 -1.5v0z" />
    <glyph glyph-name="N" unicode="N" horiz-adv-x="602" 
d="M404 578q66 0 114 -47.5t48 -106.5q0 -76 -17.5 -115.5t-38.5 -63.5q-7 -8 -13.5 -15t-12.5 -13q-13 -15 -21.5 -31t-8.5 -40q0 -13 7 -17t18 -4h1.5h1.5q7 0 14.5 1t15.5 3q8 1 15.5 2t14.5 1q30 0 40.5 -21t11.5 -46v-4v-4v-2.5v-3.5q0 -10 -1 -19.5t-2 -16.5t-2 -11
l-1 -4q-4 5 -8 8t-7 5l-8 2t-8 1q-7 0 -15 -2.5t-16 -5.5t-17 -5.5t-19 -2.5h-5.5t-4.5 1q-34 3 -62 26t-28 59q0 34 7.5 68.5t16.5 72.5q9 37 16.5 77.5t7.5 85.5q0 80 -43.5 110t-100.5 30h-8h-8q-17 -2 -31.5 -8t-14.5 -22v-47.5v-46.5v-1h-1q-4 0 -19.5 7.5t-33.5 17.5
q-3 2 -6.5 4t-6.5 4q-17 10 -29 19t-12 13v6.5t1 6.5v7.5v7.5q0 11 -3 18.5t-12 7.5q-10 0 -15.5 -10t-5.5 -22q0 -8 2.5 -15.5t8.5 -12.5q18 -13 37.5 -26t39.5 -25q75 -47 137 -86.5t62 -76.5q0 -17 -15 -27.5t-33 -10.5q-3 0 -6.5 0.5t-6.5 1.5q-7 3 -14 7t-13 9
q-9 7 -14 12.5t-4 5.5h0.5h0.5h0.5h0.5q10 0 14.5 6.5t4.5 13.5q0 5 -1.5 9.5t-5.5 6.5q-146 91 -201.5 133t-63.5 74q0 3 -0.5 6.5t-0.5 6.5q0 35 29.5 54t64.5 20h3.5h2.5h101h97h44h44v0zM122 344q0 4 2 5t5 1q8 0 21 -6t27 -14q3 -2 7 -4.5t7 -4.5q17 -11 29 -19.5
t12 -9.5v-39v-58v-62v-38q0 -10 7.5 -15.5t16.5 -9.5q1 -1 2 -1t2 -1q2 -1 3.5 -1.5t3.5 -1.5q1 -1 2.5 -1.5t2.5 -1.5q10 -6 12.5 -11.5t3.5 -9.5q1 -2 2.5 -3.5t4.5 -1.5q1 0 -4 -5t-14 -11t-22 -11t-30 -5q-5 0 -7 0.5t-4 1.5l-1.5 1.5l-0.5 0.5q-3 2 -9.5 3t-22.5 1
q-7 0 -12.5 -1t-10.5 -3v0h-1q-5 -1 -10.5 -2.5t-13.5 -1.5q-5 0 -10 1t-10 3q-9 3 -17 7t-15 9q-11 7 -17 13t-4 7q4 2 7.5 4.5t6.5 5.5q1 1 1.5 2t1.5 2q3 2 6 5t7 5q5 3 9.5 4t8.5 2q7 1 12 4.5t5 18.5v43.5t-1 38.5v12.5v13.5q0 26 -0.5 58.5t-0.5 80.5v0z" />
    <glyph glyph-name="O" unicode="O" horiz-adv-x="528" 
d="M494 283q0 -108 -46 -197.5t-127 -89.5q-9 0 -15.5 1.5t-13.5 2.5q-7 2 -13.5 3.5t-15.5 1.5t-16.5 -1.5t-14.5 -3.5q-7 -1 -14.5 -2.5t-16.5 -1.5q-74 0 -117 85.5t-43 191.5v7.5v6.5q3 108 57.5 198.5t172.5 90.5q115 0 168.5 -90.5t54.5 -199.5v-1.5v-1.5v0zM169 188
q0 -4 1 -7.5t2 -7.5q8 -21 33.5 -39t54.5 -21h4h4q65 0 101.5 56.5t43.5 124.5q1 8 1.5 16.5t0.5 16.5q0 10 -2 24t-6 28q-2 9 -4.5 18t-4.5 17q-7 21 -12.5 31.5t-5.5 -2.5v-0.5v-1.5v-1.5v-0.5v-0.5v-0.5v-0.5v-0.5q0 -19 -14 -35.5t-36 -32.5q-13 -9 -27 -18l-28 -18
q-40 -27 -73 -60.5t-33 -84.5v0zM116 320q0 -7 1 -16t2 -19q2 -13 5 -25.5t6 -17.5q2 -4 3.5 -3.5t3.5 6.5q15 46 43.5 74t59.5 48q15 9 29.5 17t27.5 16q24 15 40.5 31.5t16.5 40.5q0 22 -23.5 39t-51.5 22q-4 0 -8 0.5t-8 0.5q-65 0 -101.5 -56.5t-43.5 -124.5
q-1 -8 -1.5 -16.5t-0.5 -16.5v0z" />
    <glyph glyph-name="P" unicode="P" horiz-adv-x="510" 
d="M244 529q-20 0 -36.5 -3.5t-16.5 -20.5v-34v-45v-37v-31q0 -2 -5 -5.5t-11 -9.5q-6 -7 -11 -17t-5 -25q0 -21 5 -35.5t11 -23.5q5 -9 10 -13.5t5 -5.5q0 -8 0.5 -19t0.5 -24q0 -4 0.5 -8t0.5 -9q0 -21 0.5 -40t0.5 -28q0 -15 9.5 -25t20.5 -16q1 0 1.5 -0.5t1.5 -0.5
q13 -7 17.5 -14t7.5 -11q1 -2 3 -3.5t5 -1.5l-2.5 -4t-9.5 -9q-6 -6 -17 -9.5t-28 -3.5q-7 0 -11.5 1t-9.5 2q-1 0 -2 0.5t-3 0.5q-5 2 -13.5 3.5t-24.5 1.5q-9 0 -17.5 -1.5t-15.5 -3.5q-5 -1 -9 -2l-8 -2q-3 0 -6.5 -0.5t-6.5 -0.5q-4 0 -8.5 1t-9.5 3q-5 0 -10 2.5
t-10 5.5q-7 4 -11.5 7.5t-2.5 4.5q4 2 6.5 5t5.5 7l2 4t2 3q3 5 7 9.5t9 7.5q1 1 2.5 1.5t2.5 1.5q2 1 4.5 2t4.5 2q10 5 17 11.5t7 22.5v115.5v141.5v60v58q0 20 -10.5 30t-22.5 15q-4 2 -7.5 3.5t-7.5 3.5q-8 3 -13 7t-5 10q0 17 36 21.5t82 4.5h8.5h9.5h17h18
q12 -1 24.5 -1h24.5q20 0 46.5 -3.5t54.5 -12.5q53 -17 97.5 -59.5t44.5 -123.5q0 -94 -48 -133t-117 -39q-6 0 -12 0.5t-12 1.5q-46 5 -85 31.5t-39 63.5q0 17 7 27.5t15 19.5q3 3 6.5 6t6.5 6q4 5 6.5 9.5t2.5 9.5q0 2 -0.5 4.5t-2.5 5.5h0.5h1.5q4 0 11 -1t15 -4
q11 -4 20 -11.5t9 -19.5q0 -18 8 -31t36 -13q31 0 47 21t16 69q0 54 -23 83t-50 42q-20 8 -37.5 11t-27.5 3v0z" />
    <glyph glyph-name="Q" unicode="Q" horiz-adv-x="540" 
d="M295 -27q0 -6 3 -8.5t7 -2.5t8.5 1t10.5 2t13 2t15 1q20 0 26.5 -13t6.5 -29v-0.5v-1.5v-1.5v-0.5q0 -10 -1.5 -20t-3.5 -17q-2 -8 -3.5 -12.5l-1.5 -4.5q-5 15 -14.5 20.5t-20.5 5.5h-1.5h-1.5q-5 0 -10 -0.5t-10 -2.5q-2 0 -4.5 -0.5t-5.5 -1.5q-7 -2 -14 -3.5
t-13 -1.5q-19 0 -31.5 11.5t-12.5 36.5q0 9 2.5 12.5t5.5 6.5q1 0 1 0.5t1 0.5q3 3 6 8t3 17q0 8 5.5 12t12.5 4q8 0 15 -4.5t7 -14.5v-1zM494 283q0 -108 -46 -197.5t-127 -89.5q-9 0 -15.5 1.5t-13.5 2.5q-7 2 -13.5 3.5t-15.5 1.5t-16.5 -1.5t-14.5 -3.5
q-7 -1 -14.5 -2.5t-16.5 -1.5q-74 0 -117 85.5t-43 191.5v7.5v6.5q3 108 57.5 198.5t172.5 90.5q115 0 168.5 -90.5t54.5 -199.5v-1.5v-1.5v0zM169 188q0 -4 1 -7.5t2 -7.5q8 -21 33.5 -39t54.5 -21h4h4q65 0 101.5 56.5t43.5 124.5q1 8 1.5 16.5t0.5 16.5q0 10 -2 24t-6 28
q-2 9 -4.5 18t-4.5 17q-7 21 -12.5 31.5t-5.5 -2.5v-0.5v-1.5v-1.5v-0.5v-0.5v-0.5v-0.5v-0.5q0 -19 -14 -35.5t-36 -32.5q-13 -9 -27 -18l-28 -18q-40 -27 -73 -60.5t-33 -84.5v0zM116 320q0 -7 1 -16t2 -19q2 -13 5 -25.5t6 -17.5q2 -4 3.5 -3.5t3.5 6.5q15 46 43.5 74
t59.5 48q15 9 29.5 17t27.5 16q24 15 40.5 31.5t16.5 40.5q0 22 -23.5 39t-51.5 22q-4 0 -8 0.5t-8 0.5q-65 0 -101.5 -56.5t-43.5 -124.5q-1 -8 -1.5 -16.5t-0.5 -16.5v0z" />
    <glyph glyph-name="R" unicode="R" horiz-adv-x="612" 
d="M432 584q4 0 9 -0.5t9 -2.5q18 -5 33 -20t15 -41q0 -27 -19.5 -49t-43.5 -39q-19 -13 -35.5 -22t-23.5 -15q-1 0 -1 -0.5v-1.5v-1.5t1 -1.5q0 -1 1 -1.5l3 -1.5q7 -4 24.5 -10t37.5 -20q25 -16 46 -50.5t21 -98.5q0 -69 12 -98.5t27 -41.5q5 -5 10.5 -8t9.5 -6
q1 0 1.5 -0.5l0.5 -0.5q5 -3 8 -6.5t6 -7.5q4 -5 9 -10t15 -8q1 0 -4 -4t-13 -8q-3 -2 -6 -3.5t-6 -3.5q-4 -2 -7.5 -2.5t-6.5 -1.5q-2 -1 -4 -1h-4q-4 0 -8.5 0.5t-8.5 1.5q-1 1 -2 1h-2q-5 1 -10.5 2t-11.5 1t-11.5 -1t-10.5 -2q-3 0 -5.5 -0.5t-5.5 -1.5q-2 0 -4.5 -0.5
t-5.5 -0.5h-4.5t-5.5 1q-19 5 -31 16.5t-14 30.5q-19 196 -44.5 242.5t-58.5 63.5l-0.5 0.5t-1.5 0.5q-20 11 -42 22l-44 22q-18 9 -35.5 18t-34.5 19q-57 31 -97 61t-40 56q0 15 12.5 23t26.5 10q4 0 7.5 0.5t6.5 0.5h96h85h84h96v0zM266 544q-26 0 -35.5 -20t-9.5 -57
q0 -1 -0.5 -1.5t-2.5 -0.5q-6 0 -19 4.5t-27 11.5q-7 3 -13.5 6.5t-12.5 7.5q-10 6 -17 12.5t-7 10.5q0 14 -3.5 19t-8.5 5h-1.5h-0.5q-5 -2 -9 -7t-4 -12q0 -2 1 -4.5t2 -4.5q3 -5 8 -9.5t11 -8.5q5 -3 10.5 -6.5t10.5 -6.5q34 -21 69.5 -38t77.5 -31l10.5 -3.5t9.5 -1.5
q3 -1 5.5 -1h4.5q8 0 15.5 2t15.5 6q30 17 51 38t21 53q0 18 -15 26.5t-34 10.5h-4.5h-4.5h-49.5h-44.5v0zM226 376v-35v-36v-105v-96q0 -11 6 -17t14 -11q1 -1 2.5 -2t3.5 -2q3 -2 7 -5t7 -6l4 -4t4 -5q1 -2 2.5 -4t3.5 -4q4 -5 9 -10t12 -7v0h1v-0.5v-0.5q0 -1 -5.5 -5
t-14.5 -8l-10 -4l-10 -4q-6 -2 -12 -3.5t-11 -1.5h-2.5h-2.5q-7 0 -13 1.5t-12 3.5h-0.5t-0.5 1q-6 2 -12.5 3.5t-14.5 1.5q-9 0 -16 -1.5t-14 -3.5q0 -1 -0.5 -1h-0.5q-7 -2 -13.5 -3.5t-14.5 -1.5h-1.5h-1.5q-5 0 -11 1.5t-12 2.5q-7 2 -13 4.5t-11 4.5q-12 6 -19.5 10
l-7.5 4q9 3 13 7t8 9v0.5t1 0.5q2 3 5 6t7 6q3 2 6 3.5t6 3.5q1 1 2.5 1.5t3.5 1.5q11 6 19.5 13t8.5 20v61.5v63.5v110.5v95.5q0 2 16 -6t35 -18q1 -1 2.5 -1.5t2.5 -1.5q18 -9 31.5 -17.5t13.5 -9.5v0z" />
    <glyph glyph-name="S" unicode="S" horiz-adv-x="477" 
d="M358 570h2.5h2.5q21 -1 38 -12.5t17 -31.5q0 -12 -9.5 -21.5t-20.5 -17.5q-3 -3 -6.5 -5t-6.5 -5q-7 -6 -12 -11.5t-5 -12.5q-1 -3 0.5 -6l3.5 -7l-2 -1t-5 -2t-7.5 -2t-9.5 -1h-1.5h-1.5h-1.5h-1.5q-10 1 -18 10t-8 32q0 3 1 6.5t3 6.5l2 4t2 3q2 5 4.5 10t2.5 9v0.5
v0.5v0.5v0.5q0 6 -8 9.5t-29 3.5h-37h-43h-33.5h-30.5q-10 0 -17 -5t-7 -17t8 -20t18 -14q28 -16 54.5 -29t52.5 -25q2 -1 3.5 -2t2.5 -1q23 -11 45 -22l46 -23q57 -29 82.5 -78t25.5 -112q0 -107 -46 -145t-120 -38q-10 0 -17.5 1t-15.5 2q-7 2 -15 3t-18 1t-17.5 -1
t-15.5 -3q-7 -1 -15 -2t-18 -1q-57 0 -97.5 47t-40.5 108q0 59 39 102.5t97 43.5q35 0 55.5 -11.5t32.5 -25.5q6 -6 11 -12.5t10 -11.5t10 -8.5t11 -3.5h1.5t1.5 1h1.5h1.5l0.5 -1t0.5 -4q0 -2 0.5 -5t0.5 -6t-0.5 -6.5t-0.5 -7.5q-3 -11 -13 -20.5t-32 -9.5q-21 0 -32.5 4
t-18.5 9q-3 2 -5 3.5t-4 2.5q-5 3 -10 5t-12 2q-10 0 -17.5 -7t-10.5 -15q-1 -3 -1.5 -5.5t-0.5 -4.5q0 -27 23.5 -39.5t51.5 -15.5q5 0 10.5 -0.5t10.5 -0.5h2.5h3.5q43 2 78.5 28t35.5 70q0 67 -50 103.5t-110 63.5q-7 3 -13.5 6t-13.5 6q-52 23 -92.5 50.5t-40.5 74.5
q0 29 23.5 44.5t51.5 17.5h2.5h2.5h122.5h125.5v0z" />
    <glyph glyph-name="T" unicode="T" horiz-adv-x="546" 
d="M216 512h-20h-18h-10.5h-11.5h-2h-2q-5 -1 -9.5 -3t-4.5 -7q0 -6 1.5 -11.5t4.5 -11.5q2 -5 5 -10t6 -11q6 -11 11.5 -23t5.5 -27q0 -12 -2.5 -17.5t-5.5 -8.5q-1 0 -2 -1t-2 -1q-2 -3 -3.5 -5t-1.5 -7q0 -3 1.5 -8t3.5 -12l-8.5 1t-19.5 6q-10 4 -19 12t-9 21q0 5 3 8.5
t7 6.5t7 6.5t3 8.5q0 16 -16.5 31t-36.5 30t-36.5 30t-16.5 31q0 11 8 18t18 9q2 1 4 1h4h121.5h109.5h90h97h8t8 -1q21 -2 38.5 -10.5t17.5 -26.5t-12.5 -32t-28.5 -27q-1 0 -2 -1t-2 -1q-17 -14 -31 -29t-14 -36q0 -5 2 -9t5 -8t5 -8t2 -9q0 -12 -6.5 -18.5t-14.5 -8.5
q-5 -2 -10 -2.5t-8 -0.5h-2h-1q2 4 2 7v6q0 8 -3 13t-7 10v0l-1 1q-3 4 -6 9t-3 12q0 14 5 26.5t11 23.5q5 9 9 18t6 17q1 2 1 4.5v4.5q0 9 -8 14t-17 6h-2.5h-2.5h-18.5h-16.5h-11.5h-11.5h-2t-2 -1q-4 -1 -7 -3l-6 -4l-5 -5t-2 -3v-71.5v-128.5v-132v-69q0 -12 8.5 -20
t18.5 -13q3 -1 5.5 -2.5t4.5 -2.5q1 -1 2.5 -1.5t2.5 -1.5q11 -6 16.5 -12.5t9.5 -9.5q2 -2 4 -3t5 -1l-1.5 -3.5t-7.5 -8.5q-5 -4 -15 -8t-27 -4q-9 0 -16 1l-14 2q-2 0 -3.5 0.5t-2.5 0.5q-9 2 -19 3t-26 1q-8 0 -15 -1t-14 -3q-1 0 -2 -0.5l-1 -0.5l-12 -2t-12 -1
q-5 0 -10.5 1t-10.5 3q-6 1 -11 3.5t-10 4.5q-9 4 -14 7.5t-3 4.5q4 2 7 4.5t6 6.5q1 1 2.5 2t2.5 3l6.5 6.5t7.5 5.5l4 2l4 2t3.5 2t3.5 1q10 5 17.5 11.5t7.5 22.5q0 33 -0.5 81.5t-0.5 103.5v30v30q-1 41 -1 81v75q0 16 -1.5 17t-3.5 -1q-1 -1 -2.5 -1.5t-2.5 -0.5v0z
" />
    <glyph glyph-name="U" unicode="U" horiz-adv-x="546" 
d="M512 546q0 -10 -9.5 -15.5t-20.5 -10.5h-0.5h-1.5q-11 -5 -19.5 -10t-8.5 -14v-86v-94v-121.5v-104.5q0 -11 7 -15t16 -6q1 0 2 -0.5t2 -0.5q4 -1 8 -2.5t7 -3.5q13 -9 19 -17t11 -14q2 -3 4.5 -5t5.5 -4q1 0 -6 -5t-18 -10q-7 -3 -14 -5.5t-15 -4.5q-6 -2 -12 -3t-11 -1
q-12 0 -22 2t-20 5h-0.5h-1.5q-10 2 -20.5 4t-23.5 2q-20 0 -36.5 -2.5t-32.5 -4.5q-16 -3 -32.5 -5.5t-36.5 -2.5q-86 0 -140 69t-54 154q0 50 22 98.5t48 88.5t48 68t22 37q0 12 -8.5 16t-25.5 4h-5t-6 -1q-9 -1 -17 -4.5t-8 -11.5q0 -6 7.5 -14.5t24.5 -20.5q2 -1 -4 -5
t-13 -14q-1 -1 -2.5 -3t-2.5 -4l-15.5 8.5t-34.5 21.5q-19 14 -34.5 31.5t-15.5 36.5q0 11 8.5 17t18.5 7h2.5h2.5h54.5h61.5h24h24h2.5h2.5q12 -1 21.5 -6.5t9.5 -17.5v-1.5v-0.5q-1 -24 -19.5 -49t-40.5 -55q-22 -32 -41 -71.5t-19 -92.5q0 -67 31 -118.5t125 -51.5
q29 0 48.5 13t19.5 57q0 19 -10 43.5t-26 49.5q-13 21 -28.5 41t-31.5 37q-20 22 -39.5 37.5t-33.5 20.5l2.5 4.5t5.5 9.5q3 4 6.5 7.5t6.5 5.5l38 -21.5t90 -88.5q2 -2 4.5 -4t6.5 -2h1.5h0.5q3 0 5 3.5t2 10.5v79v83q0 12 -8.5 18t-19.5 11q-10 5 -19 11t-9 18
q0 10 22.5 14.5t50.5 4.5q9 1 18.5 1h18.5h16.5h16.5q27 -1 49 -5.5t22 -18.5v0z" />
    <glyph glyph-name="V" unicode="V" horiz-adv-x="558" 
d="M61 470q5 0 23 6.5t39 15.5q6 3 12 5.5t11 5.5q17 8 29 15.5t12 12.5q0 7 -7 9t-15 2h-3.5h-2.5h-2.5h-2.5q-37 0 -50 -5t-13 -19q0 -4 0.5 -7.5t2.5 -6.5q1 -1 -5 -4t-14 -6q-1 0 -2.5 -0.5t-2.5 -1.5l-16.5 -5.5l-7.5 -2.5q-4 5 -8 9l-8 8l-6 4t-5 4q-8 5 -13 11.5
t-5 17.5q0 13 16 21.5t35 11.5q5 0 10 0.5t9 0.5h41h39h53.5h56.5h5.5h5.5q10 -1 18.5 -4.5t8.5 -13.5q0 -16 -19.5 -27.5t-43.5 -21.5q-7 -4 -14.5 -7t-14.5 -6q-14 -7 -23 -13.5t-10 -14.5v-0.5v-1.5t0.5 -1.5l0.5 -0.5q11 -29 26 -63.5t32 -69.5l8 -18t9 -18
q19 -41 38 -78.5t33 -63.5q3 -4 6 -7t6 -5q1 0 3 -0.5t3 -0.5q7 0 13.5 4t10.5 8q0 1 1 2t1 2q6 11 13 24.5t14 28.5q13 29 25 62.5t19 68.5q4 16 6 33t2 33q0 56 -17.5 75t-45.5 19q-11 0 -35.5 -6t-51.5 -14l-6 -2l-6 -2q-22 -7 -41.5 -13t-30.5 -9h-1v0v0h-1v0h-1.5h-0.5
q-3 1 -6 4t-4 6q-1 1 -1 2v2q-1 2 0 2.5t2 1.5q107 42 172 75t119 33q29 0 42 -22t14 -48v-1.5v-1.5q0 -46 -22.5 -110.5t-56.5 -132.5q-13 -27 -27 -54t-29 -53q-24 -44 -48 -83.5t-43 -68.5q-2 -3 -4.5 -5.5t-5.5 -4.5q-3 -1 -5.5 -2t-4.5 -1q-7 -1 -13 3.5t-10 9.5
q-46 84 -96 192.5t-110 228.5q-2 4 -4 6l-4 4t-5 3t-5 1q-4 1 -7 3.5t-3 12.5q0 8 6.5 13t13.5 5v0z" />
    <glyph glyph-name="W" unicode="W" horiz-adv-x="750" 
d="M405 448q43 0 87.5 5.5t98.5 16.5h1q5 0 7.5 -4.5t2.5 -10.5v-1.5v-1.5q-1 -4 -2.5 -7.5t-4.5 -4.5q-2 -1 -3.5 -1.5t-3.5 -1.5q-6 -2 -12.5 -4.5t-12.5 -4.5q-16 -5 -32 -9t-29 -4h-4.5h-4.5q-15 -2 -27 -8.5t-12 -20.5q0 -13 6 -42.5t16 -62.5q8 -25 19 -49.5t24 -40.5
q6 -7 10.5 -10t8.5 -3q5 -1 8.5 3t4.5 9q1 0 1 0.5v1.5q5 12 10 28t10 34q7 23 13.5 49t11.5 52q9 43 15 83t6 68v4t-1 4q-1 12 -7.5 22t-18.5 10h-14.5h-15.5h-7.5h-7.5q-5 0 -9 -4t-5 -9v-0.5v-1.5q0 -11 -8.5 -16t-18.5 -6q-3 -1 -5.5 -1h-4.5q-4 0 -8 0.5t-6 1.5
q-1 0 -1.5 0.5l-0.5 0.5q4 5 5 8t1 6v0.5v0.5v0.5v0.5q0 4 -1.5 7t-2.5 6q-1 1 -1 1.5t-1 0.5q-2 4 -3.5 8t-1.5 8q0 9 8 13t18 5h4h4h29.5h29.5h59.5h55.5h4.5h4.5q19 -2 34 -11.5t15 -26.5q0 -5 -2 -10t-5 -11q-4 -8 -10.5 -15t-12.5 -13q-7 -6 -13 -9.5t-10 -3.5
q-3 0 -5 2.5t-2 7.5v4v4v11.5v5.5q4 0 7 4.5t4 10.5v0.5v1.5q0 4 -2 7t-7 3q-6 0 -9 -5t-3 -13q0 -37 -15 -141.5t-56 -222.5q-13 -38 -29 -75t-36 -72q-3 -6 -10 -9t-14 -4h-2h-2q-9 0 -17.5 3t-13.5 10q-15 21 -29 49.5t-26 58.5q-15 37 -24.5 72t-12.5 55q0 2 -2.5 3.5
t-5.5 1.5t-5.5 -1.5t-3.5 -3.5q-8 -24 -18.5 -53t-23.5 -58q-15 -36 -33.5 -70t-38.5 -60q-3 -4 -8.5 -6t-11.5 -2q-7 0 -13 2.5t-8 6.5q-64 142 -88.5 262.5t-35.5 231.5q0 3 -0.5 5.5t-1.5 5.5q-1 9 -5 17t-12 8q-5 0 -8 -4.5t-3 -9.5q0 -3 2 -5t5 -4q3 -1 5 -2.5l2 -1.5
v-5v-10v-11v-5q-5 2 -10 4.5t-10 5.5q-17 10 -32 23.5t-15 28.5q0 17 15 27t33 11h1.5h1.5h24h24h71.5h74.5h6h6q13 -1 23.5 -5.5t10.5 -16.5q0 -4 -0.5 -8t-0.5 -7q-1 -3 -1.5 -5.5t-0.5 -4.5v-1.5v-0.5v-2t1 -2q0 -2 2 -3.5t4 -4.5l-2.5 -1t-7.5 -1q-3 -1 -7 -2t-8 -1
h-2.5h-2.5h-1.5h-2.5q-7 0 -12 3.5t-5 10.5q0 8 -6 12.5t-14 5.5h-2h-2h-5.5h-4.5h-4.5h-5.5q-9 0 -12 -8t-4 -17v-2.5v-2.5q0 -100 20 -182.5t45 -149.5q2 -3 5 -4.5t7 -2.5h2.5h2.5q5 1 9.5 4t5.5 7q5 14 11.5 30t13.5 33t14 35.5t12 37.5q4 17 7 33.5t3 32.5v4.5v5.5
q0 5 -2.5 9t-12.5 5t-27.5 3t-35.5 5q-16 3 -30.5 6.5t-25.5 7.5q-1 1 -2.5 5.5t-1.5 10.5q0 7 1.5 12.5t3.5 5.5q53 -8 96.5 -12.5t85.5 -5.5h5.5h4.5v0z" />
    <glyph glyph-name="X" unicode="X" horiz-adv-x="564" 
d="M25 558q0 9 13.5 13.5t30.5 6.5q5 1 10 1h10h80.5h88.5h8t8 -1q16 -1 29.5 -6t13.5 -17q0 -6 -15 -16.5t-33 -22.5t-33 -22.5t-15 -15.5q0 -8 11 -28t27 -43q3 -5 6.5 -9.5t6.5 -9.5q8 -10 15.5 -19.5t13.5 -17.5q2 -3 4 -4t3 -1q2 0 3 1l2 2l1.5 1.5l0.5 0.5
q77 59 93 85.5t16 46.5v1.5v1.5v1.5v1.5q0 8 -2.5 14.5t-19.5 6.5q-12 0 -25.5 -3.5t-27.5 -8.5q-7 -2 -13.5 -5t-13.5 -5q-17 -7 -31 -13.5t-22 -8.5h-1.5h-1.5h-4t-4 1q-3 0 -6 1.5l-5 2.5t-2 2t1 2q10 6 36.5 20.5t60.5 31.5q10 4 19.5 8.5t19.5 9.5q35 15 67 26t52 11
q11 0 19 -8t8 -19q0 -22 -15.5 -46.5t-39.5 -50.5q-13 -13 -27 -26l-28 -26q-25 -22 -48.5 -43t-39.5 -39q-1 -1 -1.5 -2t-0.5 -3v-2t1 -1q0 -1 0.5 -2t0.5 -2q26 -46 56.5 -94t67.5 -101q8 -11 19.5 -20t23.5 -16q6 -4 12 -7t12 -7q14 -8 23.5 -17t9.5 -22t-10.5 -19
t-23.5 -8h-3.5h-3.5q-10 0 -19 1.5t-18 2.5q-2 1 -4 1.5t-4 0.5q-11 2 -22.5 4t-24.5 2q-10 0 -18 -2t-15 -4l-16 -4t-18 -2q-5 0 -10 1l-10 2q-6 2 -12 4.5t-11 4.5q-10 5 -16 8.5t-5 3.5q2 1 4 3l4 4q2 4 4.5 7.5t4.5 7.5q2 3 4.5 6t5.5 6q2 2 4.5 3.5t5.5 2.5h0.5t0.5 1
q6 3 11 7t5 11q0 9 -11.5 31.5t-27.5 47.5q-3 4 -5.5 8t-5.5 9q-11 16 -21.5 31t-17.5 24q-1 2 -3 3t-5 2h-1.5h-1.5q-2 0 -3.5 -0.5t-3.5 -2.5q-8 -10 -18.5 -21t-21.5 -22q-2 -3 -4.5 -5t-4.5 -4q-20 -22 -35.5 -42t-15.5 -34q0 -11 8 -15.5t19 -7.5q2 -1 3.5 -1.5
t3.5 -0.5q5 -2 10.5 -4t9.5 -5t8 -5.5t8 -5.5q11 -8 20.5 -15t9.5 -14q0 -10 -16 -18t-35 -11q-5 -1 -10.5 -1.5t-10.5 -0.5q-6 0 -11 1l-10 2q-5 0 -10 1t-11 1q-7 0 -12 -1l-10 -2q-6 -1 -11 -2t-12 -1h-2.5h-2.5q-21 2 -38 13.5t-17 31.5q0 17 24.5 47.5t58.5 63.5
q7 8 15 15t15 14q26 24 50 44.5t40 34.5q2 2 3 4t1 5q0 2 -0.5 4.5t-1.5 5.5q-1 2 -2 4.5t-2 4.5q-5 9 -11 18l-12 18q-4 5 -8 10.5t-7 10.5q-24 33 -44 59.5t-20 32.5q0 9 -5.5 14t-11.5 8q-3 2 -5.5 3t-4.5 2q-3 2 -5.5 3.5t-2.5 4.5t20 8l44 11t44 13.5t20 16.5
q0 5 -3.5 7t-8.5 3h-2.5h-2.5h-10.5h-10.5h-36.5h-29.5h-2h-2q-4 -1 -8 -3t-4 -7q0 -2 1 -5.5t3 -7.5l-5 -2.5t-11 -4.5v-1v0q-7 -3 -12 -5l-5 -2q-15 15 -25.5 30t-10.5 28v0z" />
    <glyph glyph-name="Y" unicode="Y" horiz-adv-x="564" 
d="M374 108q1 -19 7.5 -24.5t14.5 -8.5q3 -1 5.5 -2t5.5 -2q1 0 2.5 -1t2.5 -2t2 -1.5t2 -1.5q12 -10 19.5 -18.5t13.5 -10.5q1 0 -3.5 -5.5t-13.5 -12.5t-22 -12.5t-29 -5.5q-11 0 -20 1.5t-17 4.5q-9 2 -18 3.5t-20 1.5q-9 0 -15.5 -2t-13.5 -4h-0.5h-0.5q-6 -3 -12.5 -4
t-14.5 -1q-5 0 -10 0.5t-11 2.5q-6 1 -11.5 3.5t-10.5 5.5q-10 4 -15.5 8t-4.5 4t1.5 0.5t0.5 1.5q3 2 6 6.5t7 9.5t9 10t11 7q4 2 8 3.5t9 3.5q12 6 22 15t10 24v11.5v6.5v14v46v2.5v2.5q0 9 -0.5 18t-2.5 17q-1 5 -3 10t-5 10q-10 16 -24.5 37.5t-30.5 43.5q-1 2 -2 3
l-2 2q-27 39 -50 71.5t-23 38.5q0 9 -7.5 14t-16.5 8q-3 1 -5.5 2t-5.5 2q-6 2 -9.5 4t-3.5 5t19.5 11t43.5 18q6 2 11.5 4.5t11.5 4.5q16 8 28 15t12 13q0 3 -2 3.5t-5 0.5h-2h-1h-2h-2h-41.5h-35.5q-7 0 -11.5 -4t-4.5 -11q0 -4 1 -8t4 -9l-30 -20q-4 5 -9.5 9t-11.5 7
q-5 4 -10 7.5t-9 6.5q-7 5 -11 10t-4 11q0 16 16 24t35 11q5 0 9.5 0.5t8.5 0.5h61.5h68.5h28h28h7t8 -1q11 -1 20.5 -5t9.5 -13q0 -6 -14.5 -14t-31.5 -17q-6 -4 -12 -7t-11 -6q-10 -7 -17 -13t-7 -12q0 -7 17 -31.5t39 -52.5q2 -3 3.5 -5t3.5 -4q16 -21 30.5 -38.5
t23.5 -28.5q2 -3 4.5 -4t5.5 -1q3 -1 6 0.5t6 3.5q0 1 1 1.5l1 0.5q60 51 80 97t20 67q0 12 -6 19t-24 7q-14 0 -33.5 -4.5t-40.5 -10.5l-8 -2t-7 -2q-25 -7 -45.5 -13t-29.5 -6q-13 0 -19 3t-8 7q-1 1 -1 2v2q0 2 1.5 4t4.5 2q20 0 51.5 12.5t67.5 27.5q5 2 10.5 4.5
t10.5 4.5q30 12 59.5 21.5t52.5 9.5q21 0 36.5 -13t15.5 -33q0 -25 -16 -54.5t-39 -60.5q-11 -15 -23 -29l-24 -28q-21 -24 -40.5 -44.5t-34.5 -37.5q-4 -4 -4.5 -8.5t-0.5 -10.5q0 -43 0.5 -84t1.5 -73v0z" />
    <glyph glyph-name="Z" unicode="Z" horiz-adv-x="558" 
d="M155 304q-2 0 -4.5 1t-4.5 2q-7 5 -13 16.5t-6 30.5q0 9 3 16t7 13v1v0q3 7 6 13.5t3 14.5q0 12 -20 29t-44 34t-44 34t-20 29q0 3 2 5.5t6 5.5q7 5 19.5 10.5t25.5 9.5q11 3 21.5 5t18.5 2h75h68h77.5h86.5q6 0 13.5 -1.5t14.5 -4.5q17 -6 30.5 -16.5t13.5 -21.5
q0 -15 -44.5 -74t-97.5 -127t-97.5 -126.5t-44.5 -73.5q0 -10 9 -12.5t21 -2.5h9h8h25.5h24.5h51h55h4.5h5.5q8 1 15 3t7 8q0 23 -17.5 36t-37.5 23q-3 2 -6 3t-6 3q-17 9 -30.5 18.5t-13.5 24.5q0 9 7.5 17.5t17.5 16.5q1 1 2.5 2t2.5 2q11 9 20.5 19t9.5 21q0 7 6.5 11.5
t13.5 5.5h1.5h1.5q7 -1 13.5 -9.5t6.5 -27.5q0 -8 -1.5 -14.5t-3.5 -12.5q-1 0 -1 -0.5v-1.5q-2 -5 -3.5 -10.5t-1.5 -12.5q0 -12 19 -30.5t43 -40.5q23 -22 42 -48t19 -53q0 -44 -27 -56.5t-59 -12.5h-1.5h-1.5q-17 0 -32 1t-30 3h-3.5t-3.5 1q-16 1 -33.5 2.5t-38.5 1.5
q-22 0 -40.5 -1.5t-35.5 -2.5l-1 -1h-1q-17 -1 -35 -2.5t-39 -1.5q-10 0 -20.5 0.5t-20.5 2.5q-36 4 -65.5 16t-29.5 30q0 13 49 82.5t108 149.5q1 2 2.5 4t3.5 3q60 83 111 151.5t51 75.5q0 9 -8 13.5t-17 5.5h-2.5h-2.5h-23.5h-23.5h-39.5h-37.5h-8t-8 -1q-16 -2 -29.5 -8
t-13.5 -19q0 -16 13.5 -29t29.5 -24q1 -2 2.5 -3t3.5 -2q14 -10 25.5 -21t11.5 -25q0 -16 -9.5 -27.5t-20.5 -21.5q-5 -5 -10 -9t-9 -8q-5 -5 -8 -10t-3 -11q0 -5 -2.5 -8t-7.5 -3v0z" />
    <glyph glyph-name="bracketleft" unicode="[" horiz-adv-x="180" 
d="M148 592h-80v-854h92v-28h-152v909h140v-27v0z" />
    <glyph glyph-name="backslash" unicode="\" horiz-adv-x="348" 
d="M368 -243q1 -1 1 -3.5v-3.5v-4.5t-2 -4.5q-2 -5 -7.5 -7t-11.5 -2h-2t-1 1q-6 1 -10.5 3.5t-6.5 7.5l-310 851q1 7 5 11.5t9 6.5l3 1.5t3 0.5h2.5h2.5q5 0 8.5 -1t6.5 -4l310 -853v0z" />
    <glyph glyph-name="bracketright" unicode="]" horiz-adv-x="204" 
d="M184 619v-909h-152v28h92v854h-80v27h140v0z" />
    <glyph glyph-name="asciicircum" unicode="^" horiz-adv-x="1000" 
d="M295 650l139 -137l-17 12t-40 27q-4 3 -8.5 6t-9.5 6q-19 11 -36.5 19.5t-27.5 8.5t-28 -8.5t-37 -19.5q-4 -3 -8.5 -6t-9.5 -5q-23 -15 -40 -27.5l-17 -12.5l140 137v0z" />
    <glyph glyph-name="underscore" unicode="_" horiz-adv-x="694" 
d="M694 -168q7 1 10.5 -6t4.5 -15v-1.5v-1.5q0 -11 -3.5 -19t-11.5 -8h-126.5h-222.5h-228h-122q-7 0 -10.5 7t-4.5 15v1.5v1.5q0 10 3.5 18.5t11.5 8.5h126h221h230.5h121.5v-1z" />
    <glyph glyph-name="grave" unicode="`" horiz-adv-x="255" 
d="M72 625q0 5 2.5 9.5t6.5 8.5q5 5 10 7t9 2q14 0 25.5 -14.5t20.5 -31.5t14 -31.5l5 -14.5l-14.5 5t-32.5 14q-17 9 -31.5 21t-14.5 25v0v0v0z" />
    <glyph glyph-name="a" unicode="a" horiz-adv-x="474" 
d="M221 412q13 0 23.5 1.5t20.5 2.5q10 2 20.5 3t23.5 1h4h4q35 -2 64 -20.5t29 -53.5v-129v-117q0 -9 5.5 -15.5t12.5 -11.5t12.5 -11.5t5.5 -15.5q0 -21 -18.5 -32t-40.5 -13q-3 -1 -6.5 -1h-6.5q-15 0 -27 2t-23 5q-12 3 -24 5t-27 2t-27 -2t-24 -5q-1 0 -2.5 -0.5
t-2.5 -0.5q-13 -3 -27.5 -5t-34.5 -2q-51 0 -86.5 36.5t-35.5 88.5q0 45 32 73t70 48q14 8 27 14.5t25 13.5q7 4 13 7.5t11 7.5q8 5 9 9t-6 4h-3.5t-5.5 -1q-10 -3 -24.5 -4.5t-30.5 -1.5h-2.5h-3.5h-4h-4q-32 1 -58.5 13.5t-26.5 42.5q0 31 24 50.5t54 19.5q12 0 22 -1
t20 -3h1.5h1.5q11 -1 22.5 -2.5t24.5 -1.5v0zM145 350q0 -15 14 -19t30 -4h5.5h4.5h4h4q18 0 34.5 1t27.5 8l0.5 0.5t1.5 0.5h1.5h0.5q2 0 3.5 -0.5t3.5 -1.5q5 -3 10 -9t6 -12q1 -2 1 -3v-2q0 -4 -1.5 -7.5t-6.5 -5.5q-12 -7 -28.5 -16t-32.5 -19q-18 -11 -34.5 -22.5
t-28.5 -22.5q-11 -11 -17.5 -21t-6.5 -19q0 -28 21 -48t49 -20q27 0 49 8t34 17q6 5 9.5 9.5t3.5 7.5q2 29 2 65.5v88.5q0 49 -27 62.5t-61 13.5h-2.5h-2.5h-8.5h-8.5q-20 -1 -37 -6t-17 -24v0z" />
    <glyph glyph-name="b" unicode="b" horiz-adv-x="487" 
d="M66 502q0 4 -9 8.5t-20 9.5q-12 6 -21 12.5t-9 13.5t6 10t13 4h3.5h2.5q12 0 24.5 1.5t24.5 2.5q13 2 25 3t24 1q3 0 6 -0.5t6 -1.5q9 -2 16.5 -7t7.5 -13v-55.5v-19.5v-15v-40q0 -5 3 -9.5t8 -4.5h1q7 2 13.5 4t13.5 5q2 1 4.5 1.5t4.5 1.5q15 6 31 11t35 5
q79 0 127.5 -63.5t48.5 -142.5v-2.5v-3.5q-2 -80 -47 -147t-125 -67q-11 0 -20 1.5t-17 2.5q-8 2 -17 3t-20 1q-10 0 -17.5 -1t-15.5 -3q-7 -1 -15 -2.5t-18 -1.5q-52 0 -68 29.5t-16 70.5q0 12 1 25l2 26v2.5v2.5q1 15 2 29t1 27v48.5v47.5v90v100v0zM166 196v-8v-8
q-1 -4 -1 -8v-8q0 -19 7 -33.5t34 -14.5h20h17h17h20q36 0 59 33.5t28 73.5q0 5 0.5 9.5t0.5 9.5v2.5v3.5q-2 50 -29 92t-77 42q-5 0 -10.5 -0.5t-10.5 -2.5q-15 -3 -30 -11t-25 -16q-9 -7 -14.5 -13.5t-5.5 -10.5v-22v-21v-43.5v-45.5v0z" />
    <glyph glyph-name="c" unicode="c" horiz-adv-x="421" 
d="M222 308q0 13 9.5 22.5t21.5 9.5q4 0 7 -1l6 -2q1 0 2 -0.5l1 -0.5q2 -1 4 -1.5t4 -0.5q8 0 10 3t2 7q0 16 -15 23t-32 8q-3 1 -6.5 1h-6.5q-62 0 -91 -38t-29 -100q0 -47 21.5 -76t47.5 -43q11 -5 21.5 -8t19.5 -3h25h21h22h24q9 0 16 4.5t13 10.5q1 0 1 0.5t1 0.5
q7 6 14.5 11t17.5 5q14 0 21.5 -14t7.5 -34q0 -6 -1 -13t-2 -13q-7 -27 -27 -49t-56 -22q-9 0 -16 1.5t-13 2.5q-1 0 -2 0.5l-1 0.5q-7 1 -14 2.5t-16 1.5h-0.5h-1.5h-1.5h-0.5q-10 0 -18 -1.5t-16 -2.5h-1h-1q-9 -2 -18 -3.5t-20 -1.5q-67 0 -101 56t-41 124
q-1 9 -1.5 18.5t-0.5 18.5q0 105 65.5 156.5t150.5 51.5q6 0 12 -0.5t13 -0.5q39 -4 72.5 -23.5t33.5 -59.5q0 -35 -23 -52.5t-52 -17.5q-3 0 -6.5 0.5t-7.5 0.5q-13 2 -23.5 6.5t-10.5 12.5q0 5 -2.5 6t-6.5 2h-3t-3 -1q-2 0 -3 -0.5t-3 -0.5l-4 -2l-2 -1q-2 2 -3.5 4.5
t-1.5 5.5q-1 2 -2 4.5t-1 4.5v0z" />
    <glyph glyph-name="d" unicode="d" horiz-adv-x="498" 
d="M270 552q0 8 7 13.5t15 6.5h1.5h1.5h24.5h24.5h24.5h24.5q17 0 26.5 -8.5t9.5 -22.5v-95v-117v-127v-98q0 -13 7.5 -20.5t16.5 -13.5l1.5 -1.5t1.5 -0.5q10 -7 18.5 -16t8.5 -24q0 -17 -21.5 -22.5t-59.5 -5.5q-16 0 -30 1.5t-27 2.5h-2t-2 1l-24 2t-26 1h-2.5h-3.5
q-10 0 -18.5 -1.5t-16.5 -2.5h-2t-2 -1q-8 -1 -16.5 -2t-18.5 -1q-80 0 -125 67t-47 147v3.5v2.5q0 79 48.5 142.5t127.5 63.5q19 0 35 -5t31 -11q2 -1 4.5 -1.5t4.5 -1.5q7 -3 13.5 -5t13.5 -4v0h1h1.5h0.5q3 1 5.5 4.5t3.5 7.5v0.5v1.5v32.5t0 -0.5t0 1.5v48.5q0 8 -9 15
t-20 14q-12 8 -21 15t-9 14v0zM127 238q0 -5 0.5 -9.5t0.5 -9.5q4 -40 25.5 -73.5t57.5 -33.5h18h15h15.5h17.5q33 0 42 20.5t10 45.5v7.5v6.5v31v33v43v40q0 7 -1.5 9.5t-3.5 2.5q-1 0 -2.5 -0.5t-4.5 -0.5q-2 -1 -4.5 -1.5t-5.5 -0.5q-5 0 -11.5 4.5t-16.5 10.5
q-11 6 -27 10.5t-41 4.5q-41 0 -60 -35.5t-23 -77.5q0 -7 -0.5 -13.5t-0.5 -13.5v0z" />
    <glyph glyph-name="e" unicode="e" horiz-adv-x="444" 
d="M243 112h19.5h16.5h15h17q12 0 23.5 8t21.5 18q9 10 17.5 18t14.5 8q15 0 22.5 -14t7.5 -34v-1.5v-0.5q0 -8 -1 -16t-3 -17q-9 -31 -33 -56.5t-64 -25.5q-9 0 -16 1t-13 2q-1 0 -2 0.5l-1 0.5q-7 2 -14 3.5t-16 1.5h-0.5h-1.5h-1.5h-0.5q-10 0 -18 -1.5t-16 -2.5
q0 -1 -1 -1h-1q-9 -2 -18 -3t-20 -1q-67 0 -101 56t-41 124q-1 9 -1.5 18.5t-0.5 18.5q0 105 50.5 156.5t135.5 51.5h22.5h17.5h28h42q34 0 55.5 -19.5t21.5 -48.5q0 -32 -32.5 -56t-72.5 -46q-1 -1 -2 -1.5l-3 -1.5q-41 -23 -75 -48t-34 -59q0 -19 13 -25.5t43 -6.5v0z
M281 291q18 12 21 24t3 23q0 23 -18.5 32.5t-40.5 10.5q-5 1 -9 1h-8q-62 0 -91 -39t-29 -101q0 -6 1 -14.5t2 -16.5q3 -17 8.5 -31t12.5 -14q9 0 13 6.5t6 14.5q1 2 1.5 4t1.5 4q2 6 4.5 11.5t7.5 9.5q32 28 59.5 43.5t48.5 27.5q1 1 2.5 2t3.5 2v0z" />
    <glyph glyph-name="f" unicode="f" horiz-adv-x="271" 
d="M192 444q4 0 12.5 -0.5t17.5 -2.5q12 -2 22.5 -8t10.5 -17q0 -8 -10.5 -14.5t-22.5 -11.5q-12 -6 -22.5 -10.5t-10.5 -7.5v-148v-132q0 -12 8 -20.5t17 -15.5q3 -2 6.5 -4.5t6.5 -5.5q5 -4 8.5 -8.5t3.5 -9.5q0 -10 -12 -16t-27 -8q-5 -1 -10 -1.5t-9 -0.5
q-7 0 -12.5 0.5t-10.5 1.5t-10.5 1.5t-12.5 0.5q-6 0 -11.5 -0.5t-9.5 -1.5h-1h-1q-4 -1 -8.5 -1.5t-10.5 -0.5q-4 0 -8 0.5t-9 1.5q-13 2 -24 8t-11 16v1.5t1 1.5q1 5 8 10t15 11q9 7 16.5 15t7.5 19v48.5v47.5v90v100q0 4 -10.5 9.5t-23.5 12.5q-9 5 -17.5 10.5
t-12.5 10.5q-2 3 -3 5t-1 4q0 11 7 14t16 4h1.5h1.5q8 1 14 2.5t6 9.5t-3.5 13.5t-9.5 10.5q-1 2 -3 3.5t-4 2.5q-7 7 -13.5 17.5t-6.5 30.5q0 29 24.5 42.5t54.5 16.5q5 0 10.5 0.5t10.5 0.5q11 0 20.5 -1.5t19.5 -3.5l1 -0.5t2 -0.5q11 -2 21.5 -4t23.5 -2q12 0 20 1t13 3
q5 1 7 2l2 1q8 -8 11.5 -17t3.5 -18q0 -24 -19.5 -44t-45.5 -20q-10 0 -19.5 2t-18.5 4t-16.5 4t-15.5 2q-10 0 -16 -6.5t-6 -17.5q0 -5 1.5 -11.5t4.5 -12.5l4 -6t5 -6l5 0.5t14 1.5t20 1.5t23 0.5v0z" />
    <glyph glyph-name="g" unicode="g" horiz-adv-x="462" 
d="M434 412q0 -10 -4.5 -16t-10.5 -11h-0.5t-0.5 -1q-5 -4 -9.5 -9.5t-4.5 -14.5v-57.5v-54.5v-67v-73q0 -18 3 -32.5t7 -28.5q0 -1 0.5 -2.5t0.5 -2.5q4 -13 6.5 -26t2.5 -27q0 -54 -42 -88.5t-97 -34.5h-38h-35h-46.5h-50.5h-2.5h-2.5q-28 2 -51.5 17.5t-23.5 43.5
q0 5 1.5 9t3.5 8t3.5 8t1.5 9v2v2v5.5v2.5q5 1 10.5 1.5t9.5 0.5q16 0 28 -6t23 -15q3 -3 6.5 -6t6.5 -6q15 -12 35 -22t53 -10q45 0 78 14t33 47q0 10 -4.5 22.5t-14.5 28.5l-4.5 -2.5t-11.5 -6.5q-4 -2 -9 -4t-9 -3q-3 -1 -6 -1.5t-6 -0.5h-29h-28h-21.5h-21.5
q-67 0 -96.5 56t-29.5 136v2.5v3.5q2 83 48.5 152.5t129.5 69.5h33h32h58.5h63.5h1.5h1.5h3h4q8 0 15 -2.5t7 -9.5v0zM121 238q0 -78 26.5 -103.5t73.5 -25.5q42 0 66 16.5t24 92.5q0 89 -14.5 128.5t-69.5 39.5q-49 0 -75.5 -41.5t-29.5 -91.5q-1 -3 -1 -7v-8v0z" />
    <glyph glyph-name="h" unicode="h" horiz-adv-x="504" 
d="M428 92q0 -11 6.5 -19.5t14.5 -15.5l5.5 -5.5t5.5 -4.5q4 -5 7 -9.5t3 -9.5q0 -12 -13 -18t-28 -8h-4.5h-4.5q-7 0 -12.5 0.5t-10.5 1.5t-10.5 1.5t-12.5 0.5q-6 0 -11.5 -0.5t-9.5 -1.5q-5 -1 -10.5 -1.5t-11.5 -0.5q-4 0 -8.5 0.5t-9.5 1.5q-13 3 -23.5 9t-10.5 15v1.5
t1 1.5q1 5 8 10t15 11q9 7 16.5 15t7.5 19v30v31v112.5v54.5q0 23 -16.5 32t-38.5 10h-8t-8 -1q-16 -2 -32 -6t-26 -9q-7 -4 -11 -7t-4 -5v-42.5v-74.5v-81v-38q0 -12 8 -20.5t17 -15.5q3 -2 6.5 -4.5t6.5 -5.5q5 -4 8.5 -8.5t3.5 -9.5q0 -10 -12.5 -16.5t-28.5 -8.5
q-4 0 -8.5 -0.5t-8.5 -0.5q-7 0 -12.5 0.5t-10.5 1.5t-10.5 1.5t-12.5 0.5q-6 0 -10.5 -0.5t-8.5 -1.5h-1h-1q-4 -1 -9.5 -1.5t-11.5 -0.5q-4 0 -8.5 0.5t-9.5 1.5q-13 3 -23.5 9t-10.5 15v1.5t1 1.5q1 5 8 10t15 11q9 7 16.5 15t7.5 19v99.5v127.5v114.5v94.5q0 4 -5 8.5
t-11 9.5q-6 6 -11 12.5t-5 13.5t6 10t14 4h2h2h25.5h27.5h30h27h3.5h2.5q10 0 17.5 -3t7.5 -11t-5 -14.5t-11 -11.5q-7 -6 -12 -10.5t-5 -7.5v-18v-40v-34.5v-21.5q0 -13 2.5 -21t7.5 -8q2 -1 5 0.5t7 4.5q12 10 24.5 18t25.5 13q15 6 30.5 9t30.5 3q47 0 79.5 -24.5
t32.5 -58.5v-48.5v-102.5v-53.5v-47.5v0z" />
    <glyph glyph-name="i" unicode="i" horiz-adv-x="270" 
d="M188 430h3.5h2.5q10 0 17.5 -3t7.5 -11t-5 -14.5t-11 -11.5q-7 -6 -12 -10.5t-5 -7.5v-148v-132q0 -12 8 -20.5t17 -15.5q3 -2 6.5 -4.5t6.5 -5.5q5 -4 8.5 -8.5t3.5 -9.5q0 -10 -12 -16t-27 -8q-5 -1 -10 -1.5t-9 -0.5q-7 0 -12.5 0.5t-10.5 1.5t-10.5 1.5t-12.5 0.5
q-6 0 -11 -0.5t-10 -1.5t-10 -1.5t-11 -0.5q-4 0 -8 0.5t-9 1.5q-13 2 -24 8t-11 16v1.5t1 1.5q1 5 8 10t15 11q9 7 16.5 15t7.5 19v48.5v47.5v90v100q0 4 -5 8.5t-11 9.5q-7 6 -12 12.5t-5 13.5t6 10t13 4h3.5h2.5h25.5h27.5h30h27v0zM132 555q22 0 40 -9.5t18 -27.5
q0 -17 -17.5 -25.5t-38.5 -9.5h-1.5h-1.5q-22 0 -40 9t-18 26q0 18 17.5 27t38.5 10h1.5h1.5v0z" />
    <glyph glyph-name="j" unicode="j" horiz-adv-x="274" 
d="M207 430h3.5h2.5q10 0 17.5 -3t7.5 -11t-5 -14.5t-11 -11.5q-7 -6 -12 -10.5t-5 -7.5v-148v-132q0 -20 6.5 -36.5t13.5 -31.5q2 -4 3.5 -7.5t3.5 -6.5q5 -11 9 -22.5t4 -24.5q0 -38 -28.5 -59t-63.5 -29q-13 -3 -26 -4.5t-24 -1.5q-6 0 -13 0.5t-13 0.5q-39 4 -71 22.5
t-32 56.5q0 28 17 48.5t46 20.5q4 0 8.5 -1t9.5 -2q12 -4 22.5 -11.5t12.5 -16.5v-1.5v-1.5q0 -7 4.5 -10t10.5 -5q3 0 6.5 -0.5t5.5 -0.5q1 0 2 -0.5l1 -0.5v-1.5v-1.5q0 -9 -7 -16.5t-15 -11.5q-3 -2 -5.5 -2.5t-5.5 -0.5t-6.5 1.5t-7.5 2.5q-1 1 -2.5 1.5t-2.5 0.5
q-4 3 -8.5 5t-7.5 2q-2 0 -3.5 -1.5t-1.5 -5.5q0 -14 11.5 -24t36.5 -11q29 0 41.5 11.5t12.5 31.5q0 24 -7 36t-15 19l-3.5 3.5l-2.5 2.5q-6 7 -11 14t-5 20v108v117v53v52q0 4 -5 8.5t-11 9.5q-6 6 -11 12.5t-5 13.5t6 10t14 4h2h2h25.5h27.5h30h27v0zM152 555h1.5h1.5
q20 -1 37 -10.5t17 -26.5q0 -18 -18 -26.5t-41 -8.5h-1.5h-1.5q-20 1 -37 9.5t-17 25.5q0 19 18.5 28t40.5 9v0z" />
    <glyph glyph-name="k" unicode="k" horiz-adv-x="510" 
d="M334 259q-10 0 -18.5 2t-12.5 6v0v0q-1 0 -1 0.5v0.5q-1 0 -2 -0.5t-2 -1.5q-2 -1 -3.5 -3.5t-2.5 -5.5q-1 0 -1 -0.5v-1.5q0 -3 2.5 -5.5t6.5 -4.5q28 -10 49 -19.5t36 -18.5q40 -23 49.5 -49.5t9.5 -65.5q0 -12 8.5 -21t18.5 -15q4 -3 7.5 -5.5t6.5 -4.5q5 -4 9 -8.5
t4 -9.5q0 -8 -10 -14t-23 -9q-2 0 -5 -0.5t-6 -0.5q-5 0 -9 1l-8 2q-4 0 -8 1t-9 1q-4 0 -6.5 -0.5t-5.5 -1.5q0 -1 -0.5 -1h-1.5q-3 -2 -7.5 -3t-13.5 -1q-29 0 -45 24.5t-17 54.5v2.5v2.5q0 65 -18 93.5t-40 41.5q-7 4 -14.5 7.5t-13.5 6.5q-13 7 -21.5 14.5t-8.5 22.5
q0 10 6.5 18.5t13.5 12.5q3 2 6 3t6 1t5.5 -1t4.5 -2t3.5 -2t4.5 -2q4 -3 12 -5.5t23 -2.5q26 0 37.5 10.5t12.5 23.5v1.5v1.5q0 17 -14.5 27t-31.5 11h-1.5h-1.5q-9 0 -21 -3t-24 -7q-11 -4 -21.5 -9t-18.5 -10q-11 -6 -18 -12t-7 -10v-40.5v-70.5v-77v-36q0 -12 8 -20.5
t17 -15.5q3 -2 6.5 -4.5t6.5 -5.5q5 -4 8.5 -8.5t3.5 -9.5q0 -10 -12.5 -16.5t-28.5 -8.5q-4 0 -8.5 -0.5t-8.5 -0.5q-7 0 -12.5 0.5t-10.5 1.5t-10.5 1.5t-12.5 0.5q-6 0 -10.5 -0.5t-8.5 -1.5h-1h-1q-4 -1 -9.5 -1.5t-11.5 -0.5q-4 0 -8.5 0.5t-9.5 1.5q-13 3 -23.5 9
t-10.5 15v1.5t1 1.5q1 5 8 10t15 11q9 7 16.5 15t7.5 19v99.5v127.5v114.5v94.5q0 4 -5 8.5t-11 9.5q-6 6 -11 12.5t-5 13.5t6 10t14 4h2h2h25.5h27.5h30h27h3.5h2.5q10 0 17.5 -3t7.5 -11t-5 -14.5t-11 -11.5q-7 -6 -12 -10.5t-5 -7.5v-18v-40v-34.5v-21.5v-2.5v-3.5
q0 -11 0.5 -19t5.5 -9q2 0 4.5 1t5.5 4q20 17 42.5 26.5t45.5 13.5q7 1 15 2t15 1q52 0 90.5 -24.5t38.5 -58.5q0 -31 -22.5 -49t-50.5 -25q-10 -3 -20 -4.5t-19 -1.5v0z" />
    <glyph glyph-name="l" unicode="l" horiz-adv-x="252" 
d="M155 572h2h2q9 0 15.5 -1.5t6.5 -12.5v-98.5v-125.5v-140.5v-101.5q0 -12 8 -20.5t17 -15.5q3 -2 6.5 -4.5t6.5 -5.5q5 -4 8.5 -8.5t3.5 -9.5q0 -10 -12.5 -16.5t-28.5 -8.5q-4 0 -8.5 -0.5t-8.5 -0.5q-7 0 -12.5 0.5t-10.5 1.5t-10.5 1.5t-12.5 0.5q-6 0 -10.5 -0.5
t-8.5 -1.5h-1h-1q-4 -1 -9.5 -1.5t-11.5 -0.5q-4 0 -8.5 0.5t-9.5 1.5q-13 3 -23.5 9t-10.5 15v1.5t1 1.5q1 5 8 10t15 11q9 7 16.5 15t7.5 19v97.5v120.5v105.5v90.5q0 6 -5.5 11.5t-12.5 10.5q0 1 -0.5 1.5t-1.5 0.5q-7 6 -13.5 12t-6.5 13t7 9.5t15 3.5h5.5h4.5
q12 0 22 1.5t19 3.5h1h1q9 2 18 3.5t21 1.5v0z" />
    <glyph glyph-name="m" unicode="m" horiz-adv-x="732" 
d="M426 92q0 -11 6.5 -19.5t14.5 -15.5l5.5 -5.5t5.5 -4.5q4 -5 7 -9.5t3 -9.5q0 -12 -13 -18t-28 -8h-4.5h-4.5q-7 0 -12.5 0.5t-10.5 1.5t-10.5 1.5t-12.5 0.5q-6 0 -11.5 -0.5t-9.5 -1.5q-5 -1 -10.5 -1.5t-11.5 -0.5q-4 0 -8.5 0.5t-9.5 1.5q-13 3 -23.5 9t-10.5 15v1.5
t1 1.5q1 5 8 10t15 11q9 7 16.5 15t7.5 19v25v26v114.5v55.5t-2 7.5t-5 8.5q-6 9 -17 16.5t-24 7.5q-9 0 -18.5 -3.5t-19.5 -12.5q-5 -4 -11 -6.5t-13 -4.5q-3 -1 -6.5 -1.5t-6.5 -1.5q-9 -2 -15 -5t-6 -8v-39v-66v-73v-34q0 -12 8 -20.5t17 -15.5q3 -2 6.5 -4.5t6.5 -5.5
q5 -4 8.5 -8.5t3.5 -9.5q0 -10 -12.5 -16.5t-28.5 -8.5q-4 0 -8.5 -0.5t-8.5 -0.5q-7 0 -12.5 0.5t-10.5 1.5t-10.5 1.5t-12.5 0.5q-6 0 -10.5 -0.5t-8.5 -1.5h-1h-1q-4 -1 -9.5 -1.5t-11.5 -0.5q-4 0 -8.5 0.5t-9.5 1.5q-13 3 -23.5 9t-10.5 15v1.5t1 1.5q1 5 8 10t15 11
q9 7 16.5 15t7.5 19v54.5v50.5v78.5v90.5q0 4 -5 8.5t-11 9.5q-6 6 -11 12.5t-5 13.5t6 10t14 4h2h2h25.5h27.5h30h27h6h6q9 -1 16.5 -3.5t7.5 -10.5q0 -5 -3 -7.5t-7 -5.5q-2 -1 -4.5 -2.5t-5.5 -2.5q-5 -4 -10.5 -10t-7.5 -16l1 -1t3 -2q2 -2 5 -3t7 -1q5 0 10.5 3
t11.5 11q14 19 30 31t32 19q11 4 21.5 6t20.5 2q35 1 63 -17t37 -40l2 -8t1 -8v-0.5t1 -1.5t4 -2t7 -1t9.5 1.5t11.5 5.5q3 2 6.5 5.5t6.5 7.5q14 19 30 31.5t32 18.5q11 5 21.5 7t20.5 2q42 0 72.5 -27t30.5 -59v-49v-101v-52v-46q0 -11 6.5 -19.5t14.5 -15.5l5.5 -5.5
t5.5 -4.5q4 -5 7 -9.5t3 -9.5q0 -12 -13 -18t-28 -8h-4.5h-4.5q-7 0 -12.5 0.5t-10.5 1.5t-10.5 1.5t-12.5 0.5q-6 0 -11 -0.5t-10 -1.5t-10 -1.5t-11 -0.5q-4 0 -8 0.5t-9 1.5q-13 2 -24 8t-11 16v1.5t1 1.5q1 5 8 10t15 11q9 7 16.5 15t7.5 19v25v26v114.5v55.5t-2 7.5
t-5 8.5q-6 9 -17 16.5t-25 7.5q-9 0 -18.5 -3.5t-19.5 -12.5q-5 -5 -12.5 -8t-14.5 -5q-2 0 -4 -0.5t-4 -1.5q-13 -3 -22 -7.5t-9 -17.5v-88.5v-110.5v0z" />
    <glyph glyph-name="n" unicode="n" horiz-adv-x="472" 
d="M426 92q0 -11 6.5 -19.5t14.5 -15.5l5.5 -5.5t5.5 -4.5q4 -5 7 -9.5t3 -9.5q0 -12 -13 -18t-28 -8h-4.5h-4.5q-7 0 -12.5 0.5t-10.5 1.5t-10.5 1.5t-12.5 0.5q-6 0 -11.5 -0.5t-9.5 -1.5q-5 -1 -10.5 -1.5t-11.5 -0.5q-4 0 -8.5 0.5t-9.5 1.5q-13 3 -23.5 9t-10.5 15v1.5
t1 1.5q1 5 8 10t15 11q9 7 16.5 15t7.5 19v25v26v114.5v55.5t-2 7.5t-5 8.5q-6 9 -17 16.5t-24 7.5q-9 0 -18.5 -3.5t-19.5 -12.5q-5 -4 -11 -6.5t-13 -4.5q-3 -1 -6.5 -1.5t-6.5 -1.5q-9 -2 -15 -5t-6 -8v-39v-66v-73v-34q0 -12 8 -20.5t17 -15.5q3 -2 6.5 -4.5t6.5 -5.5
q5 -4 8.5 -8.5t3.5 -9.5q0 -10 -12.5 -16.5t-28.5 -8.5q-4 0 -8.5 -0.5t-8.5 -0.5q-7 0 -12.5 0.5t-10.5 1.5t-10.5 1.5t-12.5 0.5q-6 0 -10.5 -0.5t-8.5 -1.5h-1h-1q-4 -1 -9.5 -1.5t-11.5 -0.5q-4 0 -8.5 0.5t-9.5 1.5q-13 3 -23.5 9t-10.5 15v1.5t1 1.5q1 5 8 10t15 11
q9 7 16.5 15t7.5 19v54.5v50.5v78.5v90.5q0 4 -5 8.5t-11 9.5q-6 6 -11 12.5t-5 13.5t6 10t14 4h2h2h25.5h27.5h30h27h6h6q9 -1 16.5 -3.5t7.5 -10.5q0 -5 -3 -7.5t-7 -5.5q-2 -1 -4.5 -2.5t-5.5 -2.5q-5 -4 -10.5 -10t-7.5 -16l1 -1t3 -2q2 -2 5 -3t7 -1q5 0 10.5 3
t11.5 11q17 23 36 36t38 19q7 2 15 3t15 1q41 0 72 -27t31 -59v-49v-101v-52v-46v0z" />
    <glyph glyph-name="o" unicode="o" horiz-adv-x="456" 
d="M423 217q0 -79 -37 -145t-99 -66q-8 0 -15 1t-13 2t-13 2t-15 1t-14.5 -1t-12.5 -2h-1h-1q-6 -1 -13 -2t-16 -1q-61 0 -98 65t-37 144v2.5v3.5q1 79 46 145.5t147 65.5q102 0 146.5 -66.5t45.5 -145.5v-1.5v-1.5v0zM121 264q0 -49 27 -90.5t81 -41.5q56 0 84.5 40.5
t28.5 89.5q1 50 -27.5 91t-85.5 41q-54 0 -81 -40.5t-27 -89.5v0z" />
    <glyph glyph-name="p" unicode="p" horiz-adv-x="472" 
d="M197 37h-2t-2 -1q-4 -1 -8 -4.5t-4 -7.5v-14.5v-16.5v-30.5v-14.5q0 -13 9 -21t20 -14q1 -2 3 -3l4 -2q9 -5 15 -10.5t6 -13.5q0 -13 -14.5 -19.5t-31.5 -6.5h-1.5h-1.5q-9 0 -16.5 0.5t-14.5 1.5t-14.5 1.5t-16.5 0.5q-6 0 -11.5 -0.5t-10.5 -1.5t-10.5 -1.5t-11.5 -0.5
q-3 0 -7 0.5t-7 0.5q-14 2 -25 8t-11 17q0 12 7.5 18.5t16.5 11.5h0.5h0.5q9 5 16 11t7 17v98.5v125.5v112.5v93.5q0 4 -6 8t-13 9q-7 4 -13 9t-6 11q0 9 8 14.5t17 6.5h2.5h2.5h25.5h27.5h30h27q11 0 18.5 -3t7.5 -11q0 -6 -2.5 -8.5t-5.5 -4.5t-5.5 -3.5t-5.5 -3.5
q-2 -2 -4.5 -5t-4.5 -7l1 -0.5t2 -0.5t2 -0.5t2 -0.5h1h1h3t2 1q7 4 14.5 9t15.5 10q16 11 35.5 20.5t43.5 9.5q67 0 102.5 -57t42.5 -126q1 -9 1.5 -18.5t0.5 -18.5q0 -95 -47 -153.5t-119 -58.5q-17 0 -31 2t-27 10q-6 4 -12.5 9.5t-13.5 13.5l-0.5 0.5t-1.5 0.5
q-1 1 -1.5 1h-0.5v0zM181 119q1 2 2 5t2 5q2 5 4.5 9t4.5 8q3 3 5.5 5t4.5 2q5 0 6 2.5t1 6.5v1.5v1.5q0 2 -0.5 4t-0.5 4q0 1 -0.5 2l-0.5 1q3 0 7 -0.5t8 -1.5q10 -3 18.5 -9.5t8.5 -17.5q0 -13 12.5 -23.5t27.5 -10.5q40 0 60 33t24 73q0 5 0.5 10.5t0.5 10.5v7.5t-1 7.5
q-3 44 -27.5 80.5t-67.5 36.5q-5 0 -10 -0.5t-10 -2.5q-16 -4 -31 -12.5t-26 -18.5q-10 -9 -16 -16.5t-6 -12.5v-35v-59v-66v-30v0z" />
    <glyph glyph-name="q" unicode="q" horiz-adv-x="465" 
d="M274 416q0 6 5.5 9.5t11.5 4.5h3.5h2.5h26h28h30h27h2.5h2.5q9 0 17 -2.5t8 -11.5q0 -8 -5 -13.5t-11 -9.5q-4 -3 -8.5 -5.5t-6.5 -5.5q0 -1 -0.5 -1.5t-0.5 -1.5v-88v-105v-125v-94v-2h1t3.5 1t5.5 3q1 0 1.5 0.5l0.5 0.5l4 2t4 1q14 0 25 -10.5t14 -23.5q1 -2 1 -3.5
v-3.5q0 -5 -1 -8.5t-3 -6.5q-4 -6 -10 -7.5t-13 -2.5q-2 -1 -4 -1t-3 -1q-3 0 -6 -1l-6 -2q-7 -4 -13 -10t-11 -12q0 -1 -1 -2l-2 -2q-6 -9 -13.5 -15.5t-18.5 -6.5h-0.5h-0.5h-0.5h-0.5q-22 2 -31 20t-14 40q0 1 -0.5 2.5t-0.5 3.5q-1 1 -1.5 2.5t-0.5 3.5q-2 7 -3 13.5
t-1 12.5t0.5 12.5t1.5 12.5t1.5 12.5t0.5 11.5q0 1 -0.5 2t-0.5 2q-1 3 -3.5 5.5t-5.5 4.5q-1 0 -2 0.5t-2 0.5h-2t-2 -1q-11 -9 -31 -13t-42 -5h-2.5h-2.5q-107 0 -143 68t-36 150v1.5v1.5q1 79 42 144.5t126 65.5q23 0 40.5 -9t30.5 -21l2.5 -2.5t3.5 -2.5q1 -1 1.5 -2
t1.5 -2q2 -1 4 -2.5t4 -1.5t3 1.5t1 5.5q0 3 -2 4.5t-5 2.5q-1 0 -2 0.5t-2 0.5q-4 2 -7.5 5.5t-3.5 10.5v0zM305 335h-0.5h-0.5h-0.5h-0.5q-6 0 -15 6t-21 13q-12 8 -25 14t-26 6q-44 0 -69.5 -37.5t-27.5 -82.5v-3.5v-2.5v-5.5v-5.5q3 -48 30 -88.5t75 -40.5q5 0 10.5 0.5
t10.5 2.5q23 5 41.5 19.5t18.5 35.5v46v40q0 38 0.5 60.5t-0.5 22.5v0z" />
    <glyph glyph-name="r" unicode="r" horiz-adv-x="384" 
d="M293 439q34 0 52 -28.5t21 -63.5q1 -4 1 -8.5v-9.5v-4.5t-1 -5.5q-3 -15 -11.5 -29t-17.5 -24q-8 -8 -15 -12.5t-11 -4.5q-11 0 -18 -4.5t-11 -9.5t-5.5 -9.5l-1.5 -4.5q-12 0 -18 9.5t-6 20.5q0 5 1.5 10t4.5 10q0 2 0.5 3t1.5 2q3 6 5.5 13t2.5 14v3.5v3.5
q0 11 -4.5 20.5t-21.5 9.5q-8 0 -15.5 -4.5t-14.5 -9.5t-14.5 -9.5t-15.5 -4.5v-45v-99v-39.5v-36.5q0 -12 8 -20.5t17 -15.5q3 -2 6.5 -4.5t6.5 -5.5q5 -4 8.5 -8.5t3.5 -9.5q0 -10 -12.5 -16.5t-28.5 -8.5q-4 0 -8.5 -0.5t-8.5 -0.5q-7 0 -12.5 0.5t-10.5 1.5t-10.5 1.5
t-12.5 0.5q-6 0 -10.5 -0.5t-8.5 -1.5h-1h-1q-4 -1 -9.5 -1.5t-11.5 -0.5q-4 0 -8.5 0.5t-9.5 1.5q-13 3 -23.5 9t-10.5 15v1.5t1 1.5q1 5 8 10t15 11q9 7 16.5 15t7.5 19v48.5v47.5v90v100q0 4 -5 8.5t-11 9.5q-6 6 -11 12.5t-5 13.5t6 10t14 4h2h2h25.5h27.5h30h27h3.5
h2.5q10 0 17.5 -3t7.5 -11t-5 -14.5t-11 -11.5q-7 -6 -12 -10.5t-5 -7.5t2.5 -5.5t5.5 -2.5q10 0 18.5 6.5t16.5 16.5q4 3 7 7l6 8q12 14 25 25.5t31 11.5v0z" />
    <glyph glyph-name="s" unicode="s" horiz-adv-x="448" 
d="M356 340q-12 1 -20.5 6t-8.5 18q0 9 -15.5 12t-33.5 4h-13.5h-12.5q-5 0 -11 0.5t-11 0.5q-6 0 -12 0.5t-11 0.5q-13 0 -22.5 -3.5t-9.5 -16.5q0 -16 16 -26.5t41 -20.5q16 -6 34.5 -12.5t38.5 -14.5q48 -20 88.5 -55.5t40.5 -104.5q0 -59 -37.5 -91.5t-87.5 -32.5
q-12 0 -21.5 1t-18.5 3q-10 1 -19.5 2t-21.5 1q-13 0 -23.5 -1t-19.5 -2q-10 -2 -20.5 -3t-23.5 -1q-42 0 -72 22t-30 71q0 13 6.5 23.5t13.5 20.5q1 1 1.5 2t1.5 2q7 9 12 18t5 20v0v1v0v0q0 4 -0.5 8t-2.5 8h1t2 1h4h4q6 0 13 -1t14 -3q15 -3 27 -13t12 -32q0 -25 20 -37
t43 -14h4h4q5 0 9.5 0.5t9.5 0.5q27 3 49.5 15.5t22.5 38.5q0 27 -33 49t-76 43q-5 2 -10.5 4.5t-10.5 5.5q-49 23 -89.5 49t-40.5 60q0 28 44.5 40t97.5 15q17 1 34 1.5t32 0.5q11 0 29.5 -0.5t38.5 -2.5q30 -4 54.5 -11t24.5 -20q0 -4 -0.5 -7.5t-0.5 -6.5t-0.5 -6
t-0.5 -6t0.5 -6t1.5 -6l-5 -2t-13 -4q-5 -1 -11 -2.5t-13 -2.5q-3 -1 -6 -1h-6v0z" />
    <glyph glyph-name="t" unicode="t" horiz-adv-x="284" 
d="M51 488q0 7 22 17.5t49 27.5q12 8 24.5 17.5t22.5 21.5q1 1 1.5 1h1.5h1.5t1.5 -1q2 0 3.5 -1.5l2.5 -2.5v-1.5v-0.5q-2 -8 -2.5 -30.5t0.5 -47.5v-4.5v-4.5v-18.5v-16.5q0 -2 -1.5 -3.5l-3.5 -3.5v0v-1q-5 -4 -5.5 -7.5t15.5 -3.5q5 0 11 1t12 3q6 1 12.5 2t12.5 1
q17 0 29 -11.5t12 -28.5q0 -2 -0.5 -4.5t-1.5 -5.5q0 -2 -1 -4.5t-2 -4.5q-3 -5 -4.5 -10t-1.5 -11q0 -7 3 -14.5t12 -16.5l-1 -3.5t-5 -7.5t-11 -7.5t-19 -3.5q-22 0 -33.5 19.5t-12.5 42.5v1.5v1.5q0 2 -0.5 2.5t-2.5 0.5q-1 0 -2 -0.5t-2 -0.5q-3 -1 -5 -3t-2 -5v-108.5
v-93.5v-32v-32q0 -12 8 -20.5t17 -15.5q3 -2 6.5 -4.5t6.5 -5.5q5 -4 8.5 -8.5t3.5 -9.5q0 -10 -12.5 -16.5t-28.5 -8.5q-4 0 -8.5 -0.5t-8.5 -0.5q-7 0 -12.5 0.5t-10.5 1.5t-10.5 1.5t-12.5 0.5q-6 0 -10.5 -0.5t-8.5 -1.5h-1h-1q-4 -1 -9.5 -1.5t-11.5 -0.5
q-4 0 -8.5 0.5t-9.5 1.5q-13 3 -23.5 9t-10.5 15v1.5t1 1.5q1 5 8 10t15 11q9 7 16.5 15t7.5 19v48.5v47.5v90v100q0 4 -5 8.5t-11 9.5q-6 6 -11 12.5t-5 13.5q0 5 3.5 6.5t8.5 3.5h2t2 1q6 1 11 5t5 14q0 8 -4.5 14.5t-10.5 11.5q-6 4 -10.5 8t-4.5 8v0z" />
    <glyph glyph-name="u" unicode="u" horiz-adv-x="456" 
d="M60 360q0 9 -6.5 14t-14.5 9q-1 0 -1.5 0.5l-0.5 0.5q-7 4 -13 8.5t-6 11.5q0 12 13 15.5t28 4.5h4.5h4.5q7 0 13.5 0.5t12.5 1.5q6 0 12 0.5t11 0.5h5.5h4.5q1 0 2.5 -0.5t2.5 -0.5q12 -2 20 -10t8 -20v-49v-54v-113.5v-54.5t1.5 -7t4.5 -8q6 -9 17.5 -16.5t26.5 -7.5
q8 0 17.5 3.5t19.5 11.5q5 4 11 6.5t13 4.5q3 1 6 1.5t6 1.5q9 2 15 5t6 8v40.5v69.5v76.5v35.5q0 11 -8 18t-17 12q-2 1 -3.5 2t-3.5 2q-7 4 -12.5 9t-5.5 11q0 10 12 16t27 8q5 1 10 1.5t9 0.5q7 0 12.5 -0.5t10.5 -1.5t10.5 -1.5t12.5 -0.5q6 0 11.5 0.5t9.5 1.5h1h1
q4 1 8.5 1.5t10.5 0.5q3 0 6.5 -0.5t7.5 -1.5q12 -2 22 -8.5t10 -15.5q0 -4 -4 -7.5t-10 -5.5q-1 -1 -3 -2l-4 -2q-8 -4 -14.5 -9t-6.5 -14v-42v-42v-99v-109q0 -4 5 -8.5t12 -9.5q6 -5 11 -11.5t5 -13.5q0 -8 -7 -11.5t-15 -3.5h-1.5h-1.5h-26h-29h-29h-26h-5.5h-5.5
q-9 1 -16.5 4t-7.5 11q0 4 2.5 7t6.5 5q3 1 5.5 2.5t4.5 3.5q6 3 11 9t7 16l-1 1l-3 3q-2 1 -5 2t-6 1q-5 0 -10.5 -3t-11.5 -11q-14 -19 -30 -31.5t-32 -18.5q-11 -5 -21.5 -7t-20.5 -2q-42 0 -72.5 27t-30.5 60v50v106v59.5v51.5v0z" />
    <glyph glyph-name="v" unicode="v" horiz-adv-x="462" 
d="M169 418q5 0 8 -3.5t3 -8.5q0 -3 -1.5 -5t-4.5 -3q-1 -1 -2 -1.5t-2 -1.5q-4 -3 -7.5 -7.5t-3.5 -14.5v-1.5v-1.5q2 -23 16 -59.5t32 -75.5q5 -11 10.5 -21t10.5 -21q11 -21 21.5 -40.5t19.5 -35.5q3 -4 8 -6.5t11 -2.5q8 0 14.5 3t8.5 9q16 41 27.5 70.5t18.5 56.5
q5 20 7.5 40t2.5 45q0 32 -19 39.5t-42 8.5h-6.5h-6.5h-2h-2h-2.5t-3.5 -1q-4 -1 -7 -2.5t-1 -4.5q3 -4 4.5 -9t1.5 -11q0 -12 -7 -16.5t-15 -5.5h-4h-4h-5t-4 1h-2h-1l1.5 3t0.5 3l0.5 1l0.5 1q0 6 -4.5 10.5t-10.5 9.5l-4 2t-3 3q-9 5 -16 12.5t-7 18.5q0 10 8 16.5
t18 6.5h53.5h55.5h35.5h34.5q15 0 26.5 -10.5t11.5 -25.5q0 -36 -17 -87t-42 -105q-12 -26 -25 -51t-26 -48q-12 -21 -23 -40t-22 -35q-3 -5 -6 -8.5t-8 -6.5q-6 -3 -12 -4.5t-12 -1.5q-7 0 -13.5 2t-14.5 4q-1 0 -1.5 0.5t-1.5 0.5q-1 1 -1.5 1h-0.5q-4 2 -6.5 3.5
t-3.5 4.5q-21 48 -46 108t-52 122q-14 32 -28.5 63.5t-28.5 61.5q-3 6 -8.5 9.5t-11.5 6.5h-0.5h-0.5q-8 4 -14.5 8.5t-6.5 15.5q0 5 4 8.5t10 3.5h38.5h43.5h34h32v0z" />
    <glyph glyph-name="w" unicode="w" horiz-adv-x="564" 
d="M268 368q4 -4 4.5 -9t0.5 -11q0 -19 -9.5 -25.5t-20.5 -6.5q-6 0 -11.5 1t-10.5 3q-4 1 -7 2l-3 1q5 8 7 14.5t2 11.5q0 4 -1.5 7.5t-2.5 7.5q-1 1 -2 2.5t-1 2.5q-3 5 -5.5 11t-2.5 15q0 10 8 16.5t18 6.5h67h92h77h63q11 0 18 -6.5t7 -17.5q0 -26 -19.5 -88t-44.5 -130
l-4 -12l-4 -12q-14 -38 -27.5 -74t-23.5 -65q-1 -4 -4.5 -6.5t-8.5 -2.5h-6.5h-6.5h-12.5h-13.5h-2h-2q-5 1 -8.5 3t-4.5 6q-3 14 -9.5 33.5t-14.5 40.5q-1 4 -2 7.5t-2 6.5q-5 14 -10 26.5t-9 23.5q-1 2 -2.5 2.5t-3.5 1.5h-0.5h-1.5q-2 0 -4 -0.5t-3 -2.5q-19 -36 -32 -71
t-24 -66q-1 -5 -5 -8t-9 -3h-21h-25q-5 0 -8.5 3t-5.5 8q-24 63 -51.5 145.5t-61.5 170.5q-3 6 -5.5 13t-5.5 14t-8 12t-11 9q-1 1 -2 1.5t-2 1.5q-7 5 -12 10.5t-5 13.5v1.5v0.5q1 4 4 7.5t8 3.5h30h44h54h25q2 -2 2.5 -4.5t0.5 -4.5q0 -6 -4 -9.5t-9 -7.5l-0.5 -0.5
t-1.5 -0.5q-4 -3 -7.5 -6.5t-3.5 -7.5v-1.5v-1.5q2 -6 4 -12.5t4 -12.5q3 -10 6.5 -21t6.5 -21q15 -46 29.5 -85.5t24.5 -63.5q1 -2 3.5 -3.5t5.5 -1.5q2 0 4 1t3 2q11 22 21 47.5t19 52.5q2 4 3.5 9t3.5 10q6 19 12.5 37t13.5 34q2 4 6 6t9 2t10 -1.5t6 -6.5
q7 -14 14.5 -34.5t15.5 -43.5q1 -4 3 -8.5t3 -9.5q9 -25 17 -49t14 -41q1 -3 4 -5t7 -3h1.5h1.5q2 0 4 1t3 3q6 14 11.5 28.5t10.5 29.5q16 44 25 82.5t9 50.5t-7 22t-19 10h-32h-35h-56h-43q-2 0 -4.5 -0.5t-5.5 -0.5q-5 -1 -10 -3t-7 -4q-1 -1 -1 -2v-2v0z" />
    <glyph glyph-name="x" unicode="x" horiz-adv-x="447" 
d="M214 416q12 0 18 -3.5t10 -8.5q1 -1 2 -2.5t3 -2.5q2 -3 5 -5t7 -2q2 0 4 0.5t5 1.5q15 6 28.5 11t26.5 8q11 3 22.5 5t24.5 2h1.5h1.5q11 -1 20.5 -7t9.5 -17q0 -7 -4.5 -10t-10.5 -5q-1 -1 -2 -1.5t-3 -0.5q-4 -2 -8 -4.5t-7 -6.5q-6 -10 -12 -19l-12 -18
q-4 -5 -7.5 -10.5t-7.5 -10.5q-11 -15 -23.5 -31t-27.5 -35q-1 -2 -2 -3.5t-1 -3.5t1 -3.5t2 -3.5q19 -26 34 -46.5t29 -39.5q3 -5 6 -9l6 -8q9 -10 17.5 -21t17.5 -22q4 -5 9 -9l10 -8q7 -5 14.5 -8t13.5 -6q9 -4 15 -9t6 -16q0 -12 -10.5 -17.5t-22.5 -6.5h-2.5h-2.5
q-7 0 -13.5 1t-11.5 3h-1h-1q-6 2 -12.5 3t-14.5 1t-14.5 -1t-12.5 -3h-1h-1q-6 -1 -13 -2.5t-16 -1.5h-3.5h-3.5q-11 0 -21 3.5t-14 14.5v0.5v1.5q-1 1 -1 1.5v0.5q0 3 2 5.5t5 4.5q1 1 2.5 2t3.5 2q4 3 8 8.5t4 15.5q0 4 -10 18t-23 30l-0.5 1t-1.5 2q-9 11 -17.5 22
t-13.5 17q-1 2 -3.5 3t-5.5 2q-1 0 -3 -0.5t-3 -0.5q-2 -1 -3.5 -2t-3.5 -2q-9 -7 -17.5 -17t-15.5 -20q-10 -16 -16.5 -30.5t-6.5 -18.5q0 -8 6 -12t13 -8t13 -8t6 -12q0 -10 -8 -15.5t-17 -7.5q-3 -1 -5.5 -1h-5.5q-6 0 -10.5 1t-8.5 2t-8.5 2t-10.5 1q-7 0 -13 -1t-11 -2
t-11 -2t-13 -1h-6.5t-6.5 1q-11 1 -20 5t-9 14q0 12 29.5 41t64.5 62q1 1 1.5 2t1.5 1q17 16 32.5 31.5l28.5 28.5q2 2 2.5 3.5t0.5 4.5q0 2 -0.5 5t-2.5 6q-22 32 -41 56.5t-36 46.5q-1 1 -1 1.5t-1 0.5q-9 12 -18 23.5t-19 24.5q-3 5 -8.5 7.5t-10.5 4.5h-2t-2 1
q-7 2 -13 5.5t-6 11.5q0 11 9 17t20 7h2.5h2.5h31.5h30.5h48.5h51.5v0zM300 358v2t-1 2q-1 4 -5 7t-12 3q-10 0 -26 -5.5t-41 -19.5q-1 -1 -2.5 -1.5t-3.5 -0.5q-6 0 -10 4t-7 9q-1 3 -2 5.5t-1 4.5t-2 3t-5 1h-1h-1q-3 -1 -5 -2t-2 -4q0 -2 10 -16t22 -30q1 -1 1.5 -2
t1.5 -2q8 -11 16 -21t13 -16q2 -1 2.5 -1.5t1.5 -0.5q2 0 4 1t3 2l13.5 13.5t11.5 12.5q12 13 19.5 26.5t7.5 25.5v0z" />
    <glyph glyph-name="y" unicode="y" horiz-adv-x="474" 
d="M148 424h3.5h3.5h15h16q29 -1 53.5 -4t24.5 -14q0 -6 4.5 -10t10.5 -5h0.5h1.5q8 0 27 5.5t41 12.5q5 1 10.5 2.5t10.5 2.5q17 5 34 8.5t30 3.5t20.5 -4t7.5 -14q0 -32 -21 -78t-47 -94q-1 -2 -2 -4.5t-2 -4.5q-28 -51 -50.5 -98t-22.5 -77v-36v-30v-24v-26
q0 -29 -14.5 -52t-46.5 -23q-22 0 -33.5 10.5t-19.5 23.5l-0.5 0.5l-0.5 0.5q-8 13 -18.5 23t-31.5 10v0.5v2.5q-1 1 -1 3v4q0 4 0.5 8.5t1.5 9.5q2 11 8.5 19.5t19.5 8.5q2 0 4.5 -0.5t4.5 -1.5l3 -1.5t2 -1.5q4 -1 7 -2.5t6 -1.5q4 0 6 3t2 11v28v34q0 7 -0.5 12.5
t-0.5 11.5q-5 26 -34.5 75t-123.5 216q-3 6 -8 10t-10 6q-1 1 -2 1.5t-2 1.5q-7 4 -12.5 9t-5.5 15q0 5 4 7t9 3h0.5h1.5q7 0 20 0.5t29 1.5q9 0 19 0.5t20 1.5h14h14v0zM268 159q3 -7 6 -9.5t6 -2.5q3 -1 6 2l6 6q1 1 1.5 2t1.5 2q49 59 63 107t14 82q0 17 -9.5 23.5
t-25.5 6.5q-12 0 -26.5 -3t-30.5 -7q-2 0 -4 -0.5t-4 -1.5q-17 -4 -33 -8t-28 -4q-7 0 -10.5 6.5t-4.5 13.5q-1 3 -1 6v6q0 4 -4.5 6.5t-10.5 3.5h-0.5h-1.5h-1.5h-0.5q-5 -1 -9 -3t-4 -6q0 -16 21.5 -59t83.5 -169v0z" />
    <glyph glyph-name="z" unicode="z" horiz-adv-x="477" 
d="M243 422h47t44 1h39h36h2.5t3.5 -1q7 -1 13 -6t6 -12q0 -3 -1 -6.5t-4 -7.5q-16 -24 -37.5 -52t-43.5 -57q-5 -5 -9.5 -10.5t-9.5 -11.5q-26 -32 -51 -62.5t-44 -53.5l-2 -4t-1 -4v-0.5v-0.5v-0.5v-0.5q0 -6 9 -9.5t25 -3.5q9 0 16.5 0.5t14.5 1.5q6 1 13.5 1.5t16.5 0.5
q26 0 35.5 5t9.5 12q0 3 -1.5 7t-3.5 7q0 1 -0.5 2t-1.5 2q-3 5 -5 9.5t-2 7.5q0 16 11 24t24 8q11 0 17.5 -4t9.5 -8q2 -3 3 -5.5t1 -4.5v-0.5v-0.5l-1 -1v0q-5 0 -7.5 -2t-2.5 -6v0v0v-1v0q0 -9 9 -24t20 -32l2 -4t2 -3q10 -16 17.5 -30.5t7.5 -25.5q0 -29 -21.5 -39.5
t-47.5 -11.5q-6 -1 -11 -1h-10q-13 0 -25.5 1.5t-24.5 3.5q-3 1 -6.5 1.5t-7.5 1.5q-15 2 -31.5 4.5t-35.5 2.5q-22 0 -41 -2.5t-37 -4.5q-5 -1 -9.5 -2t-9.5 -1q-13 -2 -26 -3.5t-27 -1.5q-5 0 -11.5 1t-13.5 2q-16 4 -29 11t-14 15q0 2 1 4l2 4q19 25 41 52t44 55
q63 78 115 144t52 74q0 11 -15.5 14t-34.5 3h-4.5h-4.5h-9.5t-8.5 -1h-3t-4 -1q-4 0 -10 -0.5t-11 -0.5q-15 -1 -27.5 -4t-12.5 -8q0 -1 1 -2.5t3 -3.5q8 -7 11 -15t3 -16q0 -16 -11 -28t-26 -12q-2 0 -4 0.5t-4 0.5q-3 2 -6.5 3.5t-6.5 3.5q-5 3 -8 5.5l-3 2.5
q5 7 7.5 12.5t2.5 10.5q0 11 -8.5 18t-17.5 14q-10 7 -18.5 14.5t-8.5 17.5q0 7 6.5 10.5t13.5 3.5q26 0 47.5 2t41.5 5h1h2q19 3 39.5 5t44.5 2v0z" />
    <glyph glyph-name="braceleft" unicode="{" horiz-adv-x="222" 
d="M195 618q0 -1 -12.5 -4.5t-27.5 -23.5q-15 -19 -27 -59t-13 -113q-1 -83 -8 -128.5t-15 -66.5q-9 -21 -16 -25.5t-8 -5.5v0v0v0v0q1 -1 8 -5.5t16 -24.5q8 -21 15.5 -66.5t7.5 -128.5q0 -77 14.5 -118t31.5 -60q16 -17 30 -20.5t16 -3.5v0v0v-29q0 1 -0.5 1h-1.5
q-6 1 -27.5 5.5t-46.5 22.5q-28 21 -52 68t-24 134q0 84 -7.5 129.5t-15.5 66.5q-9 19 -16 23t-8 6v0v0v0v0q1 0 8 4t16 25q8 21 15 67t8 130q0 85 22 131t48 67t47.5 25t22.5 4v0v0v-27v0z" />
    <glyph glyph-name="bar" unicode="|" horiz-adv-x="343" 
d="M201 647v-967h-64v967h64v0z" />
    <glyph glyph-name="braceright" unicode="}" horiz-adv-x="180" 
d="M137 418q0 -85 7.5 -131t15.5 -67q8 -20 15 -24t8 -4v0v0v0v0q-1 -2 -8 -6t-15 -23q-9 -21 -16 -66.5t-7 -129.5q0 -87 -24 -133.5t-52 -67.5q-25 -19 -46.5 -23.5t-27.5 -5.5h-1.5h-0.5l-1 27l1 1v0q2 0 15.5 3.5t29.5 20.5q18 19 32.5 60t14.5 118q0 83 7 128.5
t16 66.5q8 20 15 24.5t8 5.5v0v0v0v0q-1 1 -8 5.5t-15 24.5q-8 21 -15 66.5t-8 129.5q-1 73 -13.5 113t-26.5 59q-15 19 -27.5 23t-12.5 5l-1 27h1v0q1 0 22 -4t48 -25q26 -22 47.5 -68t22.5 -130v0z" />
    <glyph glyph-name="asciitilde" unicode="~" horiz-adv-x="522" 
d="M191 640q20 0 37 -7.5t33 -16.5q1 -1 2.5 -1.5t2.5 -1.5q15 -8 30 -14.5t33 -6.5v0h1v0v0q16 0 34 7t40 25l30 -42q-31 -22 -56 -30.5t-45 -8.5q-22 0 -40 7.5t-34 16.5q-3 2 -7 3.5t-7 3.5q-13 7 -25.5 11.5t-26.5 4.5t-30 -6t-36 -20q-1 0 -4 5t-6 12q-1 1 -1.5 2
t-0.5 2q-4 8 -6.5 14t-1.5 7q26 20 46.5 27t37.5 7v0z" />
    <glyph glyph-name="Adieresis" unicode="&#xc4;" horiz-adv-x="555" 
d="M470 92q2 -11 10 -18t18 -13l2 -2t3 -1q9 -6 16 -13t7 -17q0 -9 -12.5 -15t-27.5 -9q-6 -1 -12.5 -1.5t-11.5 -0.5q-7 0 -12.5 0.5t-10.5 1.5t-10.5 1.5t-12.5 0.5q-6 0 -11.5 -0.5t-9.5 -1.5h-1h-1q-4 -1 -8.5 -1.5t-10.5 -0.5q-4 0 -8.5 0.5t-9.5 1.5q-13 2 -24 8.5
t-11 15.5q0 7 5.5 12.5t13.5 10.5q1 1 2.5 2t2.5 2q10 6 17.5 13t7.5 18t-11.5 70t-25.5 128q-2 9 -4.5 18.5t-4.5 19.5q-2 8 -3.5 16t-3.5 16q-1 3 7.5 9.5t19.5 13.5q4 2 7.5 4t6.5 3q12 7 23 12t16 5h2.5t0.5 -1q4 -20 8 -40.5t9 -41.5q4 -21 8.5 -41.5t9.5 -40.5
q9 -40 18.5 -77t16.5 -67v0zM444 584q38 0 48.5 -15t10.5 -38q0 -37 -61.5 -76t-135.5 -81q-75 -43 -136.5 -90.5t-61.5 -102.5q0 -24 7.5 -34.5t16.5 -13.5q3 -1 6 -1.5t6 -0.5h7h4h1v0v-27v-29q0 -25 -13 -42t-29 -25q-6 -2 -11.5 -3.5t-10.5 -1.5q-2 0 -4 0.5t-3 0.5
q-14 4 -26 19.5t-19 33.5q-3 8 -5 16t-2 15q0 41 14 90.5t34 100.5q10 25 21.5 50t22.5 49q21 44 41 84t33 69q1 2 1 3.5v2.5q0 9 -10 14t-23 5q-12 0 -22 -4.5t-10 -15.5q0 -7 4 -13t8 -11q5 -6 8.5 -10t3.5 -6t-1 -6t-3 -9q-2 -3 -4 -6.5t-4 -6.5q-1 -2 -3 -3t-3 -1h-1
q-18 9 -31 19.5t-23 20.5q-10 12 -15.5 23.5t-5.5 21.5q0 15 12 25t36 10h119.5h107.5h51h53v0zM430 523q0 11 -7.5 19t-18.5 8h-2h-2q-9 -1 -14.5 -8t-5.5 -16v-6t1 -6v-2v-2q0 -6 0.5 -12t2.5 -16q1 -3 -8 -11t-21 -17q-2 -2 -4 -3.5t-5 -3.5q-12 -9 -22.5 -15.5
t-13.5 -7.5h-1q-2 7 -3.5 14t-2.5 14q-1 1 -1 1.5v0.5q-6 29 -14.5 53t-28.5 24q-6 0 -10.5 -2.5t-9.5 -7.5q-15 -17 -33 -63t-54 -133q-1 -4 -2 -6t-1 -4t0.5 -3t1.5 -1h1.5h1.5q1 1 2.5 1.5t2.5 1.5l0.5 0.5l0.5 0.5q83 57 155 96.5t100 75.5q7 9 11 18t4 18v0zM226 663
v-1.5v-1.5q-1 -15 -12 -27.5t-32 -12.5t-32 13.5t-11 29.5v0.5v0.5v0.5v0.5v1.5v1.5q1 15 11.5 27.5t31.5 12.5q23 0 33.5 -14t10.5 -31v0zM372 663v-1.5v-1.5q-1 -15 -12 -27.5t-32 -12.5t-32 13.5t-11 29.5v0.5v0.5v0.5v0.5v1.5v1.5q1 15 11.5 27.5t31.5 12.5
q23 0 33.5 -14t10.5 -31v0z" />
    <glyph glyph-name="Aring" unicode="&#xc5;" horiz-adv-x="528" 
d="M470 92q2 -11 10 -18t18 -13l2 -2t3 -1q9 -6 16 -13t7 -17q0 -9 -12.5 -15t-27.5 -9q-6 -1 -12.5 -1.5t-11.5 -0.5q-7 0 -12.5 0.5t-10.5 1.5t-10.5 1.5t-12.5 0.5q-6 0 -11.5 -0.5t-9.5 -1.5h-1h-1q-4 -1 -8.5 -1.5t-10.5 -0.5q-4 0 -8.5 0.5t-9.5 1.5q-13 2 -24 8.5
t-11 15.5q0 7 5.5 12.5t13.5 10.5q1 1 2.5 2t2.5 2q10 6 17.5 13t7.5 18t-11.5 70t-25.5 128q-2 9 -4.5 18.5t-4.5 19.5q-2 8 -3.5 16t-3.5 16q-1 3 7.5 9.5t19.5 13.5q4 2 7.5 4t6.5 3q12 7 23 12t16 5h2.5t0.5 -1q4 -20 8 -40.5t9 -41.5q4 -21 8.5 -41.5t9.5 -40.5
q9 -40 18.5 -77t16.5 -67v0zM444 584q38 0 48.5 -15t10.5 -38q0 -37 -61.5 -76t-135.5 -81q-75 -43 -136.5 -90.5t-61.5 -102.5q0 -24 7.5 -34.5t16.5 -13.5q3 -1 6 -1.5t6 -0.5h7h4h1v0v-27v-29q0 -25 -13 -42t-29 -25q-6 -2 -11.5 -3.5t-10.5 -1.5q-2 0 -4 0.5t-3 0.5
q-14 4 -26 19.5t-19 33.5q-3 8 -5 16t-2 15q0 41 14 90.5t34 100.5q10 25 21.5 50t22.5 49q21 44 41 84t33 69q1 2 1 3.5v2.5q0 9 -10 14t-23 5q-12 0 -22 -4.5t-10 -15.5q0 -7 4 -13t8 -11q5 -6 8.5 -10t3.5 -6t-1 -6t-3 -9q-2 -3 -4 -6.5t-4 -6.5q-1 -2 -3 -3t-3 -1h-1
q-18 9 -31 19.5t-23 20.5q-10 12 -15.5 23.5t-5.5 21.5q0 15 12 25t36 10h119.5h107.5h51h53v0zM430 523q0 11 -7.5 19t-18.5 8h-2h-2q-9 -1 -14.5 -8t-5.5 -16v-6t1 -6v-2v-2q0 -6 0.5 -12t2.5 -16q1 -3 -8 -11t-21 -17q-2 -2 -4 -3.5t-5 -3.5q-12 -9 -22.5 -15.5
t-13.5 -7.5h-1q-2 7 -3.5 14t-2.5 14q-1 1 -1 1.5v0.5q-6 29 -14.5 53t-28.5 24q-6 0 -10.5 -2.5t-9.5 -7.5q-15 -17 -33 -63t-54 -133q-1 -4 -2 -6t-1 -4t0.5 -3t1.5 -1h1.5h1.5q1 1 2.5 1.5t2.5 1.5l0.5 0.5l0.5 0.5q83 57 155 96.5t100 75.5q7 9 11 18t4 18v0zM269 772
q31 0 53.5 -22t22.5 -53t-22 -54t-54 -23q-31 0 -53.5 22t-22.5 53q0 32 22.5 54.5t53.5 22.5v0zM227 695q0 -17 12.5 -30t29.5 -13t29.5 13t12.5 30t-12.5 29.5t-29.5 12.5t-29.5 -12.5t-12.5 -29.5v0z" />
    <glyph glyph-name="Ccedilla" unicode="&#xc7;" horiz-adv-x="464" 
d="M295 -45q0 1 1 1h3q2 1 5 1h6q8 0 18.5 -1t20.5 -5q21 -7 38 -26.5t17 -59.5q0 -44 -29 -63.5t-63 -20.5h-1.5h-1.5q-33 0 -59.5 15.5t-26.5 41.5v2v2q1 7 2.5 10t3.5 4q0 1 0.5 1h1.5q2 0 3 -1.5t1 -3.5q1 -22 17.5 -35t35.5 -13q20 1 35.5 15t15.5 46q0 29 -12.5 42
t-27.5 17q-6 1 -10.5 1.5t-9.5 0.5q-4 0 -7.5 -0.5t-6.5 -0.5t-5 -0.5t-3 -0.5h-1v0l-5 77q-132 5 -191.5 85.5t-59.5 191.5q0 139 54.5 206t119.5 89q24 8 47.5 11.5t44.5 3.5q60 0 108 -37t48 -97q0 -30 -21.5 -52.5t-47.5 -33.5q-10 -4 -19.5 -6t-17.5 -2q-44 0 -69 24
t-27 53v2.5v2.5v2v3q0 13 -2.5 22t-17.5 9q-6 0 -7.5 -3.5t-2.5 -7.5v-1.5v-1.5q-1 -5 -4 -9.5t-14 -4.5q-10 0 -15.5 8t-5.5 18v2.5v2.5q2 12 11.5 22.5t29.5 10.5q21 0 32 -9.5t19 -21.5l1.5 -1.5t0.5 -1.5q8 -11 17 -19.5t26 -8.5q16 0 26.5 14t11.5 32v2.5v2.5
q-2 19 -20 35t-58 16q-15 0 -36 -4t-43 -15q-38 -20 -70.5 -66t-32.5 -135q0 -68 32 -113.5t71 -68.5q20 -12 39 -18t34 -6h18.5h16.5h16.5h18.5q22 0 37.5 9.5t27.5 21.5q11 12 19.5 21.5t15.5 9.5q14 0 20 -11.5t7 -24.5q1 -3 1 -6v-6q0 -59 -41.5 -97.5t-100.5 -43.5
l-3 -46v0z" />
    <glyph glyph-name="Eacute" unicode="&#xc9;" horiz-adv-x="515" 
d="M108 472q0 15 -11.5 22t-25.5 13q-1 0 -1.5 0.5t-1.5 0.5q-13 5 -23.5 11.5t-10.5 18.5q0 20 47.5 27t104.5 8q20 1 39.5 1h36.5h31.5t33.5 -1q51 -1 93 -8.5t42 -30.5q0 -14 -18 -29.5t-44 -31.5q-10 -6 -21 -12.5t-22 -12.5q-39 -22 -72 -41t-33 -31q0 -7 2 -9.5
t5 -2.5q5 0 11.5 3.5t15.5 7.5q8 4 18 7.5t20 3.5h4.5h5.5q25 -3 45.5 -16t20.5 -37v-1.5v-1.5q0 -2 -0.5 -4.5t-0.5 -4.5q-2 -4 -3.5 -8t-3.5 -8q-3 -4 -5 -6.5t-3 -2.5q-9 8 -16.5 11t-15.5 3q-9 0 -17.5 -3t-18.5 -6t-22 -6t-26 -3h-8.5t-8.5 1q-24 2 -44.5 11.5
t-20.5 33.5q0 14 16.5 32.5t39.5 37.5q6 5 13 10t13 11q23 17 43 32.5t31 26.5q5 5 6.5 10.5t1.5 9.5q0 11 -7 18.5t-17 7.5h-7.5h-7.5h-23.5h-29.5q-20 0 -36 -16.5t-16 -39.5q0 -7 0.5 -13.5t1.5 -12.5q0 -6 0.5 -11.5t0.5 -11.5t-0.5 -12t-2.5 -13q0 -1 -5.5 -7
t-11.5 -15q-3 -4 -6 -8.5t-5 -8.5q-3 -5 -4.5 -10t-1.5 -9q0 -21 5 -31.5t11 -15.5q6 -4 10.5 -5t5.5 -2h1v0q0 -8 0.5 -17.5t0.5 -18.5v-1.5v-1.5q1 -19 1.5 -36t0.5 -27q0 -34 26 -56t60 -22h21h20h32h35q10 0 16.5 4.5t12.5 10.5h1v1q6 5 12.5 9.5t15.5 4.5
q16 0 22 -13.5t7 -29.5q1 -4 1 -7.5v-7.5q0 -37 -24 -58.5t-78 -21.5q-19 0 -36 2t-32 4q-8 1 -15 2t-15 2t-16 1.5t-16 0.5q-18 0 -34 -2t-31 -4t-28.5 -4t-27.5 -2q-8 0 -17.5 1.5t-19.5 4.5t-20.5 7.5t-19.5 8.5q-17 8 -27.5 15t-8.5 7q15 4 23 10t15 13q3 4 7 8l9 9
q2 2 4.5 3.5t5.5 2.5q1 0 2 0.5t2 0.5q7 2 12.5 6.5t5.5 23.5q0 33 -0.5 73t-0.5 85q0 43 -0.5 88.5t-0.5 91.5v4.5v4.5v0zM296 712q5 0 9.5 -2t9.5 -7q5 -4 7 -8.5t2 -9.5q0 -13 -14.5 -25t-31.5 -21t-31.5 -14l-14.5 -5l5 14.5t14 31.5q8 17 20 31.5t25 14.5v0z" />
    <glyph glyph-name="Ntilde" unicode="&#xd1;" horiz-adv-x="602" 
d="M404 578q66 0 114 -47.5t48 -106.5q0 -76 -17.5 -115.5t-38.5 -63.5q-7 -8 -13.5 -15t-12.5 -13q-13 -15 -21.5 -31t-8.5 -40q0 -13 7 -17t18 -4h1.5h1.5q7 0 14.5 1t15.5 3q8 1 15.5 2t14.5 1q30 0 40.5 -21t11.5 -46v-4v-4v-2.5v-3.5q0 -10 -1 -19.5t-2 -16.5t-2 -11
l-1 -4q-4 5 -8 8t-7 5l-8 2t-8 1q-7 0 -15 -2.5t-16 -5.5t-17 -5.5t-19 -2.5h-5.5t-4.5 1q-34 3 -62 26t-28 59q0 34 7.5 68.5t16.5 72.5q9 37 16.5 77.5t7.5 85.5q0 80 -43.5 110t-100.5 30h-8h-8q-17 -2 -31.5 -8t-14.5 -22v-47.5v-46.5v-1h-1q-4 0 -19.5 7.5t-33.5 17.5
q-3 2 -6.5 4t-6.5 4q-17 10 -29 19t-12 13v6.5t1 6.5v7.5v7.5q0 11 -3 18.5t-12 7.5q-10 0 -15.5 -10t-5.5 -22q0 -8 2.5 -15.5t8.5 -12.5q18 -13 37.5 -26t39.5 -25q75 -47 137 -86.5t62 -76.5q0 -17 -15 -27.5t-33 -10.5q-3 0 -6.5 0.5t-6.5 1.5q-7 3 -14 7t-13 9
q-9 7 -14 12.5t-4 5.5h0.5h0.5h0.5h0.5q10 0 14.5 6.5t4.5 13.5q0 5 -1.5 9.5t-5.5 6.5q-146 91 -201.5 133t-63.5 74q0 3 -0.5 6.5t-0.5 6.5q0 35 29.5 54t64.5 20h3.5h2.5h101h97h44h44v0zM122 344q0 4 2 5t5 1q8 0 21 -6t27 -14q3 -2 7 -4.5t7 -4.5q17 -11 29 -19.5
t12 -9.5v-39v-58v-62v-38q0 -10 7.5 -15.5t16.5 -9.5q1 -1 2 -1t2 -1q2 -1 3.5 -1.5t3.5 -1.5q1 -1 2.5 -1.5t2.5 -1.5q10 -6 12.5 -11.5t3.5 -9.5q1 -2 2.5 -3.5t4.5 -1.5q1 0 -4 -5t-14 -11t-22 -11t-30 -5q-5 0 -7 0.5t-4 1.5l-1.5 1.5l-0.5 0.5q-3 2 -9.5 3t-22.5 1
q-7 0 -12.5 -1t-10.5 -3v0h-1q-5 -1 -10.5 -2.5t-13.5 -1.5q-5 0 -10 1t-10 3q-9 3 -17 7t-15 9q-11 7 -17 13t-4 7q4 2 7.5 4.5t6.5 5.5q1 1 1.5 2t1.5 2q3 2 6 5t7 5q5 3 9.5 4t8.5 2q7 1 12 4.5t5 18.5v43.5t-1 38.5v12.5v13.5q0 26 -0.5 58.5t-0.5 80.5v0zM232 717
q20 0 37 -7.5t33 -16.5q1 -1 2.5 -1.5t2.5 -1.5q15 -8 30 -14.5t33 -6.5v0h1v0v0q16 0 34 7t40 25l30 -42q-31 -22 -56 -30.5t-45 -8.5q-22 0 -40 7.5t-34 16.5q-3 2 -7 3.5t-7 3.5q-13 7 -25.5 11.5t-26.5 4.5t-30 -6t-36 -20q-1 0 -4 5t-6 12q-1 1 -1.5 2t-0.5 2
q-4 8 -6.5 14t-1.5 7q26 20 46.5 27t37.5 7v0z" />
    <glyph glyph-name="Odieresis" unicode="&#xd6;" horiz-adv-x="545" 
d="M494 283q0 -108 -46 -197.5t-127 -89.5q-9 0 -15.5 1.5t-13.5 2.5q-7 2 -13.5 3.5t-15.5 1.5t-16.5 -1.5t-14.5 -3.5q-7 -1 -14.5 -2.5t-16.5 -1.5q-74 0 -117 85.5t-43 191.5v7.5v6.5q3 108 57.5 198.5t172.5 90.5q115 0 168.5 -90.5t54.5 -199.5v-1.5v-1.5v0zM169 188
q0 -4 1 -7.5t2 -7.5q8 -21 33.5 -39t54.5 -21h4h4q65 0 101.5 56.5t43.5 124.5q1 8 1.5 16.5t0.5 16.5q0 10 -2 24t-6 28q-2 9 -4.5 18t-4.5 17q-7 21 -12.5 31.5t-5.5 -2.5v-0.5v-1.5v-1.5v-0.5v-0.5v-0.5v-0.5v-0.5q0 -19 -14 -35.5t-36 -32.5q-13 -9 -27 -18l-28 -18
q-40 -27 -73 -60.5t-33 -84.5v0zM116 320q0 -7 1 -16t2 -19q2 -13 5 -25.5t6 -17.5q2 -4 3.5 -3.5t3.5 6.5q15 46 43.5 74t59.5 48q15 9 29.5 17t27.5 16q24 15 40.5 31.5t16.5 40.5q0 22 -23.5 39t-51.5 22q-4 0 -8 0.5t-8 0.5q-65 0 -101.5 -56.5t-43.5 -124.5
q-1 -8 -1.5 -16.5t-0.5 -16.5v0zM226 663v-1.5v-1.5q-1 -15 -12 -27.5t-32 -12.5t-32 13.5t-11 29.5v0.5v0.5v0.5v0.5v1.5v1.5q1 15 11.5 27.5t31.5 12.5q23 0 33.5 -14t10.5 -31v0zM372 663v-1.5v-1.5q-1 -15 -12 -27.5t-32 -12.5t-32 13.5t-11 29.5v0.5v0.5v0.5v0.5v1.5
v1.5q1 15 11.5 27.5t31.5 12.5q23 0 33.5 -14t10.5 -31v0z" />
    <glyph glyph-name="Udieresis" unicode="&#xdc;" horiz-adv-x="546" 
d="M512 546q0 -10 -9.5 -15.5t-20.5 -10.5h-0.5h-1.5q-11 -5 -19.5 -10t-8.5 -14v-86v-94v-121.5v-104.5q0 -11 7 -15t16 -6q1 0 2 -0.5t2 -0.5q4 -1 8 -2.5t7 -3.5q13 -9 19 -17t11 -14q2 -3 4.5 -5t5.5 -4q1 0 -6 -5t-18 -10q-7 -3 -14 -5.5t-15 -4.5q-6 -2 -12 -3t-11 -1
q-12 0 -22 2t-20 5h-0.5h-1.5q-10 2 -20.5 4t-23.5 2q-20 0 -36.5 -2.5t-32.5 -4.5q-16 -3 -32.5 -5.5t-36.5 -2.5q-86 0 -140 69t-54 154q0 50 22 98.5t48 88.5t48 68t22 37q0 12 -8.5 16t-25.5 4h-5t-6 -1q-9 -1 -17 -4.5t-8 -11.5q0 -6 7.5 -14.5t24.5 -20.5q2 -1 -4 -5
t-13 -14q-1 -1 -2.5 -3t-2.5 -4l-15.5 8.5t-34.5 21.5q-19 14 -34.5 31.5t-15.5 36.5q0 11 8.5 17t18.5 7h2.5h2.5h54.5h61.5h24h24h2.5h2.5q12 -1 21.5 -6.5t9.5 -17.5v-1.5v-0.5q-1 -24 -19.5 -49t-40.5 -55q-22 -32 -41 -71.5t-19 -92.5q0 -67 31 -118.5t125 -51.5
q29 0 48.5 13t19.5 57q0 19 -10 43.5t-26 49.5q-13 21 -28.5 41t-31.5 37q-20 22 -39.5 37.5t-33.5 20.5l2.5 4.5t5.5 9.5q3 4 6.5 7.5t6.5 5.5l38 -21.5t90 -88.5q2 -2 4.5 -4t6.5 -2h1.5h0.5q3 0 5 3.5t2 10.5v79v83q0 12 -8.5 18t-19.5 11q-10 5 -19 11t-9 18
q0 10 22.5 14.5t50.5 4.5q9 1 18.5 1h18.5h16.5h16.5q27 -1 49 -5.5t22 -18.5v0zM226 663v-1.5v-1.5q-1 -15 -12 -27.5t-32 -12.5t-32 13.5t-11 29.5v0.5v0.5v0.5v0.5v1.5v1.5q1 15 11.5 27.5t31.5 12.5q23 0 33.5 -14t10.5 -31v0zM372 663v-1.5v-1.5q-1 -15 -12 -27.5
t-32 -12.5t-32 13.5t-11 29.5v0.5v0.5v0.5v0.5v1.5v1.5q1 15 11.5 27.5t31.5 12.5q23 0 33.5 -14t10.5 -31v0z" />
    <glyph glyph-name="aacute" unicode="&#xe1;" horiz-adv-x="455" 
d="M188 412q13 0 23.5 1.5t20.5 2.5q10 2 20.5 3t23.5 1h2.5h3.5q35 -1 64.5 -20t29.5 -54v-129v-117q0 -9 5.5 -15.5t12.5 -11.5t12.5 -11.5t5.5 -15.5q0 -22 -19.5 -33t-42.5 -13h-5.5h-4.5q-15 0 -27 2t-23 5t-23 5t-27 2t-27 -2t-24 -5q-1 0 -2.5 -0.5t-2.5 -0.5
q-13 -3 -27.5 -5t-34.5 -2q-52 0 -87 36.5t-35 88.5q0 45 32 73t70 48q14 8 27 14.5t25 13.5q7 4 13 7.5t11 7.5q4 3 6 5.5t2 3.5q1 2 -0.5 3t-4.5 1h-4.5t-4.5 -1q-11 -3 -25.5 -4.5t-30.5 -1.5h-2.5h-3.5h-2.5h-3.5q-32 1 -59 13.5t-27 42.5q0 31 23.5 50.5t54.5 19.5
q11 0 20.5 -1t18.5 -2q2 0 3 -0.5t3 -0.5q11 -1 22.5 -2.5t24.5 -1.5v0zM112 350q0 -15 14 -19t30 -4h5.5h4.5h4h4h3.5h2.5q16 0 30.5 1.5t24.5 7.5q1 1 2.5 1h2.5q2 0 3.5 -0.5t3.5 -1.5q5 -3 10 -9t6 -12q1 -2 1 -3v-2q0 -4 -1.5 -7.5t-6.5 -5.5q-12 -7 -28 -15.5
t-33 -18.5q-17 -11 -34 -22.5t-30 -23.5q-10 -11 -16.5 -21t-6.5 -19q0 -28 21 -48t49 -20q27 0 48.5 8t34.5 17q6 5 9.5 9.5t3.5 7.5q2 29 2 65.5v88.5q0 49 -27 62.5t-61 13.5h-2.5h-2.5h-8.5h-8.5q-20 -1 -37 -6t-17 -24v0zM230 652q5 0 9.5 -2t9.5 -7q5 -4 7 -8.5
t2 -9.5v-0.5v-0.5v-0.5v-0.5q0 -13 -14.5 -24t-31.5 -20t-31.5 -14l-14.5 -5l5 14.5t14 31.5q8 17 20 31.5t25 14.5v0z" />
    <glyph glyph-name="agrave" unicode="&#xe0;" horiz-adv-x="455" 
d="M188 412q13 0 23.5 1.5t20.5 2.5q10 2 20.5 3t23.5 1h2.5h3.5q35 -1 64.5 -20t29.5 -54v-129v-117q0 -9 5.5 -15.5t12.5 -11.5t12.5 -11.5t5.5 -15.5q0 -22 -19.5 -33t-42.5 -13h-5.5h-4.5q-15 0 -27 2t-23 5t-23 5t-27 2t-27 -2t-24 -5q-1 0 -2.5 -0.5t-2.5 -0.5
q-13 -3 -27.5 -5t-34.5 -2q-52 0 -87 36.5t-35 88.5q0 45 32 73t70 48q14 8 27 14.5t25 13.5q7 4 13 7.5t11 7.5q4 3 6 5.5t2 3.5q1 2 -0.5 3t-4.5 1h-4.5t-4.5 -1q-11 -3 -25.5 -4.5t-30.5 -1.5h-2.5h-3.5h-2.5h-3.5q-32 1 -59 13.5t-27 42.5q0 31 23.5 50.5t54.5 19.5
q11 0 20.5 -1t18.5 -2q2 0 3 -0.5t3 -0.5q11 -1 22.5 -2.5t24.5 -1.5v0zM112 350q0 -15 14 -19t30 -4h5.5h4.5h4h4h3.5h2.5q16 0 30.5 1.5t24.5 7.5q1 1 2.5 1h2.5q2 0 3.5 -0.5t3.5 -1.5q5 -3 10 -9t6 -12q1 -2 1 -3v-2q0 -4 -1.5 -7.5t-6.5 -5.5q-12 -7 -28 -15.5
t-33 -18.5q-17 -11 -34 -22.5t-30 -23.5q-10 -11 -16.5 -21t-6.5 -19q0 -28 21 -48t49 -20q27 0 48.5 8t34.5 17q6 5 9.5 9.5t3.5 7.5q2 29 2 65.5v88.5q0 49 -27 62.5t-61 13.5h-2.5h-2.5h-8.5h-8.5q-20 -1 -37 -6t-17 -24v0zM161 625q0 5 2.5 9.5t6.5 8.5q5 5 10 7t9 2
q14 0 25.5 -14.5t20.5 -31.5q8 -17 13 -31.5l5 -14.5l-14.5 5t-31.5 14t-31.5 21t-14.5 25v0v0v0z" />
    <glyph glyph-name="acircumflex" unicode="&#xe2;" horiz-adv-x="455" 
d="M188 412q13 0 23.5 1.5t20.5 2.5q10 2 20.5 3t23.5 1h2.5h3.5q35 -1 64.5 -20t29.5 -54v-129v-117q0 -9 5.5 -15.5t12.5 -11.5t12.5 -11.5t5.5 -15.5q0 -22 -19.5 -33t-42.5 -13h-5.5h-4.5q-15 0 -27 2t-23 5t-23 5t-27 2t-27 -2t-24 -5q-1 0 -2.5 -0.5t-2.5 -0.5
q-13 -3 -27.5 -5t-34.5 -2q-52 0 -87 36.5t-35 88.5q0 45 32 73t70 48q14 8 27 14.5t25 13.5q7 4 13 7.5t11 7.5q4 3 6 5.5t2 3.5q1 2 -0.5 3t-4.5 1h-4.5t-4.5 -1q-11 -3 -25.5 -4.5t-30.5 -1.5h-2.5h-3.5h-2.5h-3.5q-32 1 -59 13.5t-27 42.5q0 31 23.5 50.5t54.5 19.5
q11 0 20.5 -1t18.5 -2q2 0 3 -0.5t3 -0.5q11 -1 22.5 -2.5t24.5 -1.5v0zM112 350q0 -15 14 -19t30 -4h5.5h4.5h4h4h3.5h2.5q16 0 30.5 1.5t24.5 7.5q1 1 2.5 1h2.5q2 0 3.5 -0.5t3.5 -1.5q5 -3 10 -9t6 -12q1 -2 1 -3v-2q0 -4 -1.5 -7.5t-6.5 -5.5q-12 -7 -28 -15.5
t-33 -18.5q-17 -11 -34 -22.5t-30 -23.5q-10 -11 -16.5 -21t-6.5 -19q0 -28 21 -48t49 -20q27 0 48.5 8t34.5 17q6 5 9.5 9.5t3.5 7.5q2 29 2 65.5v88.5q0 49 -27 62.5t-61 13.5h-2.5h-2.5h-8.5h-8.5q-20 -1 -37 -6t-17 -24v0zM201 650l139 -137q1 0 -16 12t-41 27
q-4 3 -8.5 6t-9.5 6q-19 11 -36.5 19.5t-27.5 8.5t-27.5 -8.5t-36.5 -19.5q-5 -3 -9.5 -6t-9.5 -5q-23 -15 -39.5 -27.5l-16.5 -12.5l139 137v0z" />
    <glyph glyph-name="adieresis" unicode="&#xe4;" horiz-adv-x="455" 
d="M188 412q13 0 23.5 1.5t20.5 2.5q10 2 20.5 3t23.5 1h2.5h3.5q35 -1 64.5 -20t29.5 -54v-129v-117q0 -9 5.5 -15.5t12.5 -11.5t12.5 -11.5t5.5 -15.5q0 -22 -19.5 -33t-42.5 -13h-5.5h-4.5q-15 0 -27 2t-23 5t-23 5t-27 2t-27 -2t-24 -5q-1 0 -2.5 -0.5t-2.5 -0.5
q-13 -3 -27.5 -5t-34.5 -2q-52 0 -87 36.5t-35 88.5q0 45 32 73t70 48q14 8 27 14.5t25 13.5q7 4 13 7.5t11 7.5q4 3 6 5.5t2 3.5q1 2 -0.5 3t-4.5 1h-4.5t-4.5 -1q-11 -3 -25.5 -4.5t-30.5 -1.5h-2.5h-3.5h-2.5h-3.5q-32 1 -59 13.5t-27 42.5q0 31 23.5 50.5t54.5 19.5
q11 0 20.5 -1t18.5 -2q2 0 3 -0.5t3 -0.5q11 -1 22.5 -2.5t24.5 -1.5v0zM112 350q0 -15 14 -19t30 -4h5.5h4.5h4h4h3.5h2.5q16 0 30.5 1.5t24.5 7.5q1 1 2.5 1h2.5q2 0 3.5 -0.5t3.5 -1.5q5 -3 10 -9t6 -12q1 -2 1 -3v-2q0 -4 -1.5 -7.5t-6.5 -5.5q-12 -7 -28 -15.5
t-33 -18.5q-17 -11 -34 -22.5t-30 -23.5q-10 -11 -16.5 -21t-6.5 -19q0 -28 21 -48t49 -20q27 0 48.5 8t34.5 17q6 5 9.5 9.5t3.5 7.5q2 29 2 65.5v88.5q0 49 -27 62.5t-61 13.5h-2.5h-2.5h-8.5h-8.5q-20 -1 -37 -6t-17 -24v0zM191 577v-1.5v-1.5q-1 -15 -12 -27.5
t-32 -12.5t-32 13.5t-11 29.5v0.5v0.5v0.5v0.5v1.5v1.5q1 15 11.5 27.5t31.5 12.5q23 0 33.5 -14t10.5 -31v0zM337 577v-1.5v-1.5q-1 -15 -12 -27.5t-32 -12.5t-32 13.5t-11 29.5v0.5v0.5v0.5v0.5v1.5v1.5q1 15 11.5 27.5t31.5 12.5q23 0 33.5 -14t10.5 -31v0z" />
    <glyph glyph-name="atilde" unicode="&#xe3;" horiz-adv-x="455" 
d="M188 412q13 0 23.5 1.5t20.5 2.5q10 2 20.5 3t23.5 1h2.5h3.5q35 -1 64.5 -20t29.5 -54v-129v-117q0 -9 5.5 -15.5t12.5 -11.5t12.5 -11.5t5.5 -15.5q0 -22 -19.5 -33t-42.5 -13h-5.5h-4.5q-15 0 -27 2t-23 5t-23 5t-27 2t-27 -2t-24 -5q-1 0 -2.5 -0.5t-2.5 -0.5
q-13 -3 -27.5 -5t-34.5 -2q-52 0 -87 36.5t-35 88.5q0 45 32 73t70 48q14 8 27 14.5t25 13.5q7 4 13 7.5t11 7.5q4 3 6 5.5t2 3.5q1 2 -0.5 3t-4.5 1h-4.5t-4.5 -1q-11 -3 -25.5 -4.5t-30.5 -1.5h-2.5h-3.5h-2.5h-3.5q-32 1 -59 13.5t-27 42.5q0 31 23.5 50.5t54.5 19.5
q11 0 20.5 -1t18.5 -2q2 0 3 -0.5t3 -0.5q11 -1 22.5 -2.5t24.5 -1.5v0zM112 350q0 -15 14 -19t30 -4h5.5h4.5h4h4h3.5h2.5q16 0 30.5 1.5t24.5 7.5q1 1 2.5 1h2.5q2 0 3.5 -0.5t3.5 -1.5q5 -3 10 -9t6 -12q1 -2 1 -3v-2q0 -4 -1.5 -7.5t-6.5 -5.5q-12 -7 -28 -15.5
t-33 -18.5q-17 -11 -34 -22.5t-30 -23.5q-10 -11 -16.5 -21t-6.5 -19q0 -28 21 -48t49 -20q27 0 48.5 8t34.5 17q6 5 9.5 9.5t3.5 7.5q2 29 2 65.5v88.5q0 49 -27 62.5t-61 13.5h-2.5h-2.5h-8.5h-8.5q-20 -1 -37 -6t-17 -24v0zM135 640q20 0 37 -7.5t33 -16.5q1 -1 2.5 -1.5
t2.5 -1.5q15 -8 30 -14.5t33 -6.5v0h1v0v0q16 0 34 7t40 25l30 -42q-31 -22 -56 -30.5t-45 -8.5q-22 0 -40 7.5t-34 16.5q-3 2 -7 3.5t-7 3.5q-13 7 -25.5 11.5t-26.5 4.5t-30 -6t-36 -20q-1 0 -4 5t-6 12q-1 1 -1.5 2t-0.5 2q-4 8 -6.5 14t-1.5 7q26 20 46.5 27t37.5 7v0z
" />
    <glyph glyph-name="aring" unicode="&#xe5;" horiz-adv-x="474" 
d="M221 412q13 0 23.5 1.5t20.5 2.5q10 2 20.5 3t23.5 1h4h4q35 -2 64 -20.5t29 -53.5v-129v-117q0 -9 5.5 -15.5t12.5 -11.5t12.5 -11.5t5.5 -15.5q0 -21 -18.5 -32t-40.5 -13q-3 -1 -6.5 -1h-6.5q-15 0 -27 2t-23 5q-12 3 -24 5t-27 2t-27 -2t-24 -5q-1 0 -2.5 -0.5
t-2.5 -0.5q-13 -3 -27.5 -5t-34.5 -2q-51 0 -86.5 36.5t-35.5 88.5q0 45 32 73t70 48q14 8 27 14.5t25 13.5q7 4 13 7.5t11 7.5q8 5 9 9t-6 4h-3.5t-5.5 -1q-10 -3 -24.5 -4.5t-30.5 -1.5h-2.5h-3.5h-4h-4q-32 1 -58.5 13.5t-26.5 42.5q0 31 24 50.5t54 19.5q12 0 22 -1
t20 -3h1.5h1.5q11 -1 22.5 -2.5t24.5 -1.5v0zM145 350q0 -15 14 -19t30 -4h5.5h4.5h4h4q18 0 34.5 1t27.5 8l0.5 0.5t1.5 0.5h1.5h0.5q2 0 3.5 -0.5t3.5 -1.5q5 -3 10 -9t6 -12q1 -2 1 -3v-2q0 -4 -1.5 -7.5t-6.5 -5.5q-12 -7 -28.5 -16t-32.5 -19q-18 -11 -34.5 -22.5
t-28.5 -22.5q-11 -11 -17.5 -21t-6.5 -19q0 -28 21 -48t49 -20q27 0 49 8t34 17q6 5 9.5 9.5t3.5 7.5q2 29 2 65.5v88.5q0 49 -27 62.5t-61 13.5h-2.5h-2.5h-8.5h-8.5q-20 -1 -37 -6t-17 -24v0zM244 647q31 0 53.5 -22t22.5 -53t-22 -54t-54 -23q-31 0 -53.5 22t-22.5 53
q0 32 22.5 54.5t53.5 22.5v0zM202 570q0 -17 12.5 -30t29.5 -13t29.5 13t12.5 30t-12.5 29.5t-29.5 12.5t-29.5 -12.5t-12.5 -29.5v0z" />
    <glyph glyph-name="ccedilla" unicode="&#xe7;" horiz-adv-x="421" 
d="M241 -42q0 1 3.5 1h9.5q8 0 19 -1t22 -5q21 -7 38 -26t17 -59q0 -43 -28.5 -63t-61.5 -22h-3.5h-2.5q-33 0 -59 15.5t-26 42.5v1.5v1.5q1 7 2.5 10.5t3.5 4.5q0 1 0.5 1h1.5q2 0 3 -1.5t1 -3.5q1 -22 17.5 -35t35.5 -13q20 1 35.5 15t15.5 46q0 29 -12.5 42t-27.5 17
q-6 1 -10.5 1.5t-9.5 0.5q-4 0 -7.5 -0.5t-6.5 -0.5t-5 -0.5t-3 -0.5h-1v0l0.5 6t1.5 14v9.5t1 9.5v10v9q0 8 -0.5 13t-2.5 5q-3 0 -5.5 -0.5t-5.5 -1.5q-2 0 -5 -0.5t-6 -0.5q-8 -2 -16.5 -3.5t-19.5 -1.5q-67 0 -101 56t-41 124q-1 9 -1.5 18.5t-0.5 18.5q0 105 65 156.5
t151 51.5q6 0 11.5 -0.5t11.5 -0.5q40 -4 73.5 -23t33.5 -60q0 -35 -22.5 -52.5t-51.5 -17.5q-3 0 -6.5 0.5t-7.5 0.5q-13 2 -23.5 6.5t-10.5 12.5q0 5 -2.5 6t-6.5 2h-3t-3 -1q-2 0 -3 -0.5t-3 -0.5l-4 -2l-2 -1q-2 2 -3.5 4.5t-1.5 5.5q-1 2 -2 4.5t-1 4.5q0 13 9.5 22.5
t21.5 9.5q3 0 6 -1l6 -2l6 -2t6 -1q8 0 10 3t2 7q0 16 -15 23t-32 8q-3 1 -6.5 1h-6.5q-62 0 -91 -38t-29 -100q0 -47 21.5 -76t47.5 -43q11 -5 21.5 -8t19.5 -3h25h21h22h24q9 0 15.5 4.5t13.5 10.5l0.5 0.5l0.5 0.5q7 6 14.5 11t17.5 5q14 0 21.5 -14.5t7.5 -34.5v-1.5
v-1.5q0 -5 -0.5 -10.5t-1.5 -10.5q-6 -27 -26.5 -49.5t-56.5 -22.5q-9 0 -16.5 1.5t-14.5 3.5q-3 0 -6 0.5t-6 1.5q-1 0 -2 -3t-1 -8v-4.5v-5.5q1 -3 1 -5.5t1 -5.5q0 -5 0.5 -8l0.5 -3v-1z" />
    <glyph glyph-name="eacute" unicode="&#xe9;" horiz-adv-x="421" 
d="M210 112h18h16h16h18q12 0 23 8t21 18l18 18t14 8q15 0 23 -14t8 -35q0 -8 -1 -16.5t-4 -17.5q-8 -31 -32 -56.5t-64 -25.5q-9 0 -16.5 1t-14.5 3h-0.5h-1.5q-6 2 -13 3.5t-16 1.5h-0.5h-1.5h-1.5h-0.5q-10 0 -18.5 -1.5t-16.5 -3.5h-1h-1q-8 -2 -17 -3t-20 -1
q-67 0 -101 56t-41 124q-1 9 -1.5 18.5t-0.5 18.5q0 105 50 156.5t136 51.5h22h18h28h42q33 0 54.5 -19.5t21.5 -48.5q0 -32 -32.5 -56t-71.5 -46l-3 -1.5t-2 -1.5q-41 -23 -75 -48t-34 -59q0 -19 13 -25.5t43 -6.5v0zM247 291q19 12 22 24t3 23q0 23 -18.5 32.5t-40.5 10.5
q-5 1 -9 1h-8q-62 0 -91 -39t-29 -101q0 -6 1 -14.5t2 -16.5q3 -17 8 -31t12 -14q9 0 13 6.5t7 15.5q1 2 1.5 3.5t1.5 3.5q2 6 4.5 11.5t7.5 9.5q31 28 59 43.5t48 27.5q1 1 3 2t3 2v0zM230 652q5 0 9.5 -2t9.5 -7q5 -4 7 -8.5t2 -9.5v-0.5v-0.5v-0.5v-0.5q0 -13 -14.5 -24
t-31.5 -20t-31.5 -14l-14.5 -5l5 14.5t14 31.5q8 17 20 31.5t25 14.5v0z" />
    <glyph glyph-name="egrave" unicode="&#xe8;" horiz-adv-x="421" 
d="M210 112h18h16h16h18q12 0 23 8t21 18l18 18t14 8q15 0 23 -14t8 -35q0 -8 -1 -16.5t-4 -17.5q-8 -31 -32 -56.5t-64 -25.5q-9 0 -16.5 1t-14.5 3h-0.5h-1.5q-6 2 -13 3.5t-16 1.5h-0.5h-1.5h-1.5h-0.5q-10 0 -18.5 -1.5t-16.5 -3.5h-1h-1q-8 -2 -17 -3t-20 -1
q-67 0 -101 56t-41 124q-1 9 -1.5 18.5t-0.5 18.5q0 105 50 156.5t136 51.5h22h18h28h42q33 0 54.5 -19.5t21.5 -48.5q0 -32 -32.5 -56t-71.5 -46l-3 -1.5t-2 -1.5q-41 -23 -75 -48t-34 -59q0 -19 13 -25.5t43 -6.5v0zM247 291q19 12 22 24t3 23q0 23 -18.5 32.5t-40.5 10.5
q-5 1 -9 1h-8q-62 0 -91 -39t-29 -101q0 -6 1 -14.5t2 -16.5q3 -17 8 -31t12 -14q9 0 13 6.5t7 15.5q1 2 1.5 3.5t1.5 3.5q2 6 4.5 11.5t7.5 9.5q31 28 59 43.5t48 27.5q1 1 3 2t3 2v0zM161 625q0 5 2.5 9.5t6.5 8.5q5 5 10 7t9 2q14 0 25.5 -14.5t20.5 -31.5
q8 -17 13 -31.5l5 -14.5l-14.5 5t-31.5 14t-31.5 21t-14.5 25v0v0v0z" />
    <glyph glyph-name="ecircumflex" unicode="&#xea;" horiz-adv-x="421" 
d="M210 112h18h16h16h18q12 0 23 8t21 18l18 18t14 8q15 0 23 -14t8 -35q0 -8 -1 -16.5t-4 -17.5q-8 -31 -32 -56.5t-64 -25.5q-9 0 -16.5 1t-14.5 3h-0.5h-1.5q-6 2 -13 3.5t-16 1.5h-0.5h-1.5h-1.5h-0.5q-10 0 -18.5 -1.5t-16.5 -3.5h-1h-1q-8 -2 -17 -3t-20 -1
q-67 0 -101 56t-41 124q-1 9 -1.5 18.5t-0.5 18.5q0 105 50 156.5t136 51.5h22h18h28h42q33 0 54.5 -19.5t21.5 -48.5q0 -32 -32.5 -56t-71.5 -46l-3 -1.5t-2 -1.5q-41 -23 -75 -48t-34 -59q0 -19 13 -25.5t43 -6.5v0zM247 291q19 12 22 24t3 23q0 23 -18.5 32.5t-40.5 10.5
q-5 1 -9 1h-8q-62 0 -91 -39t-29 -101q0 -6 1 -14.5t2 -16.5q3 -17 8 -31t12 -14q9 0 13 6.5t7 15.5q1 2 1.5 3.5t1.5 3.5q2 6 4.5 11.5t7.5 9.5q31 28 59 43.5t48 27.5q1 1 3 2t3 2v0zM211 650l139 -137l-17 12t-40 27q-4 3 -8.5 6t-9.5 6q-19 11 -36.5 19.5t-27.5 8.5
t-28 -8.5t-37 -19.5q-4 -3 -8.5 -6t-9.5 -5q-23 -15 -40 -27.5l-17 -12.5l140 137v0z" />
    <glyph glyph-name="edieresis" unicode="&#xeb;" horiz-adv-x="421" 
d="M210 112h18h16h16h18q12 0 23 8t21 18l18 18t14 8q15 0 23 -14t8 -35q0 -8 -1 -16.5t-4 -17.5q-8 -31 -32 -56.5t-64 -25.5q-9 0 -16.5 1t-14.5 3h-0.5h-1.5q-6 2 -13 3.5t-16 1.5h-0.5h-1.5h-1.5h-0.5q-10 0 -18.5 -1.5t-16.5 -3.5h-1h-1q-8 -2 -17 -3t-20 -1
q-67 0 -101 56t-41 124q-1 9 -1.5 18.5t-0.5 18.5q0 105 50 156.5t136 51.5h22h18h28h42q33 0 54.5 -19.5t21.5 -48.5q0 -32 -32.5 -56t-71.5 -46l-3 -1.5t-2 -1.5q-41 -23 -75 -48t-34 -59q0 -19 13 -25.5t43 -6.5v0zM247 291q19 12 22 24t3 23q0 23 -18.5 32.5t-40.5 10.5
q-5 1 -9 1h-8q-62 0 -91 -39t-29 -101q0 -6 1 -14.5t2 -16.5q3 -17 8 -31t12 -14q9 0 13 6.5t7 15.5q1 2 1.5 3.5t1.5 3.5q2 6 4.5 11.5t7.5 9.5q31 28 59 43.5t48 27.5q1 1 3 2t3 2v0zM191 577v-1.5v-1.5q-1 -15 -12 -27.5t-32 -12.5t-32 13.5t-11 29.5v0.5v0.5v0.5v0.5
v1.5v1.5q1 15 11.5 27.5t31.5 12.5q23 0 33.5 -14t10.5 -31v0zM337 577v-1.5v-1.5q-1 -15 -12 -27.5t-32 -12.5t-32 13.5t-11 29.5v0.5v0.5v0.5v0.5v1.5v1.5q1 15 11.5 27.5t31.5 12.5q23 0 33.5 -14t10.5 -31v0z" />
    <glyph glyph-name="iacute" unicode="&#xed;" horiz-adv-x="270" 
d="M188 430h3.5h2.5q10 0 17.5 -3t7.5 -11t-5 -14.5t-11 -11.5q-7 -6 -12 -10.5t-5 -7.5v-148v-132q0 -12 8 -20.5t17 -15.5q3 -2 6.5 -4.5t6.5 -5.5q5 -4 8.5 -8.5t3.5 -9.5q0 -10 -12 -16t-27 -8q-5 -1 -10 -1.5t-9 -0.5q-7 0 -12.5 0.5t-10.5 1.5t-10.5 1.5t-12.5 0.5
q-6 0 -11 -0.5t-10 -1.5t-10 -1.5t-11 -0.5q-4 0 -8 0.5t-9 1.5q-13 2 -24 8t-11 16v1.5t1 1.5q1 5 8 10t15 11q9 7 16.5 15t7.5 19v48.5v47.5v90v100q0 4 -5 8.5t-11 9.5q-7 6 -12 12.5t-5 13.5t6 10t13 4h3.5h2.5h25.5h27.5h30h27v0zM176 627q5 0 9.5 -2t9.5 -7
q5 -4 7 -8.5t2 -9.5q0 -13 -14.5 -25t-31.5 -21t-31.5 -14l-14.5 -5l5 14.5t14 31.5q8 17 20 31.5t25 14.5v0z" />
    <glyph glyph-name="igrave" unicode="&#xec;" horiz-adv-x="267" 
d="M155 430h2.5h2.5q9 0 17 -2.5t8 -11.5q0 -8 -5 -14.5t-11 -11.5q-6 -6 -11 -10.5t-5 -7.5v-148v-132q0 -12 8 -20.5t17 -15.5q3 -2 6.5 -4.5t6.5 -5.5q5 -4 8.5 -8.5t3.5 -9.5q0 -10 -12 -16t-27 -8q-5 -1 -10 -1.5t-9 -0.5q-7 0 -12.5 0.5t-10.5 1.5t-10.5 1.5
t-12.5 0.5q-6 0 -11.5 -0.5t-9.5 -1.5h-1h-1q-4 -1 -8.5 -1.5t-10.5 -0.5q-4 0 -8 0.5t-9 1.5q-13 2 -24 8t-11 16v1.5t1 1.5q1 5 8 10t15 11q9 7 16.5 15t7.5 19v48.5v47.5v90v100q0 4 -5 8.5t-11 9.5q-7 6 -12 12.5t-5 13.5q0 8 7 11t15 3h1.5h1.5h26h29h29h26v0zM49 625
q0 5 2.5 9.5t6.5 8.5q5 5 10 7t9 2q14 0 25.5 -14.5t20.5 -31.5q8 -17 13 -31.5l5 -14.5l-14.5 5t-31.5 14t-31.5 21t-14.5 25v0v0v0z" />
    <glyph glyph-name="icircumflex" unicode="&#xee;" horiz-adv-x="270" 
d="M188 430h3.5h2.5q10 0 17.5 -3t7.5 -11t-5 -14.5t-11 -11.5q-7 -6 -12 -10.5t-5 -7.5v-148v-132q0 -12 8 -20.5t17 -15.5q3 -2 6.5 -4.5t6.5 -5.5q5 -4 8.5 -8.5t3.5 -9.5q0 -10 -12 -16t-27 -8q-5 -1 -10 -1.5t-9 -0.5q-7 0 -12.5 0.5t-10.5 1.5t-10.5 1.5t-12.5 0.5
q-6 0 -11 -0.5t-10 -1.5t-10 -1.5t-11 -0.5q-4 0 -8 0.5t-9 1.5q-13 2 -24 8t-11 16v1.5t1 1.5q1 5 8 10t15 11q9 7 16.5 15t7.5 19v48.5v47.5v90v100q0 4 -5 8.5t-11 9.5q-7 6 -12 12.5t-5 13.5t6 10t13 4h3.5h2.5h25.5h27.5h30h27v0zM142 650l139 -137l-17 12t-40 27
q-4 3 -8.5 6t-9.5 6q-19 11 -36.5 19.5t-27.5 8.5t-27.5 -8.5t-36.5 -19.5q-5 -3 -9.5 -6t-9.5 -5q-23 -15 -39.5 -27.5l-16.5 -12.5l139 137v0z" />
    <glyph glyph-name="idieresis" unicode="&#xef;" horiz-adv-x="267" 
d="M155 430h2.5h2.5q9 0 17 -2.5t8 -11.5q0 -8 -5 -14.5t-11 -11.5q-6 -6 -11 -10.5t-5 -7.5v-148v-132q0 -12 8 -20.5t17 -15.5q3 -2 6.5 -4.5t6.5 -5.5q5 -4 8.5 -8.5t3.5 -9.5q0 -10 -12 -16t-27 -8q-5 -1 -10 -1.5t-9 -0.5q-7 0 -12.5 0.5t-10.5 1.5t-10.5 1.5
t-12.5 0.5q-6 0 -11.5 -0.5t-9.5 -1.5h-1h-1q-4 -1 -8.5 -1.5t-10.5 -0.5q-4 0 -8 0.5t-9 1.5q-13 2 -24 8t-11 16v1.5t1 1.5q1 5 8 10t15 11q9 7 16.5 15t7.5 19v48.5v47.5v90v100q0 4 -5 8.5t-11 9.5q-7 6 -12 12.5t-5 13.5q0 8 7 11t15 3h1.5h1.5h26h29h29h26v0zM79 577
v-1.5v-1.5q-1 -15 -12 -27.5t-32 -12.5t-31.5 13.5t-10.5 29.5v0.5v0.5v0.5v0.5v1.5v1.5q1 15 11 27.5t31 12.5q23 0 33.5 -14t10.5 -31v0zM225 577v-1.5v-1.5q-1 -15 -12 -27.5t-32 -12.5t-32 13.5t-11 29.5v0.5v0.5v0.5v0.5v1.5v1.5q1 15 11.5 27.5t31.5 12.5
q23 0 33.5 -14t10.5 -31v0z" />
    <glyph glyph-name="ntilde" unicode="&#xf1;" horiz-adv-x="472" 
d="M392 92q0 -11 6.5 -19.5t14.5 -15.5l5.5 -5.5t5.5 -4.5q4 -5 7 -9.5t3 -9.5q0 -13 -14 -19t-31 -7h-2.5h-2.5q-7 0 -12.5 0.5t-10.5 1.5t-10.5 1.5t-12.5 0.5q-6 0 -11 -0.5t-10 -1.5t-10 -1.5t-11 -0.5q-4 0 -8 0.5t-9 1.5q-13 2 -24 8t-11 16v1.5t1 1.5q1 5 8 10t15 11
q9 7 16.5 15t7.5 19v25v26v114.5v55.5t-2 7.5t-5 8.5q-6 9 -17 16.5t-25 7.5q-9 0 -18.5 -3.5t-19.5 -12.5q-5 -4 -11 -6.5t-13 -4.5q-3 -1 -6 -1.5t-6 -1.5q-9 -2 -15 -5t-6 -8v-39v-66v-73v-34q0 -12 8 -20.5t17 -15.5q3 -2 6.5 -4.5t6.5 -5.5q5 -4 8.5 -8.5t3.5 -9.5
q0 -10 -12 -16t-27 -8q-5 -1 -10 -1.5t-9 -0.5q-7 0 -12.5 0.5t-10.5 1.5t-10.5 1.5t-12.5 0.5q-6 0 -11 -0.5t-10 -1.5t-10 -1.5t-11 -0.5q-4 0 -8 0.5t-9 1.5q-13 2 -24 8t-11 16v1.5t1 1.5q1 5 8 10t15 11q9 7 16.5 15t7.5 19v54.5v50.5v78.5v90.5q0 4 -5 8.5t-11 9.5
q-7 6 -12 12.5t-5 13.5t6 10t13 4h3.5h2.5h25.5h27.5h30h27h5.5h5.5q9 -1 16.5 -3.5t7.5 -10.5q0 -5 -3 -7.5t-7 -5.5q-2 -1 -4.5 -2.5t-4.5 -2.5q-6 -4 -11 -10t-7 -16l1 -1t3 -2q2 -2 5 -3t6 -1q5 0 10.5 3t11.5 11q14 19 30 31.5t32 18.5q11 5 21.5 7t20.5 2
q42 0 72.5 -27t30.5 -59v-49v-101v-52v-46v0zM145 640q20 0 37 -7.5t33 -16.5q1 -1 2 -1.5t2 -1.5q15 -8 30 -14.5t33 -6.5v0h1v0v0q16 0 34.5 7t40.5 25l29 -42q-31 -22 -56 -30.5t-45 -8.5q-22 0 -40 7.5t-34 16.5q-3 2 -7 3.5t-7 3.5q-13 7 -25.5 11.5t-26.5 4.5t-30 -6
t-36 -20l-3 5.5t-7 12.5q0 1 -0.5 1.5l-1.5 1.5q-3 8 -6 14t-2 7q26 20 46.5 27t38.5 7v0z" />
    <glyph glyph-name="oacute" unicode="&#xf3;" horiz-adv-x="436" 
d="M390 217q0 -79 -37 -145t-99 -66q-8 0 -15 1t-13 2t-13 2t-15 1q-9 0 -15.5 -1t-13.5 -2t-13.5 -2t-15.5 -1q-61 0 -98 65t-37 144v2.5v3.5q1 79 46 145.5t147 65.5q101 0 145.5 -66.5t46.5 -145.5v-1.5v-1.5v0zM87 264q0 -49 27 -90.5t82 -41.5q56 0 84.5 40.5
t28.5 89.5q1 50 -27.5 91t-85.5 41q-54 0 -81 -40.5t-28 -89.5v0zM230 652q5 0 9.5 -2t9.5 -7q5 -4 7 -8.5t2 -9.5v-0.5v-0.5v-0.5v-0.5q0 -13 -14.5 -24t-31.5 -20t-31.5 -14l-14.5 -5l5 14.5t14 31.5q8 17 20 31.5t25 14.5v0z" />
    <glyph glyph-name="ograve" unicode="&#xf2;" horiz-adv-x="436" 
d="M390 217q0 -79 -37 -145t-99 -66q-8 0 -15 1t-13 2t-13 2t-15 1q-9 0 -15.5 -1t-13.5 -2t-13.5 -2t-15.5 -1q-61 0 -98 65t-37 144v2.5v3.5q1 79 46 145.5t147 65.5q101 0 145.5 -66.5t46.5 -145.5v-1.5v-1.5v0zM87 264q0 -49 27 -90.5t82 -41.5q56 0 84.5 40.5
t28.5 89.5q1 50 -27.5 91t-85.5 41q-54 0 -81 -40.5t-28 -89.5v0zM161 625q0 5 2.5 9.5t6.5 8.5q5 5 10 7t9 2q14 0 25.5 -14.5t20.5 -31.5q8 -17 13 -31.5l5 -14.5l-14.5 5t-31.5 14t-31.5 21t-14.5 25v0v0v0z" />
    <glyph glyph-name="ocircumflex" unicode="&#xf4;" horiz-adv-x="436" 
d="M390 217q0 -79 -37 -145t-99 -66q-8 0 -15 1t-13 2t-13 2t-15 1q-9 0 -15.5 -1t-13.5 -2t-13.5 -2t-15.5 -1q-61 0 -98 65t-37 144v2.5v3.5q1 79 46 145.5t147 65.5q101 0 145.5 -66.5t46.5 -145.5v-1.5v-1.5v0zM87 264q0 -49 27 -90.5t82 -41.5q56 0 84.5 40.5
t28.5 89.5q1 50 -27.5 91t-85.5 41q-54 0 -81 -40.5t-28 -89.5v0zM197 650l139 -137l-17 12t-40 27q-4 3 -8.5 6t-9.5 6q-19 11 -36.5 19.5t-27.5 8.5t-28 -8.5t-37 -19.5q-4 -3 -8.5 -6t-9.5 -5q-23 -15 -40 -27.5l-17 -12.5l140 137v0z" />
    <glyph glyph-name="odieresis" unicode="&#xf6;" horiz-adv-x="436" 
d="M390 217q0 -79 -37 -145t-99 -66q-8 0 -15 1t-13 2t-13 2t-15 1q-9 0 -15.5 -1t-13.5 -2t-13.5 -2t-15.5 -1q-61 0 -98 65t-37 144v2.5v3.5q1 79 46 145.5t147 65.5q101 0 145.5 -66.5t46.5 -145.5v-1.5v-1.5v0zM87 264q0 -49 27 -90.5t82 -41.5q56 0 84.5 40.5
t28.5 89.5q1 50 -27.5 91t-85.5 41q-54 0 -81 -40.5t-28 -89.5v0zM172 577v-1.5v-1.5q-1 -15 -11.5 -27.5t-31.5 -12.5q-22 0 -33 14t-11 31v1.5v1.5q1 15 12 27.5t32 12.5t32 -13t11 -30v-0.5v-0.5v-0.5v-0.5v0zM318 577v-1.5v-1.5q-1 -15 -11.5 -27.5t-31.5 -12.5
q-22 0 -33 14t-11 31v1.5v1.5q1 15 12 27.5t32 12.5t32 -13t11 -30v-0.5v-0.5v-0.5v-0.5v0z" />
    <glyph glyph-name="otilde" unicode="&#xf5;" horiz-adv-x="436" 
d="M390 217q0 -79 -37 -145t-99 -66q-8 0 -15 1t-13 2t-13 2t-15 1q-9 0 -15.5 -1t-13.5 -2t-13.5 -2t-15.5 -1q-61 0 -98 65t-37 144v2.5v3.5q1 79 46 145.5t147 65.5q101 0 145.5 -66.5t46.5 -145.5v-1.5v-1.5v0zM87 264q0 -49 27 -90.5t82 -41.5q56 0 84.5 40.5
t28.5 89.5q1 50 -27.5 91t-85.5 41q-54 0 -81 -40.5t-28 -89.5v0zM135 640q20 0 37 -7.5t33 -16.5q1 -1 2.5 -1.5t2.5 -1.5q15 -8 30 -14.5t33 -6.5v0h1v0v0q16 0 34 7t40 25l30 -42q-31 -22 -56 -30.5t-45 -8.5q-22 0 -40 7.5t-34 16.5q-3 2 -7 3.5t-7 3.5
q-13 7 -25.5 11.5t-26.5 4.5t-30 -6t-36 -20q-1 0 -4 5t-6 12q-1 1 -1.5 2t-0.5 2q-4 8 -6.5 14t-1.5 7q26 20 46.5 27t37.5 7v0z" />
    <glyph glyph-name="uacute" unicode="&#xfa;" horiz-adv-x="449" 
d="M27 360q0 9 -6.5 14t-14.5 9q-1 0 -1.5 0.5l-0.5 0.5q-6 4 -12 8.5t-6 11.5q0 13 13.5 16.5t30.5 3.5h2.5h2.5q7 0 13.5 0.5t12.5 1.5q6 0 12 0.5t11 0.5h5.5h4.5q1 0 2.5 -0.5t2.5 -0.5q12 -2 20 -10t8 -20v-49v-54v-113.5v-54.5t1.5 -7t3.5 -8q6 -9 17.5 -16.5
t26.5 -7.5q9 0 18 3.5t19 11.5q5 4 11 6.5t13 4.5q3 1 6.5 1.5t6.5 1.5q9 2 15 5t6 8v40.5v69.5v76.5v35.5q0 11 -8 18t-17 12q-2 1 -3.5 2t-3.5 2q-7 4 -12.5 9t-5.5 11q0 10 12.5 16.5t28.5 8.5q4 0 8.5 0.5t8.5 0.5q7 0 12.5 -0.5t10.5 -1.5t10.5 -1.5t12.5 -0.5
q6 0 11 0.5t10 1.5t10 1.5t11 0.5q3 0 6.5 -0.5t7.5 -1.5q12 -2 22 -8.5t10 -15.5q0 -4 -4 -7.5t-10 -5.5q-1 -1 -3 -2l-4 -2q-8 -4 -14.5 -9t-6.5 -14v-42v-42v-99v-109q0 -4 5 -8.5t12 -9.5q6 -5 11 -11.5t5 -13.5t-6 -10.5t-13 -4.5h-3.5h-2.5h-25.5h-27.5h-30h-27h-6h-6
q-9 1 -16.5 4t-7.5 11q0 4 2.5 7t7.5 5q2 1 4.5 2.5t5.5 3.5q5 3 10.5 9t7.5 16l-1 1l-3 3q-2 1 -5 2t-7 1t-10 -3t-12 -11q-15 -20 -31 -32.5t-33 -18.5q-10 -4 -19.5 -6t-19.5 -2q-42 0 -72.5 27t-30.5 60v50v106v59.5v51.5v0zM230 652q5 0 9.5 -2t9.5 -7q5 -4 7 -8.5
t2 -9.5v-0.5v-0.5v-0.5v-0.5q0 -13 -14.5 -24t-31.5 -20t-31.5 -14l-14.5 -5l5 14.5t14 31.5q8 17 20 31.5t25 14.5v0z" />
    <glyph glyph-name="ugrave" unicode="&#xf9;" horiz-adv-x="449" 
d="M27 360q0 9 -6.5 14t-14.5 9q-1 0 -1.5 0.5l-0.5 0.5q-6 4 -12 8.5t-6 11.5q0 13 13.5 16.5t30.5 3.5h2.5h2.5q7 0 13.5 0.5t12.5 1.5q6 0 12 0.5t11 0.5h5.5h4.5q1 0 2.5 -0.5t2.5 -0.5q12 -2 20 -10t8 -20v-49v-54v-113.5v-54.5t1.5 -7t3.5 -8q6 -9 17.5 -16.5
t26.5 -7.5q9 0 18 3.5t19 11.5q5 4 11 6.5t13 4.5q3 1 6.5 1.5t6.5 1.5q9 2 15 5t6 8v40.5v69.5v76.5v35.5q0 11 -8 18t-17 12q-2 1 -3.5 2t-3.5 2q-7 4 -12.5 9t-5.5 11q0 10 12.5 16.5t28.5 8.5q4 0 8.5 0.5t8.5 0.5q7 0 12.5 -0.5t10.5 -1.5t10.5 -1.5t12.5 -0.5
q6 0 11 0.5t10 1.5t10 1.5t11 0.5q3 0 6.5 -0.5t7.5 -1.5q12 -2 22 -8.5t10 -15.5q0 -4 -4 -7.5t-10 -5.5q-1 -1 -3 -2l-4 -2q-8 -4 -14.5 -9t-6.5 -14v-42v-42v-99v-109q0 -4 5 -8.5t12 -9.5q6 -5 11 -11.5t5 -13.5t-6 -10.5t-13 -4.5h-3.5h-2.5h-25.5h-27.5h-30h-27h-6h-6
q-9 1 -16.5 4t-7.5 11q0 4 2.5 7t7.5 5q2 1 4.5 2.5t5.5 3.5q5 3 10.5 9t7.5 16l-1 1l-3 3q-2 1 -5 2t-7 1t-10 -3t-12 -11q-15 -20 -31 -32.5t-33 -18.5q-10 -4 -19.5 -6t-19.5 -2q-42 0 -72.5 27t-30.5 60v50v106v59.5v51.5v0zM161 625q0 5 2.5 9.5t6.5 8.5q5 5 10 7t9 2
q14 0 25.5 -14.5t20.5 -31.5q8 -17 13 -31.5l5 -14.5l-14.5 5t-31.5 14t-31.5 21t-14.5 25v0v0v0z" />
    <glyph glyph-name="ucircumflex" unicode="&#xfb;" horiz-adv-x="449" 
d="M27 360q0 9 -6.5 14t-14.5 9q-1 0 -1.5 0.5l-0.5 0.5q-6 4 -12 8.5t-6 11.5q0 13 13.5 16.5t30.5 3.5h2.5h2.5q7 0 13.5 0.5t12.5 1.5q6 0 12 0.5t11 0.5h5.5h4.5q1 0 2.5 -0.5t2.5 -0.5q12 -2 20 -10t8 -20v-49v-54v-113.5v-54.5t1.5 -7t3.5 -8q6 -9 17.5 -16.5
t26.5 -7.5q9 0 18 3.5t19 11.5q5 4 11 6.5t13 4.5q3 1 6.5 1.5t6.5 1.5q9 2 15 5t6 8v40.5v69.5v76.5v35.5q0 11 -8 18t-17 12q-2 1 -3.5 2t-3.5 2q-7 4 -12.5 9t-5.5 11q0 10 12.5 16.5t28.5 8.5q4 0 8.5 0.5t8.5 0.5q7 0 12.5 -0.5t10.5 -1.5t10.5 -1.5t12.5 -0.5
q6 0 11 0.5t10 1.5t10 1.5t11 0.5q3 0 6.5 -0.5t7.5 -1.5q12 -2 22 -8.5t10 -15.5q0 -4 -4 -7.5t-10 -5.5q-1 -1 -3 -2l-4 -2q-8 -4 -14.5 -9t-6.5 -14v-42v-42v-99v-109q0 -4 5 -8.5t12 -9.5q6 -5 11 -11.5t5 -13.5t-6 -10.5t-13 -4.5h-3.5h-2.5h-25.5h-27.5h-30h-27h-6h-6
q-9 1 -16.5 4t-7.5 11q0 4 2.5 7t7.5 5q2 1 4.5 2.5t5.5 3.5q5 3 10.5 9t7.5 16l-1 1l-3 3q-2 1 -5 2t-7 1t-10 -3t-12 -11q-15 -20 -31 -32.5t-33 -18.5q-10 -4 -19.5 -6t-19.5 -2q-42 0 -72.5 27t-30.5 60v50v106v59.5v51.5v0zM187 650l139 -137l-17 12t-40 27
q-4 3 -8.5 6t-9.5 6q-19 11 -36.5 19.5t-27.5 8.5t-27.5 -8.5t-36.5 -19.5q-5 -3 -9.5 -6t-9.5 -5q-23 -15 -39.5 -27.5l-16.5 -12.5l139 137v0z" />
    <glyph glyph-name="udieresis" unicode="&#xfc;" horiz-adv-x="449" 
d="M27 360q0 9 -6.5 14t-14.5 9q-1 0 -1.5 0.5l-0.5 0.5q-6 4 -12 8.5t-6 11.5q0 13 13.5 16.5t30.5 3.5h2.5h2.5q7 0 13.5 0.5t12.5 1.5q6 0 12 0.5t11 0.5h5.5h4.5q1 0 2.5 -0.5t2.5 -0.5q12 -2 20 -10t8 -20v-49v-54v-113.5v-54.5t1.5 -7t3.5 -8q6 -9 17.5 -16.5
t26.5 -7.5q9 0 18 3.5t19 11.5q5 4 11 6.5t13 4.5q3 1 6.5 1.5t6.5 1.5q9 2 15 5t6 8v40.5v69.5v76.5v35.5q0 11 -8 18t-17 12q-2 1 -3.5 2t-3.5 2q-7 4 -12.5 9t-5.5 11q0 10 12.5 16.5t28.5 8.5q4 0 8.5 0.5t8.5 0.5q7 0 12.5 -0.5t10.5 -1.5t10.5 -1.5t12.5 -0.5
q6 0 11 0.5t10 1.5t10 1.5t11 0.5q3 0 6.5 -0.5t7.5 -1.5q12 -2 22 -8.5t10 -15.5q0 -4 -4 -7.5t-10 -5.5q-1 -1 -3 -2l-4 -2q-8 -4 -14.5 -9t-6.5 -14v-42v-42v-99v-109q0 -4 5 -8.5t12 -9.5q6 -5 11 -11.5t5 -13.5t-6 -10.5t-13 -4.5h-3.5h-2.5h-25.5h-27.5h-30h-27h-6h-6
q-9 1 -16.5 4t-7.5 11q0 4 2.5 7t7.5 5q2 1 4.5 2.5t5.5 3.5q5 3 10.5 9t7.5 16l-1 1l-3 3q-2 1 -5 2t-7 1t-10 -3t-12 -11q-15 -20 -31 -32.5t-33 -18.5q-10 -4 -19.5 -6t-19.5 -2q-42 0 -72.5 27t-30.5 60v50v106v59.5v51.5v0zM163 577v-1.5v-1.5q-1 -15 -12 -27.5
t-32 -12.5t-32 13.5t-11 29.5v0.5v0.5v0.5v0.5v1.5v1.5q1 15 11.5 27.5t31.5 12.5q23 0 33.5 -14t10.5 -31v0zM309 577v-1.5v-1.5q-1 -15 -12 -27.5t-32 -12.5t-32 13.5t-11 29.5v0.5v0.5v0.5v0.5v1.5v1.5q1 15 11.5 27.5t31.5 12.5q23 0 33.5 -14t10.5 -31v0z" />
    <glyph glyph-name="dagger" unicode="&#x2020;" horiz-adv-x="300" 
d="M119 380h-7.5t-15.5 -1q-9 0 -16.5 -0.5l-7.5 -0.5q0 -17 -6 -31.5t-17 -14.5q-6 0 -9.5 2.5t-5.5 5.5t-2.5 5.5l-0.5 2.5q5 6 6.5 11.5t1.5 9.5t-1 7.5t-2 7.5q-1 1 -1.5 3t-0.5 3q0 2 -0.5 3.5t-0.5 3.5q0 12 6.5 20t14.5 8q3 0 6 -0.5t6 -1.5q1 -1 2.5 -1.5t2.5 -0.5
q2 0 9.5 -0.5t16.5 -0.5h17.5h8.5q8 0 7 2.5t-4 5.5v0l-1 1t-2 2.5t-1 2.5q0 9 -0.5 23.5t-1.5 30.5q-1 5 -1 10t-1 10q-1 17 -2 29t-1 14q-1 5 -2 8.5t-3 6.5l-2 4t-2 3q-1 2 -2.5 4t-3.5 4q-1 2 -2 3.5t-1 2.5l-2 4t-4 4l1.5 2t4.5 4t7.5 4t10.5 2t10.5 -1t9.5 -2
q4 -1 8.5 -2t10.5 -1t11 1t9 2h1h1q4 1 8.5 2t9.5 1h2t2 -1q2 0 3.5 -1t3.5 -1q2 -2 3.5 -3l1.5 -1q-2 -1 -3.5 -4t-1.5 -6q-1 0 -1 -0.5v-0.5q0 -2 -0.5 -3.5t-1.5 -3.5q-1 -1 -2 -2.5t-2 -2.5q-1 -3 -3 -5.5t-3 -5.5q-3 -4 -5 -8t-3 -8q0 -1 -1 -12t-1 -26q-1 -6 -1 -12.5
t-1 -12.5q0 -16 -0.5 -30t-0.5 -23q0 -1 -1 -2t-2 -3h-0.5t-0.5 -1q-3 -3 -4 -5t7 -2h8.5h17.5t16.5 0.5t9.5 0.5q1 0 3 0.5t4 1.5t4.5 1.5t5.5 0.5q8 0 14.5 -8.5t6.5 -19.5q0 -3 -1 -6.5t-2 -7.5q-1 -3 -2 -6.5t-1 -7.5t2 -9.5t6 -12.5l-0.5 -2.5t-2.5 -4.5
q-2 -3 -5.5 -5.5t-9.5 -2.5q-11 0 -16.5 13t-6.5 29v1.5v1.5t-7.5 1.5t-16.5 0.5h-15.5h-7.5l-0.5 -0.5t-1.5 -0.5l-0.5 -0.5t-0.5 -1.5q-1 -1 -1.5 -2l-0.5 -1l-2 -63.5t-4 -143.5q-1 -5 -1 -10v-10q-2 -75 -4 -139.5t-2 -81.5q0 -13 -4 -19t-9 -6q-4 -1 -8 5t-4 20
q0 17 -2 81.5t-5 139.5v10v10q-3 79 -5.5 142.5l-2.5 63.5l-0.5 1l-1.5 3l-0.5 0.5t-0.5 1.5q-1 0 -1.5 0.5l-0.5 0.5v0z" />
    <glyph glyph-name="degree" horiz-adv-x="290" 
d="M149 487q31 0 53.5 -22t22.5 -53t-22 -54t-54 -23q-31 0 -53.5 22t-22.5 53q0 32 22.5 54.5t53.5 22.5v0zM107 410q0 -17 12.5 -30t29.5 -13t29.5 13t12.5 30t-12.5 29.5t-29.5 12.5t-29.5 -12.5t-12.5 -29.5v0z" />
    <glyph glyph-name="cent" unicode="&#xa2;" horiz-adv-x="421" 
d="M257 354q-1 -3 -3.5 -4t-6.5 -1q-3 -1 -6.5 -1.5t-6.5 -2.5q-6 -3 -11.5 -8.5t-8.5 -17.5l-2 -8t0 -8q0 -7 2.5 -10.5t5.5 -5.5q1 0 2 -0.5t2 -1.5q2 -2 3.5 -4t0.5 -6q-24 -64 -40 -108l-16 -44q6 -4 13 -7.5t15 -5.5q5 -1 10 -1.5t9 -0.5h25h21h22h24q9 0 16 4.5
t13 10.5q1 0 1 0.5t1 0.5q7 6 14.5 11t17.5 5q14 0 21.5 -14t7.5 -34q0 -6 -1 -13t-2 -13q-7 -27 -27 -49t-56 -22q-9 0 -16 1.5t-13 2.5q-1 0 -2 0.5l-1 0.5q-7 1 -14 2.5t-16 1.5h-0.5h-1.5h-1.5h-0.5q-10 0 -18 -1.5t-16 -2.5h-1h-1q-9 -2 -18 -3.5t-20 -1.5
q-14 0 -26.5 2.5t-23.5 7.5l-3.5 -8.5t-7.5 -22.5q0 -2 -0.5 -4t-1.5 -4q-1 -5 -7 -9t-14 -4q-9 0 -16 3.5t-7 8.5l-1 1l-2 2v0v0l-1.5 3l-0.5 1q14 25 20 41.5l6 16.5q-27 26 -40 66t-17 83q0 8 -0.5 16.5t-0.5 16.5q0 105 64 156.5t140 51.5l8.5 18.5t21.5 55.5q1 2 2.5 3
t3.5 1h0.5h0.5h0.5h0.5q2 0 4 -0.5t4 -1.5q6 -2 11 -6.5t7 -9.5q1 -1 1 -2v-2v-1.5v-1.5q-12 -36 -16.5 -45.5l-4.5 -9.5q4 0 8 -1l8 -2q31 -6 57 -24.5t26 -54.5q0 -35 -23 -52.5t-52 -17.5q-3 0 -6.5 0.5t-7.5 0.5q-13 2 -23.5 6.5t-10.5 12.5q0 5 -2.5 6t-6.5 2h-3t-3 -1
q-2 0 -3 -0.5t-3 -0.5l-4 -2l-2 -1q-2 2 -3.5 4.5t-1.5 5.5q-1 2 -2 4.5t-1 4.5q0 13 9.5 22.5t21.5 9.5q4 0 7 -1l6 -2q1 0 2 -0.5l1 -0.5q2 -1 4 -1.5t4 -0.5q8 0 10 3t2 7q0 11 -7 17.5t-18 9.5l-1 -2.5t-3 -5.5v-1v0q-1 -2 -2 -4.5t-1 -3.5v0zM222 376q-57 -3 -85 -40.5
t-28 -97.5q0 -29 8 -51t21 -37l84 226v0z" />
    <glyph glyph-name="sterling" unicode="&#xa3;" horiz-adv-x="547" 
d="M282 276q0 -7 -5 -13t-11 -11q-7 -5 -12 -9t-5 -8l-1 -11v-10v-22v-11.5v-10.5q0 -25 5 -35t11 -14q2 -1 3.5 -2t2.5 -2q4 -2 7 -5.5t3 -11.5q0 -12 -15 -19.5t-35 -14.5q-5 -1 -9.5 -2.5t-9.5 -3.5q-9 -2 -17 -5t-16 -7q-7 -3 -15.5 -7.5t-17.5 -9.5q-5 -3 -11 -6.5
t-11 -6.5q-12 -8 -21 -15.5t-9 -12.5t6 -7t19 -2q44 0 81 12.5t71 28.5q10 5 20 9.5t20 9.5q23 9 47 16t49 7h4t4 -1h2h2q3 -1 6 -1.5t6 -0.5q4 0 6 1.5t2 5.5q0 6 -1.5 11.5t-4.5 10.5q-5 9 -12 18t-15 18q-12 15 -22.5 32t-10.5 38q0 7 2.5 11.5t5.5 7.5l1 1h1q3 4 6 9.5
t3 14.5q0 4 -0.5 9t-2.5 11l8.5 -2.5t18.5 -9.5q10 -6 18.5 -16t8.5 -24q0 -3 -1 -6l-2 -6l-2 -6t-1 -6q0 -33 13.5 -61t29.5 -52q16 -25 29.5 -45.5t13.5 -36.5q0 -18 -28 -33t-61 -20q-8 -2 -16 -2.5t-15 -0.5q-21 0 -37.5 4t-31.5 9q-1 0 -1.5 0.5t-1.5 0.5
q-14 5 -29.5 8.5t-34.5 3.5q-20 0 -37 -4t-33 -9q-3 -1 -7 -2.5t-8 -2.5q-12 -3 -24 -5.5t-25 -2.5q-6 0 -13 0.5t-13 2.5q-27 5 -49.5 17t-22.5 26q0 7 7 17t18 22q6 6 12.5 12t13.5 12q1 1 2.5 2t2.5 2q4 4 8.5 6.5t8.5 5.5q13 9 21.5 22t8.5 50v5.5v13.5v53.5v19.5
q-1 2 -1 4.5v5.5q0 2 -3.5 4t-7.5 3t-7 1.5t-4 0.5t-2 -0.5t-1 -2.5v-1.5v-1.5q-1 -23 -12.5 -42.5t-33.5 -19.5q-12 0 -19 3.5t-11 7.5t-5 7.5l-1 3.5q9 9 12 16.5t3 14.5q0 6 -1.5 11t-3.5 10q-2 2 -3 4.5t-1 4.5q-1 3 -1.5 5.5t-0.5 4.5q0 17 12.5 28.5t28.5 11.5
q6 0 12.5 -1t12.5 -2q6 -2 12 -3t11 -1q17 0 18 3.5t-2 8.5v0v1q-1 1 -2 3t-1 3v15.5v7.5v18v65t37.5 92.5t82.5 43.5h3.5h2.5h47.5h60.5q59 0 104.5 -34.5t45.5 -102.5q0 -52 -34 -85t-83 -33h-5.5h-4.5q-34 3 -62 22t-28 52q0 6 1 12l2 12l2 10t1 10q0 3 -0.5 5.5
t-0.5 4.5q-1 2 -2 4.5t-3 5.5v0v0h8.5t14.5 -2t15 -6t7 -12q0 -1 0.5 -2.5t2.5 -3.5q4 -5 13.5 -9.5t20.5 -6.5q2 -1 4.5 -1h5.5h0.5h1.5h1.5h0.5q17 2 30.5 14t13.5 29q0 42 -28 59.5t-63 17.5q-67 0 -81.5 -41.5t-14.5 -91.5v-17v-16q-1 -1 -1 -3v-3v-13v-13v-17
q0 -10 4.5 -14t9.5 -5q1 0 2 -0.5l1 -0.5q5 -1 8 -2.5t3 -6.5v0z" />
    <glyph glyph-name="section" unicode="&#xa7;" horiz-adv-x="477" 
d="M442 202q9 -18 13 -37t4 -39q0 -85 -46 -115.5t-120 -30.5q-10 0 -17.5 1t-15.5 2q-7 1 -15 2t-18 1t-17.5 -1t-15.5 -2q-7 -1 -15 -2t-18 -1q-57 0 -97.5 37.5t-40.5 86.5q0 47 39 82t97 35q36 0 56 -9t32 -21q6 -5 11 -10t10 -9q5 -5 10 -7.5t11 -2.5h1.5t1.5 1h1.5
h1.5l0.5 -1t0.5 -3t0.5 -4t0.5 -5t-0.5 -5.5t-1.5 -5.5q-3 -9 -12.5 -16.5t-31.5 -7.5q-21 0 -32.5 3.5t-18.5 7.5q-3 1 -5 2l-4 2q-5 3 -10 4.5t-12 1.5q-10 0 -17.5 -6t-10.5 -13q-1 -2 -1.5 -3.5t-0.5 -3.5q0 -21 23.5 -31.5t51.5 -12.5q5 -1 10.5 -1h10.5h2.5h3.5
q43 2 78.5 23t35.5 56q0 54 -50 82.5t-110 50.5q-7 3 -13.5 5t-13.5 5q-52 19 -92.5 41t-40.5 59q0 23 23.5 36t51.5 14h2.5h2.5h7h8h18.5h8.5q-50 18 -88.5 39.5t-38.5 58.5q0 23 23.5 36t51.5 14h2.5h2.5h122.5h125.5h2.5h2.5q21 -1 38 -10t17 -26q0 -10 -9.5 -17.5
t-20.5 -13.5l-6 -4t-6 -3q-8 -5 -13 -10t-5 -10q-1 -2 0.5 -4.5t3.5 -5.5l-2 -1t-5 -1q-3 -1 -7.5 -2t-9.5 -1h-1.5h-2.5q-10 0 -19 7t-9 26q0 2 0.5 4t1.5 4t2.5 4.5t3.5 4.5q2 4 4.5 8t2.5 7q1 5 -6.5 8.5t-30.5 3.5h-37h-43h-33.5h-30.5q-10 0 -17 -4t-7 -14t8 -16
t18 -11q28 -13 54.5 -23.5t52.5 -20.5q1 0 2 -0.5t2 -0.5l46 -18t47 -19q57 -23 82.5 -62.5t25.5 -89.5q0 -8 -0.5 -15t-0.5 -13q-2 -9 -4.5 -19t-6.5 -25v0zM349 280q1 3 1 4.5v3.5v2v2q0 43 -32 69t-76 44h-17.5h-38.5h-22.5h-18.5q-10 0 -17 -4t-7 -14t8 -16t18 -11
q14 -6 29.5 -12.5t32.5 -13.5q4 -2 8 -3.5t8 -2.5q46 -19 85 -33.5l39 -14.5v0z" />
    <glyph glyph-name="bullet" horiz-adv-x="429" 
d="M362 221q0 -53 -35 -97t-106 -45h-0.5h-1.5h-1.5h-0.5q-67 0 -101.5 44t-35.5 96v1.5v1.5q0 54 35.5 98.5t105.5 43.5q71 -1 106 -45.5t35 -97.5v0z" />
    <glyph glyph-name="paragraph" unicode="&#xb6;" horiz-adv-x="530" 
d="M539 558q8 0 14 -3.5t6 -10.5q0 -10 -8.5 -17.5t-17.5 -14.5q-10 -7 -18.5 -14t-8.5 -18q0 -5 2.5 -10.5t7.5 -12.5l-3 -2.5t-8 -5.5q-3 -2 -6.5 -3.5t-6.5 -3.5q-2 0 -4 -0.5t-4 -0.5q-15 0 -26 12t-11 28q0 8 3.5 16t10.5 15q2 2 3 3.5t1 2.5q0 8 -3 10t-15 3
q-2 1 -3 1h-3q-10 1 -13.5 -67t-3.5 -157v-18.5v-18.5q0 -45 1 -87.5t2 -78.5q1 -43 2 -69.5l1 -26.5q32 0 38 -18t6 -45v-3.5v-2.5q0 -11 -1 -20t-2 -16t-2 -11l-1 -4q-4 4 -8 7.5t-7 4.5q-4 2 -8 3t-8 1q-7 0 -11 1.5t-7 4.5h-0.5h-0.5q-3 2 -7.5 4t-12.5 2
q-16 0 -22 21.5t-7 47.5q-1 12 -1 24v21v7v6v55v89q1 20 1 42v44v155.5t-1 81.5q-1 13 -3.5 17t-12.5 4q-5 -1 -13 -1.5t-19 -0.5l-2 -1l-4 -2q-2 -2 -4 -3.5t-2 -3.5q0 -5 -1 -61.5t-2 -130.5v-23v-24q-1 -82 -2 -152.5t-1 -84.5v-8t1 -10v-11v-12v-7v-8q-2 -26 -11 -48.5
t-35 -22.5q-14 0 -22 -2t-14 -4t-13.5 -4t-21.5 -2q-5 0 -10.5 0.5t-11.5 1.5q-17 3 -32.5 10t-20.5 15q0 1 -0.5 2.5t-0.5 2.5q0 7 8.5 14t19.5 13q4 3 8.5 5t8.5 4q17 9 31 18t14 19q0 17 1 74.5t4 138.5q0 4 5 8.5t10 12.5q6 9 11 22.5t5 34.5q0 15 -5 25t-11 17
q-6 6 -11 9.5t-5 5.5v31v37v45v34q0 17 -16.5 20.5t-36.5 3.5q-10 0 -27.5 -3t-37.5 -11q-27 -13 -50 -42t-23 -83q0 -48 16 -69t47 -21q29 0 36.5 13t7.5 31q0 12 9 19.5t20 11.5q8 3 15 4t11 1h1.5h0.5q-1 -3 -2 -5.5t-1 -4.5q0 -5 2.5 -9.5t6.5 -9.5q3 -3 6.5 -6t6.5 -6
q8 -9 15 -19.5t7 -27.5q0 -37 -39 -63.5t-85 -31.5q-6 -1 -12 -1.5t-12 -0.5q-69 0 -116.5 39t-47.5 133q0 81 44.5 123.5t96.5 59.5q28 9 54.5 12.5t46.5 3.5q21 0 43.5 0.5t45.5 1.5q12 0 24 0.5t23 1.5q34 2 65.5 3t55.5 1q25 0 39 -2.5t27 -5.5q12 -3 27 -5.5t41 -2.5v0
z" />
    <glyph glyph-name="germandbls" unicode="&#xdf;" horiz-adv-x="545" 
d="M27 488q9 18 33.5 30.5t51.5 19.5q13 4 25.5 6.5t23.5 3.5q11 2 24 2.5t28 0.5h16t16 -1h12h13q18 -1 36 -2.5t31 -3.5q7 -1 14 -2.5t14 -3.5q43 -9 79 -28.5t36 -53.5q0 -36 -25.5 -57t-56.5 -31q-24 -8 -46 -10.5t-31 -2.5q-1 0 -3 -0.5t-4 -1.5q-4 -2 -7.5 -5t-3.5 -7
t6.5 -7.5t23.5 -4.5q66 -4 105 -51t50 -103q3 -11 4 -22t1 -22q0 -53 -32 -94t-76 -41q-11 0 -18.5 -0.5t-14.5 -0.5v0l-1 -1q-7 0 -15 -0.5t-19 -0.5h-4h-4q-36 3 -65.5 25.5t-29.5 60.5q0 26 19.5 44t44.5 18h5t5 -1q7 0 13 -2.5t6 -6.5l-0.5 1l-1.5 3h-1v1l-2 2t-1 0
q-1 -2 -1.5 -5t-0.5 -7v-2v-3v-2t1 -2v-4v-4q-1 -8 9 -14t22 -6q6 0 14.5 5t17.5 14q15 15 27.5 39.5t12.5 55.5q0 46 -36 72t-79 32q-7 1 -14 1.5t-14 0.5q-28 0 -38 7t-11 16q0 8 6.5 13t13.5 5q9 0 27.5 8t38.5 17l4 2l4 2q4 2 8 3.5t8 3.5q18 8 30 24t15 34q0 3 0.5 6
t0.5 6v2v2q-1 1 -1 2v2q-3 20 -28.5 30t-55.5 14q-12 2 -23.5 2.5t-21.5 0.5h-3h-3h-2h-1q-3 -1 -5 -1h-4q-5 0 -10 -1.5t-10 -4.5q-10 -4 -19.5 -11t-16.5 -15q-3 -3 -5.5 -6t-4.5 -6q-1 -2 -1.5 -7t-0.5 -11q0 -8 0.5 -15.5t1.5 -12.5q3 -12 9.5 -20.5t13.5 -15.5
q8 -7 15.5 -12t8.5 -9q0 -2 -0.5 -3.5t-3.5 -3.5l-2.5 -2t-5.5 -5t-5.5 -7.5t-2.5 -9.5q0 -8 3 -12.5t7 -6.5q1 -2 2.5 -3t2.5 -2q2 -1 3 -2.5t1 -3.5q0 -40 -1 -59.5t-2 -33.5v-3v-2q-1 -13 -2 -28t-1 -44v-20.5v-30.5v-33.5v-19.5q0 -9 -10.5 -13.5t-23.5 -6.5
q-7 -1 -13.5 -1.5t-11.5 -0.5t-11 -0.5t-12 -1.5h-2h-2q-7 -1 -13.5 -1.5t-12.5 -0.5q-4 0 -8 0.5t-9 1.5q-13 2 -24 8t-11 16v1.5t1 1.5q1 5 8 10t15 11q9 7 16.5 15t7.5 19q0 24 1 43t3 35q0 13 1 24l2 22v6.5v7.5q0 14 -1.5 29.5t-5.5 34.5q-4 20 -12.5 37.5t-17.5 32.5
q-6 11 -12 21.5t-11 21.5q-4 9 -6.5 19t-2.5 20v2v2v2v2q1 5 1 8t1 6q1 5 1.5 8t1.5 5q1 3 3 5.5t4 7.5v0z" />
    <glyph glyph-name="registered" unicode="&#xae;" horiz-adv-x="459" 
d="M427 348v-1.5v-1.5q0 -74 -50 -136t-150 -62t-149.5 62.5t-49.5 137.5v1.5v1.5q0 74 50 136t149 62q100 0 150 -62.5t50 -137.5v0zM58 347q0 -64 42 -117t127 -53t127.5 52.5t42.5 115.5v1.5v1.5q0 64 -42.5 117t-127.5 53q-84 0 -126.5 -52.5t-42.5 -115.5v-1.5v-1.5v0z
M183 462h16t16 -1q33 -1 61 -12t28 -43q0 -22 -13.5 -34t-30.5 -18q-16 -6 -29.5 -7l-13.5 -1l110 -107h-48l-96 93v-93h-44v223h44v0zM183 379h1.5h3.5q3 -1 6 -1h7q6 0 12.5 0.5t12.5 0.5q16 2 29.5 8t13.5 19q1 13 -13 19.5t-30 8.5q-7 1 -14 1.5t-13 0.5h-6h-5
q-3 -1 -4 -1h-1v-56v0z" />
    <glyph glyph-name="copyright" unicode="&#xa9;" horiz-adv-x="444" 
d="M427 348v-1.5v-1.5q0 -74 -50 -136t-150 -62t-149.5 62.5t-49.5 137.5v1.5v1.5q0 74 50 136t149 62q100 0 150 -62.5t50 -137.5v0zM58 347q0 -64 42 -117t127 -53t127.5 52.5t42.5 115.5v1.5v1.5q0 64 -42.5 117t-127.5 53q-84 0 -126.5 -52.5t-42.5 -115.5v-1.5v-1.5v0z
M311 390q0 -1 -8 7t-20 17q-10 7 -22 14t-24 9q-2 0 -4.5 0.5t-5.5 0.5q-35 0 -52.5 -27t-17.5 -59v-1.5v-1.5q0 -31 18 -57.5t52 -26.5h5.5t4.5 1q12 2 24 8t21 13q13 8 21 15t8 6v-43q0 -1 -7 -7.5t-18 -14.5q-10 -7 -23 -13t-26 -8q-2 -1 -4.5 -1h-5.5q-56 0 -84.5 40.5
t-28.5 89.5v1.5v1.5q0 48 28.5 88t84.5 40h5.5t4.5 -1q13 -2 26 -8t23 -13q11 -8 18 -14.5t7 -7.5v-48v0z" />
    <glyph glyph-name="trademark" unicode="&#x2122;" horiz-adv-x="502" 
d="M332 570q-5 0 -9.5 1t-4.5 2v2v3q-1 1 -1 2v2v2v2q-2 5 -6 9.5t-10 4.5q-4 0 -8 -3t-9 -8q-8 -11 -16 -28t-12 -36q-2 -7 -3 -14.5t-1 -14.5q0 -20 5 -30t12 -15q2 -1 4 -2.5t4 -3.5q4 -2 6 -5t2 -7q0 -3 -2.5 -4.5t-5.5 -2.5h-2h-2q-2 0 -3.5 0.5t-2.5 0.5t-2.5 0.5
t-3.5 0.5q-1 0 -2.5 -0.5t-2.5 -0.5t-2 -0.5t-3 -0.5q-12 0 -16.5 10.5t-5.5 23.5v6v6q0 9 2 19.5t4 20.5l6 18t6 17q7 18 12.5 31t5.5 16q0 1 -0.5 1.5l-0.5 0.5q-1 2 -3 3t-4 1h-1.5h-1.5q-3 0 -5 -1t-2 -4q0 -1 0.5 -2t0.5 -3l1.5 -1.5l1.5 -1.5q2 -2 3 -3.5l1 -1.5
q-4 -4 -4.5 -7l-0.5 -3q-2 1 -4.5 2t-5.5 3q-8 4 -15 10.5t-7 15.5q0 5 5 8t10 4q2 1 4 1h4h61.5h55.5h39h41h4h4q8 -1 15 -4.5t7 -11.5q0 -6 -5 -12.5t-11 -10.5q-6 -5 -11 -7.5t-5 -1.5q0 2 -0.5 3.5t-0.5 3.5q-1 2 -1.5 4t-1.5 3l2 1l4 2q1 1 2.5 2t2.5 2q0 1 0.5 1.5
t0.5 1.5q0 4 -3 5.5t-6 2.5h-0.5h-1.5h-1.5h-0.5q-3 -1 -6 -3t-3 -5t3.5 -15.5t7.5 -29.5q2 -12 4.5 -26t4.5 -28q0 -6 0.5 -12.5t0.5 -12.5v-2v-2v-4.5v-5.5q0 -11 -2.5 -20.5t-9.5 -9.5q-3 0 -5 0.5t-4 1.5q-2 0 -4 0.5t-5 0.5q-2 0 -4 -0.5t-4 -0.5q-2 -1 -4 -1.5
t-4 -0.5q-1 0 -3 0.5t-3 0.5q-5 1 -8.5 2.5t-3.5 5.5t3.5 7t7.5 5q1 1 2 1.5t2 0.5q5 4 9.5 7.5t4.5 9.5v5.5v4.5v4.5v5.5v12t-1 12q-3 34 -13 62.5t-29 28.5q-5 0 -9 -4t-4 -9v-3.5v-2.5v-3.5v-3.5q0 -1 -5 -2t-11 -1h-2h-2v0zM318 545q0 1 4 1.5t9 0.5h1.5h0.5h6h5
q3 -1 4.5 -1h1.5v-16v-26v-0.5t1 -0.5v-26v-15q0 -5 2 -9t5 -7l1 -0.5t1 -1.5l2 -2t1 -2q1 -1 1.5 -2t0.5 -2q1 -1 1.5 -2t1.5 -2v-1t-2 -3q-1 -1 -4 -2.5t-8 -1.5q-2 0 -3.5 0.5t-2.5 0.5h-1.5t-0.5 1q-2 0 -5 0.5t-8 0.5q-3 0 -5.5 -0.5t-5.5 -0.5q-2 -1 -4.5 -1.5
t-4.5 -0.5q-1 0 -2.5 0.5t-3.5 1.5q-1 0 -2 0.5l-3 1.5q-2 2 -3.5 3t-0.5 1q2 1 2.5 2.5t1.5 2.5q0 2 1 3l2 2q1 0 2 1t2 1q4 3 7 8t3 11v14.5v12.5v4v5q-1 8 -1 19v27v0zM95 598h-6.5h-5.5h-4h-4h-1h-1q-2 0 -3 -0.5t-1 -2.5t0.5 -4t1.5 -3l2 -4l2 -4q2 -3 4 -7t2 -9
q0 -4 -1 -6t-2 -3v0l-1 -1l-0.5 -1t-0.5 -3v-0.5v-1.5t0.5 -1.5t0.5 -2.5l-3 0.5t-6 1.5q-4 1 -7 4t-3 7q0 2 1 3t3 2l2 2t1 3q0 5 -5.5 10t-12.5 10t-12.5 10t-5.5 10q0 4 2.5 6t5.5 3h2h2h40h36h30h32h3.5h3.5q6 -1 11.5 -4t5.5 -8q0 -6 -4.5 -11t-9.5 -9h-0.5t-0.5 -1
q-6 -4 -10.5 -9t-4.5 -12q0 -1 0.5 -2t0.5 -2q1 0 1 -0.5v-0.5q1 -1 1.5 -2.5t0.5 -3.5q0 -4 -2 -6t-5 -3q-2 -1 -3.5 -1h-2.5h-1v0q1 2 1 3v2q0 2 -1 3.5t-2 2.5v0v0q-1 2 -2 3.5t-1 4.5q0 5 1.5 9t3.5 8t3.5 7.5t1.5 7.5q0 3 -2 4t-5 2h-0.5h-1.5h-6.5h-5.5h-4h-4h-1.5
t-1.5 -1q-1 0 -1.5 -0.5l-1.5 -1.5q-1 0 -1.5 -1l-0.5 -1v-23.5v-42.5v-44v-23t2.5 -5.5t5.5 -4.5q1 0 2 -0.5t2 -1.5q2 -1 3.5 -1.5t2.5 -1.5q2 -2 3 -3.5t2 -2.5q1 0 1.5 -0.5t1.5 -0.5l-0.5 -1t-2.5 -3l-5 -2.5t-9 -1.5q-4 0 -6.5 0.5t-4.5 0.5h-0.5t-0.5 1
q-3 0 -6.5 0.5t-8.5 0.5q-3 0 -5 -0.5t-4 -0.5q-1 -1 -2 -1h-1q-2 -1 -3 -1h-3t-3.5 0.5t-3.5 0.5q-2 1 -3.5 1.5t-3.5 1.5q-3 2 -5 3t-1 1q1 1 2 1.5t2 2.5q1 0 1.5 0.5t0.5 1.5q1 1 2.5 2t2.5 2t2 1t2 1v0h1q3 1 5.5 3.5t2.5 7.5v27v34q-1 5 -1 10.5v10.5v26v25
q0 5 -0.5 5h-1.5q0 -1 -0.5 -1h-0.5v0zM386 566q2 0 3 -1.5t2 -3.5v-1.5v-0.5v-2t-2 -1q-10 -1 -21.5 -2t-22.5 -1h-5.5h-4.5q-16 1 -31 3t-27 6q-1 0 -1 0.5v1.5v0v1v0v0v1.5t1 1.5q0 1 1.5 2t2.5 2h1.5h0.5q7 -2 13.5 -3.5t12.5 -2.5q8 -1 16.5 -1.5t17.5 -0.5
q10 0 20 0.5t23 1.5v0z" />
    <glyph glyph-name="acute" unicode="&#xb4;" horiz-adv-x="455" 
d="M230 652q5 0 9.5 -2t9.5 -7q5 -4 7 -8.5t2 -9.5v-0.5v-0.5v-0.5v-0.5q0 -13 -14.5 -24t-31.5 -20t-31.5 -14l-14.5 -5l5 14.5t14 31.5q8 17 20 31.5t25 14.5v0z" />
    <glyph glyph-name="dieresis" unicode="&#xa8;" horiz-adv-x="318" 
d="M142 577v-1.5v-1.5q-1 -15 -11.5 -27.5t-31.5 -12.5q-22 0 -33 14t-11 31v1.5v1.5q1 15 12 27.5t32 12.5t32 -13t11 -30v-0.5v-0.5v-0.5v-0.5v0zM288 577v-1.5v-1.5q-1 -15 -11.5 -27.5t-31.5 -12.5q-22 0 -33 14t-11 31v1.5v1.5q1 15 12 27.5t32 12.5t32 -13t11 -30
v-0.5v-0.5v-0.5v-0.5v0z" />
    <glyph glyph-name="notequal" unicode="&#x2260;" 
 />
    <glyph glyph-name="AE" unicode="&#xc6;" horiz-adv-x="697" 
d="M75 181q0 -24 7.5 -34.5t16.5 -13.5q3 -1 6 -1.5t6 -0.5h7h4h1v0v-27v-29q0 -25 -13 -41.5t-28 -24.5q-6 -3 -12 -4.5t-11 -1.5q-2 0 -4 0.5t-3 0.5q-14 4 -26 19.5t-19 33.5q-3 8 -5 16t-2 15q0 41 13.5 90.5t34.5 100.5q10 26 21 50.5t22 48.5q21 45 41 84.5t33 68.5
q1 2 1 3.5v2.5q1 9 -9 14t-23 5t-23 -4.5t-10 -15.5q0 -7 4 -13t8 -11q5 -6 8.5 -10t3.5 -6t-1 -6t-3 -9q-2 -3 -3.5 -6l-2.5 -5q-2 -3 -4 -4.5t-3 -1.5h-1q-18 9 -31 19.5t-23 20.5q-10 12 -15.5 23.5t-5.5 21.5q0 15 12 25t36 10h119.5h107.5h51h53q16 0 45.5 -1.5
t62.5 -5.5q45 -6 82.5 -16t37.5 -27q0 -14 -18 -29.5t-44 -31.5q-10 -6 -21 -12.5t-22 -12.5q-39 -22 -72 -41t-33 -31q0 -7 1.5 -9.5t4.5 -2.5v0h1v0v0q5 0 12 3.5l15 7.5t18 7.5t20 3.5h4.5h5.5q25 -3 45.5 -16t20.5 -37v-1.5v-1.5q0 -2 -0.5 -4.5t-1.5 -4.5
q-1 -4 -2.5 -7.5t-3.5 -6.5q-3 -5 -5.5 -8l-2.5 -3q-8 8 -15.5 11t-15.5 3h-2h-2q-8 -1 -16 -3.5t-17 -5.5q-10 -3 -22 -6t-26 -3h-8.5t-8.5 1q-24 2 -44.5 11.5t-20.5 33.5q0 14 16.5 32.5t39.5 37.5q6 5 13 10t13 11q23 17 43 32.5t31 26.5q5 5 6.5 10t1.5 10
q0 11 -7 18.5t-17 7.5h-7.5h-7.5h-23.5h-29.5q-20 0 -36 -16.5t-16 -39.5q0 -7 0.5 -13.5t1.5 -12.5v-4.5v-5.5q1 -3 1 -6.5v-6.5q0 -5 -0.5 -11.5t-2.5 -13.5q-2 -8 -6.5 -13.5t-9.5 -11.5q-1 0 -1.5 -0.5t-0.5 -1.5q-6 -6 -11 -13.5t-5 -17.5v-2.5t1 -3.5q1 -8 5.5 -15.5
t10.5 -14.5t11 -12t5 -6q0 -8 0.5 -17.5t0.5 -18.5v-1.5v-1.5q1 -19 1.5 -36t0.5 -27q0 -34 26 -56t60 -22h21h20h32h35q9 0 16 4.5t13 10.5t13 10.5t16 4.5q15 0 23 -13.5t11 -29.5q0 -4 0.5 -7.5t0.5 -7.5q0 -37 -27 -58.5t-81 -21.5q-19 0 -35.5 2t-31.5 4l-14 2l-14 2
q-8 1 -16.5 1.5t-17.5 0.5q-18 0 -34 -2t-31 -4t-28.5 -4t-27.5 -2q-8 0 -17.5 1.5t-19.5 4.5t-20.5 7.5t-19.5 8.5q-17 8 -27.5 15t-8.5 7q15 4 23 10t15 13q3 4 7 8l9 9q2 2 4.5 3.5t5.5 2.5q1 0 2 0.5t2 0.5q7 2 12.5 6.5t5.5 23.5q0 15 0.5 37.5t1.5 48.5v15v16
q1 18 1 35.5v33.5q0 30 -1.5 49.5t-4.5 19.5q-1 0 -2.5 -0.5t-2.5 -1.5q-1 0 -1.5 -0.5l-0.5 -0.5q-2 -1 -3.5 -2l-1.5 -1q-74 -43 -135.5 -90.5t-61.5 -102.5v0zM225 531q-6 0 -11 -2.5t-10 -8.5q-14 -17 -32 -63t-53 -132q-1 -4 -2 -6t-1 -4t0.5 -3t1.5 -1h1.5h1.5
q1 1 2.5 1.5t2.5 1.5l0.5 0.5l0.5 0.5q97 67 122.5 85.5t26.5 22.5v1q-2 7 -3.5 14t-2.5 14q-7 30 -15.5 54.5t-29.5 24.5v0z" />
    <glyph glyph-name="Oslash" unicode="&#xd8;" horiz-adv-x="528" 
d="M121 -32q-2 -4 -8.5 -6t-14.5 -2q-9 0 -16 2.5t-7 7.5v0.5t1 0.5v0.5v0.5l6.5 13t7.5 14q8 15 15 28.5t5 15.5q-31 34 -50 97t-19 133v7.5v6.5q3 108 57.5 198.5t172.5 90.5q7 0 13 -0.5t12 -0.5q13 -2 26 -5t27 -9l6.5 12.5t13.5 28.5q2 2 3 4t2 5q0 1 1 3l2 4t2.5 2.5
t3.5 0.5h0.5h0.5h0.5h0.5q2 0 4 -0.5t4 -1.5q5 -1 9.5 -4t7.5 -6q1 -1 1.5 -2.5t0.5 -2.5v-1.5v-1.5q-1 -1 -1.5 -2.5t-0.5 -2.5q-2 -3 -3 -6t-3 -6q-7 -16 -13.5 -28.5l-6.5 -12.5q54 -37 81.5 -107t28.5 -153q0 -108 -46 -197.5t-127 -89.5q-9 0 -15.5 1.5t-13.5 2.5
q-7 2 -13.5 3.5t-15.5 1.5t-16.5 -1.5t-14.5 -3.5q-7 -1 -14.5 -2.5t-16.5 -1.5q-16 0 -30.5 4t-28.5 14q-3 2 -5.5 -2.5t-4.5 -11.5l-2 -6l-2 -6q-2 -5 -3.5 -10t-3.5 -9v-1zM198 139q10 -7 21 -13t23 -9q7 -2 13.5 -3t12.5 -1q65 0 101.5 56.5t43.5 124.5q1 8 1.5 16.5
t0.5 16.5q0 10 -2 23.5t-6 27.5q-2 8 -4 16.5t-4 15.5q-3 10 -6 18t-5 13q-3 6 -8 14.5t-12 17.5q-2 2 -4.5 5t-5.5 6l-160 -345v0zM329 513q-9 7 -20 11.5t-23 6.5q-6 2 -11.5 2.5t-11.5 0.5q-65 0 -101.5 -56.5t-43.5 -124.5q-1 -8 -1.5 -16.5t-0.5 -16.5q0 -13 1.5 -30
t5.5 -36q5 -21 14.5 -38.5t20.5 -32.5q3 -4 5.5 -7.5t5.5 -7.5l160 345v0z" />
    <glyph glyph-name="infinity" unicode="&#x221e;" 
 />
    <glyph glyph-name="plusminus" unicode="&#xb1;" horiz-adv-x="457" 
d="M22 37h408v-38h-408v38v0zM208 530h48v-180h178v-50h-180v-179h-46v179h-179l1 51h178v179v0z" />
    <glyph glyph-name="lessequal" unicode="&#x2264;" 
 />
    <glyph glyph-name="greaterequal" unicode="&#x2265;" 
 />
    <glyph glyph-name="yen" unicode="&#xa5;" horiz-adv-x="588" 
d="M517 320q7 -3 0.5 -9.5t-26.5 -14.5q-19 -7 -50.5 -13.5t-76.5 -9.5v-87q10 0 19 0.5t18 0.5q17 1 31 1.5t24 0.5q13 0 20.5 -1t11.5 -6q3 -4 -6 -8.5t-26 -9.5t-41 -9.5t-51 -8.5l0.5 -9.5t1.5 -20.5v-4v-4q1 -19 7 -24.5t15 -8.5q2 -1 4 -1.5t4 -1.5t3.5 -2t3.5 -2
q1 -1 2 -1.5t2 -1.5q12 -10 20 -18.5t14 -10.5q1 0 -3.5 -5.5t-13.5 -12.5t-22 -12.5t-29 -5.5q-11 0 -20.5 1.5t-17.5 4.5h-1.5h-1.5q-8 2 -16 3.5t-18 1.5q-9 0 -16 -2t-13 -4h-1h-1q-6 -3 -12.5 -4t-14.5 -1q-5 0 -10 0.5t-10 1.5q-6 2 -12 4.5t-11 5.5q-9 4 -14.5 8
t-4.5 4t1.5 0.5l1.5 1.5q3 3 5.5 7t6.5 9t8.5 10t10.5 7q4 2 8 3.5t8 3.5q13 5 23.5 14t10.5 25v26v6h-6h-6q-3 -1 -6 -1h-6q-52 0 -93.5 12t-46.5 26v1.5v1.5q0 3 5.5 8.5t15.5 11.5q13 8 33 14.5t46 7.5q-21 -7 -27.5 -13t-1.5 -10q3 -2 17.5 -3.5t34.5 -2.5
q7 -1 13.5 -1.5t13.5 -0.5q4 0 7.5 -0.5t6.5 -0.5v2.5v3.5v17t-2 13q-1 5 -3.5 9.5t-5.5 10.5q-3 5 -6 10.5t-8 12.5l-24 2t-53 7q-29 4 -53 11t-24 16q0 5 4 11t11 12q12 10 32 20t42 18q8 3 16.5 5t16.5 4q-33 -26 -48 -35.5t-12 -15.5q0 -2 1 -3t3 -2q3 0 7 -0.5t9 -1.5
h4.5h4.5q12 -2 22 -2.5l10 -0.5l-6 8t-5 8q-3 3 -6 7l-6 8q-1 1 5 6t13 11l1.5 1.5l0.5 0.5q7 6 11.5 11t4.5 7v1v0h-0.5t-0.5 1h-0.5h-0.5h-0.5h-0.5q-4 0 -11.5 -1.5t-15.5 -3.5q-4 -1 -7.5 -2t-6.5 -1l-6 -2t-5 -2q-18 24 -31.5 44.5t-13.5 25.5q0 9 -7.5 14t-16.5 8
q-3 1 -5.5 2t-5.5 2q-6 2 -9.5 4t-3.5 5t19.5 11t43.5 18q5 2 11 4.5t11 4.5q17 8 28.5 15t11.5 13q0 3 -2 3.5t-5 0.5h-2.5h-3.5h-42h-35q-7 0 -11.5 -4t-4.5 -11q0 -4 1 -8t4 -9l-5 -3t-11 -7q-5 -4 -10 -7l-5 -3q-4 5 -9.5 9t-11.5 8q-5 4 -9.5 7t-8.5 6q-7 5 -11 10
t-4 11q0 16 17 24.5t37 10.5q4 1 7.5 1h7.5h59h65h30.5h30.5h6.5t7.5 -1q12 -1 22 -5t10 -13q0 -6 -14.5 -14t-32.5 -17q-6 -4 -11.5 -7t-11.5 -6q-10 -7 -17 -13t-7 -12q0 -7 17 -31.5t39 -52.5q2 -3 4 -5.5t4 -4.5q16 -20 30.5 -38t23.5 -28q2 -3 4.5 -4t4.5 -1h2.5h2.5
l4 2l4 2q0 1 1 1.5l1 0.5q60 51 80 97t20 67q0 12 -6.5 19t-24.5 7q-13 0 -33 -4.5t-41 -10.5q-4 -1 -7.5 -2t-7.5 -2q-24 -7 -44.5 -13t-29.5 -6q-13 0 -19.5 3.5t-8.5 7.5v0.5v1.5q-1 3 1 5t5 2q20 0 51.5 12.5t67.5 27.5q5 2 10.5 4.5t10.5 4.5q31 12 60 21.5t52 9.5
q20 0 36 -13t16 -33q0 -23 -13.5 -50t-34.5 -56q-11 -14 -23 -29t-24 -29q-17 -20 -34 -38t-30 -32q38 1 61.5 3.5t36.5 4.5q15 3 20 6t8 3h2t2 -1v0z" />
    <glyph glyph-name="mu" unicode="&#xb5;" horiz-adv-x="598" 
d="M143 532v-367q0 -43 27 -78.5t70 -35.5q10 0 21.5 3t23.5 7q33 14 60 42t28 61v368h88v-414q0 -5 0.5 -10t1.5 -10q4 -26 18 -47t37 -21h3.5t3.5 1q19 4 30.5 16.5t16.5 30.5l8 28h19l-7 -32q-5 -30 -27.5 -52t-48.5 -32q-11 -5 -22 -7.5t-21 -2.5h-2h-2q-2 1 -3 1h-2
h-1.5h-1.5q-33 6 -61 35t-29 69l-28 -27q-13 -13 -28 -25t-30 -22q-21 -12 -41 -19.5t-36 -7.5q-12 0 -28.5 4t-33.5 12q-17 7 -32.5 18.5t-27.5 27.5v-38q0 -22 4.5 -39.5t10.5 -34.5q1 -2 2 -4.5t2 -5.5q7 -18 12.5 -39t6.5 -50v-4v-4q-2 -23 -16 -42t-37 -19v0v0h-1v0
q-23 0 -36.5 19.5t-14.5 43.5v2v1v2v2q0 26 5 43.5t11 32.5v1.5t1 0.5l8.5 25.5t6.5 31.5q0 4 0.5 7.5t0.5 6.5q1 4 1 7.5v7.5v532h90v0z" />
    <glyph glyph-name="partialdiff" unicode="&#x2202;" 
 />
    <glyph glyph-name="Sigma" unicode="&#x3a3;" 
 />
    <glyph glyph-name="product" unicode="&#x220f;" 
 />
    <glyph glyph-name="pi" unicode="&#x3c0;" 
 />
    <glyph glyph-name="integral" unicode="&#x222b;" 
 />
    <glyph glyph-name="ordfeminine" unicode="&#xaa;" horiz-adv-x="300" 
d="M265 232q7 0 10.5 -7t4.5 -15v-1.5v-1.5q0 -10 -3.5 -18.5t-11.5 -8.5h-55h-69h-80h-57q-6 0 -9.5 7t-4.5 15v1.5v1.5q0 11 3.5 19t10.5 8h54h66h84h57v0zM118 527q8 0 14 1l12 2q6 0 12.5 1t13.5 1q23 0 41.5 -11t18.5 -34v-77v-70q0 -5 3 -8.5t7 -7.5h1v0q4 -3 7.5 -7
t3.5 -10q0 -13 -11 -19t-25 -8h-3.5h-3.5q-9 0 -16 1.5t-14 3.5q-7 1 -14 2.5t-16 1.5t-16 -1t-13 -3q-1 0 -2.5 -0.5t-2.5 -0.5q-7 -2 -16 -3.5t-21 -1.5q-31 0 -52 22.5t-21 53.5q0 27 19.5 44t42.5 29l16 8t15 8q4 3 7.5 5t6.5 4q2 2 3.5 3t1.5 2q0 2 -0.5 2.5t-2.5 0.5
h-2.5t-3.5 -1q-7 -1 -15.5 -2.5t-18.5 -1.5h-2.5h-2.5q-20 1 -36.5 8.5t-16.5 25.5q0 19 14 30.5t32 11.5q6 0 12 -0.5t12 -1.5h1t2 -1q7 0 14 -1t15 -1v0zM72 490q0 -9 8.5 -11.5t18.5 -2.5h4h4h1.5h1.5q11 0 20.5 1t15.5 4q1 1 1.5 1h1.5h2t2 -1q4 -2 7 -6t3 -9v-1.5v-1.5
q-1 -2 -2 -3.5t-3 -2.5q-7 -4 -17 -9.5t-20 -11.5q-11 -7 -21 -14t-17 -15q-6 -5 -9.5 -11t-3.5 -11q0 -16 12.5 -28t29.5 -12t30.5 5t20.5 10q3 3 5 5.5t2 4.5v39.5v53.5q0 29 -16 37t-36 8h-1.5h-1.5h-4h-5q-13 0 -23.5 -3t-10.5 -15v0z" />
    <glyph glyph-name="ordmasculine" unicode="&#xba;" horiz-adv-x="300" 
d="M265 232q7 0 10.5 -7t4.5 -15v-1.5v-1.5q0 -10 -3.5 -18.5t-11.5 -8.5h-55h-69h-80h-57q-6 0 -9.5 7t-4.5 15v1.5v1.5q0 11 3.5 19t10.5 8h54h66h84h57v0zM244 415q0 -48 -22 -87.5t-59 -39.5q-5 0 -9.5 0.5t-7.5 1.5h-1h-1q-3 1 -6.5 1.5t-8.5 0.5t-9.5 -0.5t-8.5 -1.5
h-0.5h-0.5q-4 -1 -8 -1.5t-8 -0.5q-37 0 -59 39.5t-22 86.5v2.5v3.5q2 46 29 85t87 39q61 0 87.5 -39.5t27.5 -86.5v-1.5v-1.5v0zM63 444v-1.5v-1.5q0 -29 16.5 -53t47.5 -24q34 0 51 24.5t17 53.5v1.5v1.5q0 29 -17 53t-51 24q-32 0 -48 -24.5t-16 -53.5v0z" />
    <glyph glyph-name="Omega" unicode="&#x3a9;" 
 />
    <glyph glyph-name="ae" unicode="&#xe6;" horiz-adv-x="744" 
d="M424 12q-6 -3 -12.5 -5.5t-12.5 -3.5q-6 -2 -12.5 -2.5t-12.5 -0.5q-15 0 -27 2t-23 5q-12 3 -24 5t-27 2t-27 -2t-24 -5q-1 0 -2.5 -0.5t-2.5 -0.5q-13 -3 -27.5 -5t-34.5 -2q-51 0 -86.5 36.5t-35.5 88.5q0 45 32 73t70 48q14 8 27 14.5t25 13.5q7 4 13 7.5t11 7.5
q8 5 9 9t-6 4h-3.5t-5.5 -1q-10 -3 -24.5 -4.5t-30.5 -1.5h-2.5h-3.5h-4h-4q-32 1 -58.5 13.5t-26.5 42.5q0 31 24 50.5t54 19.5q12 0 22 -1t20 -3h1.5h1.5q11 -1 22.5 -2.5t24.5 -1.5t23.5 1.5t20.5 2.5q10 2 20.5 3t23.5 1h2.5h3.5q23 -1 44.5 -9t34.5 -22l4 -5
q23 20 54 30t68 10h22.5h17.5h28h42q34 0 55.5 -19.5t21.5 -48.5q0 -32 -32.5 -56t-72.5 -46q-1 -1 -2 -1.5t-2 -1.5q-42 -23 -76 -48t-34 -59q0 -19 13 -25.5t43 -6.5h19.5h16.5h15h17q12 0 23.5 8t21.5 18q9 10 17.5 18t14.5 8q15 0 22.5 -11.5t7.5 -31.5v-1.5v-0.5
q0 -9 -1.5 -18.5t-4.5 -19.5q-9 -31 -32.5 -56.5t-62.5 -25.5q-9 0 -16 1t-13 2q-1 0 -2 0.5l-1 0.5q-7 2 -14 3.5t-16 1.5h-0.5h-1.5h-1.5h-0.5q-10 0 -18 -1.5t-16 -2.5q0 -1 -1 -1h-1q-9 -2 -18 -3t-20 -1q-8 0 -16 0.5t-16 3.5q-4 1 -8 2.5t-8 3.5l-6 3v0zM145 350
q0 -15 14 -19t30 -4h5.5h4.5h4h4q18 0 34.5 1t27.5 8l0.5 0.5t1.5 0.5h1.5h0.5q2 0 3.5 -0.5t3.5 -1.5q5 -3 10 -9t6 -12q1 -2 1 -3v-2q0 -4 -1.5 -7.5t-6.5 -5.5q-12 -7 -28.5 -16t-32.5 -19q-18 -11 -34.5 -22.5t-28.5 -22.5q-11 -11 -17.5 -21t-6.5 -19q0 -28 21 -48
t49 -20q27 0 49 8t34 17q6 5 9.5 9.5t3.5 7.5q2 29 2 65.5v88.5q0 49 -27 62.5t-61 13.5h-2.5h-2.5h-8.5h-8.5q-20 -1 -37 -6t-17 -24v0zM582 291q18 12 21 24t3 23q0 23 -18.5 32.5t-40.5 10.5q-5 1 -9 1h-8q-62 0 -91 -39t-29 -101q0 -6 1 -14.5t2 -16.5q3 -17 8.5 -31
t12.5 -14q9 0 13 6.5t6 14.5q1 2 1.5 4t1.5 4q2 6 4.5 11.5t7.5 9.5q32 28 59.5 43.5t48.5 27.5q1 1 2.5 2t3.5 2v0z" />
    <glyph glyph-name="oslash" unicode="&#xf8;" horiz-adv-x="456" 
d="M93 46q-25 27 -40 73t-15 96v2.5v3.5q1 79 46 145.5t147 65.5q28 0 51.5 -5.5t43.5 -16.5q2 -1 6 8t8 21q1 2 1.5 4.5t1.5 4.5q3 9 5.5 17.5t4.5 13.5q1 2 2.5 3t3.5 1h0.5h0.5h0.5h0.5q2 0 4 -0.5t4 -1.5q6 -2 11 -6.5t7 -9.5q1 -1 1 -2v-2v-1.5v-1.5q-2 -5 -4 -9.5
t-4 -9.5q-1 -3 -2 -5.5t-2 -4.5q-8 -16 -13.5 -28t-2.5 -15q31 -28 46.5 -71.5t16.5 -90.5v-3.5v-3.5q0 -79 -37 -145t-99 -66q-8 0 -15 1t-13 2t-13 2t-15 1t-14.5 -1t-12.5 -2h-1h-1q-6 -1 -13 -2t-16 -1q-13 0 -25 3.5t-23 10.5l-3.5 -9t-7.5 -19v-0.5v-0.5
q-2 -6 -4 -11.5t-4 -9.5q-2 -5 -8.5 -8t-14.5 -3q-9 0 -16 3.5t-7 8.5v0.5t1 0.5v1.5v0.5q2 6 5.5 14t6.5 15q1 1 1.5 2t0.5 2q7 15 12.5 27l5.5 12v0zM186 142q5 -2 9 -3.5t8 -3.5l12 -2t14 -1q56 0 83.5 40.5t29.5 89.5v4.5v4.5v3.5v3.5q-1 14 -3.5 27.5t-8.5 22.5
q-16 -26 -34 -47.5t-36 -41.5q-20 -22 -39 -45t-35 -52v0zM163 157q11 15 24 31t27 33q6 7 11.5 14.5t11.5 14.5q23 31 41.5 60.5t25.5 53.5q-16 15 -34 22.5t-41 7.5q-54 0 -81 -40.5t-27 -89.5q0 -28 8.5 -54t24.5 -45l9 -8v0z" />
    <glyph glyph-name="questiondown" unicode="&#xbf;" horiz-adv-x="396" 
d="M160 289q27 0 47.5 -18t20.5 -45q0 -13 -5.5 -25t-13.5 -23q-8 -10 -18 -21t-20 -23q-22 -25 -40 -60t-18 -90q0 -39 31.5 -65.5t71.5 -26.5q35 0 63.5 20.5t28.5 53.5q0 22 -18 34.5t-40 13.5h-1.5h-1.5h-5t-5 -1q-12 -1 -22.5 -6.5t-10.5 -14.5q0 -8 -6 -11t-14 -4h-2
h-2q-3 0 -6 0.5t-5 0.5t-3.5 0.5l-1.5 0.5q5 5 6.5 10.5t1.5 10.5q0 4 -0.5 8t-0.5 8q-1 5 -1.5 9.5t-0.5 8.5q0 28 22.5 47.5t48.5 25.5q6 1 11 1.5t10 0.5q45 0 78 -31.5t33 -76.5q0 -58 -42.5 -100.5t-101.5 -42.5h-16h-16h-24.5h-27.5q-61 0 -106 39.5t-45 100.5
q0 42 27 74t60 57q32 25 59.5 45t27.5 39q0 8 -2 10.5t-5 2.5q-1 0 -3 -0.5t-4 -1.5q-1 0 -1.5 -0.5t-1.5 -0.5t-2.5 -0.5t-2.5 -0.5q-12 0 -19 5t-11 11q-3 5 -4.5 10t-1.5 6h0.5h0.5h0.5h0.5q5 0 8 3t5 8q1 1 1.5 3t1.5 4q4 6 11 11.5t22 5.5v0zM169 434q15 0 27.5 -15.5
t12.5 -45.5q0 -22 -12 -35.5t-27 -15.5h-2.5h-2.5q-13 0 -24.5 12.5t-11.5 38.5q0 31 12 46t27 15v0h1v0v0v0z" />
    <glyph glyph-name="exclamdown" unicode="&#xa1;" horiz-adv-x="245" 
d="M1 -132q5 4 7.5 6.5t3.5 5.5q2 2 3.5 4.5t3.5 4.5q3 3 6 5.5t6 5.5l4.5 4.5t4.5 6.5q2 3 4.5 8t4.5 13q3 8 9.5 34t13.5 61q4 22 8 46t8 49q4 30 6.5 59.5t2.5 54.5q0 17 7 26t15 10h1.5h1.5q10 0 17.5 -9t7.5 -27q0 -25 2 -53.5t6 -58.5q3 -24 6.5 -47.5t6.5 -44.5
q6 -37 12 -64.5t8 -34.5q1 -4 3.5 -7.5t4.5 -7.5q4 -4 8 -9t9 -9q2 -3 5 -6t5 -6q2 -2 3 -4.5t2 -4.5q0 -1 0.5 -2t1.5 -2q1 -5 3 -8.5t6 -4.5l-3 -1.5t-8 -3.5q-2 -1 -5 -2l-6 -2q-2 0 -4.5 -0.5t-4.5 -0.5q-11 0 -20.5 1.5t-18.5 2.5h-0.5t-0.5 1q-9 1 -19 2.5t-22 1.5
q-11 0 -20.5 -1.5t-18.5 -3.5q-9 -1 -18.5 -2.5t-20.5 -1.5q-13 0 -22 2.5t-15 5.5q-6 4 -8.5 6.5l-2.5 2.5v-1zM128 316h-2.5h-2.5q-15 2 -27 15.5t-12 35.5q0 30 12.5 45.5t27.5 15.5h0.5h0.5h0.5h0.5q14 0 26 -15t12 -46q0 -26 -11 -38.5t-25 -12.5v0z" />
    <glyph glyph-name="logicalnot" unicode="&#xac;" 
 />
    <glyph glyph-name="radical" unicode="&#x221a;" 
 />
    <glyph glyph-name="florin" unicode="&#x192;" horiz-adv-x="445" 
d="M112 86q7 25 13.5 48.5t12.5 47.5v1.5t1 1.5q11 43 23.5 88t26.5 99q1 4 -8 9.5t-19 11.5q-8 6 -15.5 11.5t-10.5 10.5q-1 3 -1.5 5t0.5 4q3 11 10.5 14t16.5 4h1.5h1.5q8 1 15 2.5t9 9.5q0 1 0.5 2t0.5 2v2v2q0 5 -2 8.5t-5 7.5l-2 2t-3 2q-4 5 -7.5 12t-3.5 18
q0 5 1 9.5t2 10.5q7 27 31.5 40t52.5 18q8 1 16 1.5t16 0.5q11 0 20.5 -1.5t18.5 -3.5q0 -1 1 -1h1l20 -4t23 -2q12 0 20 1t14 3q5 1 7.5 2l2.5 1q4 -6 5.5 -12t1.5 -12v-2.5v-2.5q0 -2 -0.5 -3t-0.5 -3q-6 -21 -25.5 -39t-41.5 -23q-4 -1 -7.5 -1.5t-7.5 -0.5q-10 0 -19 2
t-17 4q-7 2 -13 3.5t-12 2.5h-3h-3q-10 0 -18 -6.5t-10 -17.5q-1 -3 -1.5 -6.5t-0.5 -7.5q0 -3 0.5 -5.5t1.5 -5.5q0 -3 1.5 -5.5t3.5 -5.5l5.5 0.5t14.5 1.5q8 1 19.5 1.5t23.5 0.5q4 0 11 -0.5t15 -1.5q11 -2 20.5 -7t9.5 -14v-1.5v-0.5q-1 -1 -1 -1.5v-1.5
q-2 -8 -13.5 -14.5t-24.5 -11.5q-14 -6 -26 -10.5t-13 -7.5q-22 -80 -40 -148t-35 -132q-2 -8 -4 -16.5t-5 -18.5q-3 -15 -6.5 -31.5t-7.5 -32.5q-1 -4 -2 -8.5t-2 -8.5q-7 -29 -28 -52t-53 -23q-23 0 -31 11t-13 24q-6 12 -13.5 22.5t-28.5 10.5l0.5 2.5l1.5 7.5
q1 4 2.5 8.5t3.5 9.5q5 10 14 18.5t22 8.5q3 0 6.5 -1.5t6.5 -2.5q3 -2 6 -3.5t6 -1.5q4 0 7 3t5 11q1 5 2 9t1 8q0 1 0.5 2l0.5 1q1 7 2 15.5t5 21.5v0z" />
    <glyph glyph-name="approxequal" unicode="&#x2248;" 
 />
    <glyph glyph-name="uni2206" unicode="&#x2206;" 
 />
    <glyph glyph-name="guillemotleft" unicode="&#xab;" horiz-adv-x="425" 
d="M30 250l137 139l-12 -17t-26 -40q-3 -4 -6 -8.5t-5 -9.5q-12 -19 -20 -36.5t-8 -27.5t8 -28t20 -37q2 -4 5 -8.5t6 -9.5q14 -23 26 -40l12 -17l-137 140v0zM210 250l137 139l-12 -17t-26 -40q-3 -4 -6 -8.5t-5 -9.5q-12 -19 -20 -36.5t-8 -27.5t8 -28t20 -37q2 -4 5 -8.5
t6 -9.5q14 -23 26 -40l12 -17l-137 140v0z" />
    <glyph glyph-name="guillemotright" unicode="&#xbb;" horiz-adv-x="425" 
d="M136 250q0 10 -8 27.5t-20 36.5q-2 5 -5 9.5t-6 8.5q-14 23 -26 40l-12 17l137 -139l-137 -140l12 17t27 40q2 5 5 9.5t5 8.5q12 19 20 37t8 28v0zM316 250q0 10 -8 27.5t-20 36.5q-2 5 -5 9.5t-6 8.5q-14 23 -26 40l-12 17l137 -139l-137 -140l12 17t27 40q2 5 5 9.5
t5 8.5q12 19 20 37t8 28v0z" />
    <glyph glyph-name="ellipsis" unicode="&#x2026;" horiz-adv-x="526" 
d="M46 86q14 0 26 -11t12 -34q0 -22 -12 -32.5t-26 -9.5v0v0h-1v0q-14 0 -26 10t-12 32q0 21 11.5 32.5t24.5 12.5h1.5h1.5v0zM246 86q14 0 26 -11t12 -34q0 -22 -12 -32.5t-26 -9.5v0v0h-1v0q-14 0 -26 10t-12 32q0 21 11.5 32.5t24.5 12.5h1.5h1.5v0zM446 86q14 0 26 -11
t12 -34q0 -22 -12 -32.5t-26 -9.5v0v0h-1v0q-14 0 -26 10t-12 32q0 21 11.5 32.5t24.5 12.5h1.5h1.5v0z" />
    <glyph glyph-name="Agrave" unicode="&#xc0;" horiz-adv-x="555" 
d="M470 92q2 -11 10 -18t18 -13l2 -2t3 -1q9 -6 16 -13t7 -17q0 -9 -12.5 -15t-27.5 -9q-6 -1 -12.5 -1.5t-11.5 -0.5q-7 0 -12.5 0.5t-10.5 1.5t-10.5 1.5t-12.5 0.5q-6 0 -11.5 -0.5t-9.5 -1.5h-1h-1q-4 -1 -8.5 -1.5t-10.5 -0.5q-4 0 -8.5 0.5t-9.5 1.5q-13 2 -24 8.5
t-11 15.5q0 7 5.5 12.5t13.5 10.5q1 1 2.5 2t2.5 2q10 6 17.5 13t7.5 18t-11.5 70t-25.5 128q-2 9 -4.5 18.5t-4.5 19.5q-2 8 -3.5 16t-3.5 16q-1 3 7.5 9.5t19.5 13.5q4 2 7.5 4t6.5 3q12 7 23 12t16 5h2.5t0.5 -1q4 -20 8 -40.5t9 -41.5q4 -21 8.5 -41.5t9.5 -40.5
q9 -40 18.5 -77t16.5 -67v0zM444 584q38 0 48.5 -15t10.5 -38q0 -37 -61.5 -76t-135.5 -81q-75 -43 -136.5 -90.5t-61.5 -102.5q0 -24 7.5 -34.5t16.5 -13.5q3 -1 6 -1.5t6 -0.5h7h4h1v0v-27v-29q0 -25 -13 -42t-29 -25q-6 -2 -11.5 -3.5t-10.5 -1.5q-2 0 -4 0.5t-3 0.5
q-14 4 -26 19.5t-19 33.5q-3 8 -5 16t-2 15q0 41 14 90.5t34 100.5q10 25 21.5 50t22.5 49q21 44 41 84t33 69q1 2 1 3.5v2.5q0 9 -10 14t-23 5q-12 0 -22 -4.5t-10 -15.5q0 -7 4 -13t8 -11q5 -6 8.5 -10t3.5 -6t-1 -6t-3 -9q-2 -3 -4 -6.5t-4 -6.5q-1 -2 -3 -3t-3 -1h-1
q-18 9 -31 19.5t-23 20.5q-10 12 -15.5 23.5t-5.5 21.5q0 15 12 25t36 10h119.5h107.5h51h53v0zM430 523q0 11 -7.5 19t-18.5 8h-2h-2q-9 -1 -14.5 -8t-5.5 -16v-6t1 -6v-2v-2q0 -6 0.5 -12t2.5 -16q1 -3 -8 -11t-21 -17q-2 -2 -4 -3.5t-5 -3.5q-12 -9 -22.5 -15.5
t-13.5 -7.5h-1q-2 7 -3.5 14t-2.5 14q-1 1 -1 1.5v0.5q-6 29 -14.5 53t-28.5 24q-6 0 -10.5 -2.5t-9.5 -7.5q-15 -17 -33 -63t-54 -133q-1 -4 -2 -6t-1 -4t0.5 -3t1.5 -1h1.5h1.5q1 1 2.5 1.5t2.5 1.5l0.5 0.5l0.5 0.5q83 57 155 96.5t100 75.5q7 9 11 18t4 18v0zM256 685
q0 5 2.5 9.5t6.5 8.5q5 5 10 7t9 2q14 0 25.5 -14.5t20.5 -31.5q8 -17 13 -31.5l5 -14.5l-14.5 5t-31.5 14t-31.5 21t-14.5 25v0v0v0z" />
    <glyph glyph-name="Atilde" unicode="&#xc3;" horiz-adv-x="555" 
d="M470 92q2 -11 10 -18t18 -13l2 -2t3 -1q9 -6 16 -13t7 -17q0 -9 -12.5 -15t-27.5 -9q-6 -1 -12.5 -1.5t-11.5 -0.5q-7 0 -12.5 0.5t-10.5 1.5t-10.5 1.5t-12.5 0.5q-6 0 -11.5 -0.5t-9.5 -1.5h-1h-1q-4 -1 -8.5 -1.5t-10.5 -0.5q-4 0 -8.5 0.5t-9.5 1.5q-13 2 -24 8.5
t-11 15.5q0 7 5.5 12.5t13.5 10.5q1 1 2.5 2t2.5 2q10 6 17.5 13t7.5 18t-11.5 70t-25.5 128q-2 9 -4.5 18.5t-4.5 19.5q-2 8 -3.5 16t-3.5 16q-1 3 7.5 9.5t19.5 13.5q4 2 7.5 4t6.5 3q12 7 23 12t16 5h2.5t0.5 -1q4 -20 8 -40.5t9 -41.5q4 -21 8.5 -41.5t9.5 -40.5
q9 -40 18.5 -77t16.5 -67v0zM444 584q38 0 48.5 -15t10.5 -38q0 -37 -61.5 -76t-135.5 -81q-75 -43 -136.5 -90.5t-61.5 -102.5q0 -24 7.5 -34.5t16.5 -13.5q3 -1 6 -1.5t6 -0.5h7h4h1v0v-27v-29q0 -25 -13 -42t-29 -25q-6 -2 -11.5 -3.5t-10.5 -1.5q-2 0 -4 0.5t-3 0.5
q-14 4 -26 19.5t-19 33.5q-3 8 -5 16t-2 15q0 41 14 90.5t34 100.5q10 25 21.5 50t22.5 49q21 44 41 84t33 69q1 2 1 3.5v2.5q0 9 -10 14t-23 5q-12 0 -22 -4.5t-10 -15.5q0 -7 4 -13t8 -11q5 -6 8.5 -10t3.5 -6t-1 -6t-3 -9q-2 -3 -4 -6.5t-4 -6.5q-1 -2 -3 -3t-3 -1h-1
q-18 9 -31 19.5t-23 20.5q-10 12 -15.5 23.5t-5.5 21.5q0 15 12 25t36 10h119.5h107.5h51h53v0zM430 523q0 11 -7.5 19t-18.5 8h-2h-2q-9 -1 -14.5 -8t-5.5 -16v-6t1 -6v-2v-2q0 -6 0.5 -12t2.5 -16q1 -3 -8 -11t-21 -17q-2 -2 -4 -3.5t-5 -3.5q-12 -9 -22.5 -15.5
t-13.5 -7.5h-1q-2 7 -3.5 14t-2.5 14q-1 1 -1 1.5v0.5q-6 29 -14.5 53t-28.5 24q-6 0 -10.5 -2.5t-9.5 -7.5q-15 -17 -33 -63t-54 -133q-1 -4 -2 -6t-1 -4t0.5 -3t1.5 -1h1.5h1.5q1 1 2.5 1.5t2.5 1.5l0.5 0.5l0.5 0.5q83 57 155 96.5t100 75.5q7 9 11 18t4 18v0zM217 712
q20 0 37 -7.5t33 -16.5q1 -1 2.5 -1.5t2.5 -1.5q15 -8 30 -14.5t33 -6.5v0h1v0v0q16 0 34 7t40 25l30 -42q-31 -22 -56 -30.5t-45 -8.5q-22 0 -40 7.5t-34 16.5q-3 2 -7 3.5t-7 3.5q-13 7 -25.5 11.5t-26.5 4.5t-30 -6t-36 -20q-1 0 -4 5t-6 12q-1 1 -1.5 2t-0.5 2
q-4 8 -6.5 14t-1.5 7q26 20 46.5 27t37.5 7v0z" />
    <glyph glyph-name="Otilde" unicode="&#xd5;" horiz-adv-x="535" 
d="M494 283q0 -108 -46 -197.5t-127 -89.5q-9 0 -15.5 1.5t-13.5 2.5q-7 2 -13.5 3.5t-15.5 1.5t-16.5 -1.5t-14.5 -3.5q-7 -1 -14.5 -2.5t-16.5 -1.5q-74 0 -117 85.5t-43 191.5v7.5v6.5q3 108 57.5 198.5t172.5 90.5q115 0 168.5 -90.5t54.5 -199.5v-1.5v-1.5v0zM169 188
q0 -4 1 -7.5t2 -7.5q8 -21 33.5 -39t54.5 -21h4h4q65 0 101.5 56.5t43.5 124.5q1 8 1.5 16.5t0.5 16.5q0 10 -2 24t-6 28q-2 9 -4.5 18t-4.5 17q-7 21 -12.5 31.5t-5.5 -2.5v-0.5v-1.5v-1.5v-0.5v-0.5v-0.5v-0.5v-0.5q0 -19 -14 -35.5t-36 -32.5q-13 -9 -27 -18l-28 -18
q-40 -27 -73 -60.5t-33 -84.5v0zM116 320q0 -7 1 -16t2 -19q2 -13 5 -25.5t6 -17.5q2 -4 3.5 -3.5t3.5 6.5q15 46 43.5 74t59.5 48q15 9 29.5 17t27.5 16q24 15 40.5 31.5t16.5 40.5q0 22 -23.5 39t-51.5 22q-4 0 -8 0.5t-8 0.5q-65 0 -101.5 -56.5t-43.5 -124.5
q-1 -8 -1.5 -16.5t-0.5 -16.5v0zM192 717q20 0 37 -7.5t33 -16.5q1 -1 2.5 -1.5t2.5 -1.5q15 -8 30 -14.5t33 -6.5v0h1v0v0q16 0 34 7t40 25l30 -42q-31 -22 -56 -30.5t-45 -8.5q-22 0 -40 7.5t-34 16.5q-3 2 -7 3.5t-7 3.5q-13 7 -25.5 11.5t-26.5 4.5t-30 -6t-36 -20
q-1 0 -4 5t-6 12q-1 1 -1.5 2t-0.5 2q-4 8 -6.5 14t-1.5 7q26 20 46.5 27t37.5 7v0z" />
    <glyph glyph-name="OE" unicode="&#x152;" horiz-adv-x="788" 
d="M357 16q-16 -9 -30 -13.5t-28 -5.5q-3 -1 -5.5 -1h-5.5q-8 0 -15 1.5t-13 2.5h-0.5h-0.5q-7 2 -14 3.5t-16 1.5t-16.5 -1.5t-13.5 -3.5q-7 -1 -14.5 -2.5t-16.5 -1.5q-74 0 -117 85.5t-43 191.5v7.5v6.5q3 108 57 198.5t172 90.5q17 0 33.5 -2.5t32.5 -8.5
q6 -1 11.5 -3.5t10.5 -4.5l9 3q21 7 55 10t71 3q20 1 39 1h36h32t35 -1q50 -1 91.5 -9t41.5 -30q0 -14 -18 -29.5t-44 -31.5q-10 -6 -21 -12.5t-22 -12.5q-39 -22 -72 -41t-33 -31q0 -7 2 -9.5t5 -2.5q5 0 11.5 3.5t15.5 7.5q8 4 18 7.5t20 3.5h4.5h5.5q25 -3 45.5 -16
t20.5 -37v-1.5v-1.5q0 -2 -0.5 -4.5t-1.5 -4.5q-1 -4 -2.5 -7.5t-3.5 -6.5q-3 -5 -5.5 -8l-2.5 -3q-9 8 -16.5 11t-15.5 3q-9 0 -17.5 -3t-18.5 -6t-22 -6t-26 -3h-8.5t-8.5 1q-24 2 -44.5 11.5t-20.5 33.5q0 14 16.5 32.5t39.5 37.5q6 5 13 10t13 11q23 17 43 32.5t31 26.5
q5 5 6.5 10.5t1.5 9.5q0 11 -7 18.5t-17 7.5h-7.5h-7.5h-23.5h-29.5q-20 0 -36 -16.5t-16 -39.5q0 -7 0.5 -13.5t1.5 -12.5q0 -6 0.5 -11.5t0.5 -11.5t-0.5 -12t-2.5 -13q-2 -8 -6.5 -13.5t-9.5 -11.5q-1 0 -1.5 -0.5t-0.5 -1.5q-6 -6 -11 -13.5t-5 -17.5v-2.5t1 -3.5
q1 -8 5.5 -15.5t10.5 -14.5t11 -12t5 -6q0 -8 0.5 -17.5t0.5 -18.5v-1.5v-1.5q1 -19 1.5 -36t0.5 -27q0 -34 26 -56t60 -22h21h20h32h35q9 0 16 4.5t13 10.5t13 10.5t16 4.5q15 0 21.5 -13.5t7.5 -29.5q1 -4 1 -7.5v-7.5q0 -37 -24.5 -58.5t-78.5 -21.5q-19 0 -35.5 2
t-31.5 4l-14 2l-14 2q-8 1 -16.5 1.5t-17.5 0.5q-18 0 -34 -2t-31 -4t-28.5 -4t-27.5 -2q-5 0 -10.5 0.5t-10.5 1.5q-6 1 -11.5 2.5t-10.5 3.5q-8 3 -9 3.5l-1 0.5v0v0v0zM136 188q0 -4 1 -7.5t2 -7.5q8 -21 33.5 -39t54.5 -21h4h4q65 0 101.5 56.5t43.5 124.5q1 8 1.5 16.5
t0.5 16.5q0 10 -2 24t-6 28q-2 9 -4.5 18t-4.5 17q-7 21 -12.5 31.5t-5.5 -2.5v-0.5v-1.5v-1.5v-0.5v-0.5v-0.5v-0.5v-0.5q0 -19 -14 -35.5t-36 -32.5q-13 -9 -27 -18l-28 -18q-40 -27 -73 -60.5t-33 -84.5v0zM83 320q0 -7 1 -16t2 -19q2 -16 5.5 -29.5t6.5 -16.5
q2 -1 3.5 0.5t2.5 5.5q15 46 43 74t59 47q15 10 29.5 18t27.5 16q25 15 41 31.5t16 40.5q0 23 -24.5 40.5t-54.5 20.5q-3 1 -6 1h-6q-65 0 -101 -56.5t-43 -124.5q-1 -8 -1.5 -16.5t-0.5 -16.5v0z" />
    <glyph glyph-name="oe" unicode="&#x153;" horiz-adv-x="775" 
d="M382 65q-18 -27 -42 -43t-53 -16q-8 0 -15 1t-13 2t-13 2t-15 1t-14.5 -1t-12.5 -2h-1h-1q-6 -1 -13 -2t-16 -1q-61 0 -98 65t-37 144v2.5v3.5q1 79 46 145.5t147 65.5q55 0 93 -21t60 -54v0v0v0v0v1t4 5q26 32 62 46.5t82 14.5h22.5h17.5h28h42q34 0 55.5 -19.5
t21.5 -48.5q0 -32 -32.5 -56t-72.5 -46q-1 -1 -2 -1.5t-2 -1.5q-42 -23 -76 -48t-34 -59q0 -19 13 -25.5t43 -6.5h19.5h16.5h15h17q12 0 23.5 8t21.5 18q9 10 17.5 18t14.5 8q15 0 22.5 -14t7.5 -34v-1.5v-0.5q0 -8 -1 -16t-3 -17q-9 -31 -33 -56.5t-64 -25.5q-9 0 -16 1
t-13 2q-1 0 -2 0.5l-1 0.5q-7 2 -14 3.5t-16 1.5h-0.5h-1.5h-1.5h-0.5q-10 0 -18 -1.5t-16 -2.5q0 -1 -1 -1h-1q-9 -2 -18 -3t-20 -1q-33 0 -58 15t-44 43l-6 8v0zM121 264q0 -49 27 -90.5t81 -41.5q56 0 84.5 40.5t28.5 89.5q1 50 -27.5 91t-85.5 41q-54 0 -81 -40.5
t-27 -89.5v0zM594 291q18 12 21 24t3 23q0 23 -18.5 32.5t-40.5 10.5q-5 1 -9 1h-8q-62 0 -91 -39t-29 -101q0 -6 1 -14.5t2 -16.5q3 -17 8.5 -31t12.5 -14q9 0 13 6.5t6 14.5q1 2 1.5 4t1.5 4q2 6 4.5 11.5t7.5 9.5q32 28 59.5 43.5t48.5 27.5q1 1 2.5 2t3.5 2v0z" />
    <glyph glyph-name="endash" horiz-adv-x="694" 
d="M694 352q7 0 10.5 -7t4.5 -15v-1.5v-1.5q0 -10 -3.5 -18.5t-11.5 -8.5h-126.5h-222.5h-228h-122q-7 0 -10.5 7t-4.5 15v1.5v1.5q0 11 3.5 19t11.5 8h126h221h230.5h121.5v0z" />
    <glyph glyph-name="emdash" unicode="&#x2014;" horiz-adv-x="472" 
d="M380 352q7 0 10.5 -7t4.5 -15v-1.5v-1.5q0 -10 -3.5 -18.5t-11.5 -8.5h-61h-82h-91h-62q-7 0 -10.5 7t-4.5 15v1.5v1.5q0 11 4 19t11 8h61h79h95h61v0z" />
    <glyph glyph-name="quotedblleft" unicode="&#x201c;" horiz-adv-x="243" 
d="M48 445q-15 0 -27 11.5t-12 33.5q0 8 2.5 16t6.5 17q5 11 12 21.5t15 20.5q6 7 11.5 13t10.5 11q1 1 2 1t2 -1q2 -1 3.5 -3t2.5 -4q0 -1 0.5 -2t0.5 -2v-0.5v-0.5l-1 -1v0q-4 -4 -7 -9t-5 -11q-3 -7 -4.5 -13t-1.5 -11v-0.5v-0.5q1 -2 5 -4.5t9 -5.5q5 -5 9 -12t4 -19
q0 -22 -12 -33.5t-26 -11.5v0zM181 445q-15 0 -27 11.5t-12 33.5q0 8 2.5 16t6.5 17q5 11 12.5 22t15.5 21q6 7 11.5 12.5l10.5 10.5q1 1 1.5 1t1.5 -1q2 0 3.5 -2t2.5 -5q0 -1 0.5 -2t0.5 -2v-0.5v-0.5l-1 -1v0q-3 -4 -6 -9.5t-6 -10.5q-2 -6 -3.5 -12t-1.5 -10v-0.5v-0.5
v-0.5v-0.5v-0.5v-0.5q1 -2 5 -4.5t8 -5.5q5 -5 9 -12t4 -19q0 -22 -12 -33.5t-26 -11.5v0z" />
    <glyph glyph-name="quotedblright" unicode="&#x201d;" horiz-adv-x="272" 
d="M74 627q14 -1 26 -12t12 -33q0 -8 -2.5 -16t-6.5 -17q-5 -11 -12.5 -22t-15.5 -21q-6 -7 -11.5 -12.5l-10.5 -10.5v0v0h-1h-1t-1.5 0.5t-1.5 0.5q-1 1 -2 2.5t-2 3.5q0 1 -0.5 2t-0.5 2v0.5t1 0.5v0.5v0.5q4 4 6.5 9.5t5.5 10.5q2 6 3.5 12t1.5 10v0.5v0.5v0.5v0.5v0.5
v0.5q-1 2 -5 4.5t-8 5.5q-5 5 -9 12t-4 19q0 23 12 34t27 11v0zM207 627q14 -1 26 -12t12 -33q0 -8 -2.5 -16t-6.5 -17q-5 -11 -12.5 -22.5t-15.5 -21.5q-6 -6 -11 -12t-10 -10v0v0h-1h-1t-2 0.5t-2 1.5t-2 2.5t-2 2.5q0 1 -0.5 2t-0.5 2v0.5t1 0.5v0.5v0.5q4 4 7 9t5 11
q3 7 4.5 13t1.5 11v0.5v0.5q-1 2 -5 4.5t-8 5.5q-6 5 -10 12t-4 19q0 23 12 34t27 11v0z" />
    <glyph glyph-name="quoteleft" unicode="&#x2018;" horiz-adv-x="108" 
d="M48 445q-15 0 -27 11.5t-12 33.5q0 8 2.5 16t6.5 17q5 11 12 21.5t15 20.5q6 7 11.5 13t10.5 11q1 1 2 1t2 -1q2 -1 3.5 -3t2.5 -4q0 -1 0.5 -2t0.5 -2v-0.5v-0.5l-1 -1v0q-4 -4 -7 -9t-5 -11q-3 -7 -4.5 -13t-1.5 -11v-0.5v-0.5q1 -2 5 -4.5t9 -5.5q5 -5 9 -12t4 -19
q0 -22 -12 -33.5t-26 -11.5v0z" />
    <glyph glyph-name="quoteright" unicode="&#x2019;" horiz-adv-x="138" 
d="M74 627q14 -1 26 -12t12 -33q0 -8 -2.5 -16t-6.5 -17q-5 -11 -12.5 -22t-15.5 -21q-6 -7 -11.5 -12.5l-10.5 -10.5v0v0h-1h-1t-1.5 0.5t-1.5 0.5q-1 1 -2 2.5t-2 3.5q0 1 -0.5 2t-0.5 2v0.5t1 0.5v0.5v0.5q4 4 6.5 9.5t5.5 10.5q2 6 3.5 12t1.5 10v0.5v0.5v0.5v0.5v0.5
v0.5q-1 2 -5 4.5t-8 5.5q-5 5 -9 12t-4 19q0 23 12 34t27 11v0z" />
    <glyph glyph-name="divide" unicode="&#xf7;" 
 />
    <glyph glyph-name="lozenge" unicode="&#x25ca;" 
 />
    <glyph glyph-name="ydieresis" unicode="&#xff;" horiz-adv-x="455" 
d="M115 424h3.5h3.5h15h16q29 -1 53.5 -4t24.5 -14q0 -7 5 -11t12 -4q8 0 27 5.5t41 12.5q5 1 10 2.5t10 2.5q17 5 34 8.5t30 3.5t20.5 -4t7.5 -14q0 -32 -20.5 -78t-46.5 -94q-1 -2 -2.5 -4.5t-2.5 -4.5q-27 -51 -49.5 -98t-22.5 -77v-36v-30v-24v-26q0 -29 -14.5 -52
t-46.5 -23q-22 0 -33.5 10.5t-19.5 23.5q-1 0 -1 0.5v0.5q-9 13 -19.5 23t-30.5 10v0.5v2.5q-1 1 -1 3v4q0 4 0.5 8.5t1.5 9.5q2 11 8.5 19.5t19.5 8.5q2 0 4.5 -0.5t4.5 -1.5l3 -1.5t2 -1.5q4 -1 7 -2.5t6 -1.5q4 0 6 3t2 11v28v34q0 7 -0.5 12.5t-0.5 11.5q-5 26 -35 75
t-123 216q-3 6 -8 10t-10 6q-1 1 -2 1.5t-2 1.5q-6 4 -11.5 9t-5.5 15q0 5 4.5 7.5t10.5 2.5t19 0.5t29 1.5q9 0 19 0.5t20 1.5h14h14v0zM235 159q3 -7 6 -9.5t5 -2.5q3 -1 6 2l6 6q1 1 1.5 2t1.5 2q49 59 63.5 107t14.5 82q0 17 -9.5 23.5t-25.5 6.5q-12 0 -26.5 -3
t-29.5 -6q-2 -1 -5 -1.5t-5 -1.5q-17 -4 -33 -8t-28 -4q-7 0 -10.5 6.5t-4.5 13.5q-1 3 -1 6v6q0 4 -4.5 6.5t-10.5 3.5h-0.5h-1.5h-1.5h-0.5q-5 -1 -9 -3t-4 -6q0 -16 21.5 -59l84.5 -169v0zM191 577v-1.5v-1.5q-1 -15 -12 -27.5t-32 -12.5t-32 13.5t-11 29.5v0.5v0.5v0.5
v0.5v1.5v1.5q1 15 11.5 27.5t31.5 12.5q23 0 33.5 -14t10.5 -31v0zM337 577v-1.5v-1.5q-1 -15 -12 -27.5t-32 -12.5t-32 13.5t-11 29.5v0.5v0.5v0.5v0.5v1.5v1.5q1 15 11.5 27.5t31.5 12.5q23 0 33.5 -14t10.5 -31v0z" />
    <glyph glyph-name="Ydieresis" unicode="&#x178;" horiz-adv-x="600" 
d="M374 108q1 -19 7.5 -24.5t14.5 -8.5q3 -1 5.5 -2t5.5 -2q1 0 2.5 -1t2.5 -2t2 -1.5t2 -1.5q12 -10 19.5 -18.5t13.5 -10.5q1 0 -3.5 -5.5t-13.5 -12.5t-22 -12.5t-29 -5.5q-11 0 -20 1.5t-17 4.5q-9 2 -18 3.5t-20 1.5q-9 0 -15.5 -2t-13.5 -4h-0.5h-0.5q-6 -3 -12.5 -4
t-14.5 -1q-5 0 -10 0.5t-11 2.5q-6 1 -11.5 3.5t-10.5 5.5q-10 4 -15.5 8t-4.5 4t1.5 0.5t0.5 1.5q3 2 6 6.5t7 9.5t9 10t11 7q4 2 8 3.5t9 3.5q12 6 22 15t10 24v11.5v6.5v14v46v2.5v2.5q0 9 -0.5 18t-2.5 17q-1 5 -3 10t-5 10q-10 16 -24.5 37.5t-30.5 43.5q-1 2 -2 3
l-2 2q-27 39 -50 71.5t-23 38.5q0 9 -7.5 14t-16.5 8q-3 1 -5.5 2t-5.5 2q-6 2 -9.5 4t-3.5 5t19.5 11t43.5 18q6 2 11.5 4.5t11.5 4.5q16 8 28 15t12 13q0 3 -2 3.5t-5 0.5h-2h-1h-2h-2h-41.5h-35.5q-7 0 -11.5 -4t-4.5 -11q0 -4 1 -8t4 -9l-30 -20q-4 5 -9.5 9t-11.5 7
q-5 4 -10 7.5t-9 6.5q-7 5 -11 10t-4 11q0 16 16 24t35 11q5 0 9.5 0.5t8.5 0.5h61.5h68.5h28h28h7t8 -1q11 -1 20.5 -5t9.5 -13q0 -6 -14.5 -14t-31.5 -17q-6 -4 -12 -7t-11 -6q-10 -7 -17 -13t-7 -12q0 -7 17 -31.5t39 -52.5q2 -3 3.5 -5t3.5 -4q16 -21 30.5 -38.5
t23.5 -28.5q2 -3 4.5 -4t5.5 -1q3 -1 6 0.5t6 3.5q0 1 1 1.5l1 0.5q60 51 80 97t20 67q0 12 -6 19t-24 7q-14 0 -33.5 -4.5t-40.5 -10.5l-8 -2t-7 -2q-25 -7 -45.5 -13t-29.5 -6q-13 0 -19 3t-8 7q-1 1 -1 2v2q0 2 1.5 4t4.5 2q20 0 51.5 12.5t67.5 27.5q5 2 10.5 4.5
t10.5 4.5q30 12 59.5 21.5t52.5 9.5q21 0 36.5 -13t15.5 -33q0 -25 -16 -54.5t-39 -60.5q-11 -15 -23 -29l-24 -28q-21 -24 -40.5 -44.5t-34.5 -37.5q-4 -4 -4.5 -8.5t-0.5 -10.5q0 -43 0.5 -84t1.5 -73v0zM291 663v-1.5v-1.5q-1 -15 -12 -27.5t-32 -12.5t-32 13.5t-11 29.5
v0.5v0.5v0.5v0.5v1.5v1.5q1 15 11.5 27.5t31.5 12.5q23 0 33.5 -14t10.5 -31v0zM437 663v-1.5v-1.5q-1 -15 -12 -27.5t-32 -12.5t-32 13.5t-11 29.5v0.5v0.5v0.5v0.5v1.5v1.5q1 15 11.5 27.5t31.5 12.5q23 0 33.5 -14t10.5 -31v0z" />
    <glyph glyph-name="fraction" unicode="&#x2215;" horiz-adv-x="356" 
d="M309 608h0.5h0.5h0.5h0.5q2 0 4 -0.5t4 -1.5q6 -2 11 -6.5t7 -9.5q1 -1 1 -2v-2v-1.5v-1.5q-19 -55 -37.5 -107t-37.5 -103q-5 -14 -10 -27.5t-10 -27.5q-47 -127 -96.5 -260.5t-110.5 -302.5q-2 -5 -8.5 -8t-14.5 -3q-9 0 -15.5 3.5t-6.5 8.5v0.5v0.5q1 1 1 1.5v0.5
q25 66 50.5 133t51.5 135q51 138 103 282t106 295q1 2 2.5 3t3.5 1v0z" />
    <glyph glyph-name="currency" unicode="&#xa4;" horiz-adv-x="502" 
d="M33 124q-2 2 -3.5 5t-1.5 6q0 14 17 38.5t42 56.5q-18 28 -26 57.5t-8 59.5v3.5v2.5q0 29 8 56.5t23 51.5q-28 30 -41.5 49t-13.5 31q0 5 1.5 8t4.5 6t7 4.5t8 1.5q16 -1 38.5 -13.5t47.5 -33.5q26 17 54.5 25.5t61.5 8.5t61.5 -8t55.5 -25l11 7.5t27 16.5q3 2 7 4t7 4
q13 7 24.5 11.5t18.5 4.5q2 0 4 -0.5t3 -2.5q2 -1 2.5 -3t0.5 -5q0 -7 -5 -18.5t-12 -22.5q-2 -4 -4.5 -7.5t-4.5 -7.5q-10 -15 -18 -26l-8 -11q14 -23 22 -52t8 -59q0 -25 -5.5 -50.5t-19.5 -51.5l10.5 -14t15.5 -23q2 -4 4.5 -8t4.5 -8q8 -13 13 -25t5 -20q0 -3 -0.5 -4.5
t-2.5 -3.5q-1 -1 -3.5 -2t-5.5 -1q-7 0 -18 4.5t-22 10.5q-4 2 -8 4.5t-8 4.5q-13 8 -23 15t-12 9q-22 -16 -53.5 -27t-71.5 -11q-34 0 -62 8t-49 21q-32 -28 -56.5 -43t-38.5 -14q-4 0 -7.5 1t-5.5 4v0zM83 347q0 -64 42 -117t127 -53t127.5 52.5t42.5 115.5v1.5v1.5
q0 64 -42.5 117t-127.5 53q-84 0 -126.5 -52.5t-42.5 -115.5v-1.5v-1.5v0z" />
    <glyph glyph-name="guilsinglleft" unicode="&#x2039;" horiz-adv-x="197" 
d="M30 250l137 139l-12 -17t-26 -40q-3 -4 -6 -8.5t-5 -9.5q-12 -19 -20 -36.5t-8 -27.5t8 -28t20 -37q2 -4 5 -8.5t6 -9.5q14 -23 26 -40l12 -17l-137 140v0z" />
    <glyph glyph-name="guilsinglright" unicode="&#x203a;" horiz-adv-x="225" 
d="M196 248l-137 -139l12 17t26 40q3 4 6 8.5t5 9.5q12 19 20 36.5t8 27.5t-8 28t-20 37q-2 4 -5 8.5t-6 9.5q-14 23 -26 40l-12 17l137 -140v0z" />
    <glyph glyph-name="fi" unicode="&#xf001;" horiz-adv-x="510" 
d="M192 444q4 0 12.5 -0.5t17.5 -2.5q12 -2 22.5 -8t10.5 -17q0 -8 -10.5 -14.5t-22.5 -11.5q-12 -6 -22.5 -10.5t-10.5 -7.5v-148v-132q0 -12 8 -20.5t17 -15.5q3 -2 6.5 -4.5t6.5 -5.5q5 -4 8.5 -8.5t3.5 -9.5q0 -10 -12 -16t-27 -8q-5 -1 -10 -1.5t-9 -0.5
q-7 0 -12.5 0.5t-10.5 1.5t-10.5 1.5t-12.5 0.5q-6 0 -11.5 -0.5t-9.5 -1.5h-1h-1q-4 -1 -8.5 -1.5t-10.5 -0.5q-4 0 -8 0.5t-9 1.5q-13 2 -24 8t-11 16v1.5t1 1.5q1 5 8 10t15 11q9 7 16.5 15t7.5 19v48.5v47.5v90v100q0 4 -10.5 9.5t-23.5 12.5q-9 5 -17.5 10.5
t-12.5 10.5q-2 3 -3 5t-1 4q0 11 7 14t16 4h1.5h1.5q8 1 14 2.5t6 9.5t-3.5 13.5t-9.5 10.5q-1 2 -3 3.5t-4 2.5q-7 7 -13.5 17.5t-6.5 30.5q0 29 24.5 42.5t54.5 16.5q5 0 10.5 0.5t10.5 0.5q11 0 20.5 -1.5t19.5 -3.5l1 -0.5t2 -0.5q11 -2 21.5 -4t23.5 -2q12 0 20 1t13 3
q5 1 7 2l2 1q8 -8 11.5 -17t3.5 -18q0 -24 -19.5 -44t-45.5 -20q-10 0 -19.5 2t-18.5 4t-16.5 4t-15.5 2q-10 0 -16 -6.5t-6 -17.5q0 -5 1.5 -11.5t4.5 -12.5l4 -6t5 -6l5 0.5t14 1.5t20 1.5t23 0.5v0zM404 430h3.5h2.5q10 0 17.5 -3t7.5 -11t-5 -14.5t-11 -11.5
q-7 -6 -12 -10.5t-5 -7.5v-148v-132q0 -12 8 -20.5t17 -15.5q3 -2 6.5 -4.5t6.5 -5.5q5 -4 8.5 -8.5t3.5 -9.5q0 -10 -12 -16t-27 -8q-5 -1 -10 -1.5t-9 -0.5q-7 0 -12.5 0.5t-10.5 1.5t-10.5 1.5t-12.5 0.5q-6 0 -11 -0.5t-10 -1.5t-10 -1.5t-11 -0.5q-4 0 -8 0.5t-9 1.5
q-13 2 -24 8t-11 16v1.5t1 1.5q1 5 8 10t15 11q9 7 16.5 15t7.5 19v48.5v47.5v90v100q0 4 -5 8.5t-11 9.5q-7 6 -12 12.5t-5 13.5t6 10t13 4h3.5h2.5h25.5h27.5h30h27v0zM348 555q22 0 40 -9.5t18 -27.5q0 -17 -17.5 -25.5t-38.5 -9.5h-1.5h-1.5q-22 0 -40 9t-18 26
q0 18 17.5 27t38.5 10h1.5h1.5v0z" />
    <glyph glyph-name="fl" unicode="&#xf002;" horiz-adv-x="528" 
d="M192 444q4 0 12.5 -0.5t17.5 -2.5q12 -2 22.5 -8t10.5 -17q0 -8 -10.5 -14.5t-22.5 -11.5q-12 -6 -22.5 -10.5t-10.5 -7.5v-148v-132q0 -12 8 -20.5t17 -15.5q3 -2 6.5 -4.5t6.5 -5.5q5 -4 8.5 -8.5t3.5 -9.5q0 -10 -12 -16t-27 -8q-5 -1 -10 -1.5t-9 -0.5
q-7 0 -12.5 0.5t-10.5 1.5t-10.5 1.5t-12.5 0.5q-6 0 -11.5 -0.5t-9.5 -1.5h-1h-1q-4 -1 -8.5 -1.5t-10.5 -0.5q-4 0 -8 0.5t-9 1.5q-13 2 -24 8t-11 16v1.5t1 1.5q1 5 8 10t15 11q9 7 16.5 15t7.5 19v48.5v47.5v90v100q0 4 -10.5 9.5t-23.5 12.5q-9 5 -17.5 10.5
t-12.5 10.5q-2 3 -3 5t-1 4q0 11 7 14t16 4h1.5h1.5q8 1 14 2.5t6 9.5t-3.5 13.5t-9.5 10.5q-1 2 -3 3.5t-4 2.5q-7 7 -13.5 17.5t-6.5 30.5q0 29 24.5 42.5t54.5 16.5q5 0 10.5 0.5t10.5 0.5q11 0 20.5 -1.5t19.5 -3.5l1 -0.5t2 -0.5q11 -2 21.5 -4t23.5 -2q12 0 20 1t13 3
q5 1 7 2l2 1q8 -8 11.5 -17t3.5 -18q0 -24 -19.5 -44t-45.5 -20q-10 0 -19.5 2t-18.5 4t-16.5 4t-15.5 2q-10 0 -16 -6.5t-6 -17.5q0 -5 1.5 -11.5t4.5 -12.5l4 -6t5 -6l5 0.5t14 1.5t20 1.5t23 0.5v0zM404 572h2h2q9 0 15.5 -1.5t6.5 -12.5v-98.5v-125.5v-140.5v-101.5
q0 -12 8 -20.5t17 -15.5q3 -2 6.5 -4.5t6.5 -5.5q5 -4 8.5 -8.5t3.5 -9.5q0 -10 -12.5 -16.5t-28.5 -8.5q-4 0 -8.5 -0.5t-8.5 -0.5q-7 0 -12.5 0.5t-10.5 1.5t-10.5 1.5t-12.5 0.5q-6 0 -10.5 -0.5t-8.5 -1.5h-1h-1q-4 -1 -9.5 -1.5t-11.5 -0.5q-4 0 -8.5 0.5t-9.5 1.5
q-13 3 -23.5 9t-10.5 15v1.5t1 1.5q1 5 8 10t15 11q9 7 16.5 15t7.5 19v97.5v120.5v105.5v90.5q0 6 -5.5 11.5t-12.5 10.5q0 1 -0.5 1.5t-1.5 0.5q-7 6 -13.5 12t-6.5 13t7 9.5t15 3.5h5.5h4.5q12 0 22 1.5t19 3.5h1h1q9 2 18 3.5t21 1.5v0z" />
    <glyph glyph-name="daggerdbl" unicode="&#x2021;" horiz-adv-x="300" 
d="M113 470h-7.5t-15.5 -1q-9 0 -16.5 -0.5l-7.5 -0.5q0 -17 -6 -31.5t-17 -14.5q-6 0 -9.5 2.5t-5.5 5.5t-2.5 5.5l-0.5 2.5q5 6 6.5 11.5t1.5 9.5t-1 7.5t-2 7.5q-1 1 -1.5 3t-0.5 3q0 2 -0.5 3.5t-0.5 3.5q0 12 6.5 20t14.5 8q3 0 6 -0.5t6 -1.5q1 -1 2.5 -1.5t2.5 -0.5
q2 0 9.5 -0.5t16.5 -0.5h17.5h8.5q8 0 7 2.5t-4 5.5v0l-1 1t-2 2.5t-1 2.5v16.5v7.5q-1 2 -1 2.5v0.5v0v0q-1 5 -2 8.5t-3 6.5l-2 4t-2 3q-1 2 -2.5 4t-3.5 4q-1 2 -2 3.5t-1 2.5l-2 4t-4 4l1.5 2t4.5 4t7.5 4t10.5 2t10.5 -1t9.5 -2q4 -1 8.5 -2t10.5 -1t11 1t9 2h1h1
q4 1 8.5 2t9.5 1h2t2 -1q2 0 3.5 -1t3.5 -1q2 -2 3.5 -3l1.5 -1q-2 -1 -3.5 -4t-1.5 -6q-1 0 -1 -0.5v-0.5q0 -2 -0.5 -3.5t-1.5 -3.5q-1 -1 -2 -2.5t-2 -2.5q-1 -3 -3 -5.5t-3 -5.5q-3 -4 -5 -8t-3 -8v0v0v-3.5v-22.5q0 -1 -1 -2t-2 -3h-0.5t-0.5 -1q-3 -3 -4 -5t7 -2h8.5
h17.5t16.5 0.5t9.5 0.5q1 0 3 0.5t4 1.5t4.5 1.5t5.5 0.5q8 0 14.5 -8.5t6.5 -19.5q0 -3 -1 -6.5t-2 -7.5q-1 -3 -2 -6.5t-1 -7.5t2 -9.5t6 -12.5l-0.5 -2.5t-2.5 -4.5q-2 -3 -5.5 -5.5t-9.5 -2.5q-11 0 -16.5 13t-6.5 29v1.5v1.5t-7.5 1.5t-16.5 0.5h-15.5h-7.5l-0.5 -0.5
t-1.5 -0.5l-0.5 -0.5t-0.5 -1.5q-1 -1 -1.5 -2l-0.5 -1l-0.5 -11.5t-0.5 -26.5q-1 -1 -1 -2.5v-2.5q0 -14 -0.5 -26t-0.5 -16q0 -1 -1 -2t-2 -3h-0.5t-0.5 -1q-3 -3 -4 -5t7 -2h8.5h17.5t16.5 0.5t9.5 0.5q1 0 3 0.5t4 1.5t4.5 1.5t5.5 0.5q8 0 14.5 -8.5t6.5 -19.5
q0 -3 -1 -6.5t-2 -7.5q-1 -3 -2 -6.5t-1 -7.5t2 -9.5t6 -12.5l-0.5 -2.5t-2.5 -4.5q-2 -3 -5.5 -5.5t-9.5 -2.5q-11 0 -16.5 13t-6.5 29v1.5v1.5t-7.5 1.5t-16.5 0.5h-15.5h-7.5l-0.5 -0.5t-1.5 -0.5l-0.5 -0.5t-0.5 -1.5q-1 -1 -1.5 -2l-0.5 -1l-2 -55t-4 -124
q-1 -5 -1 -10.5v-10.5q-2 -64 -4 -120.5t-2 -72.5q0 -13 -4 -19t-9 -6q-4 -1 -8 5t-4 20q0 16 -2 72t-5 121v10v10q-3 69 -5.5 124l-2.5 55l-0.5 1l-1.5 3l-0.5 0.5t-0.5 1.5q-1 0 -1.5 0.5l-0.5 0.5h-7.5t-15.5 -1q-9 0 -16.5 -0.5l-7.5 -0.5q0 -17 -6 -31.5t-17 -14.5
q-6 0 -9.5 2.5t-5.5 5.5t-2.5 5.5l-0.5 2.5q5 6 6.5 11.5t1.5 9.5t-1 7.5t-2 7.5q-1 1 -1.5 3t-0.5 3q0 2 -0.5 3.5t-0.5 3.5q0 12 6.5 20t14.5 8q3 0 6 -0.5t6 -1.5q1 -1 2.5 -1.5t2.5 -0.5q2 0 9.5 -0.5t16.5 -0.5h17.5h8.5q8 0 7 2.5t-4 5.5v0l-1 1t-2 2.5t-1 2.5
q0 4 -0.5 16t-1.5 25v2.5v2.5q-1 15 -1.5 26.5l-0.5 11.5l-0.5 1l-1.5 3l-0.5 0.5t-0.5 1.5q-1 0 -1.5 0.5l-0.5 0.5v0z" />
    <glyph glyph-name="periodcentered" unicode="&#x2219;" horiz-adv-x="165" 
d="M46 320q14 0 26 -11t12 -34q0 -22 -12 -33t-26 -10v0v0h-1v0q-14 0 -26 10.5t-12 32.5q0 21 11.5 32.5t24.5 12.5h1.5h1.5v0z" />
    <glyph glyph-name="quotesinglbase" unicode="&#x201a;" 
 />
    <glyph glyph-name="quotedblbase" unicode="&#x201e;" horiz-adv-x="272" 
d="M74 97q14 -1 26 -12t12 -33q0 -8 -2.5 -16t-6.5 -17q-5 -11 -12.5 -21.5t-15.5 -20.5q-6 -7 -11.5 -12.5l-10.5 -10.5v0v0q-1 0 -1 -0.5t-1 0.5q-1 0 -1.5 0.5t-1.5 0.5q-1 1 -2 2.5t-2 3.5q0 1 -0.5 2t-0.5 2v0.5t1 0.5v0.5v0.5q4 4 6.5 9.5t5.5 10.5q2 6 3.5 11.5
t1.5 9.5v0.5v0.5v0.5v0.5v0.5v0.5q-1 2 -5 4.5t-8 5.5q-5 5 -9 12t-4 19q0 23 12 34t27 11v0zM207 97q14 -1 26 -12t12 -33q0 -8 -2.5 -16t-6.5 -17q-5 -11 -12.5 -22t-15.5 -21q-6 -6 -11 -12t-10 -10v0v0q-1 0 -1 -0.5t-1 0.5q-1 0 -2 0.5t-2 1.5t-2 2.5t-2 2.5
q0 1 -0.5 2t-0.5 2v0.5t1 0.5v0.5v0.5q4 4 7 9t5 11q3 7 4.5 12.5t1.5 10.5v0.5v0.5q-1 2 -5 4.5t-8 5.5q-6 5 -10 12t-4 19q0 23 12 34t27 11v0z" />
    <glyph glyph-name="perthousand" unicode="&#x2030;" horiz-adv-x="780" 
d="M381 563h3.5t2.5 -1q7 -1 13 -5.5t7 -9.5v-1.5t-1 -1.5q-19 -35 -37.5 -68t-37.5 -66q-5 -8 -9.5 -16.5t-9.5 -17.5q-47 -82 -97 -168t-111 -195q-2 -4 -7.5 -6.5t-11.5 -3.5h-3.5h-2.5q-8 0 -14 2.5t-7 6.5q-1 1 -0.5 2t1.5 2q26 42 51.5 85t51.5 88q51 88 103 180
t106 189q2 2 4 3.5t6 1.5v0zM431 263q0 -4 -1.5 -7t-3.5 -5q-1 -1 -1 -1.5t1 -0.5h1t2 1q1 0 2 0.5l1 0.5q1 0 2 0.5t2 0.5q1 1 2 1h2q15 0 26.5 -27t13.5 -59v-4.5v-5.5q0 -8 -0.5 -16t-1.5 -16q-5 -40 -23.5 -73t-50.5 -33q-4 0 -8 1t-7 2q-3 0 -6.5 1t-8.5 1
q-6 0 -10.5 -0.5t-8.5 -1.5h-1h-1q-4 -1 -9.5 -2t-11.5 -1q-35 0 -53 44t-18 96v1.5v1.5q1 54 20.5 99t58.5 45h29h22q2 0 3.5 -0.5t3.5 -0.5q9 -3 17 -11.5t13 -18.5l2 -6t1 -6v0zM353 267q-27 0 -40 -25t-13 -57v-2.5v-3.5q1 -32 15.5 -59t41.5 -27h9.5h6.5h4.5h5.5
q25 0 42 20.5t17 67.5q0 17 -5 26.5t-13 10.5h-0.5h-1.5q-1 -1 -1.5 -1h-0.5q-4 -2 -8 -3t-8 -1q-7 0 -11 4t-4 10v0.5v0.5v0.5v0.5q0 1 0.5 2.5t0.5 2.5q1 3 3.5 5.5l4.5 4.5l1.5 1.5t0.5 1.5q0 2 -1 4t-3 4q-2 3 -6.5 6t-8.5 5q-2 0 -3.5 0.5t-2.5 0.5h-6.5h-4.5h-4.5
h-6.5v0zM689 263q0 -4 -1.5 -7t-3.5 -5q-1 -1 -1 -1.5t1 -0.5h1t2 1q1 0 2 0.5l1 0.5q1 0 2 0.5t2 0.5q1 1 2 1h2q15 0 26.5 -27t13.5 -59v-4.5v-5.5q0 -8 -0.5 -16t-1.5 -16q-5 -40 -23.5 -73t-50.5 -33q-4 0 -8 1t-7 2q-3 0 -6.5 1t-8.5 1h-1.5h-2.5q-4 0 -7 -0.5t-6 -1.5
h-2.5h-2.5q-4 -1 -9 -2t-11 -1q-35 0 -53 44t-18 96v1.5v1.5q1 54 20.5 99t58.5 45h29h22q2 0 3.5 -0.5t3.5 -0.5q9 -3 17 -11.5t13 -18.5l2 -6t1 -6v0zM611 267q-27 0 -40 -25t-13 -56v-1.5v-1.5q1 -34 15.5 -62t41.5 -28h9.5h6.5h4.5h5.5q25 0 42 20.5t17 67.5
q0 17 -5 26.5t-13 10.5h-0.5h-1.5q-1 -1 -1.5 -1h-0.5q-4 -2 -8 -3t-8 -1q-7 0 -11 4t-4 10v0.5v0.5v0.5v0.5q0 1 0.5 2.5t0.5 2.5q1 3 3.5 5.5l4.5 4.5l1.5 1.5t0.5 1.5q0 2 -1 4t-3 4q-2 3 -6.5 6t-8.5 5q-2 0 -3.5 0.5t-2.5 0.5h-6.5h-4.5h-4.5h-6.5v0zM168 517
q0 -4 -1.5 -7.5t-3.5 -5.5l-1 -1v0h1h3v0v0q1 1 2 1h1q1 0 2 0.5t2 0.5q1 1 2 1h2q15 1 26.5 -26t13.5 -59v-4.5v-5.5q0 -8 -0.5 -16.5t-1.5 -17.5q-6 -39 -24 -72t-50 -33q-4 0 -8 1t-7 2q-3 0 -6.5 1t-8.5 1q-6 0 -10.5 -0.5t-8.5 -1.5h-1h-1q-4 -1 -9.5 -2t-11.5 -1
q-35 0 -52.5 44t-17.5 97v1.5v1.5q1 54 20 99t58 45h29h22q2 0 3.5 -0.5t3.5 -0.5q9 -3 17 -11.5t13 -18.5l2 -6t1 -6v0zM90 520q-27 0 -40 -25t-13 -56v-1.5v-1.5q1 -34 15.5 -62t41.5 -28h9.5h6.5h4.5h5.5q25 0 42 21t17 68q0 17 -5 26.5t-12 9.5h-1.5h-0.5
q-1 0 -1.5 -0.5t-1.5 -0.5q-4 -2 -8 -3t-7 -1q-7 0 -11.5 4.5t-4.5 10.5v0.5v0.5v0.5v0.5q0 1 0.5 2.5t0.5 2.5q1 3 3.5 5.5l4.5 4.5l1.5 1.5t0.5 1.5q0 2 -1 3.5t-2 3.5q-3 3 -7 6.5t-9 4.5q-2 0 -3.5 0.5t-2.5 0.5h-6.5h-4.5h-4.5h-6.5v0z" />
    <glyph glyph-name="Acircumflex" unicode="&#xc2;" horiz-adv-x="555" 
d="M470 92q2 -11 10 -18t18 -13l2 -2t3 -1q9 -6 16 -13t7 -17q0 -9 -12.5 -15t-27.5 -9q-6 -1 -12.5 -1.5t-11.5 -0.5q-7 0 -12.5 0.5t-10.5 1.5t-10.5 1.5t-12.5 0.5q-6 0 -11.5 -0.5t-9.5 -1.5h-1h-1q-4 -1 -8.5 -1.5t-10.5 -0.5q-4 0 -8.5 0.5t-9.5 1.5q-13 2 -24 8.5
t-11 15.5q0 7 5.5 12.5t13.5 10.5q1 1 2.5 2t2.5 2q10 6 17.5 13t7.5 18t-11.5 70t-25.5 128q-2 9 -4.5 18.5t-4.5 19.5q-2 8 -3.5 16t-3.5 16q-1 3 7.5 9.5t19.5 13.5q4 2 7.5 4t6.5 3q12 7 23 12t16 5h2.5t0.5 -1q4 -20 8 -40.5t9 -41.5q4 -21 8.5 -41.5t9.5 -40.5
q9 -40 18.5 -77t16.5 -67v0zM444 584q38 0 48.5 -15t10.5 -38q0 -37 -61.5 -76t-135.5 -81q-75 -43 -136.5 -90.5t-61.5 -102.5q0 -24 7.5 -34.5t16.5 -13.5q3 -1 6 -1.5t6 -0.5h7h4h1v0v-27v-29q0 -25 -13 -42t-29 -25q-6 -2 -11.5 -3.5t-10.5 -1.5q-2 0 -4 0.5t-3 0.5
q-14 4 -26 19.5t-19 33.5q-3 8 -5 16t-2 15q0 41 14 90.5t34 100.5q10 25 21.5 50t22.5 49q21 44 41 84t33 69q1 2 1 3.5v2.5q0 9 -10 14t-23 5q-12 0 -22 -4.5t-10 -15.5q0 -7 4 -13t8 -11q5 -6 8.5 -10t3.5 -6t-1 -6t-3 -9q-2 -3 -4 -6.5t-4 -6.5q-1 -2 -3 -3t-3 -1h-1
q-18 9 -31 19.5t-23 20.5q-10 12 -15.5 23.5t-5.5 21.5q0 15 12 25t36 10h119.5h107.5h51h53v0zM430 523q0 11 -7.5 19t-18.5 8h-2h-2q-9 -1 -14.5 -8t-5.5 -16v-6t1 -6v-2v-2q0 -6 0.5 -12t2.5 -16q1 -3 -8 -11t-21 -17q-2 -2 -4 -3.5t-5 -3.5q-12 -9 -22.5 -15.5
t-13.5 -7.5h-1q-2 7 -3.5 14t-2.5 14q-1 1 -1 1.5v0.5q-6 29 -14.5 53t-28.5 24q-6 0 -10.5 -2.5t-9.5 -7.5q-15 -17 -33 -63t-54 -133q-1 -4 -2 -6t-1 -4t0.5 -3t1.5 -1h1.5h1.5q1 1 2.5 1.5t2.5 1.5l0.5 0.5l0.5 0.5q83 57 155 96.5t100 75.5q7 9 11 18t4 18v0zM277 757
l139 -137q1 0 -16 12t-41 27q-4 3 -8.5 6t-9.5 6q-19 11 -36.5 19.5t-27.5 8.5t-27.5 -8.5t-36.5 -19.5q-5 -3 -9.5 -6t-9.5 -5q-23 -15 -39.5 -27.5l-16.5 -12.5l139 137v0z" />
    <glyph glyph-name="Ecircumflex" unicode="&#xca;" horiz-adv-x="515" 
d="M108 472q0 15 -11.5 22t-25.5 13q-1 0 -1.5 0.5t-1.5 0.5q-13 5 -23.5 11.5t-10.5 18.5q0 20 47.5 27t104.5 8q20 1 39.5 1h36.5h31.5t33.5 -1q51 -1 93 -8.5t42 -30.5q0 -14 -18 -29.5t-44 -31.5q-10 -6 -21 -12.5t-22 -12.5q-39 -22 -72 -41t-33 -31q0 -7 2 -9.5
t5 -2.5q5 0 11.5 3.5t15.5 7.5q8 4 18 7.5t20 3.5h4.5h5.5q25 -3 45.5 -16t20.5 -37v-1.5v-1.5q0 -2 -0.5 -4.5t-0.5 -4.5q-2 -4 -3.5 -8t-3.5 -8q-3 -4 -5 -6.5t-3 -2.5q-9 8 -16.5 11t-15.5 3q-9 0 -17.5 -3t-18.5 -6t-22 -6t-26 -3h-8.5t-8.5 1q-24 2 -44.5 11.5
t-20.5 33.5q0 14 16.5 32.5t39.5 37.5q6 5 13 10t13 11q23 17 43 32.5t31 26.5q5 5 6.5 10.5t1.5 9.5q0 11 -7 18.5t-17 7.5h-7.5h-7.5h-23.5h-29.5q-20 0 -36 -16.5t-16 -39.5q0 -7 0.5 -13.5t1.5 -12.5q0 -6 0.5 -11.5t0.5 -11.5t-0.5 -12t-2.5 -13q0 -1 -5.5 -7
t-11.5 -15q-3 -4 -6 -8.5t-5 -8.5q-3 -5 -4.5 -10t-1.5 -9q0 -21 5 -31.5t11 -15.5q6 -4 10.5 -5t5.5 -2h1v0q0 -8 0.5 -17.5t0.5 -18.5v-1.5v-1.5q1 -19 1.5 -36t0.5 -27q0 -34 26 -56t60 -22h21h20h32h35q10 0 16.5 4.5t12.5 10.5h1v1q6 5 12.5 9.5t15.5 4.5
q16 0 22 -13.5t7 -29.5q1 -4 1 -7.5v-7.5q0 -37 -24 -58.5t-78 -21.5q-19 0 -36 2t-32 4q-8 1 -15 2t-15 2t-16 1.5t-16 0.5q-18 0 -34 -2t-31 -4t-28.5 -4t-27.5 -2q-8 0 -17.5 1.5t-19.5 4.5t-20.5 7.5t-19.5 8.5q-17 8 -27.5 15t-8.5 7q15 4 23 10t15 13q3 4 7 8l9 9
q2 2 4.5 3.5t5.5 2.5q1 0 2 0.5t2 0.5q7 2 12.5 6.5t5.5 23.5q0 33 -0.5 73t-0.5 85q0 43 -0.5 88.5t-0.5 91.5v4.5v4.5v0zM277 757l139 -137q1 0 -16 12t-41 27q-4 3 -8.5 6t-9.5 6q-19 11 -36.5 19.5t-27.5 8.5t-27.5 -8.5t-36.5 -19.5q-5 -3 -9.5 -6t-9.5 -5
q-23 -15 -39.5 -27.5l-16.5 -12.5l139 137v0z" />
    <glyph glyph-name="Aacute" unicode="&#xc1;" horiz-adv-x="555" 
d="M470 92q2 -11 10 -18t18 -13l2 -2t3 -1q9 -6 16 -13t7 -17q0 -9 -12.5 -15t-27.5 -9q-6 -1 -12.5 -1.5t-11.5 -0.5q-7 0 -12.5 0.5t-10.5 1.5t-10.5 1.5t-12.5 0.5q-6 0 -11.5 -0.5t-9.5 -1.5h-1h-1q-4 -1 -8.5 -1.5t-10.5 -0.5q-4 0 -8.5 0.5t-9.5 1.5q-13 2 -24 8.5
t-11 15.5q0 7 5.5 12.5t13.5 10.5q1 1 2.5 2t2.5 2q10 6 17.5 13t7.5 18t-11.5 70t-25.5 128q-2 9 -4.5 18.5t-4.5 19.5q-2 8 -3.5 16t-3.5 16q-1 3 7.5 9.5t19.5 13.5q4 2 7.5 4t6.5 3q12 7 23 12t16 5h2.5t0.5 -1q4 -20 8 -40.5t9 -41.5q4 -21 8.5 -41.5t9.5 -40.5
q9 -40 18.5 -77t16.5 -67v0zM444 584q38 0 48.5 -15t10.5 -38q0 -37 -61.5 -76t-135.5 -81q-75 -43 -136.5 -90.5t-61.5 -102.5q0 -24 7.5 -34.5t16.5 -13.5q3 -1 6 -1.5t6 -0.5h7h4h1v0v-27v-29q0 -25 -13 -42t-29 -25q-6 -2 -11.5 -3.5t-10.5 -1.5q-2 0 -4 0.5t-3 0.5
q-14 4 -26 19.5t-19 33.5q-3 8 -5 16t-2 15q0 41 14 90.5t34 100.5q10 25 21.5 50t22.5 49q21 44 41 84t33 69q1 2 1 3.5v2.5q0 9 -10 14t-23 5q-12 0 -22 -4.5t-10 -15.5q0 -7 4 -13t8 -11q5 -6 8.5 -10t3.5 -6t-1 -6t-3 -9q-2 -3 -4 -6.5t-4 -6.5q-1 -2 -3 -3t-3 -1h-1
q-18 9 -31 19.5t-23 20.5q-10 12 -15.5 23.5t-5.5 21.5q0 15 12 25t36 10h119.5h107.5h51h53v0zM430 523q0 11 -7.5 19t-18.5 8h-2h-2q-9 -1 -14.5 -8t-5.5 -16v-6t1 -6v-2v-2q0 -6 0.5 -12t2.5 -16q1 -3 -8 -11t-21 -17q-2 -2 -4 -3.5t-5 -3.5q-12 -9 -22.5 -15.5
t-13.5 -7.5h-1q-2 7 -3.5 14t-2.5 14q-1 1 -1 1.5v0.5q-6 29 -14.5 53t-28.5 24q-6 0 -10.5 -2.5t-9.5 -7.5q-15 -17 -33 -63t-54 -133q-1 -4 -2 -6t-1 -4t0.5 -3t1.5 -1h1.5h1.5q1 1 2.5 1.5t2.5 1.5l0.5 0.5l0.5 0.5q83 57 155 96.5t100 75.5q7 9 11 18t4 18v0zM296 712
q5 0 9.5 -2t9.5 -7q5 -4 7 -8.5t2 -9.5q0 -13 -14.5 -25t-31.5 -21t-31.5 -14l-14.5 -5l5 14.5t14 31.5q8 17 20 31.5t25 14.5v0z" />
    <glyph glyph-name="Edieresis" unicode="&#xcb;" horiz-adv-x="515" 
d="M108 472q0 15 -11.5 22t-25.5 13q-1 0 -1.5 0.5t-1.5 0.5q-13 5 -23.5 11.5t-10.5 18.5q0 20 47.5 27t104.5 8q20 1 39.5 1h36.5h31.5t33.5 -1q51 -1 93 -8.5t42 -30.5q0 -14 -18 -29.5t-44 -31.5q-10 -6 -21 -12.5t-22 -12.5q-39 -22 -72 -41t-33 -31q0 -7 2 -9.5
t5 -2.5q5 0 11.5 3.5t15.5 7.5q8 4 18 7.5t20 3.5h4.5h5.5q25 -3 45.5 -16t20.5 -37v-1.5v-1.5q0 -2 -0.5 -4.5t-0.5 -4.5q-2 -4 -3.5 -8t-3.5 -8q-3 -4 -5 -6.5t-3 -2.5q-9 8 -16.5 11t-15.5 3q-9 0 -17.5 -3t-18.5 -6t-22 -6t-26 -3h-8.5t-8.5 1q-24 2 -44.5 11.5
t-20.5 33.5q0 14 16.5 32.5t39.5 37.5q6 5 13 10t13 11q23 17 43 32.5t31 26.5q5 5 6.5 10.5t1.5 9.5q0 11 -7 18.5t-17 7.5h-7.5h-7.5h-23.5h-29.5q-20 0 -36 -16.5t-16 -39.5q0 -7 0.5 -13.5t1.5 -12.5q0 -6 0.5 -11.5t0.5 -11.5t-0.5 -12t-2.5 -13q0 -1 -5.5 -7
t-11.5 -15q-3 -4 -6 -8.5t-5 -8.5q-3 -5 -4.5 -10t-1.5 -9q0 -21 5 -31.5t11 -15.5q6 -4 10.5 -5t5.5 -2h1v0q0 -8 0.5 -17.5t0.5 -18.5v-1.5v-1.5q1 -19 1.5 -36t0.5 -27q0 -34 26 -56t60 -22h21h20h32h35q10 0 16.5 4.5t12.5 10.5h1v1q6 5 12.5 9.5t15.5 4.5
q16 0 22 -13.5t7 -29.5q1 -4 1 -7.5v-7.5q0 -37 -24 -58.5t-78 -21.5q-19 0 -36 2t-32 4q-8 1 -15 2t-15 2t-16 1.5t-16 0.5q-18 0 -34 -2t-31 -4t-28.5 -4t-27.5 -2q-8 0 -17.5 1.5t-19.5 4.5t-20.5 7.5t-19.5 8.5q-17 8 -27.5 15t-8.5 7q15 4 23 10t15 13q3 4 7 8l9 9
q2 2 4.5 3.5t5.5 2.5q1 0 2 0.5t2 0.5q7 2 12.5 6.5t5.5 23.5q0 33 -0.5 73t-0.5 85q0 43 -0.5 88.5t-0.5 91.5v4.5v4.5v0zM226 663v-1.5v-1.5q-1 -15 -12 -27.5t-32 -12.5t-32 13.5t-11 29.5v0.5v0.5v0.5v0.5v1.5v1.5q1 15 11.5 27.5t31.5 12.5q23 0 33.5 -14t10.5 -31v0z
M372 663v-1.5v-1.5q-1 -15 -12 -27.5t-32 -12.5t-32 13.5t-11 29.5v0.5v0.5v0.5v0.5v1.5v1.5q1 15 11.5 27.5t31.5 12.5q23 0 33.5 -14t10.5 -31v0z" />
    <glyph glyph-name="Egrave" unicode="&#xc8;" horiz-adv-x="515" 
d="M108 472q0 15 -11.5 22t-25.5 13q-1 0 -1.5 0.5t-1.5 0.5q-13 5 -23.5 11.5t-10.5 18.5q0 20 47.5 27t104.5 8q20 1 39.5 1h36.5h31.5t33.5 -1q51 -1 93 -8.5t42 -30.5q0 -14 -18 -29.5t-44 -31.5q-10 -6 -21 -12.5t-22 -12.5q-39 -22 -72 -41t-33 -31q0 -7 2 -9.5
t5 -2.5q5 0 11.5 3.5t15.5 7.5q8 4 18 7.5t20 3.5h4.5h5.5q25 -3 45.5 -16t20.5 -37v-1.5v-1.5q0 -2 -0.5 -4.5t-0.5 -4.5q-2 -4 -3.5 -8t-3.5 -8q-3 -4 -5 -6.5t-3 -2.5q-9 8 -16.5 11t-15.5 3q-9 0 -17.5 -3t-18.5 -6t-22 -6t-26 -3h-8.5t-8.5 1q-24 2 -44.5 11.5
t-20.5 33.5q0 14 16.5 32.5t39.5 37.5q6 5 13 10t13 11q23 17 43 32.5t31 26.5q5 5 6.5 10.5t1.5 9.5q0 11 -7 18.5t-17 7.5h-7.5h-7.5h-23.5h-29.5q-20 0 -36 -16.5t-16 -39.5q0 -7 0.5 -13.5t1.5 -12.5q0 -6 0.5 -11.5t0.5 -11.5t-0.5 -12t-2.5 -13q0 -1 -5.5 -7
t-11.5 -15q-3 -4 -6 -8.5t-5 -8.5q-3 -5 -4.5 -10t-1.5 -9q0 -21 5 -31.5t11 -15.5q6 -4 10.5 -5t5.5 -2h1v0q0 -8 0.5 -17.5t0.5 -18.5v-1.5v-1.5q1 -19 1.5 -36t0.5 -27q0 -34 26 -56t60 -22h21h20h32h35q10 0 16.5 4.5t12.5 10.5h1v1q6 5 12.5 9.5t15.5 4.5
q16 0 22 -13.5t7 -29.5q1 -4 1 -7.5v-7.5q0 -37 -24 -58.5t-78 -21.5q-19 0 -36 2t-32 4q-8 1 -15 2t-15 2t-16 1.5t-16 0.5q-18 0 -34 -2t-31 -4t-28.5 -4t-27.5 -2q-8 0 -17.5 1.5t-19.5 4.5t-20.5 7.5t-19.5 8.5q-17 8 -27.5 15t-8.5 7q15 4 23 10t15 13q3 4 7 8l9 9
q2 2 4.5 3.5t5.5 2.5q1 0 2 0.5t2 0.5q7 2 12.5 6.5t5.5 23.5q0 33 -0.5 73t-0.5 85q0 43 -0.5 88.5t-0.5 91.5v4.5v4.5v0zM256 685q0 5 2.5 9.5t6.5 8.5q5 5 10 7t9 2q14 0 25.5 -14.5t20.5 -31.5q8 -17 13 -31.5l5 -14.5l-14.5 5t-31.5 14t-31.5 21t-14.5 25v0v0v0z" />
    <glyph glyph-name="Iacute" unicode="&#xcd;" horiz-adv-x="317" 
d="M118 390q0 1 0.5 1h1.5q5 0 18 -6t28 -14q2 -1 4.5 -2t4.5 -3q16 -8 28 -15.5t12 -8.5q0 -8 0.5 -28t0.5 -46q0 -11 0.5 -23.5t0.5 -24.5q0 -43 0.5 -79.5t0.5 -45.5q0 -12 8.5 -20t18.5 -13q3 -1 5.5 -2.5t4.5 -2.5q1 -1 2.5 -1.5t2.5 -1.5q11 -6 16.5 -12.5t9.5 -9.5
q2 -2 4 -3t5 -1l-1.5 -3.5t-7.5 -8.5q-5 -4 -15 -8t-27 -4q-9 0 -16 1l-14 2q-2 0 -3.5 0.5t-2.5 0.5q-9 2 -19 3t-26 1q-8 0 -15 -1t-14 -3q-1 0 -2 -0.5l-1 -0.5l-12 -2t-12 -1q-5 0 -10.5 1t-10.5 3q-6 1 -11 3.5t-10 4.5q-9 4 -14 7.5t-3 4.5q4 2 7 4.5t6 6.5q1 1 2.5 2
t2.5 3l6.5 6.5t7.5 5.5l4 2l4 2t3.5 2t3.5 1q10 5 17.5 11.5t7.5 22.5v24v24q0 20 -0.5 40.5t-0.5 42.5q0 35 -0.5 74.5t-0.5 87.5v0zM245 347q0 4 -4.5 8t-10.5 8t-14 7.5t-15 7.5q-10 4 -19.5 7.5t-15.5 6.5q-1 1 -2.5 1.5t-3.5 1.5q-31 14 -60.5 35t-50.5 43
q-14 16 -22.5 31t-8.5 28q0 20 16.5 30.5t36.5 13.5h4.5h4.5h4h5q5 -1 10.5 -1.5t10.5 -1.5q8 -1 16.5 -2t17.5 -1q10 0 18 1l16 2q7 1 15 2t18 1q16 0 30.5 -6t25.5 -13q9 -7 14.5 -12.5t4.5 -6.5q-5 -9 -11 -14t-13 -8q-3 -2 -7 -3.5t-7 -2.5q-9 -3 -16 -8t-10 -18l-2 -12
t-2 -13q0 -9 -1 -18t-1 -19q0 -1 -0.5 -1h-1.5q-4 0 -18.5 7t-31.5 17l-10 6l-10 6q-6 4 -11 8t-9 7q-1 1 -2 3l-3 6l-2 6t-2 7q0 2 -0.5 4t-0.5 4q0 7 -5 10.5t-11 3.5q-5 0 -9.5 -3t-4.5 -11v-4t1 -4q4 -20 28 -39.5t52 -33.5q1 -1 2.5 -1.5t2.5 -1.5q7 -3 14 -6.5
t14 -6.5q2 -1 4.5 -2t5.5 -2q30 -13 54 -28t24 -41q0 -22 -7 -32.5t-16 -14.5q-3 -2 -7 -2.5t-7 -0.5h-0.5h-1.5h-3.5h-1.5q3 5 4 8.5t1 5.5v1.5v1.5q-1 2 -1.5 3.5t-0.5 4.5q-1 3 -2 7t-1 10q0 3 0.5 5.5t1.5 5.5q0 3 0.5 6t0.5 6v0zM186 712q5 0 9.5 -2t9.5 -7
q5 -4 7 -8.5t2 -9.5q0 -13 -14.5 -25t-31.5 -21t-31.5 -14l-14.5 -5l5 14.5t14 31.5q8 17 20 31.5t25 14.5v0z" />
    <glyph glyph-name="Icircumflex" unicode="&#xce;" horiz-adv-x="317" 
d="M118 390q0 1 0.5 1h1.5q5 0 18 -6t28 -14q2 -1 4.5 -2t4.5 -3q16 -8 28 -15.5t12 -8.5q0 -8 0.5 -28t0.5 -46q0 -11 0.5 -23.5t0.5 -24.5q0 -43 0.5 -79.5t0.5 -45.5q0 -12 8.5 -20t18.5 -13q3 -1 5.5 -2.5t4.5 -2.5q1 -1 2.5 -1.5t2.5 -1.5q11 -6 16.5 -12.5t9.5 -9.5
q2 -2 4 -3t5 -1l-1.5 -3.5t-7.5 -8.5q-5 -4 -15 -8t-27 -4q-9 0 -16 1l-14 2q-2 0 -3.5 0.5t-2.5 0.5q-9 2 -19 3t-26 1q-8 0 -15 -1t-14 -3q-1 0 -2 -0.5l-1 -0.5l-12 -2t-12 -1q-5 0 -10.5 1t-10.5 3q-6 1 -11 3.5t-10 4.5q-9 4 -14 7.5t-3 4.5q4 2 7 4.5t6 6.5q1 1 2.5 2
t2.5 3l6.5 6.5t7.5 5.5l4 2l4 2t3.5 2t3.5 1q10 5 17.5 11.5t7.5 22.5v24v24q0 20 -0.5 40.5t-0.5 42.5q0 35 -0.5 74.5t-0.5 87.5v0zM245 347q0 4 -4.5 8t-10.5 8t-14 7.5t-15 7.5q-10 4 -19.5 7.5t-15.5 6.5q-1 1 -2.5 1.5t-3.5 1.5q-31 14 -60.5 35t-50.5 43
q-14 16 -22.5 31t-8.5 28q0 20 16.5 30.5t36.5 13.5h4.5h4.5h4h5q5 -1 10.5 -1.5t10.5 -1.5q8 -1 16.5 -2t17.5 -1q10 0 18 1l16 2q7 1 15 2t18 1q16 0 30.5 -6t25.5 -13q9 -7 14.5 -12.5t4.5 -6.5q-5 -9 -11 -14t-13 -8q-3 -2 -7 -3.5t-7 -2.5q-9 -3 -16 -8t-10 -18l-2 -12
t-2 -13q0 -9 -1 -18t-1 -19q0 -1 -0.5 -1h-1.5q-4 0 -18.5 7t-31.5 17l-10 6l-10 6q-6 4 -11 8t-9 7q-1 1 -2 3l-3 6l-2 6t-2 7q0 2 -0.5 4t-0.5 4q0 7 -5 10.5t-11 3.5q-5 0 -9.5 -3t-4.5 -11v-4t1 -4q4 -20 28 -39.5t52 -33.5q1 -1 2.5 -1.5t2.5 -1.5q7 -3 14 -6.5
t14 -6.5q2 -1 4.5 -2t5.5 -2q30 -13 54 -28t24 -41q0 -22 -7 -32.5t-16 -14.5q-3 -2 -7 -2.5t-7 -0.5h-0.5h-1.5h-3.5h-1.5q3 5 4 8.5t1 5.5v1.5v1.5q-1 2 -1.5 3.5t-0.5 4.5q-1 3 -2 7t-1 10q0 3 0.5 5.5t1.5 5.5q0 3 0.5 6t0.5 6v0zM162 757l139 -137q1 0 -16 12t-41 27
q-4 3 -8.5 6t-9.5 6q-19 11 -36.5 19.5t-27.5 8.5t-27.5 -8.5t-36.5 -19.5q-5 -3 -9.5 -6t-9.5 -5q-23 -15 -39.5 -27.5l-16.5 -12.5l139 137v0z" />
    <glyph glyph-name="Idieresis" unicode="&#xcf;" horiz-adv-x="317" 
d="M118 390q0 1 0.5 1h1.5q5 0 18 -6t28 -14q2 -1 4.5 -2t4.5 -3q16 -8 28 -15.5t12 -8.5q0 -8 0.5 -28t0.5 -46q0 -11 0.5 -23.5t0.5 -24.5q0 -43 0.5 -79.5t0.5 -45.5q0 -12 8.5 -20t18.5 -13q3 -1 5.5 -2.5t4.5 -2.5q1 -1 2.5 -1.5t2.5 -1.5q11 -6 16.5 -12.5t9.5 -9.5
q2 -2 4 -3t5 -1l-1.5 -3.5t-7.5 -8.5q-5 -4 -15 -8t-27 -4q-9 0 -16 1l-14 2q-2 0 -3.5 0.5t-2.5 0.5q-9 2 -19 3t-26 1q-8 0 -15 -1t-14 -3q-1 0 -2 -0.5l-1 -0.5l-12 -2t-12 -1q-5 0 -10.5 1t-10.5 3q-6 1 -11 3.5t-10 4.5q-9 4 -14 7.5t-3 4.5q4 2 7 4.5t6 6.5q1 1 2.5 2
t2.5 3l6.5 6.5t7.5 5.5l4 2l4 2t3.5 2t3.5 1q10 5 17.5 11.5t7.5 22.5v24v24q0 20 -0.5 40.5t-0.5 42.5q0 35 -0.5 74.5t-0.5 87.5v0zM245 347q0 4 -4.5 8t-10.5 8t-14 7.5t-15 7.5q-10 4 -19.5 7.5t-15.5 6.5q-1 1 -2.5 1.5t-3.5 1.5q-31 14 -60.5 35t-50.5 43
q-14 16 -22.5 31t-8.5 28q0 20 16.5 30.5t36.5 13.5h4.5h4.5h4h5q5 -1 10.5 -1.5t10.5 -1.5q8 -1 16.5 -2t17.5 -1q10 0 18 1l16 2q7 1 15 2t18 1q16 0 30.5 -6t25.5 -13q9 -7 14.5 -12.5t4.5 -6.5q-5 -9 -11 -14t-13 -8q-3 -2 -7 -3.5t-7 -2.5q-9 -3 -16 -8t-10 -18l-2 -12
t-2 -13q0 -9 -1 -18t-1 -19q0 -1 -0.5 -1h-1.5q-4 0 -18.5 7t-31.5 17l-10 6l-10 6q-6 4 -11 8t-9 7q-1 1 -2 3l-3 6l-2 6t-2 7q0 2 -0.5 4t-0.5 4q0 7 -5 10.5t-11 3.5q-5 0 -9.5 -3t-4.5 -11v-4t1 -4q4 -20 28 -39.5t52 -33.5q1 -1 2.5 -1.5t2.5 -1.5q7 -3 14 -6.5
t14 -6.5q2 -1 4.5 -2t5.5 -2q30 -13 54 -28t24 -41q0 -22 -7 -32.5t-16 -14.5q-3 -2 -7 -2.5t-7 -0.5h-0.5h-1.5h-3.5h-1.5q3 5 4 8.5t1 5.5v1.5v1.5q-1 2 -1.5 3.5t-0.5 4.5q-1 3 -2 7t-1 10q0 3 0.5 5.5t1.5 5.5q0 3 0.5 6t0.5 6v0zM131 663v-1.5v-1.5q-1 -15 -12 -27.5
t-32 -12.5t-32 13.5t-11 29.5v0.5v0.5v0.5v0.5v1.5v1.5q1 15 11.5 27.5t31.5 12.5q23 0 33.5 -14t10.5 -31v0zM277 663v-1.5v-1.5q-1 -15 -12 -27.5t-32 -12.5t-32 13.5t-11 29.5v0.5v0.5v0.5v0.5v1.5v1.5q1 15 11.5 27.5t31.5 12.5q23 0 33.5 -14t10.5 -31v0z" />
    <glyph glyph-name="Igrave" unicode="&#xcc;" horiz-adv-x="317" 
d="M118 390q0 1 0.5 1h1.5q5 0 18 -6t28 -14q2 -1 4.5 -2t4.5 -3q16 -8 28 -15.5t12 -8.5q0 -8 0.5 -28t0.5 -46q0 -11 0.5 -23.5t0.5 -24.5q0 -43 0.5 -79.5t0.5 -45.5q0 -12 8.5 -20t18.5 -13q3 -1 5.5 -2.5t4.5 -2.5q1 -1 2.5 -1.5t2.5 -1.5q11 -6 16.5 -12.5t9.5 -9.5
q2 -2 4 -3t5 -1l-1.5 -3.5t-7.5 -8.5q-5 -4 -15 -8t-27 -4q-9 0 -16 1l-14 2q-2 0 -3.5 0.5t-2.5 0.5q-9 2 -19 3t-26 1q-8 0 -15 -1t-14 -3q-1 0 -2 -0.5l-1 -0.5l-12 -2t-12 -1q-5 0 -10.5 1t-10.5 3q-6 1 -11 3.5t-10 4.5q-9 4 -14 7.5t-3 4.5q4 2 7 4.5t6 6.5q1 1 2.5 2
t2.5 3l6.5 6.5t7.5 5.5l4 2l4 2t3.5 2t3.5 1q10 5 17.5 11.5t7.5 22.5v24v24q0 20 -0.5 40.5t-0.5 42.5q0 35 -0.5 74.5t-0.5 87.5v0zM245 347q0 4 -4.5 8t-10.5 8t-14 7.5t-15 7.5q-10 4 -19.5 7.5t-15.5 6.5q-1 1 -2.5 1.5t-3.5 1.5q-31 14 -60.5 35t-50.5 43
q-14 16 -22.5 31t-8.5 28q0 20 16.5 30.5t36.5 13.5h4.5h4.5h4h5q5 -1 10.5 -1.5t10.5 -1.5q8 -1 16.5 -2t17.5 -1q10 0 18 1l16 2q7 1 15 2t18 1q16 0 30.5 -6t25.5 -13q9 -7 14.5 -12.5t4.5 -6.5q-5 -9 -11 -14t-13 -8q-3 -2 -7 -3.5t-7 -2.5q-9 -3 -16 -8t-10 -18l-2 -12
t-2 -13q0 -9 -1 -18t-1 -19q0 -1 -0.5 -1h-1.5q-4 0 -18.5 7t-31.5 17l-10 6l-10 6q-6 4 -11 8t-9 7q-1 1 -2 3l-3 6l-2 6t-2 7q0 2 -0.5 4t-0.5 4q0 7 -5 10.5t-11 3.5q-5 0 -9.5 -3t-4.5 -11v-4t1 -4q4 -20 28 -39.5t52 -33.5q1 -1 2.5 -1.5t2.5 -1.5q7 -3 14 -6.5
t14 -6.5q2 -1 4.5 -2t5.5 -2q30 -13 54 -28t24 -41q0 -22 -7 -32.5t-16 -14.5q-3 -2 -7 -2.5t-7 -0.5h-0.5h-1.5h-3.5h-1.5q3 5 4 8.5t1 5.5v1.5v1.5q-1 2 -1.5 3.5t-0.5 4.5q-1 3 -2 7t-1 10q0 3 0.5 5.5t1.5 5.5q0 3 0.5 6t0.5 6v0zM131 685q0 5 2.5 9.5t6.5 8.5q5 5 10 7
t9 2q14 0 25.5 -14.5t20.5 -31.5q8 -17 13 -31.5l5 -14.5l-14.5 5t-31.5 14t-31.5 21t-14.5 25v0v0v0z" />
    <glyph glyph-name="Oacute" unicode="&#xd3;" horiz-adv-x="535" 
d="M494 283q0 -108 -46 -197.5t-127 -89.5q-9 0 -15.5 1.5t-13.5 2.5q-7 2 -13.5 3.5t-15.5 1.5t-16.5 -1.5t-14.5 -3.5q-7 -1 -14.5 -2.5t-16.5 -1.5q-74 0 -117 85.5t-43 191.5v7.5v6.5q3 108 57.5 198.5t172.5 90.5q115 0 168.5 -90.5t54.5 -199.5v-1.5v-1.5v0zM169 188
q0 -4 1 -7.5t2 -7.5q8 -21 33.5 -39t54.5 -21h4h4q65 0 101.5 56.5t43.5 124.5q1 8 1.5 16.5t0.5 16.5q0 10 -2 24t-6 28q-2 9 -4.5 18t-4.5 17q-7 21 -12.5 31.5t-5.5 -2.5v-0.5v-1.5v-1.5v-0.5v-0.5v-0.5v-0.5v-0.5q0 -19 -14 -35.5t-36 -32.5q-13 -9 -27 -18l-28 -18
q-40 -27 -73 -60.5t-33 -84.5v0zM116 320q0 -7 1 -16t2 -19q2 -13 5 -25.5t6 -17.5q2 -4 3.5 -3.5t3.5 6.5q15 46 43.5 74t59.5 48q15 9 29.5 17t27.5 16q24 15 40.5 31.5t16.5 40.5q0 22 -23.5 39t-51.5 22q-4 0 -8 0.5t-8 0.5q-65 0 -101.5 -56.5t-43.5 -124.5
q-1 -8 -1.5 -16.5t-0.5 -16.5v0zM296 712q5 0 9.5 -2t9.5 -7q5 -4 7 -8.5t2 -9.5q0 -13 -14.5 -25t-31.5 -21t-31.5 -14l-14.5 -5l5 14.5t14 31.5q8 17 20 31.5t25 14.5v0z" />
    <glyph glyph-name="Ocircumflex" unicode="&#xd4;" horiz-adv-x="535" 
d="M494 283q0 -108 -46 -197.5t-127 -89.5q-9 0 -15.5 1.5t-13.5 2.5q-7 2 -13.5 3.5t-15.5 1.5t-16.5 -1.5t-14.5 -3.5q-7 -1 -14.5 -2.5t-16.5 -1.5q-74 0 -117 85.5t-43 191.5v7.5v6.5q3 108 57.5 198.5t172.5 90.5q115 0 168.5 -90.5t54.5 -199.5v-1.5v-1.5v0zM169 188
q0 -4 1 -7.5t2 -7.5q8 -21 33.5 -39t54.5 -21h4h4q65 0 101.5 56.5t43.5 124.5q1 8 1.5 16.5t0.5 16.5q0 10 -2 24t-6 28q-2 9 -4.5 18t-4.5 17q-7 21 -12.5 31.5t-5.5 -2.5v-0.5v-1.5v-1.5v-0.5v-0.5v-0.5v-0.5v-0.5q0 -19 -14 -35.5t-36 -32.5q-13 -9 -27 -18l-28 -18
q-40 -27 -73 -60.5t-33 -84.5v0zM116 320q0 -7 1 -16t2 -19q2 -13 5 -25.5t6 -17.5q2 -4 3.5 -3.5t3.5 6.5q15 46 43.5 74t59.5 48q15 9 29.5 17t27.5 16q24 15 40.5 31.5t16.5 40.5q0 22 -23.5 39t-51.5 22q-4 0 -8 0.5t-8 0.5q-65 0 -101.5 -56.5t-43.5 -124.5
q-1 -8 -1.5 -16.5t-0.5 -16.5v0zM277 757l139 -137q1 0 -16 12t-41 27q-4 3 -8.5 6t-9.5 6q-19 11 -36.5 19.5t-27.5 8.5t-27.5 -8.5t-36.5 -19.5q-5 -3 -9.5 -6t-9.5 -5q-23 -15 -39.5 -27.5l-16.5 -12.5l139 137v0z" />
    <glyph glyph-name="uniF000" unicode="&#xf000;" 
 />
    <glyph glyph-name="Ograve" unicode="&#xd2;" horiz-adv-x="535" 
d="M494 283q0 -108 -46 -197.5t-127 -89.5q-9 0 -15.5 1.5t-13.5 2.5q-7 2 -13.5 3.5t-15.5 1.5t-16.5 -1.5t-14.5 -3.5q-7 -1 -14.5 -2.5t-16.5 -1.5q-74 0 -117 85.5t-43 191.5v7.5v6.5q3 108 57.5 198.5t172.5 90.5q115 0 168.5 -90.5t54.5 -199.5v-1.5v-1.5v0zM169 188
q0 -4 1 -7.5t2 -7.5q8 -21 33.5 -39t54.5 -21h4h4q65 0 101.5 56.5t43.5 124.5q1 8 1.5 16.5t0.5 16.5q0 10 -2 24t-6 28q-2 9 -4.5 18t-4.5 17q-7 21 -12.5 31.5t-5.5 -2.5v-0.5v-1.5v-1.5v-0.5v-0.5v-0.5v-0.5v-0.5q0 -19 -14 -35.5t-36 -32.5q-13 -9 -27 -18l-28 -18
q-40 -27 -73 -60.5t-33 -84.5v0zM116 320q0 -7 1 -16t2 -19q2 -13 5 -25.5t6 -17.5q2 -4 3.5 -3.5t3.5 6.5q15 46 43.5 74t59.5 48q15 9 29.5 17t27.5 16q24 15 40.5 31.5t16.5 40.5q0 22 -23.5 39t-51.5 22q-4 0 -8 0.5t-8 0.5q-65 0 -101.5 -56.5t-43.5 -124.5
q-1 -8 -1.5 -16.5t-0.5 -16.5v0zM256 685q0 5 2.5 9.5t6.5 8.5q5 5 10 7t9 2q14 0 25.5 -14.5t20.5 -31.5q8 -17 13 -31.5l5 -14.5l-14.5 5t-31.5 14t-31.5 21t-14.5 25v0v0v0z" />
    <glyph glyph-name="Uacute" unicode="&#xda;" horiz-adv-x="546" 
d="M512 546q0 -10 -9.5 -15.5t-20.5 -10.5h-0.5h-1.5q-11 -5 -19.5 -10t-8.5 -14v-86v-94v-121.5v-104.5q0 -11 7 -15t16 -6q1 0 2 -0.5t2 -0.5q4 -1 8 -2.5t7 -3.5q13 -9 19 -17t11 -14q2 -3 4.5 -5t5.5 -4q1 0 -6 -5t-18 -10q-7 -3 -14 -5.5t-15 -4.5q-6 -2 -12 -3t-11 -1
q-12 0 -22 2t-20 5h-0.5h-1.5q-10 2 -20.5 4t-23.5 2q-20 0 -36.5 -2.5t-32.5 -4.5q-16 -3 -32.5 -5.5t-36.5 -2.5q-86 0 -140 69t-54 154q0 50 22 98.5t48 88.5t48 68t22 37q0 12 -8.5 16t-25.5 4h-5t-6 -1q-9 -1 -17 -4.5t-8 -11.5q0 -6 7.5 -14.5t24.5 -20.5q2 -1 -4 -5
t-13 -14q-1 -1 -2.5 -3t-2.5 -4l-15.5 8.5t-34.5 21.5q-19 14 -34.5 31.5t-15.5 36.5q0 11 8.5 17t18.5 7h2.5h2.5h54.5h61.5h24h24h2.5h2.5q12 -1 21.5 -6.5t9.5 -17.5v-1.5v-0.5q-1 -24 -19.5 -49t-40.5 -55q-22 -32 -41 -71.5t-19 -92.5q0 -67 31 -118.5t125 -51.5
q29 0 48.5 13t19.5 57q0 19 -10 43.5t-26 49.5q-13 21 -28.5 41t-31.5 37q-20 22 -39.5 37.5t-33.5 20.5l2.5 4.5t5.5 9.5q3 4 6.5 7.5t6.5 5.5l38 -21.5t90 -88.5q2 -2 4.5 -4t6.5 -2h1.5h0.5q3 0 5 3.5t2 10.5v79v83q0 12 -8.5 18t-19.5 11q-10 5 -19 11t-9 18
q0 10 22.5 14.5t50.5 4.5q9 1 18.5 1h18.5h16.5h16.5q27 -1 49 -5.5t22 -18.5v0zM296 712q5 0 9.5 -2t9.5 -7q5 -4 7 -8.5t2 -9.5q0 -13 -14.5 -25t-31.5 -21t-31.5 -14l-14.5 -5l5 14.5t14 31.5q8 17 20 31.5t25 14.5v0z" />
    </font>
</defs>
</svg>
